<svg width="335" height="55" fill="none" xmlns="http://www.w3.org/2000/svg"><path d="M23.662 55L7.68 45.775c-2.28-1.268-4.438-2.617-6.677-3.817a1.781 1.781 0 01-.998-1.74v-25.49A1.767 1.767 0 011.017 13 1843.701 1843.701 0 0022.934.323a1.942 1.942 0 012.144 0 7030.99 7030.99 0 0021.85 12.53 2.172 2.172 0 011.24 2.117v25.073a2.05 2.05 0 01-1.187 1.996c-7.454 4.28-14.907 8.569-22.362 12.867l-.08.094h-.877zM2.77 27.419v11.64a1.052 1.052 0 00.62 1.051c6.735 3.83 13.416 7.679 20.043 11.545a1.092 1.092 0 001.348 0 3880.37 3880.37 0 0120.002-11.558 1.092 1.092 0 00.634-1.12V16.05a1.16 1.16 0 00-.661-1.187c-6.717-3.875-13.424-7.75-20.123-11.626a.97.97 0 00-1.106 0 13386.58 13386.58 0 01-20.11 11.6 1.12 1.12 0 00-.66 1.118c.027 3.804.013 7.634.013 11.465zM139.827 31.532a3.75 3.75 0 00.203-.324c1.483-3.884 2.98-7.769 4.424-11.667.256-.647.795-1.456-.338-1.942-.094 0 0-.431-.081-.715h5.84c.162.472 0 .715-.364 1.025-.39.378-.69.84-.876 1.35a1611.277 1611.277 0 01-5.476 14.484 18.464 18.464 0 00-.715 1.875c-.047.302.01.611.162.877.172.32.375.623.607.904h-6.987c.204-.294.38-.605.526-.931a1.57 1.57 0 000-.93c-.634-1.875-1.348-3.737-1.969-5.611-.737-2.15-1.47-4.298-2.198-6.447l-.297-.77c-.499 1.565-1.025 2.914-1.578 4.263-1.079 2.697-2.185 5.462-3.264 8.2-.202.526-.62 1.133.337 1.443.108 0 .095.459.149.755h-5.894c.167-.285.302-.588.404-.903.088-.35.088-.716 0-1.066-.795-2.171-1.632-4.343-2.454-6.5-1.295-3.278-2.644-6.65-3.898-10.021a7.719 7.719 0 00-.877-1.16 4.552 4.552 0 01-.35-.864h6.258a4.582 4.582 0 01-.526.89c-.392.392-.243.796-.095 1.2.958 2.698 1.942 5.288 2.9 7.945.566 1.538 1.119 3.088 1.726 4.747.11-.152.204-.315.284-.485 1.429-3.983 2.854-7.967 4.275-11.95.111-.236.167-.494.162-.755a2.081 2.081 0 00-.351-.715c-.148-.243-.324-.485-.58-.877h6.865v.648c-.944.485-1.011.566-.674 1.483 1.51 4.1 3.025 8.2 4.545 12.3.067.095.121.136.175.244zM93.701 24.977h7.89c.275-.052.533-.167.755-.337.257-.149.513-.324.89-.567v5.395c-.404-.27-.66-.445-.93-.607a1.348 1.348 0 00-.567-.27l-7.903-.067s-.081 0-.148.095v5.395h11.437c.741 0 1.497.067 1.901-.81.068-.135.459-.121.769-.189v5.112a7.218 7.218 0 00-.877-.364 3.753 3.753 0 00-1.065-.27H88.32c.27-.431.472-.701.607-.984.172-.327.278-.684.31-1.052V21.969v-3.223c0-.35-.324-.674-.472-1.025-.149-.35-.19-.526-.31-.904h16.319c.715 0 1.457.108 1.875-.728 0-.135.445-.094.742-.135v5.395c-.405-.243-.661-.432-.931-.58a3.148 3.148 0 00-1.079-.458h-11.68v4.666zM176.931 21.323a5.907 5.907 0 00-.782-.499 3.332 3.332 0 00-1.228-.458H163.39v4.653h7.485c.486 0 .998 0 1.349-.553.081-.162.472-.149.782-.243v4.963c-.364.081-.715.27-.931-.27a.678.678 0 00-.512-.31h-8.092v5.395h11.72a1.539 1.539 0 001.592-.755c.08-.162.472-.162.795-.27v5.152a8.612 8.612 0 00-.89-.39 4.383 4.383 0 00-1.146-.257h-17.534a9.89 9.89 0 00.634-.998c.163-.33.263-.686.297-1.052V19.705a8.123 8.123 0 000-1.147 2.26 2.26 0 00-.31-.687c-.149-.284-.324-.567-.594-1.012h16.819c.607 0 1.2 0 1.524-.688 0-.121.378-.162.566-.135.189.027.23.216.23.337v4.802l-.243.148zM320.003 20.339v4.653h7.391c.54 0 1.106 0 1.349-.594.067-.134.445-.107.742-.175v4.923c-.391.108-.755.283-.958-.31 0-.135-.35-.27-.539-.27h-8.025v5.395H331.589c.661 0 1.349 0 1.659-.742.081-.162.458-.175.782-.283v5.125a8 8 0 00-.85-.364 4.38 4.38 0 00-1.146-.256H314.5c.257-.432.432-.688.567-.958.171-.241.286-.518.337-.81V18.64c0-.296-.283-.593-.431-.89-.149-.296-.216-.499-.405-.93h16.576c.674 0 1.348 0 1.726-.715.068-.121.418-.121.715-.189v5.476a5.543 5.543 0 00-.863-.553 4.499 4.499 0 00-1.484-.5h-11.235zM260.484 36.725v.688h-6.191a.772.772 0 01.378-.984 2.99 2.99 0 001.025-1.241c2.401-5.18 4.784-10.367 7.148-15.564.311-.648.742-1.35.135-2.05-.108-.135 0-.419 0-.688h7.175a4.65 4.65 0 00-.431.998 1.666 1.666 0 000 .998c2.279 4.815 4.585 9.616 6.878 14.431.31.62.567 1.268.917 1.861.351.594.783 1.08 1.174 1.619l.189-.121v.755h-6.744c.167-.243.32-.496.459-.755.134-.297.377-.675.296-.918-.418-1.092-.917-2.144-1.429-3.196a.705.705 0 00-.526-.243h-9.145a.879.879 0 00-.607.35c-.499.864-.971 1.754-1.348 2.698-.378.944-.27 1.052.647 1.362zm9.441-7.917l-3.79-7.822-3.304 7.822h7.094zM247.739 18.558l-3.197 4.6a6.463 6.463 0 01-.526-.553c-.31-.392-.526-.945-.931-1.174a10.56 10.56 0 00-9.441-.58c-4.41 1.848-4.841 7.958-1.861 11.06a7.515 7.515 0 007.162 2.225 12.691 12.691 0 004.828-1.767 1.643 1.643 0 00.904-1.591c0-.243.189-.513.364-.904L248.615 35c-.27 0-.499.176-.647.108a2.106 2.106 0 00-1.915.297 18.698 18.698 0 01-9.199 2.212 12.039 12.039 0 01-8.766-3.493 10.201 10.201 0 01-2.39-9.624 10.214 10.214 0 016.908-7.114 16.184 16.184 0 0111.72.647c.404.212.829.379 1.268.5.422.04.846.04 1.268 0l.877.026zM286.595 16.831h18.221c.648 0 1.349 0 1.659-.714 0-.122.445-.108.742-.19v5.153c-.391-.175-.688-.31-.971-.418a2.503 2.503 0 00-.877-.297H292.3v4.936h8.254c.459 0 .891 0 1.174-.499.094-.175.472-.189.796-.296v5.165c-.378-.23-.634-.39-.891-.526-.256-.135-.472-.377-.714-.39h-8.484s-.081 0-.189.107v6.325c0 .58.095 1.35 1.025 1.444v.768h-6.379v-.714c.89-.122.944-.742.944-1.47V18.922c0-.58 0-1.093-.742-1.349-.283.054-.337-.364-.499-.742zM194.221 16.912v.755c-.944 0-1.038.594-1.038 1.35v14.916h12.341a1.603 1.603 0 001.659-.742c.094-.175.499-.189.822-.297v5.045a8.956 8.956 0 00-.944-.337 5.91 5.91 0 00-1.173-.19h-18.316v-.728c1.147-.35 1.146-.35 1.146-1.578V19.07c0-1.16 0-1.16-1.159-1.457v-.7h6.662zM60.307 36.873c0-.216-.189-.485-.122-.66.661-1.673 1.35-3.346 2.05-5.018l.23-.095c.162.257.431.513.445.77a1.632 1.632 0 001.025 1.51 8.659 8.659 0 006.218.634 2.225 2.225 0 001.78-2.388v-5.03-7.459a1.457 1.457 0 00-.756-1.348c-.229-.149-.35-.473-.62-.89h7.175v.768c-1.092.189-1.348.93-1.281 1.942 0 3.763-.067 7.513 0 11.262.135 4.465-2.441 6.204-6.11 6.622a17.533 17.533 0 01-7.917-.93 1.848 1.848 0 00-2.117.31z" fill="#DE1122"/><path d="M8.3 35.78l-.62-.405 2.4-5.53c.289.239.543.515.756.823a3.87 3.87 0 001.996 1.7c.189-5.611 3.439-8.43 8.55-9.644v-4.262-2.872a1.456 1.456 0 00-1.078-1.578c-.526-.176-.513-.19-.391-.864h8.294v.688c-.292.059-.58.136-.863.23a1.348 1.348 0 00-.998 1.348v6.744c0 .445.202.526.58.62 1.807.445 3.601.958 5.395 1.349.331.041.666.041.998 0l.175-.27c.068.23.284.54.189.675-.823 1.348-1.7 2.697-2.59 4.046-.148-.122-.31-.175-.323-.256-.149-1.08-1.025-1.444-1.875-1.78-.85-.338-1.618-.513-2.563-.81v3.493c0 3.898-1.888 6.177-5.759 6.92l-1.928.323a6.298 6.298 0 003.034 1.7 11.53 11.53 0 008.74-1.269c.58-.323 1.255-.687 1.039-1.591 0-.148.135-.337.202-.5l.256.19 2.347 3.75c-2.954 1.173-5.678 2.791-8.888 2.966-2.38.164-4.765-.219-6.973-1.12a9.36 9.36 0 01-4.424-3.748c-.22-.283-.52-.49-.863-.594-1.052-.324-2.13-.553-3.196-.85-.553-.148-1.147-.242-1.619.378zm8.7-2.563c.755-.148 1.483-.256 2.198-.431a2.55 2.55 0 002.104-2.414c.094-1.35 0-2.806 0-4.208a6.002 6.002 0 00-4.303 7.053z" fill="#DE1122"/></svg>