<svg width="164" height="100" viewBox="0 0 164 100" fill="none" xmlns="http://www.w3.org/2000/svg">
<path d="M113.141 36.455C112.15 34.2297 110.053 32.8532 107.657 32.8532C107.5 32.8532 107.343 32.8603 107.179 32.8675C107.008 32.8817 106.829 32.9031 106.651 32.9245C106.38 32.9673 106.109 33.0244 105.838 33.0957C105.952 29.8433 105.196 26.3984 104.312 22.8822C104.019 21.7268 103.613 20.6213 103.113 19.5585C104.597 18.346 105.581 16.7199 105.774 14.8655C105.995 12.7186 105.153 10.6146 103.413 8.93851C101.751 7.34087 99.4473 6.32095 96.9296 6.06419C96.523 6.02139 96.1022 6 95.6957 6C93.021 6 90.6246 6.9058 88.9342 8.36793C86.766 7.79021 84.4623 7.48351 82.0801 7.48351C79.7977 7.48351 77.5368 7.77594 75.3614 8.34653C71.1391 9.45917 67.1236 11.6916 63.857 14.68C63.2436 14.5445 62.5946 14.4732 61.9241 14.4732C59.8201 14.4732 57.6233 15.1793 55.7404 16.4631C51.3184 19.4658 49.6993 24.8222 52.1314 28.4098C53.0515 29.7649 54.4494 30.7135 56.1255 31.1628C56.1612 32.4253 56.3252 33.6805 56.6391 34.9144C58.4578 42.1181 60.6403 48.3589 67.3376 50.7411C64.5631 54.0505 61.9526 58.5937 60.5547 62.6306C60.5476 62.652 60.5333 62.6734 60.5262 62.6877C60.2338 63.5364 59.9984 64.3495 59.8272 65.1127C59.7702 65.3623 59.7202 65.6048 59.6774 65.8402C59.5776 66.3894 59.5277 66.9314 59.5134 67.4664C59.4492 69.7772 60.1482 71.9455 61.5176 73.5859C62.8941 75.2335 64.8127 76.1749 66.7884 76.1749C67.4445 76.1749 68.0936 76.0679 68.7141 75.8682C69.1634 75.7256 69.5985 75.5259 70.0122 75.2762C69.4345 77.3803 69.0279 79.5271 68.8639 81.5242C68.8639 81.5313 68.8567 81.5384 68.8567 81.5527C68.8496 81.6311 68.8496 81.7025 68.8425 81.7738C68.8282 81.9378 68.8211 82.109 68.8139 82.2731C68.8068 82.38 68.8068 82.4942 68.7997 82.6011C68.7925 82.7581 68.7925 82.915 68.7854 83.0719C68.7854 83.1717 68.7854 83.2787 68.7854 83.3786C68.7854 83.5426 68.7854 83.7066 68.7925 83.8636C68.7925 83.9491 68.7925 84.0419 68.7997 84.1274C68.8068 84.3699 68.8211 84.6053 68.8425 84.8407C69.1706 88.8205 72.1233 93.05 76.9377 93.05C77.28 93.05 77.6366 93.0215 77.9932 92.9644C78.5852 92.8717 79.1915 92.6934 79.7835 92.4295C81.3312 91.7305 82.7862 90.411 83.6991 88.2214C83.7062 88.2 83.7134 88.1715 83.7276 88.1501C83.8203 87.9219 83.9131 87.6793 83.9915 87.4297C84.0842 87.1516 84.1627 86.8663 84.2412 86.5667C84.3125 86.2886 84.3767 86.0032 84.4337 85.7108C84.448 85.6395 84.4623 85.5682 84.4765 85.504C84.5265 85.2544 84.5764 85.0047 84.6192 84.748C84.6263 84.7123 84.6334 84.6766 84.6406 84.641C84.6406 84.6338 84.6406 84.6267 84.6406 84.6196C84.8189 83.5569 84.9544 82.4442 85.04 81.2959C85.1256 82.4371 85.2611 83.5569 85.4394 84.6196C85.4394 84.6267 85.4394 84.6267 85.4394 84.6339C85.4465 84.6695 85.4536 84.7052 85.4608 84.7337C85.5036 84.9833 85.5535 85.233 85.6034 85.4755C85.6177 85.5539 85.632 85.6324 85.6534 85.7108C85.7104 85.9747 85.7675 86.2315 85.8317 86.4811C85.8388 86.5025 85.8459 86.531 85.8459 86.5596C87.0228 91.3026 90.3536 93.0143 93.0995 93.0357C93.1209 93.0357 93.1352 93.0357 93.1566 93.0357C97.4074 93.0357 100.203 89.7335 101.024 86.2244C101.13 85.7608 101.209 85.29 101.245 84.8264C101.245 84.8264 101.245 84.8264 101.245 84.8193C101.266 84.5839 101.28 84.3486 101.287 84.1061C101.287 84.0347 101.287 83.9634 101.295 83.885C101.302 83.7066 101.302 83.5283 101.302 83.35C101.302 83.2644 101.302 83.1717 101.302 83.0861C101.302 82.915 101.295 82.7438 101.287 82.5655C101.28 82.4656 101.28 82.3658 101.273 82.2659C101.266 82.1019 101.252 81.945 101.245 81.7809C101.237 81.7025 101.237 81.624 101.23 81.5384C101.23 81.5313 101.223 81.517 101.223 81.5099C100.959 78.279 100.054 74.6771 98.8482 71.4605C99.6042 70.5903 100.175 69.6845 100.517 68.7716C101.944 64.9986 101.708 58.4368 98.3346 51.7895C102.029 50.8552 106.487 48.6727 109.568 46.2477C109.604 46.2263 109.632 46.2049 109.668 46.1835C110.11 45.8269 110.517 45.4774 110.888 45.1208C110.937 45.0709 110.987 45.0209 111.044 44.971C111.123 44.8997 111.194 44.8212 111.273 44.7499C111.408 44.6144 111.537 44.4789 111.658 44.3434C113.712 42.061 114.29 39.0298 113.141 36.455Z" fill="white"/>
<path d="M100.011 84.7478C100.681 76.6812 94.8967 62.4379 90.8527 62.9158C86.8086 63.3936 84.9186 77.7225 87.044 86.2813C89.1623 94.8472 99.3401 92.8145 100.011 84.7478Z" fill="#E10012"/>
<path d="M70.0693 84.7478C69.3989 76.6812 75.1832 62.4379 79.2272 62.9158C83.2712 63.3936 85.1613 77.7225 83.0359 86.2813C80.9176 94.8472 70.7397 92.8145 70.0693 84.7478Z" fill="#E10012"/>
<path d="M99.3474 68.3579C102.799 59.2285 94.0909 42.1609 85.3823 42.1609C76.6738 42.1609 69.0636 58.2799 71.4173 68.3579C73.7781 78.4359 95.9025 77.4873 99.3474 68.3579Z" fill="#E10012"/>
<path d="M99.9892 81.6667C100.075 82.758 100.089 83.7993 100.011 84.755C99.3402 92.8217 89.1624 94.8544 87.037 86.2885C86.8943 85.7037 86.7659 85.0831 86.6589 84.4483C88.2423 85.7036 90.0896 86.424 92.051 86.424C95.1892 86.424 98.0207 84.591 99.9892 81.6667Z" fill="#F6D5C3"/>
<path d="M70.0905 81.6667C70.0049 82.758 69.9907 83.7993 70.0691 84.755C70.7396 92.8217 80.9174 94.8544 83.0428 86.2885C83.1855 85.7037 83.3138 85.0831 83.4208 84.4483C81.8375 85.7036 79.9902 86.424 78.0288 86.424C74.8834 86.424 72.059 84.591 70.0905 81.6667Z" fill="#F6D5C3"/>
<path d="M60.8974 66.0753C62.3167 58.1157 71.1537 45.9123 74.6984 47.46C78.2432 49.0077 76.3531 63.3365 72.2734 71.0323C68.1938 78.7209 59.4709 74.035 60.8974 66.0753Z" fill="#E10012"/>
<path d="M61.6888 63.1013C61.3321 64.1355 61.0611 65.134 60.8899 66.0755C59.4706 74.0352 68.1863 78.7282 72.266 71.0325C72.5441 70.5047 72.8152 69.9412 73.0719 69.3635C71.3174 70.1481 69.4701 70.3478 67.687 69.8271C64.8412 68.9712 62.7443 66.4464 61.6888 63.1013Z" fill="#F6D5C3"/>
<path d="M110.723 43.5375C106.33 48.416 94.6971 52.9165 92.7286 50.2633C90.76 47.6101 98.1777 38.5235 104.418 35.0215C110.659 31.5124 115.117 38.659 110.723 43.5375Z" fill="#E10012"/>
<path d="M108.89 45.2421C109.582 44.6858 110.203 44.1152 110.723 43.5375C115.117 38.659 110.659 31.5124 104.418 35.0215C103.991 35.264 103.555 35.5279 103.12 35.8203C104.747 36.0628 106.194 36.7475 107.286 37.9101C109.033 39.7645 109.518 42.4534 108.89 45.2421Z" fill="#F6D5C3"/>
<path d="M87.7218 13.0324C87.3509 16.6699 90.8172 20.0007 95.4675 20.4786C100.118 20.9564 104.183 18.3888 104.554 14.7513C104.925 11.1138 101.459 7.78302 96.8155 7.30516C92.1581 6.82729 88.0927 9.3878 87.7218 13.0324Z" fill="#E10012"/>
<path d="M92.001 14.1094C91.7371 16.7127 94.212 19.0949 97.5357 19.4301C100.859 19.7725 103.769 17.9395 104.033 15.3362C104.297 12.74 101.822 10.3507 98.4985 10.0155C95.1749 9.67313 92.272 11.5061 92.001 14.1094Z" fill="#ED9575"/>
<path d="M67.1521 18.2176C69.2062 21.2417 67.737 25.8206 63.8712 28.4453C60.0055 31.07 55.2055 30.742 53.1514 27.7178C51.0973 24.6937 52.5665 20.1148 56.4322 17.4901C60.298 14.8725 65.098 15.1935 67.1521 18.2176Z" fill="#E10012"/>
<path d="M63.8926 21.2061C65.3618 23.3672 64.3134 26.6409 61.546 28.5167C58.7858 30.3925 55.3552 30.1572 53.8859 27.9961C52.4167 25.835 53.4723 22.5612 56.2325 20.6854C58.9927 18.8096 62.4233 19.0379 63.8926 21.2061Z" fill="#ED9575"/>
<path d="M57.83 34.622C60.6116 45.6486 63.9424 54.3215 85.5177 48.8796C107.093 43.4376 105.909 34.2226 103.12 23.1961C100.339 12.1695 87.3008 6.49929 75.6822 9.55906C64.5558 12.4833 55.0484 23.5883 57.83 34.622Z" fill="#E10012"/>
<path d="M77.4082 31.769C77.829 33.4451 79.769 34.3937 81.7376 33.9016C83.7061 33.4023 84.9614 31.6478 84.5406 29.9717C84.1197 28.2956 82.1798 27.347 80.2112 27.8391C78.2356 28.3312 76.9874 30.0929 77.4082 31.769Z" fill="white"/>
<path d="M79.6124 43.4091C80.7821 43.5946 82.0802 43.5304 83.364 43.2522C83.3568 43.131 83.3854 43.0026 83.4638 42.8956C85.4181 40.3066 83.1357 35.4851 80.5824 32.1329C80.4041 31.8976 80.4468 31.5552 80.6822 31.3769C80.9176 31.1986 81.2528 31.2414 81.4382 31.4767C82.3868 32.7249 86.7875 38.8516 84.7405 42.8671C85.8175 42.4962 86.8588 41.9826 87.7717 41.3407C88.0142 41.1696 88.3495 41.2266 88.5206 41.4691C88.6918 41.7116 88.6348 42.0468 88.3923 42.218C85.8175 44.0368 82.3013 44.9212 79.4412 44.4718C79.1488 44.4219 78.9491 44.1509 78.9919 43.8584C79.0418 43.5589 79.3199 43.3592 79.6124 43.4091Z" fill="white"/>
<path d="M90.7814 26.0989C91.6658 27.2115 93.1565 27.5039 94.1122 26.7479C95.0679 25.9919 95.125 24.4727 94.2477 23.3601C93.3633 22.2474 91.8726 21.955 90.9169 22.711C89.954 23.467 89.897 24.9862 90.7814 26.0989Z" fill="white"/>
<path d="M71.3673 30.9988C71.1177 32.3967 69.948 33.3596 68.7497 33.1528C67.5515 32.9388 66.7741 31.6336 67.0237 30.2356C67.2733 28.8377 68.443 27.8748 69.6484 28.0817C70.8466 28.2885 71.6169 29.6009 71.3673 30.9988Z" fill="white"/>
<path d="M93.2778 54.721L85.5321 50.249C85.3823 50.1634 85.204 50.1634 85.0613 50.249L77.3228 54.721C77.173 54.8066 77.0874 54.9635 77.0874 55.1275V64.0643C77.0874 64.2355 77.1801 64.3924 77.3228 64.478L85.0613 68.95C85.2111 69.0355 85.3894 69.0355 85.5321 68.95L93.2778 64.478C93.4204 64.3924 93.5131 64.2355 93.5131 64.0643V55.1275C93.5131 54.9635 93.4276 54.8066 93.2778 54.721Z" fill="#E10012"/>
<path d="M85.0613 50.2566L77.3228 54.7285C77.173 54.8141 77.0874 54.971 77.0874 55.1351V64.0719C77.0874 64.2431 77.1801 64.4 77.3228 64.4856L85.0613 68.9575C85.2111 69.0431 85.3894 69.0431 85.5321 68.9575L93.2778 64.4856C93.4204 64.4 93.5131 64.2431 93.5131 64.0719V55.1351C93.5131 54.9639 93.4204 54.807 93.2778 54.7285L85.5321 50.2566C85.3894 50.171 85.2111 50.171 85.0613 50.2566ZM85.2967 51.2123C85.7246 51.4619 92.1366 55.1636 92.5645 55.4133C92.5645 55.9125 92.5645 63.3087 92.5645 63.808C92.1366 64.0576 85.7246 67.7593 85.2967 68.0018C84.8688 67.7522 78.4568 64.0576 78.0289 63.808C78.0289 63.3087 78.0289 55.9125 78.0289 55.4133C78.4639 55.1565 84.8688 51.4548 85.2967 51.2123Z" fill="white"/>
<path d="M80.5035 60.4552L80.746 60.548C80.7745 60.712 80.853 60.8546 80.9814 60.9759C81.1098 61.0971 81.2595 61.197 81.445 61.2826C81.6304 61.3682 81.823 61.4324 82.037 61.4823C82.2509 61.5251 82.4506 61.5465 82.6432 61.5465C83.2495 61.5465 83.6917 61.4609 83.9698 61.2826C84.248 61.1043 84.3835 60.7762 84.3835 60.2912V55.427C84.3835 55.2843 84.3264 55.1773 84.1981 55.0917C84.0768 55.0133 83.9627 54.9705 83.8486 54.9705V54.6995H86.7229V54.9705C86.5517 54.9705 86.4019 55.0133 86.2807 55.0917C86.1594 55.1702 86.1024 55.2843 86.1024 55.427V60.4267C86.1024 60.819 86.0168 61.1685 85.8528 61.4609C85.6887 61.7533 85.4533 61.9958 85.1467 62.1884C84.84 62.381 84.4833 62.5165 84.0697 62.5949C83.656 62.6734 83.1995 62.7162 82.6931 62.7162C82.3793 62.7162 82.094 62.6948 81.8301 62.6591C81.5662 62.6163 81.3309 62.5735 81.124 62.5165C80.9172 62.4594 80.7317 62.4095 80.5748 62.3596C80.4179 62.3096 80.2895 62.2883 80.1897 62.2883C80.0827 62.2883 79.99 62.3453 79.9187 62.4666L79.6904 62.3168L80.5035 60.4552Z" fill="white"/>
<path d="M88.6986 63.5722C88.6772 63.5722 88.6487 63.5722 88.6344 63.5651C88.613 63.5579 88.5916 63.5579 88.5631 63.5579C88.5132 63.5579 88.3991 63.6078 88.2136 63.7077C88.0282 63.8076 87.7928 63.9145 87.5147 64.0429C87.2294 64.1642 86.9084 64.2712 86.5518 64.3639C86.188 64.4566 85.8172 64.4994 85.4178 64.4994C84.8971 64.4994 84.405 64.4352 83.9271 64.2997C83.4492 64.1713 83.0284 63.9645 82.6647 63.6934C82.3009 63.4153 82.0085 63.0729 81.8017 62.6664C81.5877 62.2598 81.4807 61.7748 81.4807 61.2257C81.4807 60.6836 81.5877 60.2057 81.8017 59.7921C82.0156 59.3784 82.3009 59.0289 82.6647 58.7507C83.0284 58.4726 83.4492 58.2657 83.9271 58.1231C84.405 57.9804 84.8971 57.9163 85.4178 57.9163C85.8386 57.9163 86.2166 57.9519 86.5518 58.0161C86.8941 58.0803 87.1866 58.1516 87.4433 58.2229C87.7001 58.2943 87.8998 58.3656 88.0496 58.4298C88.1994 58.494 88.2849 58.5296 88.3206 58.5296C88.3634 58.5296 88.3991 58.5082 88.4276 58.4655C88.4561 58.4227 88.4775 58.3941 88.4989 58.3656L88.6844 58.5154L87.7215 60.006L87.6002 59.9204C87.6002 59.899 87.6002 59.8705 87.5931 59.8491C87.586 59.8277 87.586 59.7992 87.5717 59.7635C87.5575 59.6708 87.4719 59.5852 87.3292 59.4854C87.1794 59.3926 87.0011 59.3071 86.78 59.2357C86.5661 59.1644 86.3307 59.1002 86.0953 59.0503C85.8528 59.0004 85.6317 58.9718 85.4249 58.9718C85.0825 58.9718 84.7473 59.0218 84.4335 59.1216C84.1197 59.2215 83.8415 59.3641 83.6133 59.5567C83.3779 59.7421 83.1925 59.9775 83.0498 60.2485C82.9072 60.5267 82.843 60.8405 82.843 61.19C82.843 61.5466 82.9143 61.8604 83.0498 62.1315C83.1925 62.4096 83.3779 62.6379 83.6133 62.8304C83.8486 63.0159 84.1197 63.1657 84.4335 63.2584C84.7473 63.3582 85.0825 63.4081 85.4249 63.4081C85.6888 63.4081 85.9598 63.3796 86.2451 63.3154C86.5304 63.2512 86.7943 63.1728 87.0368 63.0801C87.2722 62.9873 87.4719 62.8804 87.6359 62.7591C87.7999 62.6379 87.8784 62.5309 87.8784 62.4239C87.8784 62.3668 87.8641 62.3169 87.8285 62.2741L87.9997 62.1743L88.8127 63.4795L88.6986 63.5722Z" fill="white"/>
</svg>
