<?xml version="1.0" encoding="UTF-8"?><svg id="_レイヤー_1" xmlns="http://www.w3.org/2000/svg" viewBox="0 0 281 67"><defs><style>.cls-1{fill:#fff;}.cls-2{fill:#34aa37;}.cls-3{fill:none;stroke:#fff;stroke-miterlimit:10;stroke-width:2.02px;}.cls-4{fill:#44ad35;}.cls-5{fill:#348a37;}</style></defs><rect class="cls-2" width="281" height="67" rx="6.65" ry="6.65"/><polyline class="cls-3" points="259.71 26.67 267.74 34.7 259.71 42.73"/><g><path class="cls-1" d="m64.24,29.92c0-11.5-11.45-20.82-25.58-20.82S13.08,18.43,13.08,29.92c0,10.02,8.7,18.38,20.29,20.37v.03s.04,0,.14,0c.45.07.9.14,1.35.19,1.03.29,2.16,1.03,1.88,2.86-.49,3.22-.58,4.62.74,4.62s18.3-9.14,23.49-17.86c2.09-3.01,3.28-6.49,3.28-10.2Z"/><g><path class="cls-4" d="m24.76,25.19c0-.17-.14-.3-.3-.3h-2.06c-.17,0-.3.14-.3.3v10.66c0,.17.14.3.3.3h7.12c.17,0,.3-.14.3-.3v-1.8c0-.17-.14-.3-.3-.3h-4.46c-.17,0-.3-.14-.3-.3v-8.27Z"/><rect class="cls-4" x="31.24" y="24.89" width="2.66" height="11.27" rx=".3" ry=".3"/><path class="cls-4" d="m42.45,29.6c0,.17,0,.44,0,.6v.51c0,.17-.06.21-.13.09s-.35-.53-.44-.67l-3.37-4.98c-.09-.14-.3-.25-.47-.25h-1.77c-.17,0-.3.14-.3.3v10.66c0,.17.14.3.3.3h1.99c.17,0,.3-.14.3-.3v-4.45c0-.17,0-.44,0-.6v-.62c0-.17.07-.19.16-.05l.2.3c.09.14.24.36.33.5l3.33,4.98c.09.14.3.25.47.25h1.71c.17,0,.3-.14.3-.3v-10.66c0-.17-.14-.3-.3-.3h-2c-.17,0-.3.14-.3.3v4.4Z"/><path class="cls-4" d="m50.35,33.77c-.17,0-.3-.14-.3-.3v-1.7c0-.17.14-.3.3-.3h3.72c.17,0,.3-.14.3-.3v-1.77c0-.17-.14-.3-.3-.3h-3.72c-.17,0-.3-.14-.3-.3v-1.22c0-.17.14-.3.3-.3h3.97c.17,0,.3-.14.3-.3v-1.78c0-.17-.14-.3-.3-.3h-6.64c-.17,0-.3.14-.3.3v10.66c0,.17.14.3.3.3h6.88c.17,0,.3-.14.3-.3v-1.78c0-.17-.14-.3-.3-.3h-4.21Z"/></g></g><rect class="cls-5" x="69.77" y="50.81" width="105.9" height="8.56"/><g><path class="cls-1" d="m91.58,15.4c-.73,1.68-1.94,3.98-3.38,5.91,2.13,1.85,4.73,4.6,6,6.15l-2.45,2.13c-1.4-1.94-3.4-4.13-5.42-6.09-2.28,2.41-5.14,4.65-8.09,6.04l-2.22-2.32c3.46-1.29,6.8-3.91,8.82-6.17,1.42-1.61,2.73-3.74,3.2-5.27h-7.29c-.9,0-2.09.13-2.54.15v-3.05c.58.09,1.89.15,2.54.15h7.59c.92,0,1.78-.13,2.21-.28l1.76,1.31c-.17.24-.56.9-.75,1.33Z"/><path class="cls-1" d="m115.67,16c-1.55,2.52-4.3,5.96-7.33,8.41,1.23,1.23,2.5,2.62,3.33,3.63l-2.52,2c-.9-1.2-2.71-3.23-4.11-4.65-1.25-1.27-3.44-3.2-4.73-4.13l2.28-1.83c.86.65,2.28,1.81,3.63,2.99,2.43-1.94,4.45-4.43,5.46-6.19h-11.38c-.86,0-2.02.11-2.47.15v-3.01c.56.09,1.74.19,2.47.19h11.94c.82,0,1.55-.09,2-.24l2.15,1.76c-.3.34-.56.62-.73.9Z"/><path class="cls-1" d="m120.88,26.67l-2.34-1.59c1.44-1.35,3.16-3.72,4.04-5.55l2.45,1.14c-.99,1.91-2.99,4.73-4.15,6Zm9.01-13.38v1.72h4.99c.62,0,1.55-.06,2.13-.15v2.82c-.67-.04-1.51-.06-2.11-.06h-5.01v10c0,1.25-.73,2.02-2.26,2.02-1.14,0-2.41-.04-3.48-.19l-.28-2.67c.92.17,1.87.26,2.41.26s.75-.22.77-.77c.02-.8.02-7.61.02-8.62v-.02h-5.46c-.65,0-1.46.02-2.06.09v-2.84c.65.06,1.4.15,2.06.15h5.46v-1.72c0-.56-.11-1.51-.17-1.87h3.18c-.06.3-.19,1.33-.19,1.87Zm8.04,11.83l-2.52,1.38c-.92-1.83-2.45-4.43-3.51-5.76l2.34-1.27c1.1,1.38,2.82,4.09,3.68,5.66Z"/><path class="cls-1" d="m142.52,13.79c1.81-.15,5.36-.47,9.29-.8,2.22-.19,4.56-.32,6.09-.39l.02,2.75c-1.16.02-3.01.02-4.15.3-2.6.69-4.56,3.46-4.56,6.02,0,3.55,3.31,4.82,6.97,5.01l-1.01,2.95c-4.52-.3-8.77-2.71-8.77-7.38,0-3.1,1.74-5.55,3.2-6.65-2.02.22-6.41.69-8.9,1.23l-.28-2.95c.86-.02,1.7-.06,2.11-.11Zm14.04,6.6l-1.63.73c-.54-1.18-.99-2.02-1.68-2.99l1.59-.67c.54.77,1.31,2.09,1.72,2.93Zm2.49-1.05l-1.61.77c-.58-1.16-1.08-1.96-1.76-2.9l1.57-.73c.54.75,1.35,2.02,1.81,2.86Z"/><path class="cls-1" d="m169.62,13.06c-.02.47-.04.99-.06,1.53,1.42-.17,2.84-.45,3.96-.77l.06,2.67c-1.23.28-2.71.49-4.11.67-.02.65-.02,1.31-.02,1.94v.8c1.46-.37,2.95-.56,4.13-.56,3.31,0,5.91,1.72,5.91,4.69,0,2.54-1.33,4.45-4.75,5.31-.99.22-1.94.28-2.82.34l-.99-2.77c.97,0,1.89-.02,2.65-.15,1.74-.32,3.12-1.18,3.12-2.75,0-1.46-1.29-2.32-3.16-2.32-1.33,0-2.73.22-4.04.6.04,1.7.09,3.38.09,4.11,0,2.67-.95,3.38-2.37,3.38-2.09,0-5.03-1.81-5.03-4.09,0-1.87,2.15-3.83,4.8-4.97-.02-.52-.02-1.03-.02-1.53v-1.81c-.41.02-.8.04-1.14.04-1.44,0-2.28-.02-3.01-.11l-.04-2.6c1.27.15,2.19.17,2.97.17.39,0,.82-.02,1.25-.04.02-.75.02-1.38.02-1.74,0-.45-.09-1.51-.15-1.89h2.97c-.06.39-.15,1.31-.19,1.87Zm-3.23,13.74c.39,0,.69-.17.69-.9,0-.54-.02-1.53-.06-2.69-1.31.71-2.19,1.59-2.19,2.34,0,.67,1.01,1.25,1.57,1.25Zm14.84-10.26l-1.29,2.19c-1.03-.88-3.85-2.49-5.18-3.14l1.18-2.09c1.66.8,4.15,2.22,5.29,3.03Z"/><path class="cls-1" d="m199.15,18.78c-.04,5.16.24,9.23,1.48,9.23.32-.02.41-1.14.45-2.88.49.58,1.14,1.23,1.66,1.59-.19,2.69-.65,3.83-2.3,3.83-3.14,0-3.76-4.11-3.89-9.61h-11.53v-1.78l-.19.17c-.49-.43-1.7-1.25-2.32-1.61,2.13-1.61,3.74-4.39,4.58-7.35l2.67.56c-.17.54-.34,1.08-.54,1.59h12.71v2.13h-13.66c-.17.34-.37.69-.56,1.01h12.26v2.06h-12.41v-1.81c-.67,1.1-1.4,2.06-2.17,2.88h13.76Zm-4.3,3.08c-.65,1.18-1.4,2.3-2.28,3.31,1.35.95,2.56,1.91,3.4,2.75l-2.04,1.94c-.75-.84-1.89-1.81-3.18-2.77-1.7,1.55-3.63,2.82-5.61,3.79-.39-.54-1.33-1.53-1.89-2,2-.77,3.85-1.89,5.44-3.25-1.23-.82-2.47-1.57-3.61-2.21l1.83-1.68c1.12.58,2.37,1.31,3.59,2.09.75-.86,1.38-1.78,1.89-2.77l2.47.82Z"/><path class="cls-1" d="m223.74,11.94c-.67,2.43-1.76,4.37-3.2,5.89,1.16.75,2.52,1.31,4.04,1.68-.54.49-1.2,1.44-1.53,2.06-1.68-.47-3.12-1.2-4.34-2.15-1.33.97-2.86,1.7-4.54,2.24-.19-.43-.58-1.03-.92-1.53v3.48h-3.23v1.29h3.55v2.24h-3.55v3.38h-2.28v-3.38h-3.57v-2.24h3.57v-1.29h-3.1v-7.76h3.1v-1.18h-3.31v-2.22h3.31v-2.02h2.28v2.02h3.38v2.22h-3.38v1.18h3.23v3.66c1.35-.39,2.62-.99,3.72-1.74-.9-1.08-1.63-2.32-2.21-3.72l1.7-.45h-2.49v-2.19h7.72l.43-.09,1.63.62Zm-17.27,6.97h1.53v-1.29h-1.53v1.29Zm0,2.95h1.53v-1.31h-1.53v1.31Zm4.86-4.24h-1.59v1.29h1.59v-1.29Zm0,2.93h-1.59v1.31h1.59v-1.31Zm8.67,7.25h4.28v2.26h-11.21v-2.26h4.39v-2.69h-3.25v-2.15h3.25v-2.39h2.54v2.39h3.31v2.15h-3.31v2.69Zm-3.1-14.19c.45.99,1.05,1.91,1.78,2.71.75-.8,1.4-1.7,1.87-2.71h-3.66Z"/><path class="cls-1" d="m233.82,26.95c0-1.14.82-1.91,1.89-1.91s1.89.77,1.89,1.91-.82,1.89-1.89,1.89-1.89-.77-1.89-1.89Zm.22-11.18l-.11-3.2h3.57l-.11,3.2-.58,7.36h-2.19l-.58-7.36Z"/><path class="cls-1" d="m76.35,39.6h3.18v13.27h6.47v2.67h-9.66v-15.94Z"/><path class="cls-1" d="m88.79,39.6h3.18v15.94h-3.18v-15.94Z"/><path class="cls-1" d="m95.88,39.6h3.25l4.62,8.5,1.59,3.44h.11c-.15-1.66-.41-3.76-.41-5.57v-6.37h3.01v15.94h-3.23l-4.6-8.52-1.61-3.42h-.11c.15,1.72.39,3.72.39,5.55v6.39h-3.01v-15.94Z"/><path class="cls-1" d="m112,39.6h9.76v2.67h-6.58v3.68h5.59v2.67h-5.59v4.26h6.82v2.67h-10v-15.94Z"/><path class="cls-1" d="m142.92,41.93c1.72,1.61,4.15,2.97,6.6,3.72-.54.45-1.27,1.4-1.66,2.04-.77-.28-1.53-.65-2.26-1.05v8.15h3.53v2.24h-19.44v-2.24h3.55v-8.19c-.8.45-1.59.86-2.43,1.18-.37-.58-1.05-1.51-1.59-1.98,2.37-.77,4.73-2.22,6.39-3.87h-5.78v-2.22h8.24v-2.39h2.52v2.39h8.41v2.22h-6.06Zm2.45,4.58c-1.83-1.03-3.48-2.41-4.8-3.96v3.38h-2.52v-3.46c-1.27,1.57-2.88,2.97-4.67,4.04h11.98Zm-2.41,2.09h-7.23v.86h7.23v-.86Zm-7.23,3.53h7.23v-.9h-7.23v.9Zm7.23,2.67v-.9h-7.23v.9h7.23Z"/><path class="cls-1" d="m162.22,54.51c.77.09,1.59.13,2.45.13,1.16,0,4.71,0,6.15-.06-.37.62-.77,1.85-.9,2.6h-5.38c-3.96,0-6.9-.65-8.88-3.7-.69,1.63-1.63,3.01-2.86,4.06-.43-.45-1.51-1.36-2.11-1.74,2.32-1.72,3.38-4.69,3.76-8.37l2.67.26c-.13.97-.28,1.87-.47,2.73.65,1.72,1.66,2.75,2.93,3.38v-7.59h-4.58v-2.43h11.83v2.43h-4.6v2.69h5.91v2.41h-5.91v3.2Zm-7.98-9.63h-2.52v-5.38h7.81v-2.15h2.71v2.15h7.87v5.38h-2.65v-2.95h-13.23v2.95Z"/><path class="cls-1" d="m181.38,40.23c-.06.37-.15.95-.24,1.66,1.55-.02,2.92-.15,3.94-.3l-.09,2.56c-1.29.13-2.47.22-4.19.22-.13.95-.26,1.96-.37,2.92h.15c1.33,0,2.93-.09,4.32-.26l-.06,2.56c-1.2.11-2.45.19-3.81.19h-.86c-.04.65-.09,1.18-.09,1.57,0,1.78,1.1,2.73,3.2,2.73,3.01,0,4.65-1.38,4.65-3.14,0-1.46-.8-2.84-2.21-4.17l3.03-.65c1.42,1.81,2.09,3.33,2.09,5.16,0,3.25-2.93,5.57-7.63,5.57-3.38,0-5.76-1.46-5.76-5.05,0-.52.06-1.29.15-2.17-1.57-.15-2.99-.39-4.13-.71l.15-2.6c1.4.47,2.84.71,4.24.86.13-.97.26-1.98.37-2.95-1.48-.15-3.01-.41-4.28-.77l.15-2.47c1.25.41,2.86.69,4.43.82.06-.67.13-1.25.17-1.74.06-1.01.06-1.44.02-1.91l3.03.17c-.19.77-.28,1.35-.37,1.91Z"/><path class="cls-1" d="m205.07,37.82c-.02.34-.04.77-.06,1.23.17,2.97,1.25,12.24,9.27,16-.8.6-1.57,1.48-1.98,2.17-4.86-2.41-7.27-6.84-8.47-10.8-1.16,3.87-3.42,8.02-7.96,10.8-.45-.67-1.29-1.44-2.15-2.04,8.58-4.75,8.28-14.52,8.43-17.36h2.92Z"/><path class="cls-1" d="m231.89,45.67c-.04,5.16.24,9.23,1.48,9.23.32-.02.41-1.14.45-2.88.49.58,1.14,1.23,1.66,1.59-.19,2.69-.65,3.83-2.3,3.83-3.14,0-3.76-4.11-3.89-9.61h-11.53v-1.78l-.19.17c-.49-.43-1.7-1.25-2.32-1.61,2.13-1.61,3.74-4.39,4.58-7.35l2.67.56c-.17.54-.34,1.08-.54,1.59h12.71v2.13h-13.66c-.17.34-.37.69-.56,1.01h12.26v2.06h-12.41v-1.81c-.67,1.1-1.4,2.06-2.17,2.88h13.76Zm-4.3,3.08c-.65,1.18-1.4,2.3-2.28,3.31,1.35.95,2.56,1.91,3.4,2.75l-2.04,1.94c-.75-.84-1.89-1.81-3.18-2.77-1.7,1.55-3.63,2.82-5.61,3.79-.39-.54-1.33-1.53-1.89-2,2-.77,3.85-1.89,5.44-3.25-1.23-.82-2.47-1.57-3.61-2.21l1.83-1.68c1.12.58,2.37,1.31,3.59,2.09.75-.86,1.38-1.78,1.89-2.77l2.47.82Z"/><path class="cls-1" d="m243.59,53.78c0-1.18.84-2.06,1.96-2.06s1.98.88,1.98,2.06-.86,2.06-1.98,2.06-1.96-.9-1.96-2.06Zm.47-11.59l-.11-2.99h3.18l-.11,2.99-.45,7.94h-2.06l-.45-7.94Z"/></g></svg>