<?xml version="1.0" encoding="UTF-8"?><svg id="_レイヤー_1" xmlns="http://www.w3.org/2000/svg" viewBox="0 0 355 67"><defs><style>.cls-1{fill:#fff;}.cls-2{fill:#b11022;}.cls-3{fill:none;stroke:#fff;stroke-miterlimit:10;stroke-width:1.87px;}.cls-4{fill:#da1022;}</style></defs><rect class="cls-4" y=".32" width="355" height="66.68" rx="6.63" ry="6.63"/><g><path class="cls-1" d="m17.78,18.44c-.4.38-.78.74-1.18,1.04-.44-.42-1.39-1.18-1.93-1.55,1.67-1.1,3.25-2.91,4.12-4.76l2.31.68c-.22.48-.48.94-.78,1.39h11.95v2.09h-1.87v2.55h2.59v2.11h-2.59v2.53h2.31v2.11H15.41v-2.11h2.37v-2.53h-2.67v-2.11h2.67v-1.43Zm-2.87,12.43c.88-.84,1.77-2.37,2.23-3.82l2.29.56c-.44,1.51-1.29,3.15-2.27,4.18l-2.25-.92Zm4.96-11h1.43v-2.55h-1.43v2.55Zm0,4.64h1.43v-2.53h-1.43v2.53Zm3.03,2.97c.24,1.22.48,2.79.5,3.73l-2.31.34c0-.96-.16-2.59-.38-3.81l2.19-.26Zm1.85-7.61v-2.55h-1.47v2.55h1.47Zm-1.47,2.11v2.53h1.47v-2.53h-1.47Zm3.61,5.42c.48,1.18.98,2.73,1.16,3.71l-2.37.46c-.12-.96-.58-2.57-1.02-3.78l2.23-.38Zm1.35-10.08h-1.51v2.55h1.51v-2.55Zm0,4.66h-1.51v2.53h1.51v-2.53Zm2.63,4.98c.9,1.22,2.01,2.89,2.51,3.98l-2.43.82c-.42-1.06-1.47-2.81-2.35-4.08l2.27-.72Z"/><path class="cls-1" d="m41.42,27.3c-.3-.64-.86-1.67-1.43-2.59v6.99h-2.19v-7.03c-.64,1.85-1.43,3.71-2.29,4.9-.2-.72-.72-1.79-1.08-2.45,1-1.21,2.01-3.35,2.63-5.16h-2.27v-2.21h3.01v-6.51h2.19v6.51h2.95v2.21h-2.95v.14c.58.58,2.47,2.81,2.89,3.37l-1.45,1.83Zm-5.76-7.91c-.04-1.24-.44-3.17-.9-4.6l1.65-.44c.52,1.43.92,3.33,1.02,4.56l-1.77.48Zm7.63-4.7c-.52,1.59-1.1,3.49-1.59,4.64l-1.49-.42c.4-1.26.88-3.27,1.1-4.66l1.99.44Zm7.73,11.67v5.38h-2.23v-4.98l-5.56,1-.36-2.21,5.92-1.06v-11.35h2.23v10.96l2.03-.38.36,2.21-2.39.44Zm-6.81-7.23c1.16.62,2.63,1.57,3.35,2.29l-1.2,1.89c-.66-.74-2.11-1.79-3.27-2.49l1.12-1.69Zm2.89-.72c-.62-.78-1.99-1.85-3.09-2.59l1.14-1.59c1.12.66,2.53,1.67,3.17,2.41l-1.22,1.77Z"/><path class="cls-1" d="m67.14,17.42c1.59,1.49,3.84,2.75,6.12,3.45-.5.42-1.18,1.3-1.53,1.89-.72-.26-1.41-.6-2.09-.98v7.55h3.27v2.07h-18.01v-2.07h3.29v-7.59c-.74.42-1.47.8-2.25,1.1-.34-.54-.98-1.39-1.47-1.83,2.19-.72,4.38-2.05,5.92-3.59h-5.36v-2.05h7.63v-2.21h2.33v2.21h7.79v2.05h-5.62Zm2.27,4.24c-1.69-.96-3.23-2.23-4.44-3.67v3.13h-2.33v-3.21c-1.18,1.45-2.67,2.75-4.32,3.74h11.1Zm-2.23,1.93h-6.69v.8h6.69v-.8Zm-6.69,3.27h6.69v-.84h-6.69v.84Zm6.69,2.47v-.84h-6.69v.84h6.69Z"/><path class="cls-1" d="m85.01,29.07c.72.08,1.47.12,2.27.12,1.08,0,4.36,0,5.7-.06-.34.58-.72,1.71-.84,2.41h-4.98c-3.67,0-6.39-.6-8.23-3.43-.64,1.51-1.51,2.79-2.65,3.76-.4-.42-1.39-1.25-1.95-1.61,2.15-1.59,3.13-4.34,3.49-7.75l2.47.24c-.12.9-.26,1.73-.44,2.53.6,1.59,1.53,2.55,2.71,3.13v-7.03h-4.24v-2.25h10.96v2.25h-4.26v2.49h5.48v2.23h-5.48v2.97Zm-7.39-8.92h-2.33v-4.98h7.23v-1.99h2.51v1.99h7.29v4.98h-2.45v-2.73h-12.25v2.73Z"/><path class="cls-1" d="m104.63,30.97l-1.49-2.37c.76-.08,1.31-.2,1.85-.32,2.55-.6,4.54-2.43,4.54-5.34,0-2.75-1.49-4.8-4.18-5.26-.28,1.69-.62,3.53-1.2,5.4-1.2,4.02-2.91,6.49-5.08,6.49s-4.04-2.43-4.04-5.8c0-4.6,3.98-8.53,9.14-8.53s8.05,3.43,8.05,7.77-2.57,7.17-7.59,7.95Zm-5.48-4.46c.84,0,1.61-1.25,2.43-3.94.46-1.47.84-3.17,1.06-4.82-3.29.68-5.06,3.59-5.06,5.78,0,2.01.8,2.99,1.57,2.99Z"/><path class="cls-1" d="m118.91,26.2c0,1.29,1.22,2.19,4.08,2.19,2.69,0,5.24-.3,6.99-.78l.02,2.79c-1.73.42-4.12.7-6.91.7-4.56,0-6.85-1.53-6.85-4.28,0-1.16.24-2.11.38-2.87l2.63.24c-.2.72-.34,1.35-.34,2.01Zm11.97-9.78l-1.61.7c-.14-.3-.32-.64-.5-.98v2.23c-1.39.1-3.86.24-5.76.24-2.09,0-3.82-.1-5.44-.22v-2.65c1.47.18,3.33.26,5.42.26,1.89,0,4.04-.12,5.58-.26-.28-.52-.58-1.02-.86-1.41l1.57-.64c.5.72,1.22,1.99,1.59,2.73Zm2.39-.92l-1.59.68c-.42-.84-1.06-1.99-1.61-2.75l1.59-.64c.52.74,1.25,2.01,1.61,2.71Z"/><path class="cls-1" d="m139.66,20.69c.7.76,2.39,2.81,2.79,3.31l-1.35,1.93c-.3-.64-.88-1.57-1.43-2.47v8.29h-2.27v-7.87c-.64,1.75-1.39,3.39-2.25,4.48-.22-.68-.74-1.63-1.12-2.23,1.29-1.57,2.45-4.28,3.09-6.65h-2.57v-2.23h2.85v-4.08h2.27v4.08h2.49v2.23h-2.49v1.22Zm12.53-6.45v17.23h-2.39v-1.02h-4.68v1.14h-2.27V14.23h9.34Zm-7.07,2.23v2.47h4.68v-2.47h-4.68Zm0,4.6v2.53h4.68v-2.53h-4.68Zm4.68,7.23v-2.55h-4.68v2.55h4.68Z"/><path class="cls-1" d="m161.73,18.32h-7.57v-1.87h7.57v1.87Zm-.64,12.39h-4.06v.78h-1.99v-6.79h6.06v6.02Zm-.02-9.68h-5.98v-1.81h5.98v1.81Zm-5.98.92h5.98v1.77h-5.98v-1.77Zm5.92-6.37h-5.86v-1.79h5.86v1.79Zm-3.98,11v2.29h2.05v-2.29h-2.05Zm11.77-.28c.54,1.21,1.73,2.61,4.08,3.49-.42.54-1.04,1.43-1.35,2.01-2.51-.94-3.94-3.15-4.3-4.38-.4,1.24-1.99,3.39-4.74,4.38-.24-.54-.88-1.45-1.29-1.93,3.8-1.33,4.82-3.94,4.82-5.28v-3.01h2.41v3.01c0,.44.1,1.04.38,1.67.56-.96,1.22-2.39,1.57-3.45l2.33.72c-.7,1.25-1.47,2.57-2.09,3.43l-1.81-.66Zm-7.51.16c.88-.76,1.47-2.15,1.73-3.51l2.07.42c-.26,1.53-.88,3.11-1.85,4.06l-1.95-.98Zm9.84-4.04c-.84-.8-2.47-1.93-3.98-2.89-.82,1.31-2.11,2.31-4.26,3.05-.24-.58-.82-1.45-1.31-1.87,4.14-1.3,4.46-3.57,4.62-7.51h2.29c-.06,1.65-.18,3.09-.5,4.34,1.63.96,3.65,2.19,4.72,3.09l-1.57,1.79Zm-5.94-7.67c-.2,1.31-.72,2.79-1.57,3.69l-1.85-.8c.74-.72,1.27-2.05,1.49-3.29l1.93.4Zm7.33.2c-.66,1.16-1.37,2.37-1.93,3.21l-1.75-.68c.52-.88,1.14-2.27,1.43-3.25l2.25.72Z"/><path class="cls-1" d="m22.58,40.49c-.02.44-.04.92-.06,1.41,1.31-.16,2.63-.42,3.67-.72l.06,2.47c-1.14.26-2.51.46-3.8.62-.02.6-.02,1.21-.02,1.79v.74c1.35-.34,2.73-.52,3.82-.52,3.07,0,5.48,1.59,5.48,4.34,0,2.35-1.24,4.12-4.4,4.92-.92.2-1.79.26-2.61.32l-.92-2.57c.9,0,1.75-.02,2.45-.14,1.61-.3,2.89-1.1,2.89-2.55,0-1.35-1.2-2.15-2.93-2.15-1.24,0-2.53.2-3.74.56.04,1.57.08,3.13.08,3.81,0,2.47-.88,3.13-2.19,3.13-1.93,0-4.66-1.67-4.66-3.78,0-1.73,1.99-3.55,4.44-4.6-.02-.48-.02-.96-.02-1.41v-1.67c-.38.02-.74.04-1.06.04-1.33,0-2.11-.02-2.79-.1l-.04-2.41c1.18.14,2.03.16,2.75.16.36,0,.76-.02,1.16-.04.02-.7.02-1.27.02-1.61,0-.42-.08-1.39-.14-1.75h2.75c-.06.36-.14,1.21-.18,1.73Zm-2.99,12.73c.36,0,.64-.16.64-.84,0-.5-.02-1.41-.06-2.49-1.22.66-2.03,1.47-2.03,2.17,0,.62.94,1.16,1.45,1.16Zm13.75-9.5l-1.2,2.03c-.96-.82-3.57-2.31-4.8-2.91l1.1-1.93c1.53.74,3.84,2.05,4.9,2.81Z"/><path class="cls-1" d="m39.53,52.04c.82,1.33,2.31,1.87,4.38,1.95,2.33.1,6.81.04,9.46-.16-.26.56-.62,1.71-.74,2.39-2.39.12-6.39.16-8.77.06-2.45-.1-4.08-.66-5.38-2.21-.88.78-1.75,1.55-2.85,2.39l-1.16-2.47c.86-.5,1.85-1.16,2.73-1.83v-4.2h-2.29v-2.17h4.6v6.25Zm-1.37-8.94c-.62-.96-2.03-2.27-3.21-3.15l1.75-1.43c1.2.84,2.65,2.07,3.33,3.01l-1.87,1.57Zm6.1,2.71c-.2,2.35-.86,5.14-2.77,7.11-.32-.52-1.16-1.33-1.71-1.63,2.03-2.17,2.27-5.16,2.27-7.47v-4.54l2.03.38c2.35-.4,4.76-.96,6.29-1.57l1.95,1.81c-2.31.82-5.28,1.37-7.99,1.73v1.99h8.69v2.19h-3.33v7.43h-2.35v-7.43h-3.09Z"/><path class="cls-1" d="m66.8,41.94c-1.29,1.04-3.92,3.07-5.26,4.2-1.06.92-1.04,1.14.04,2.07,1.49,1.25,5.28,4.24,7.31,6.22l-2.33,2.13c-.56-.62-1.14-1.26-1.73-1.85-1.22-1.26-4.14-3.74-5.96-5.3-1.99-1.69-1.83-2.75.16-4.42,1.57-1.27,4.3-3.49,5.64-4.78.58-.58,1.22-1.21,1.53-1.69l2.33,2.05c-.62.48-1.27,1-1.73,1.37Z"/><path class="cls-1" d="m84.71,55.87l-1.49-2.37c.76-.08,1.31-.2,1.85-.32,2.55-.6,4.54-2.43,4.54-5.34,0-2.75-1.49-4.8-4.18-5.26-.28,1.69-.62,3.53-1.2,5.4-1.2,4.02-2.91,6.49-5.08,6.49s-4.04-2.43-4.04-5.8c0-4.6,3.98-8.53,9.14-8.53s8.05,3.43,8.05,7.77-2.57,7.17-7.59,7.95Zm-5.48-4.46c.84,0,1.61-1.25,2.43-3.94.46-1.47.84-3.17,1.06-4.82-3.29.68-5.06,3.59-5.06,5.78,0,2.01.8,2.99,1.57,2.99Z"/><path class="cls-1" d="m112.81,40.37v2.25h-14.44v2.77c0,3.21-.3,8.13-2.09,11.23-.44-.4-1.49-1.08-2.05-1.33,1.63-2.85,1.77-7.03,1.77-9.9v-5.02h7.09v-2.29h2.47v2.29h7.25Zm-6.47,4.42h6.22v2.09h-6.22v2.17h5.04v7.59h-2.43v-.72h-7.07v.74h-2.31v-7.61h4.36v-6.14h2.41v1.87Zm2.61,6.35h-7.07v2.71h7.07v-2.71Z"/><path class="cls-1" d="m128.75,42.7v1.31h3.73v10.38c0,.92-.12,1.45-.68,1.81-.54.34-1.22.4-2.17.4-.06-.58-.32-1.47-.6-2.01.48.02.98.02,1.14,0,.18,0,.24-.06.24-.24v-1.97h-1.65v4.1h-2.11v-4.1h-1.53v4.2h-2.05v-12.57h3.59v-1.31h-3.94v-.92l-1.33,1.67c-.54-.9-1.57-2.27-2.57-3.25-.72,1.18-1.65,2.53-2.95,3.78h1.83v-1.69h2.15v1.69h2.29v1.81h-2.29v1.35h2.73v1.91h-7.77v-1.91h2.89v-1.35h-2.23v-1.57c-.36-.48-1-1.2-1.45-1.49,1.63-1.37,2.77-3.19,3.43-4.66h2.01c1.16.96,2.53,2.33,3.27,3.39v-.8h3.94v-2.61h2.11v2.61h2.13c-.5-.52-1.24-1.12-1.87-1.55l1.39-1.04c.76.46,1.73,1.2,2.19,1.73l-1.04.86h1.18v2.03h-3.98Zm-13.45,7.27h6.93v6.25h-2.13v-.62h-2.75v1.02h-2.05v-6.65Zm2.05,1.91v1.79h2.75v-1.79h-2.75Zm7.75-5.88v1.27h1.53v-1.27h-1.53Zm1.53,4.48v-1.29h-1.53v1.29h1.53Zm2.11-4.48v1.27h1.65v-1.27h-1.65Zm1.65,4.48v-1.29h-1.65v1.29h1.65Z"/><path class="cls-1" d="m148.53,51.35c1.16,2.07,2.65,2.83,4.56,3.43-.54.5-1.1,1.27-1.35,1.97-1.97-.76-3.55-1.77-4.76-3.92-.84,1.59-2.43,3.01-5.36,3.94-.22-.48-.9-1.37-1.25-1.75,3.05-.96,4.38-2.25,4.94-3.67h-3.65v-5.5h4.02v-1.27h-2.49v-1.02c-.54.38-1.08.7-1.63.98-.14-.34-.34-.76-.58-1.16v.96h-1.81v.96c.54.7,1.93,2.83,2.23,3.33l-1.2,1.83c-.22-.58-.62-1.43-1.04-2.27v8.47h-2.19v-7.33c-.52,1.49-1.14,2.87-1.81,3.82-.22-.64-.72-1.55-1.08-2.11,1.16-1.57,2.23-4.32,2.75-6.69h-2.29v-2.19h2.43v-4.08h2.19v4.08h1.81v.14c1.93-.98,3.67-2.67,4.62-4.2h2.15c1.37,1.91,3.41,3.59,5.48,4.36-.44.56-.9,1.43-1.22,2.07-.52-.26-1.06-.58-1.57-.92v.98h-2.63v1.27h4.24v5.5h-3.53Zm-2.87-1.81c.02-.22.02-.46.02-.68v-1.2h-1.97v1.87h1.95Zm3.49-6.91c-.96-.78-1.81-1.67-2.41-2.51-.56.84-1.37,1.71-2.31,2.51h4.72Zm-1.33,5.04v1.26c0,.2,0,.42-.02.62h2.13v-1.87h-2.11Z"/><path class="cls-1" d="m161.07,53.02c-1.29,1.35-3.31,2.71-4.98,3.51-.42-.46-1.29-1.27-1.81-1.67,1.67-.62,3.51-1.63,4.54-2.69l2.25.86Zm3.51-1.08v4.72h-2.35v-4.64c-2.77.08-5.32.14-7.35.18l-.12-2.11c1.25,0,2.79,0,4.48-.02.3-.16.6-.34.9-.52-.96-.72-2.27-1.53-3.37-2.09l1.57-1.35c.26.14.56.28.84.44.64-.52,1.31-1.14,1.87-1.71h-3.98v2.15h-2.25v-4.12h7.39v-1.21h-7.21v-2.03h7.21v-1.55h2.33v1.55h7.35v2.03h-7.35v1.21h7.61v4.12h-2.35v-2.15h-6.59l.62.3c-.96.86-2.03,1.71-2.97,2.39.44.28.86.56,1.22.82,1.47-.98,2.87-2.03,3.9-2.95l2.11,1.14c-1.57,1.2-3.47,2.45-5.28,3.53,1.51-.02,3.09-.04,4.68-.06-.48-.36-.96-.68-1.41-.98l1.55-1.2c1.55.98,3.67,2.45,4.72,3.51l-1.67,1.35c-.26-.26-.58-.58-.96-.9l-5.14.16Zm2.95.16c1.55.82,3.73,2.11,4.86,3.03l-1.95,1.33c-.98-.9-3.09-2.27-4.7-3.17l1.79-1.2Z"/><path class="cls-1" d="m178.6,41.33c-.3,1.33-.96,5.72-.96,7.71,0,.4.02.9.08,1.29.26-.7.6-1.37.9-2.05l1.22,1c-.56,1.63-1.2,3.67-1.43,4.74-.06.28-.1.72-.1.94,0,.2.02.54.04.82l-2.25.18c-.42-1.39-.8-3.67-.8-6.37,0-3.01.6-6.77.82-8.31.08-.56.18-1.31.2-1.95l2.75.24c-.16.4-.4,1.41-.46,1.77Zm10.06-.7c-.02.44-.04,1.18-.06,2.05,1.1-.1,2.13-.26,3.09-.46v2.49c-.96.14-1.99.26-3.09.34.04,1.93.14,3.53.22,4.88,1.65.68,2.91,1.69,3.86,2.57l-1.37,2.09c-.84-.78-1.63-1.47-2.43-2.01-.12,1.91-1.2,3.27-3.88,3.27s-4.46-1.16-4.46-3.25,1.71-3.41,4.42-3.41c.46,0,.9.02,1.29.08-.04-1.24-.12-2.69-.14-4.1-.48.02-.96.02-1.41.02-1.18,0-2.31-.04-3.49-.12v-2.37c1.14.12,2.29.18,3.49.18.46,0,.94,0,1.39-.02,0-.98-.02-1.79-.02-2.21,0-.3-.06-.92-.14-1.31h2.85c-.06.38-.1.86-.12,1.29Zm-3.94,12.87c1.22,0,1.63-.64,1.63-1.81v-.36c-.52-.14-1.06-.22-1.59-.22-1.14,0-1.89.48-1.89,1.24,0,.82.8,1.16,1.85,1.16Z"/></g><rect class="cls-2" x="198.42" y="47.72" width="121.63" height="8.56"/><g><path class="cls-1" d="m206.46,40.86c0,2.3,2.19,3.95,7.36,3.95,4.84,0,9.44-.54,12.6-1.44l.04,5.06c-3.12.75-7.43,1.22-12.45,1.22-8.22,0-12.34-2.76-12.34-7.68,0-2.08.43-3.84.72-5.17l4.7.43c-.36,1.29-.61,2.4-.61,3.62Zm7.36-18.41c3.55,0,7.64-.22,10.41-.5v4.77c-2.51.22-6.96.43-10.37.43-3.77,0-6.89-.14-9.8-.39v-4.74c2.66.29,5.99.43,9.76.43Z"/><path class="cls-1" d="m244.82,23.16c-.07.32-.14.72-.22,1.11,4.09-.22,8.94-.75,13.28-1.69l.07,4.27c-3.73.61-9.44,1.29-14.25,1.54-.5,2.19-1.08,4.49-1.62,6.24,2.91-1.61,5.71-2.26,8.9-2.26,5.81,0,9.65,3.09,9.65,7.68,0,8.07-7.79,10.98-19.38,9.73l-1.26-4.63c7.86,1.29,15.79.32,15.79-4.95,0-2.15-1.83-3.95-5.35-3.95-4.13,0-7.79,1.47-9.94,4.2-.39.5-.65.97-1,1.58l-4.23-1.51c1.72-3.34,3.16-8.11,4.09-12.06-2.26-.04-4.38-.14-6.21-.32v-4.45c2.15.36,4.84.65,7.03.68.07-.54.14-1.04.22-1.47.22-1.54.25-2.44.18-3.62l5.1.22c-.39,1.26-.61,2.48-.86,3.66Z"/><path class="cls-1" d="m273.45,34.83c3.27-2.37,6.82-3.41,10.59-3.41,6.28,0,9.94,3.88,9.94,8.22,0,6.53-5.17,11.56-20.1,10.3l-1.36-4.7c10.77,1.47,16.47-1.15,16.47-5.71,0-2.33-2.23-4.05-5.35-4.05-4.06,0-7.72,1.51-9.98,4.23-.65.79-1,1.36-1.33,2.08l-4.13-1.04c.72-3.52,1.54-10.55,1.79-15l4.81.68c-.47,1.97-1.11,6.35-1.36,8.4Zm15.5-12.81l-1.08,4.38c-3.62-.47-11.63-2.15-14.43-2.87l1.15-4.31c3.41,1.08,11.23,2.44,14.35,2.8Z"/><path class="cls-1" d="m308.15,45.16c0-1.97,1.4-3.45,3.27-3.45s3.3,1.47,3.3,3.45-1.44,3.44-3.3,3.44-3.27-1.51-3.27-3.44Zm.79-19.34l-.18-4.99h5.31l-.18,4.99-.75,13.24h-3.45l-.75-13.24Z"/></g><polyline class="cls-3" points="335.77 28.2 343.2 35.63 335.77 43.07"/></svg>