<svg xmlns="http://www.w3.org/2000/svg" viewBox="0 0 58.18 54.2"><defs><style>.cls-1{fill:#fff;}</style></defs><g id="レイヤー_2" data-name="レイヤー 2"><g id="レイヤー_2-2" data-name="レイヤー 2"><path class="cls-1" d="M42.11,0C33.24,0,26.05,5.42,26.05,12.1a10.56,10.56,0,0,0,4,8l-3.86,7.74c-.1.19,0,.27.17.17l9.5-4.74a20.78,20.78,0,0,0,6.26.95c8.88,0,16.07-5.42,16.07-12.1S51,0,42.11,0Zm-7,14.38a2.25,2.25,0,1,1,2.25-2.25A2.25,2.25,0,0,1,35.1,14.38Zm7.09,0a2.25,2.25,0,1,1,2.25-2.25A2.25,2.25,0,0,1,42.19,14.38Zm7.07,0a2.25,2.25,0,1,1,2.25-2.25A2.25,2.25,0,0,1,49.26,14.38Z"/><path class="cls-1" d="M41.48,36.59a3.74,3.74,0,0,0-5.27,0l-5,5a49.7,49.7,0,0,1-10.75-7.78A49.69,49.69,0,0,1,12.64,23l5-5a3.74,3.74,0,0,0,0-5.27L10.17,5.28a3.74,3.74,0,0,0-5.27,0l-3,3A6.11,6.11,0,0,0,.19,11.79C-.14,13.85-1.5,26.73,13,41.25,28.66,56.89,42.35,54,42.72,54A6.19,6.19,0,0,0,46,52.24l2.93-2.93a3.74,3.74,0,0,0,0-5.27Z"/></g></g></svg>