<?xml version="1.0" encoding="UTF-8"?><svg id="_レイヤー_2" xmlns="http://www.w3.org/2000/svg" viewBox="0 0 71.86 71.86"><g id="_レイヤー_2-2"><rect width="71.86" height="71.86" rx="7.387" ry="7.387" fill="#ffa78e"/><path d="M20.242,44.269c-.173-.579-.307-1.179-.397-1.795h0c-.088-.606-.134-1.22-.134-1.839v-8.753h29.431v8.753c0,3.511-1.436,6.701-3.748,9.014-2.313,2.313-5.504,3.748-9.014,3.748h-3.906c-1.009,0-2.002-.122-2.962-.353-.991-.237-1.929-.587-2.801-1.031l.76-1.493c.772.393,1.585.698,2.427.9.818.196,1.68.301,2.576.301h3.906c3.048,0,5.819-1.248,7.829-3.257,2.009-2.01,3.257-4.781,3.257-7.829v-7.077h-26.077v7.077c0,.547.039,1.08.115,1.597v.003c.077.529.193,1.049.345,1.556l-1.605.478Z" fill="#fff"/><path d="M51.061,34.612c-.667.237-1.322.648-1.92,1.115v1.282c.136-.123.276-.246.421-.365.464-.383.968-.728,1.485-.965.57-.26,1.097-.296,1.568-.17.378.102.706.305.98.578.246.245.446.547.598.879.359.786.455,1.786.241,2.581-.404,1.507-1.237,2.718-2.326,3.64-1.063.9-2.373,1.518-3.76,1.862-.141.378-.299.748-.473,1.108,1.728-.317,3.351-1.008,4.664-2.052,1.341-1.066,2.363-2.508,2.844-4.302.276-1.032.18-2.16-.244-3.131-.393-.9-1.069-1.659-1.986-2.066-.669-.297-1.389-.242-2.091.007M47.765,34.687c.806-.676,1.743-1.3,2.739-1.654,1.074-.382,2.208-.45,3.323.045,1.327.589,2.292,1.662,2.844,2.924.574,1.312.703,2.836.329,4.232-.579,2.163-1.808,3.898-3.42,5.18-1.733,1.378-3.907,2.226-6.185,2.512l-.989.124-1.812.227,1.017-1.524c.27-.404.518-.838.742-1.297.217-.445.405-.907.561-1.381l.152-.46.481-.096c1.295-.26,2.519-.794,3.481-1.609.839-.71,1.48-1.64,1.789-2.795.118-.442.062-1.005-.144-1.454-.071-.154-.157-.289-.257-.388-.072-.072-.151-.124-.233-.146-.113-.03-.259-.012-.443.072-.371.17-.753.435-1.118.736-.379.313-.742.669-1.058,1.003l-.656.693-1.444,1.525v-6.214l.302-.252Z" fill="#fff"/><path d="M25.856,51.72h23.84v1.888c0,.809-.331,1.543-.862,2.075-.532.532-1.267.863-2.075.863h-26.229v-1.677h26.229c.346,0,.661-.142.89-.371.229-.229.371-.544.371-.89v-.211h-22.163v-1.677Z" fill="#fff"/><path d="M26.454,45.081c1.871,2.071,1.865,4.61.818,6.786-.411.852-.981,1.644-1.658,2.321-.677.677-1.469,1.248-2.321,1.658-2.267,1.091-4.929,1.052-7.045-1.063h0c-2.115-2.115-2.154-4.778-1.063-7.045.408-.848.979-1.639,1.66-2.319l-.002-.002c.676-.677,1.468-1.247,2.321-1.658,2.267-1.091,4.929-1.052,7.044,1.063l.246.245v.013ZM25.023,46.008l-.009-.009c-1.524-1.517-3.463-1.532-5.124-.733-.676.325-1.311.785-1.862,1.337h-.003c-.547.547-1.006,1.183-1.333,1.863-.801,1.664-.784,3.606.742,5.132h0c1.525,1.526,3.468,1.543,5.132.743.676-.325,1.312-.786,1.863-1.337.551-.551,1.011-1.187,1.337-1.863.801-1.664.783-3.606-.742-5.132Z" fill="#fff"/><path d="M25.943,46.185c-.22.094-.47.194-.729.298-1.24.497-2.756,1.105-3.251,2.088-.314.622-.544,1.409-.775,2.205-.56,1.92-1.132,3.884-2.981,4.676l-.655-1.539c1.122-.481,1.582-2.059,2.031-3.602.255-.876.508-1.743.887-2.493.78-1.546,2.62-2.284,4.122-2.887.241-.096.473-.19.696-.285l.655,1.539Z" fill="#fff"/><path d="M29.652,16.452c-2.375,2.569-1.224,4.327-.155,5.959,1.259,1.922,2.434,3.715.155,6.18l-1.225-1.133c1.389-1.503.558-2.771-.332-4.13-1.412-2.155-2.933-4.477.332-8.009l1.225,1.133Z" fill="#fff"/><path d="M35.362,16.452c-2.375,2.569-1.224,4.327-.155,5.959,1.259,1.922,2.434,3.715.155,6.18l-1.225-1.133c1.389-1.503.558-2.771-.332-4.13-1.412-2.155-2.933-4.477.332-8.009l1.225,1.133Z" fill="#fff"/><path d="M41.072,16.452c-2.375,2.569-1.223,4.327-.155,5.959,1.259,1.922,2.434,3.715.155,6.18l-1.225-1.133c1.389-1.503.559-2.771-.332-4.13-1.411-2.155-2.932-4.477.332-8.009l1.225,1.133Z" fill="#fff"/></g></svg>