<?xml version="1.0" encoding="UTF-8"?><svg id="_レイヤー_2" xmlns="http://www.w3.org/2000/svg" viewBox="0 0 16.929 10.858"><g id="_レイヤー_2-2"><path d="M16.926,8.003l-.406-3.101c-.037-.426-.385-.755-.809-.771l-.852-2.993c-.01-.034-.022-.067-.037-.098-.285-.597-.908-.986-1.588-.99L6.7,0s-.007,0-.011,0c-.541,0-1.061.246-1.392.66-.017.022-.033.044-.047.068l-2.053,3.401h-1.239c-.696,0-1.291.5-1.411,1.186L.018,7.904c-.109.525.292,1.017.828,1.017h.788c.165,1.096,1.111,1.937,2.253,1.937s2.088-.841,2.253-1.937h5.445c.165,1.096,1.111,1.937,2.253,1.937s2.089-.841,2.253-1.937c.491-.005.876-.426.834-.917ZM13.226,1.304c.187.001.357.094.444.24l.736,2.586h-3.55V1.286l2.369.018h0ZM6.297,1.42c.096-.104.24-.165.391-.165.001,0,.002,0,.003,0l3.125.024v2.852h-5.155l1.635-2.71ZM3.887,9.76c-.652,0-1.182-.53-1.182-1.182s.53-1.182,1.182-1.182,1.182.53,1.182,1.182-.53,1.182-1.182,1.182ZM13.838,9.76c-.652,0-1.182-.53-1.182-1.182s.53-1.182,1.182-1.182,1.182.53,1.182,1.182-.53,1.182-1.182,1.182Z" fill="#c80000"/></g></svg>