<?xml version="1.0" encoding="UTF-8"?><svg id="_レイヤー_2" xmlns="http://www.w3.org/2000/svg" viewBox="0 0 71.86 71.86"><g id="_レイヤー_2-2"><rect width="71.86" height="71.86" rx="7.387" ry="7.387" fill="#ffa78e"/><path d="M33.266,24.452c-1.463-2.977-3.229-4.239-4.693-4.441-1.211-.202-2.271.303-2.775,1.06-.454.606-.454,1.413.202,2.069h0c.606.606,1.615,1.06,3.179,1.312h4.087ZM36.899,24.452h4.087c1.564-.252,2.573-.706,3.179-1.312h0c.656-.656.656-1.463.202-2.069-.555-.757-1.564-1.261-2.775-1.06-1.463.202-3.23,1.463-4.693,4.441h0ZM38.211,55.637h-19.781c-.555,0-1.009-.454-1.009-1.009v-19.781h-1.06c-.555,0-1.009-.454-1.009-1.009v-8.326c0-.555.454-1.06,1.009-1.06h8.023c-1.363-1.464-1.262-3.23-.252-4.592.908-1.312,2.674-2.22,4.743-1.918,2.018.303,4.34,1.867,6.207,5.5,1.867-3.633,4.188-5.197,6.207-5.5,2.069-.303,3.835.606,4.743,1.918,1.009,1.363,1.11,3.129-.252,4.592h8.023c.555,0,1.009.505,1.009,1.06v8.326c0,.555-.454,1.009-1.009,1.009h-1.06v19.781c0,.555-.454,1.009-1.009,1.009h-13.524ZM35.234,26.571h-.303c-.706.05-1.312.101-1.917.101v26.896h4.138v-26.896c-.606,0-1.211-.051-1.918-.101h0ZM50.675,53.568v-18.721h-11.455v18.721h11.455ZM19.49,53.568h11.455v-18.721h-11.455v18.721ZM29.229,26.571h-11.808v6.207h13.524v-6.106c-.606,0-1.161-.051-1.716-.101h0ZM52.744,26.571h-11.808c-.555.05-1.11.101-1.716.101v6.106h13.523v-6.207Z" fill="#fff"/></g></svg>