<?xml version="1.0" encoding="UTF-8"?><svg id="_レイヤー_2" xmlns="http://www.w3.org/2000/svg" viewBox="0 0 71.86 71.86"><g id="_レイヤー_2-2"><rect width="71.86" height="71.86" rx="7.387" ry="7.387" fill="#ffa78e"/><path d="M24.273,55.523c-.11,0-.221-.016-.332-.05-3.663-1.132-6.59-4.255-7.641-8.151-.715-2.651.337-8.248,5.653-15.3.372-.493,1.077-.592,1.571-.22.495.372.593,1.076.22,1.571-4.495,5.962-5.886,11.107-5.278,13.365.839,3.111,3.248,5.698,6.137,6.591.592.183.923.811.74,1.403-.149.482-.592.79-1.071.79Z" fill="#fff"/><path d="M26.507,55.894c-1.798,0-3.297-.506-4.361-1.569-3.283-3.283-1.339-10.763,4.836-18.612.383-.487,1.089-.573,1.575-.188.487.383.571,1.088.188,1.575-5.269,6.698-7.377,13.275-5.013,15.64,3.271,3.272,13.16-2.056,19.988-8.883,6.827-6.828,12.154-16.717,8.883-19.988-2.387-2.388-9.018-.235-15.768,5.115-.485.386-1.191.303-1.576-.182s-.303-1.191.182-1.576c7.904-6.266,15.439-8.252,18.748-4.943,4.003,4.002.101,14.175-8.883,23.16-6.596,6.596-13.834,10.453-18.799,10.453Z" fill="#fff"/><path d="M54.267,25.529c-.479,0-.922-.308-1.071-.79-.893-2.888-3.481-5.297-6.592-6.137-2.314-.627-7.58.833-13.667,5.508-.492.378-1.196.284-1.573-.206-.378-.492-.285-1.196.206-1.573,7.188-5.52,12.907-6.622,15.617-5.895,3.896,1.051,7.019,3.978,8.151,7.641.183.592-.149,1.22-.74,1.403-.11.034-.222.05-.332.05Z" fill="#fff"/><path d="M24.574,51.114c-.527,0-.996-.372-1.1-.909-.117-.608.281-1.197.889-1.314,4.157-.803,9.872-4.434,14.916-9.477,5.044-5.044,8.675-10.759,9.478-14.916.117-.608.707-1.008,1.314-.889.609.117,1.006.706.889,1.314-.896,4.642-4.67,10.652-10.095,16.076-5.424,5.424-11.434,9.198-16.077,10.094-.072.014-.143.02-.214.02Z" fill="#fff"/><path d="M32.196,34.961h-5.958l-2.979-5.16,2.979-5.16h5.958l2.979,5.16-2.979,5.16ZM27.533,32.717h3.368l1.684-2.916-1.684-2.916h-3.368l-1.683,2.916,1.683,2.916Z" fill="#fff"/><rect x="50.894" y="47.825" width="2.538" height="1.794" transform="translate(-19.173 51.155) rotate(-45)" fill="#fff"/><rect x="46.33" y="52.343" width="2.629" height="1.794" transform="translate(-23.692 49.284) rotate(-45)" fill="#fff"/><rect x="46.748" y="47.43" width="1.794" height="2.584" transform="translate(-20.5 49.153) rotate(-46.003)" fill="#fff"/><rect x="51.266" y="51.94" width="1.794" height="2.538" transform="translate(-22.346 52.469) rotate(-45)" fill="#fff"/><rect x="20.692" y="17.352" width="1.795" height="2.692" fill="#fff"/><rect x="20.692" y="23.633" width="1.795" height="2.692" fill="#fff"/><rect x="17.103" y="20.941" width="2.692" height="1.795" fill="#fff"/><rect x="23.384" y="20.941" width="2.692" height="1.795" fill="#fff"/></g></svg>