<?xml version="1.0" encoding="UTF-8"?><svg id="_レイヤー_2" xmlns="http://www.w3.org/2000/svg" viewBox="0 0 52.719 44.71"><g id="_レイヤー_2-2"><polygon points="4.849 0 4.849 12.919 0 12.919 4.672 0 4.849 0" fill="#9a854a"/><polygon points="52.719 12.919 47.97 12.919 47.97 0 48.047 0 52.719 12.919" fill="#9a854a"/><path d="M46.865,0v44.71l-20.323-7.143c-.059-.018-.122-.029-.184-.029-.059,0-.122.011-.18.033l-20.224,7.135V0h40.912Z" fill="#9a854a"/><polygon points="12.462 7.447 10.772 8.335 11.095 6.453 9.727 5.119 11.617 4.845 12.462 3.132 13.308 4.845 15.198 5.119 13.83 6.453 14.153 8.335 12.462 7.447" fill="#fff"/><polygon points="19.411 7.447 17.72 8.335 18.043 6.453 16.675 5.119 18.566 4.845 19.411 3.132 20.256 4.845 22.147 5.119 20.779 6.453 21.102 8.335 19.411 7.447" fill="#fff"/><polygon points="26.36 7.447 24.669 8.335 24.992 6.453 23.624 5.119 25.514 4.845 26.36 3.132 27.205 4.845 29.095 5.119 27.727 6.453 28.05 8.335 26.36 7.447" fill="#fff"/><polygon points="33.308 7.447 31.618 8.335 31.94 6.453 30.573 5.119 32.463 4.845 33.308 3.132 34.154 4.845 36.044 5.119 34.676 6.453 34.999 8.335 33.308 7.447" fill="#fff"/><polygon points="40.257 7.447 38.566 8.335 38.889 6.453 37.521 5.119 39.412 4.845 40.257 3.132 41.102 4.845 42.993 5.119 41.625 6.453 41.948 8.335 40.257 7.447" fill="#fff"/><path d="M26.054,10.741l-9.834,5.682c-.189.106-.303.307-.3.526l.003,11.359c.003.211.113.406.303.521l9.837,5.67c.188.109.415.105.603,0l9.836-5.682c.185-.11.296-.307.296-.524v-11.355c-.001-.216-.122-.414-.304-.523l-9.839-5.674c-.184-.108-.415-.108-.601,0ZM26.355,11.955c.548.313,8.688,5.011,9.238,5.331.002.627.008,10.03.01,10.659-.553.318-8.691,5.024-9.238,5.334-.551-.311-8.69-5.004-9.238-5.325-.002-.631-.005-10.033-.007-10.664.547-.323,8.688-5.022,9.235-5.336Z" fill="#fff"/><path d="M20.266,23.71l.311.111c.037.204.142.387.296.544.161.149.359.285.591.39.228.112.475.197.75.251.266.061.523.086.768.085.766,0,1.328-.113,1.681-.338.354-.221.53-.648.529-1.26l-.004-6.181c0-.179-.077-.321-.229-.423-.158-.103-.299-.148-.444-.153v-.346l3.656-.004v.355c-.217-.005-.405.043-.558.148-.156.102-.232.24-.232.423l.002,6.351c0,.5-.108.939-.317,1.307-.21.377-.509.684-.896.926-.385.247-.835.416-1.364.521-.524.101-1.107.158-1.748.155-.398.004-.763-.028-1.098-.077-.327-.048-.626-.109-.89-.177-.266-.077-.496-.141-.694-.209-.198-.061-.36-.089-.493-.094-.14.005-.259.075-.346.234l-.29-.192,1.019-2.344Z" fill="#fff"/><path d="M30.68,27.653c-.033,0-.061,0-.087-.01-.024,0-.055,0-.086-.002-.065,0-.212.066-.447.187-.235.127-.531.271-.894.419-.354.158-.766.295-1.225.409-.454.118-.934.173-1.435.177-.658-.004-1.286-.091-1.893-.255-.599-.17-1.137-.422-1.599-.772-.465-.354-.829-.787-1.103-1.302-.27-.524-.404-1.134-.404-1.834-.003-.69.133-1.296.404-1.821.273-.523.639-.97,1.1-1.323.46-.354.998-.62,1.6-.796.606-.175,1.233-.265,1.89-.27.536-.002,1.011.048,1.448.127.43.085.811.172,1.132.264.322.095.579.182.766.262.19.083.304.132.342.127.052.005.098-.024.134-.076.037-.054.062-.088.091-.125l.23.185-1.219,1.897-.153-.119c0-.028-.005-.054-.009-.088-.008-.034-.015-.071-.027-.113-.021-.111-.124-.225-.311-.352-.193-.12-.422-.223-.697-.318-.273-.097-.565-.172-.873-.234-.31-.066-.594-.092-.85-.092-.441-.006-.863.06-1.261.184-.399.133-.751.315-1.047.55-.297.24-.535.537-.707.888-.179.348-.272.746-.269,1.192-.002.455.091.853.269,1.2.172.349.41.65.707.881.297.243.647.425,1.049.552.4.12.821.187,1.259.187.332,0,.683-.04,1.048-.121.366-.077.699-.18,1.002-.294.3-.12.555-.254.759-.404.198-.154.298-.3.301-.432.003-.077-.021-.134-.064-.192l.221-.12,1.031,1.653-.123.123Z" fill="#fff"/></g></svg>