<?xml version="1.0" encoding="UTF-8"?><svg id="_レイヤー_2" xmlns="http://www.w3.org/2000/svg" viewBox="0 0 71.86 71.86"><g id="_レイヤー_2-2"><rect width="71.86" height="71.86" rx="7.387" ry="7.387" fill="#fac030"/><path d="M21.93,21.799c3.179-3.179,7.317-4.743,11.505-4.743,4.138,0,8.326,1.564,11.505,4.743,3.179,3.179,4.743,7.317,4.743,11.505,0,3.028-.858,6.055-2.523,8.679l8.377,8.427h0c.707.706,1.06,1.615,1.06,2.523s-.353,1.817-1.06,2.473c-.656.706-1.564,1.06-2.523,1.06-.908,0-1.817-.353-2.473-1.06h0l-8.427-8.377c-2.624,1.665-5.652,2.523-8.679,2.523-4.188,0-8.326-1.564-11.505-4.743-3.179-3.179-4.743-7.367-4.743-11.505,0-4.188,1.564-8.326,4.743-11.505h0ZM34.343,20.689c3.078.252,5.854,1.665,7.973,3.734,2.069,2.069,3.431,4.895,3.684,7.973.051.303-.05.555-.252.757-.202.252-.454.353-.757.353h-.051c-.505,0-.959-.404-1.009-.908-.202-2.624-1.362-4.945-3.078-6.711-1.766-1.716-4.087-2.876-6.711-3.129-.505-.05-.908-.454-.908-1.009v-.051c0-.252.101-.555.303-.706.202-.202.505-.303.807-.303h0ZM45.898,43.699c-.202.303-.454.555-.757.858h0v.051h-.05v.05h-.051v.05l-.101.101-.101.101h-.05v.05h-.051l-.05.05h0v.051c-.303.252-.555.505-.858.757l8.175,8.124h0c.252.303.656.454,1.009.454.404,0,.807-.151,1.06-.454.303-.252.454-.656.454-1.009,0-.404-.151-.807-.454-1.06h0l-8.175-8.175ZM33.435,19.124c-3.633,0-7.266,1.362-10.042,4.138-2.775,2.775-4.138,6.409-4.138,10.042s1.362,7.266,4.138,10.042c2.775,2.725,6.409,4.138,10.042,4.138,3.583,0,7.115-1.363,9.89-4.037h0l.101-.101h0l.05-.051h0l.101-.101h0c2.674-2.775,4.037-6.308,4.037-9.89,0-3.633-1.413-7.267-4.188-10.042-2.725-2.775-6.358-4.138-9.991-4.138h0Z" fill="#fff"/></g></svg>