<?xml version="1.0" encoding="UTF-8"?><svg id="_レイヤー_2" xmlns="http://www.w3.org/2000/svg" viewBox="0 0 71.86 71.86"><g id="_レイヤー_2-2"><rect width="71.86" height="71.86" rx="7.387" ry="7.387" fill="#ffa78e"/><path d="M35.125,18.216c5.097,0,9.739,2.069,13.12,5.399,3.33,3.381,5.399,8.023,5.399,13.12,0,5.147-2.069,9.79-5.399,13.12-3.381,3.381-8.023,5.45-13.12,5.45-5.147,0-9.789-2.069-13.12-5.45-3.381-3.33-5.45-7.973-5.45-13.12,0-5.097,2.069-9.739,5.45-13.12,3.33-3.331,7.973-5.399,13.12-5.399h0ZM40.221,33.556c0,.555-.505,1.06-1.06,1.06s-1.06-.505-1.06-1.06c0-.959.505-1.867,1.211-2.473l.101-.05c.656-.555,1.564-.908,2.574-.908s1.968.404,2.624.959h0c.757.606,1.211,1.514,1.211,2.473,0,.555-.454,1.06-1.06,1.06-.555,0-1.009-.505-1.009-1.06,0-.353-.202-.656-.454-.908h0c-.353-.252-.807-.404-1.312-.404s-.959.151-1.312.404h0c-.303.252-.454.555-.454.908h0ZM26.698,33.455c0,.555-.454,1.009-1.009,1.009-.605,0-1.06-.454-1.06-1.009,0-1.009.454-1.867,1.211-2.473l.05-.05c.707-.555,1.615-.908,2.574-.908,1.06,0,1.968.353,2.674.959.757.606,1.211,1.463,1.211,2.473,0,.555-.505,1.009-1.06,1.009s-1.009-.454-1.009-1.009c0-.353-.202-.656-.454-.908-.353-.252-.808-.454-1.363-.454-.454,0-.908.151-1.261.404l-.051.05c-.252.252-.454.555-.454.908h0ZM27.253,38.047h15.744c.555,0,1.009.505,1.009,1.06v1.11c0,2.473-1.009,4.693-2.624,6.308-1.615,1.615-3.835,2.624-6.257,2.624-2.473,0-4.693-1.009-6.308-2.624-1.615-1.615-2.624-3.835-2.624-6.308v-1.11c0-.555.454-1.06,1.06-1.06h0ZM41.937,40.167h-13.675v.05c0,1.918.807,3.583,2.019,4.844,1.261,1.211,2.977,2.018,4.844,2.018s3.583-.807,4.794-2.018c1.261-1.262,2.018-2.927,2.018-4.844v-.05ZM46.731,25.079c-2.977-2.977-7.065-4.794-11.606-4.794s-8.679,1.817-11.656,4.794c-2.977,2.977-4.844,7.115-4.844,11.657s1.867,8.68,4.844,11.657c2.977,2.977,7.115,4.844,11.656,4.844s8.629-1.867,11.606-4.844c3.028-2.977,4.844-7.115,4.844-11.657s-1.817-8.679-4.844-11.657h0Z" fill="#fff"/></g></svg>