<?xml version="1.0" encoding="UTF-8"?><svg id="_レイヤー_2" xmlns="http://www.w3.org/2000/svg" viewBox="0 0 10.156 16.929"><g id="_レイヤー_2-2"><path d="M.174,15.132l2.361-2.991.266-3.781s.017-.391.026-.419l.259-1.81-.584.304-1.015,1.955c-.164.318-.551.474-.905.351-.383-.133-.583-.542-.447-.913l.871-2.374c.061-.165.183-.311.354-.4l2.099-1.094s.476-.231.711-.302c.651-.196,1.892-.062,2.305.446.21.257.242.32.34.473l1.236,2.108,1.798.586c.275.177.384.526.242.825-.157.331-.56.475-.901.323l-2.184-.452c-.11-.049-.207-.129-.275-.236l-.683-1.068-.349,1.415,1.646,4.066c.009.024.017.048.022.074l.804,3.753c.084.398-.157.803-.566.922-.433.126-.89-.113-1.02-.533l-1.101-3.555-.71-1.396-.307,1.351c-.03.128-.092.251-.188.355l-2.805,3.058c-.291.316-.791.368-1.145.105-.37-.275-.441-.79-.157-1.149Z" fill="#c80000"/><circle cx="5.772" cy="1.675" r="1.675" fill="#c80000"/></g></svg>