<?xml version="1.0" encoding="UTF-8"?><svg id="_レイヤー_2" xmlns="http://www.w3.org/2000/svg" viewBox="0 0 38.556 20.721"><g id="_レイヤー_2-2"><path d="M36.703,8.902c-1.699-2.036-6.609-1.899-7.546-2.325-.936-.426-3.022-6.578-13.159-6.578C8.025,0,6.6.73,3.989,5.8c-.543,1.055-1.379,1.254-2.296,2.127C.306,9.246-.191,13.287.064,15.245c.16,1.223,1.381,1.709,2.276,1.901.497,2.051,2.344,3.575,4.548,3.575,2.159,0,3.975-1.462,4.515-3.449h15.826c.541,1.987,2.357,3.449,4.515,3.449,2.247,0,4.124-1.585,4.576-3.698.62-.113,1.173-.278,1.457-.518,1.061-.897,1.322-4.732-1.075-7.603ZM6.888,18.605c-1.416,0-2.564-1.148-2.564-2.564s1.148-2.565,2.564-2.565,2.565,1.148,2.565,2.565-1.148,2.564-2.565,2.564ZM15.372,7.707h-6.089c-2.039,0-2.072-.777-1.874-1.362,1.448-3.457,1.649-4.379,7.963-4.458v5.82ZM24.999,7.707h-7.494V1.915c6.486.377,8.203,3.899,8.594,4.708.207.348.359,1.084-1.1,1.084ZM31.746,18.605c-1.416,0-2.565-1.148-2.565-2.564s1.148-2.565,2.565-2.565,2.565,1.148,2.565,2.565-1.148,2.564-2.565,2.564Z" fill="#d02626"/></g></svg>