<?xml version="1.0" encoding="UTF-8"?><svg id="_レイヤー_2" xmlns="http://www.w3.org/2000/svg" viewBox="0 0 16.929 13.529"><g id="_レイヤー_2-2"><path d="M.72,4.092c-.44.369-.72.921-.72,1.54s.28,1.172.72,1.54c.221.185.559.034.559-.255v-2.572c0-.289-.337-.44-.559-.255Z" fill="#c80000"/><path d="M12.35,3.885c-.22-.126-.495.044-.495.298l.003,2.897c0,.254.275.424.495.297.604-.347,1.011-.999,1.011-1.746s-.408-1.401-1.014-1.747Z" fill="#c80000"/><path d="M5.07,9.78c-.029-.057-.087-.094-.151-.094h-1.836c-.058,0-.112.03-.143.079-.031.049-.034.111-.008.163l1.256,3.229c.104.226.333.372.581.372h.794c.22,0,.422-.111.54-.296.119-.186.134-.415.04-.619l-1.073-2.835Z" fill="#c80000"/><path d="M5.607,8.868V2.397c0-.186-.15-.336-.336-.336h-2.831c-.363,0-.658.295-.658.658v5.827c0,.363.295.658.658.658h2.831c.186,0,.336-.15.336-.336Z" fill="#c80000"/><path d="M10.859.106c-.217-.132-.482-.142-.706-.025l-3.624,1.878c-.273.142-.449.45-.449.787v5.773c0,.336.176.645.449.787l3.624,1.878c.105.055.218.081.331.081.13,0,.259-.035.375-.106.25-.152.405-.444.405-.762V.868c0-.318-.155-.61-.405-.762Z" fill="#c80000"/><path d="M16.525,5.194h-2.282c-.223,0-.404.181-.404.404s.181.404.404.404h2.282c.223,0,.404-.181.404-.404s-.181-.404-.404-.404Z" fill="#c80000"/><path d="M14.18,3.972c.055,0,.112-.011.165-.036l2.081-.938c.203-.092.294-.33.202-.534-.092-.203-.33-.295-.534-.202l-2.081.938c-.203.092-.294.33-.202.534.067.149.214.238.368.238Z" fill="#c80000"/><path d="M16.426,8.196l-2.081-.938c-.203-.092-.442-.001-.534.202-.092.203-.001.442.202.534l2.081.938c.054.024.11.036.165.036.154,0,.301-.088.368-.238.092-.203.001-.442-.202-.534Z" fill="#c80000"/></g></svg>