<?xml version="1.0" encoding="UTF-8"?><svg id="_レイヤー_2" xmlns="http://www.w3.org/2000/svg" viewBox="0 0 71.86 71.86"><g id="_レイヤー_2-2"><rect width="71.86" height="71.86" rx="7.387" ry="7.387" fill="#74a6ff"/><path d="M55.289,25.97l-5.45,21.749c-.101.454-.555.757-1.009.757h-20.487l.454,1.816c1.716.051,3.129,1.262,3.583,2.826l9.991.051c.454-1.665,1.968-2.876,3.734-2.876,2.119,0,3.885,1.716,3.885,3.886,0,2.119-1.766,3.835-3.885,3.835-1.766,0-3.23-1.161-3.734-2.775l-9.991-.05c-.454,1.615-1.968,2.826-3.734,2.826-2.119,0-3.885-1.716-3.885-3.835,0-1.463.807-2.725,2.019-3.381l-1.867-7.721-4.289-17.157c0-.05-.05-.101-.05-.151l-1.11-4.491h-6.005c-.555,0-1.06-.454-1.06-1.06,0-.555.505-1.009,1.06-1.009h6.812c.555,0,.959.353,1.06.858l1.11,4.592h31.841c.555,0,1.009.454,1.009,1.009v.303h0ZM41.059,46.407l.202-3.381h-6.61l.202,3.381h6.207ZM41.361,40.957l.404-6.056h-7.62l.353,6.056h6.863ZM41.917,32.833l.353-6.106h-8.679l.404,6.106h7.922ZM44.339,26.727l-.353,6.106h7.418l1.564-6.106h-8.629ZM43.834,34.902l-.353,6.056h5.904l1.514-6.056h-7.065ZM43.329,43.026l-.202,3.381h4.895l.858-3.381h-5.551ZM32.783,46.407l-.202-3.381h-5.551l.858,3.381h4.895ZM32.43,40.957l-.404-6.056h-7.014l1.514,6.056h5.904ZM31.925,32.833l-.404-6.106h-8.578l.606,2.321.908,3.785h7.468Z" fill="#fff"/></g></svg>