<?xml version="1.0" encoding="UTF-8"?><svg id="_レイヤー_2" xmlns="http://www.w3.org/2000/svg" viewBox="0 0 71.86 71.86"><g id="_レイヤー_2-2"><rect width="71.86" height="71.86" rx="7.387" ry="7.387" fill="#fac030"/><path d="M43.999,17.299c-.002-2.032,1.649-3.683,3.689-3.689,2.035.006,3.687,1.657,3.69,3.689-.003,2.043-1.655,3.693-3.69,3.689-2.04.004-3.691-1.646-3.689-3.689ZM35.145,26.201l3.951,4.785c1.015,1.269,2.322.929,2.832-.548l1.095-3.498h.857l-2.071,7.14h11.473l-1.928-7.14h.81l1.952,7.14h3.237l-2.403-8.855c-.399-1.312-2.273-3.394-4.665-3.403h-5.046c-2.678.009-4.463,1.861-4.998,3.737,0,0-.456,1.591-.453,1.546l-2.356-2.808c-.335-.365-.734-.521-1.119-.525v-6.783h-3.309v7.355h2.099c-.388.471-.487,1.172.044,1.857ZM21.838,21.035c2.031-.006,3.683-1.659,3.69-3.689-.007-2.044-1.658-3.695-3.69-3.689-2.044-.006-3.695,1.646-3.689,3.689-.005,2.031,1.646,3.683,3.689,3.689ZM26.552,34.913v-9.401l6.95,8.212c1.473,1.694,4.08-.422,2.618-2.238l-7.212-8.665c-.477-.463-.897-1.022-2.619-1.023h-8.664c-1.865,0-3.169,1.118-3.166,2.571v10.543h-2.119v4.189h4.832v16.759h0c-.006,3.102,4.251,3.092,4.262.047v-16.806h.833v16.901c.01,3.059,4.293,2.96,4.284-.095v-16.806h32.967v-4.189H26.552Z" fill="#fff"/></g></svg>