<?xml version="1.0" encoding="UTF-8"?><svg id="_レイヤー_2" xmlns="http://www.w3.org/2000/svg" viewBox="0 0 71.86 71.86"><g id="_レイヤー_2-2"><rect width="71.86" height="71.86" rx="7.387" ry="7.387" fill="#74a6ff"/><path d="M32.412,19.451h6.61c2.977,0,5.652,1.211,7.569,3.129l.05.05c1.917,1.968,3.128,4.592,3.128,7.519v13.069c0,1.161-.505,2.22-1.261,3.028-.807.757-1.867,1.261-3.028,1.261h-19.528c-1.161,0-2.22-.505-2.977-1.261h0c-.808-.807-1.262-1.867-1.262-3.028v-13.069c0-2.927,1.211-5.601,3.128-7.569,1.968-1.918,4.643-3.129,7.57-3.129h0ZM40.536,26.011h-2.725v4.693h6.257v-1.161c0-.959-.404-1.867-1.009-2.523l-.05-.05c-.656-.605-1.514-.959-2.473-.959h0ZM36.802,23.942h3.734c1.514,0,2.876.606,3.885,1.564l.101.05c1.009,1.009,1.615,2.422,1.615,3.986v2.17c0,.606-.454,1.06-1.009,1.06h-8.326c-.605,0-1.06-.454-1.06-1.06v-6.762c0-.555.454-1.009,1.06-1.009h0ZM44.068,49.678c-.202-.555.05-1.161.555-1.363.505-.202,1.11.05,1.362.555l3.129,7.468c.202.505-.05,1.11-.555,1.363-.505.202-1.161-.051-1.362-.555l-.605-1.463h-22.052l-.555,1.463c-.253.505-.858.757-1.363.555-.555-.253-.807-.858-.555-1.363l3.128-7.468c.202-.505.808-.757,1.363-.555.505.202.757.807.555,1.363l-.05.05h17.056l-.05-.05ZM45.734,53.614l-.757-1.766h-18.772l-.757,1.766h20.285ZM28.88,36.053c.808,0,1.564.353,2.12.908h0c.555.555.908,1.312.908,2.119,0,.858-.353,1.615-.908,2.17h0c-.555.555-1.312.858-2.12.858-.858,0-1.615-.303-2.17-.858-.555-.555-.858-1.312-.858-2.17,0-.807.303-1.564.858-2.119.555-.555,1.312-.908,2.17-.908h0ZM29.535,38.425c-.151-.202-.403-.303-.656-.303s-.505.152-.706.303c-.152.151-.253.404-.253.656,0,.303.101.505.253.707.202.151.454.252.706.252s.505-.101.656-.252c.202-.202.303-.404.303-.707,0-.252-.101-.505-.303-.656h0ZM30.494,23.942h3.734c.555,0,1.06.454,1.06,1.009v6.762c0,.606-.505,1.06-1.06,1.06h-8.326c-.555,0-1.06-.454-1.06-1.06v-2.17c0-1.564.656-2.977,1.666-3.986l.05-.05c1.009-.959,2.422-1.564,3.936-1.564h0ZM33.169,26.011h-2.675c-.959,0-1.816.353-2.473.959l-.05.05c-.605.656-1.009,1.564-1.009,2.523v1.161h6.207v-4.693ZM42.555,36.053c.858,0,1.615.353,2.17.908.555.555.908,1.312.908,2.119,0,.858-.353,1.615-.908,2.17-.555.555-1.312.858-2.17.858-.808,0-1.564-.303-2.119-.858h0c-.555-.555-.908-1.312-.908-2.17,0-.807.353-1.564.908-2.119h0c.555-.555,1.312-.908,2.119-.908h0ZM43.261,38.425c-.202-.151-.404-.303-.707-.303-.252,0-.505.101-.656.303-.152.151-.253.404-.253.656,0,.303.101.505.253.707.151.151.404.252.656.252.303,0,.505-.101.707-.252.151-.202.252-.404.252-.707,0-.252-.101-.505-.252-.656h0ZM39.022,21.52h-6.61c-2.372,0-4.542.959-6.106,2.523-1.565,1.564-2.523,3.734-2.523,6.106v13.069c0,.606.253,1.161.656,1.564h0c.403.353.908.605,1.514.605h19.528c.606,0,1.161-.252,1.565-.605.353-.404.606-.959.606-1.564v-13.069c0-2.372-.908-4.491-2.473-6.056l-.05-.05c-1.565-1.564-3.734-2.523-6.106-2.523h0Z" fill="#fff"/></g></svg>