<?xml version="1.0" encoding="UTF-8"?><svg id="_レイヤー_2" xmlns="http://www.w3.org/2000/svg" viewBox="0 0 28.567 28.567"><g id="_レイヤー_2-2"><rect x="0" y="0" width="28.567" height="28.567" rx="14.283" ry="14.283" fill="#e40224"/><path d="M9.747,16.614c1.072,0,1.94.869,1.94,1.941s-.868,1.94-1.94,1.94-1.941-.868-1.941-1.94.869-1.941,1.941-1.941Z" fill="#fff"/><path d="M7.809,13.663c1.819,0,3.527.711,4.813,2.001,1.286,1.293,1.993,3.013,1.993,4.845h2.801c0-5.32-4.309-9.649-9.607-9.649v2.802Z" fill="#fff"/><path d="M7.812,8.696c6.48,0,11.752,5.301,11.752,11.815h2.801c0-8.06-6.528-14.617-14.553-14.617v2.802Z" fill="#fff"/></g></svg>