<?xml version="1.0" encoding="UTF-8"?><svg id="_レイヤー_2" xmlns="http://www.w3.org/2000/svg" xmlns:xlink="http://www.w3.org/1999/xlink" viewBox="0 0 28.566 28.567"><defs><linearGradient id="_名称未設定グラデーション_90" x1="7.14" y1="26.655" x2="21.426" y2="1.912" gradientUnits="userSpaceOnUse"><stop offset="0" stop-color="#42a3cd"/><stop offset="1" stop-color="#0045bc"/></linearGradient></defs><g id="_レイヤー_2-2"><path d="M14.284,0c7.888,0,14.282,6.395,14.282,14.284s-6.394,14.283-14.282,14.283S0,22.172,0,14.284,6.395,0,14.284,0h0Z" fill="url(#_名称未設定グラデーション_90)"/><path d="M16.608,7.15c.5.657.925,1.378,1.264,2.142.033.073.064.147.094.22l.14.335.334-.142c.498-.212.979-.464,1.429-.748l.391-.246-.334-.32c-.84-.805-1.82-1.411-2.91-1.799l-1.144-.408.736.967h0ZM11.509,6.606c-1.128.409-2.175,1.079-3.025,1.938l-.327.331.402.235c.479.281.988.526,1.511.728l.333.128.132-.331c.059-.146.109-.267.16-.38.33-.744.742-1.448,1.227-2.092l.729-.97-1.141.413h0ZM14.651,10.57l.391-.033c.665-.055,1.326-.169,1.964-.34l.404-.108-.164-.384c-.491-1.142-1.155-2.147-1.975-2.984l-.619-.632v4.48h0ZM13.297,6.685c-.851.868-1.533,1.914-2.028,3.109l-.162.393.413.097c.658.153,1.336.248,2.017.28l.378.018v-4.53l-.618.632h0ZM7.505,9.739c-.749,1.114-1.215,2.409-1.346,3.743l-.039.396h3.574l.014-.346c.036-.873.163-1.73.379-2.548l.082-.314-.303-.116c-.195-.074-.388-.154-.575-.236-.447-.198-.884-.428-1.298-.684l-.295-.182-.194.288h0ZM10.788,11.235c-.19.736-.304,1.498-.342,2.264l-.018.378h3.487v-2.561l-.346-.014c-.799-.032-1.588-.143-2.346-.327l-.346-.085-.089.345h0ZM17.295,10.878c-.748.207-1.526.342-2.309.401l-.335.025v2.574h3.487l-.02-.379c-.041-.8-.168-1.596-.378-2.367l-.095-.35-.35.097h0ZM20.437,9.458c-.398.263-.815.5-1.239.705-.18.087-.368.171-.559.251l-.295.123.085.308c.243.864.386,1.768.426,2.686l.015.346h3.575l-.039-.396c-.139-1.413-.65-2.773-1.477-3.931l-.203-.283-.29.192h0ZM10.473,15.004c.067.799.217,1.585.446,2.337l.098.324.33-.078c.716-.169,1.464-.272,2.222-.305l.345-.015v-2.655h-3.474l.032.391h0ZM14.651,17.277l.336.024c.747.053,1.491.177,2.21.367l.334.089.103-.331c.241-.778.397-1.593.463-2.423l.031-.39h-3.477v2.664h0ZM6.152,15.006c.121,1.376.595,2.707,1.373,3.852l.195.287.294-.183c.421-.261.864-.495,1.316-.696.21-.093.434-.184.669-.271l.319-.118-.099-.326c-.256-.839-.42-1.715-.487-2.604l-.025-.334h-3.589l.035.393h0ZM18.837,14.948c-.067.929-.24,1.844-.513,2.718l-.1.319.31.124c.241.096.476.2.702.309.412.2.819.43,1.208.684l.29.19.202-.283c.841-1.18,1.352-2.565,1.479-4.005l.034-.393h-3.587l-.024.335h0ZM13.535,18.02c-.606.031-1.218.113-1.815.243l-.444.097.195.411c.471.996,1.085,1.882,1.826,2.633l.618.627v-4.029l-.38.019h0ZM14.651,22.068l.618-.627c.733-.743,1.343-1.619,1.812-2.603l.191-.4-.43-.106c-.585-.144-1.191-.242-1.801-.29l-.39-.031v4.057h0ZM17.82,18.981c-.033.073-.067.145-.101.217-.414.857-.935,1.646-1.548,2.345l-.811.927,1.183-.342c1.262-.364,2.434-1.041,3.388-1.957l.335-.321-.394-.246c-.501-.314-1.036-.586-1.589-.809l-.32-.128-.143.313h0ZM10.262,18.688c-.588.217-1.154.484-1.682.794l-.402.236.33.33c.989.992,2.221,1.716,3.561,2.093l1.186.335-.818-.922c-.63-.711-1.166-1.516-1.591-2.394-.044-.092-.087-.186-.13-.281l-.138-.308-.316.117h0ZM14.283,23.473c-2.455,0-4.762-.956-6.498-2.692-.059-.059-.121-.124-.192-.199-.321-.341-.618-.708-.884-1.091-1.057-1.53-1.616-3.331-1.616-5.209,0-1.864.552-3.655,1.596-5.179.262-.384.559-.753.88-1.095.082-.087.15-.159.216-.225,1.736-1.736,4.043-2.692,6.498-2.692s4.763.956,6.498,2.692l.035.035c.33.333.635.693.909,1.069,1.143,1.57,1.747,3.436,1.747,5.394s-.601,3.815-1.739,5.383c-.273.376-.578.736-.906,1.069-.001,0-.038.038-.046.046-1.735,1.736-4.043,2.692-6.498,2.692h0Z" fill="#fff"/></g></svg>