<?xml version="1.0" encoding="UTF-8"?><svg id="_レイヤー_2" xmlns="http://www.w3.org/2000/svg" viewBox="0 0 72.65 63.695"><g id="_レイヤー_1-2"><ellipse cx="14.59" cy="11.12" rx="11.496" ry="11.107" transform="translate(-1.619 2.53) rotate(-9.392)" fill="#c6000b" stroke-width="0"/><ellipse cx="13.293" cy="12.367" rx="7.733" ry="7.799" transform="translate(-1.84 2.335) rotate(-9.392)" fill="#e69172" stroke-width="0"/><ellipse cx="61.525" cy="15.409" rx="10.755" ry="11.127" transform="translate(40.276 75.168) rotate(-84.487)" fill="#c6000b" stroke-width="0"/><ellipse cx="62.869" cy="16.9" rx="7.503" ry="7.614" transform="translate(40.007 77.855) rotate(-84.487)" fill="#e69172" stroke-width="0"/><path d="m38.661,2.64c14.171,1.52,27.211,12.57,30.605,25.85,3.753,14.685-2.905,38.388-35.023,34.85C2.794,59.875-1.191,41.656.249,32.262,1.965,21.064,10.916-.337,38.661,2.64Z" fill="#c6000b" stroke-width="0"/><ellipse cx="34.875" cy="33.696" rx="4.206" ry="5.134" transform="translate(-5.897 59.95) rotate(-76.794)" fill="#fff" stroke-width="0"/><ellipse cx="51.19" cy="31.226" rx="3.648" ry="4.236" transform="translate(-5.767 12.479) rotate(-13.165)" fill="#fff" stroke-width="0"/><ellipse cx="19.302" cy="25.058" rx="4.304" ry="3.707" transform="translate(-12.234 22.611) rotate(-47.957)" fill="#fff" stroke-width="0"/><path d="m33.914,37.791s-1.913,2.73-2.376,6.598c-.463,3.868.382,7.404.382,7.404" fill="none" stroke="#fff" stroke-linecap="round" stroke-linejoin="round" stroke-width="1.673"/><path d="m24.078,46.251s.177,3.721,5.701,5.141c7.941,2.041,11.37-.587,11.37-.587" fill="none" stroke="#fff" stroke-linecap="round" stroke-linejoin="round" stroke-width="1.673"/></g></svg>