<?xml version="1.0" encoding="UTF-8"?><svg id="_レイヤー_2" xmlns="http://www.w3.org/2000/svg" viewBox="0 0 71.86 71.86"><g id="_レイヤー_2-2"><rect width="71.86" height="71.86" rx="7.387" ry="7.387" fill="#74a6ff"/><path d="M46.084,30.424l-1.062-2.738h-17.324l-1.062,2.738h19.448ZM18.869,50.878v.447c0,.391.112.726.391,1.006.168.224.447.391.782.391h1.565c.279,0,.559-.168.782-.391.224-.279.391-.615.391-1.006v-.447h-3.912ZM16.578,51.325v-.727c-.279-.168-.559-.335-.782-.559h0c-.503-.503-.782-1.174-.782-1.9v-8.606c0-.615.112-1.229.391-1.788.224-.503.615-1.006,1.118-1.453l1.676-1.397-.391-.056c-.615-.167-1.118-.503-1.509-.95-.391-.503-.615-1.062-.615-1.732v-.503c0-.279.056-.503.168-.727.056-.224.224-.447.391-.615.168-.224.391-.335.615-.447.224-.112.503-.112.727-.112h3.241l2.235-5.812c.168-.503.503-.95.95-1.229.447-.335,1.006-.503,1.565-.503h21.571c.559,0,1.118.168,1.565.503.391.279.782.726.95,1.229l2.235,5.812h3.185c.279,0,.559,0,.782.112.224.112.447.224.615.447.168.168.335.391.391.615.112.224.168.447.168.727v.503c0,.671-.224,1.229-.615,1.732-.391.447-.894.782-1.565.95l-.335.056,1.677,1.397c.503.447.838.95,1.118,1.453.279.559.391,1.174.391,1.788v8.606c0,.727-.279,1.397-.782,1.9h0c-.224.224-.503.391-.782.559v.727c0,.95-.335,1.9-.95,2.57-.671.671-1.509,1.118-2.515,1.118h-1.565c-.95,0-1.844-.447-2.459-1.118-.615-.67-1.006-1.621-1.006-2.57v-.447h-22.577v.447c0,.95-.391,1.9-1.006,2.57-.615.671-1.509,1.118-2.459,1.118h-1.565c-1.006,0-1.844-.447-2.515-1.118-.615-.67-.95-1.621-.95-2.57h0ZM53.852,51.325v-.447h-3.912v.447c0,.391.168.726.391,1.006.224.224.503.391.782.391h1.565c.335,0,.615-.168.782-.391.224-.279.391-.615.391-1.006h0ZM28.09,42.048l-6.091-1.285v1.732l6.091.056v-.503ZM21.048,38.248l7.824,1.621c.447.112.838.335,1.118.671.279.335.447.782.447,1.229v1.9h-.056c0,.671-.503,1.174-1.118,1.174h-7.656c-.559-.056-1.006-.224-1.341-.615-.391-.335-.559-.782-.559-1.341v-3.521h0v-.224c.112-.615.726-1.006,1.341-.894h0ZM43.849,39.868l7.824-1.621c.615-.112,1.229.28,1.341.894v.224h0v3.521c0,.559-.168,1.006-.559,1.341-.335.391-.838.559-1.341.615h-7.656c-.615,0-1.174-.503-1.174-1.174h0v-1.9c0-.447.168-.894.447-1.229.279-.335.671-.559,1.118-.671h0ZM50.723,40.762l-6.091,1.285v.503l6.091-.056v-1.732ZM33.79,48.53h21.236c.112,0,.168,0,.279-.112h0c.056-.056.112-.167.112-.279v-8.606c0-.279-.056-.559-.168-.782-.112-.279-.279-.503-.559-.67l-2.85-2.459c-.168-.112-.279-.279-.335-.447l-.224-.615c-.223-.559.056-1.229.671-1.453.056-.056.112-.056.224-.056l2.235-.503c.112,0,.168-.056.224-.112.056-.056.112-.168.112-.279v-.112h-3.632c-.503,0-.95-.335-1.118-.726h0l-2.459-6.538c-.056-.112-.112-.168-.168-.224-.056,0-.112-.056-.224-.056h-21.571c-.112,0-.168.056-.224.056-.056.056-.112.112-.168.224l-2.459,6.538c-.224.447-.671.782-1.174.726h-3.576v.112c0,.112.056.224.112.279.056.056.112.112.224.112l2.291.503c.615.112,1.006.726.894,1.341,0,.056,0,.112-.056.168l-.224.615c-.056.168-.168.335-.335.503l-2.85,2.403c-.279.167-.447.391-.559.67-.112.224-.168.503-.168.782v8.606c0,.112.056.224.112.279h0c.112.112.168.112.279.112h16.095ZM46.923,26.121l1.9,4.974c.056.168.056.335.056.503,0,.615-.503,1.118-1.118,1.118h-22.8c-.112,0-.279,0-.391-.056-.615-.223-.894-.894-.671-1.509l1.9-4.974c.168-.447.559-.782,1.062-.782h18.945c.503,0,.95.279,1.118.726h0Z" fill="#fff"/></g></svg>