<?xml version="1.0" encoding="UTF-8"?><svg id="_レイヤー_2" xmlns="http://www.w3.org/2000/svg" viewBox="0 0 71.86 71.86"><g id="_レイヤー_2-2"><rect width="71.86" height="71.86" rx="7.387" ry="7.387" fill="#ffa78e"/><path d="M35.125,25.965c1.009-1.716,2.019-3.078,3.28-4.037,1.716-1.363,3.734-2.069,6.358-2.069,2.977,0,5.652,1.211,7.569,3.129,1.968,1.968,3.129,4.643,3.129,7.569,0,5.097-1.463,8.932-4.794,12.515-3.229,3.431-8.124,6.611-15.037,10.446-.353.202-.757.202-1.11-.05-6.156-3.734-11.051-6.863-14.432-10.345-3.482-3.532-5.349-7.418-5.349-12.565,0-2.927,1.211-5.601,3.179-7.569,1.918-1.918,4.592-3.129,7.569-3.129,4.693,0,7.317,2.019,9.638,6.106h0ZM39.717,23.543c-1.413,1.06-2.523,2.775-3.684,5.046-.101.202-.252.404-.454.505-.505.252-1.11.05-1.363-.505-2.22-4.441-4.44-6.661-8.73-6.661-2.422,0-4.541.959-6.106,2.523-1.564,1.564-2.523,3.734-2.523,6.106,0,4.542,1.665,7.973,4.743,11.152,3.129,3.179,7.721,6.156,13.524,9.739,6.459-3.633,11.051-6.61,14.028-9.789,2.927-3.129,4.239-6.56,4.239-11.102,0-2.372-.959-4.541-2.523-6.106-1.564-1.564-3.684-2.523-6.106-2.523-2.17,0-3.734.555-5.046,1.615h0Z" fill="#fff"/></g></svg>