<?xml version="1.0" encoding="UTF-8"?><svg id="_レイヤー_2" xmlns="http://www.w3.org/2000/svg" viewBox="0 0 71.86 71.86"><g id="_レイヤー_2-2"><rect width="71.86" height="71.86" rx="7.387" ry="7.387" fill="#fac030"/><path d="M19.152,20.26h5.954v-1.463c0-.555.454-1.06,1.06-1.06.555,0,1.009.505,1.009,1.06v1.463h17.46v-1.463c0-.555.505-1.06,1.06-1.06s1.06.505,1.06,1.06v1.463h5.904c.555,0,1.06.454,1.06,1.009v33.507c0,.555-.505,1.009-1.06,1.009H19.152c-.555,0-1.009-.454-1.009-1.009V21.269c0-.555.454-1.009,1.009-1.009h0ZM31.414,39.587c.555,0,1.009-.202,1.362-.505.404-.303.606-.757.606-1.312,0-.454-.151-.807-.454-1.161-.303-.303-.757-.454-1.262-.454-.353,0-.606.051-.858.151-.202.101-.404.202-.555.353-.101.202-.252.404-.353.656-.101.252-.202.454-.303.707-.051.101-.202.202-.303.252-.151.101-.353.101-.555.101s-.404-.051-.606-.252c-.202-.202-.303-.454-.303-.757s.101-.606.252-.908c.202-.353.454-.656.807-.959.353-.303.807-.555,1.312-.707.505-.202,1.06-.303,1.716-.303.555,0,1.06.101,1.514.252.454.152.858.353,1.211.656s.606.606.757,1.009c.151.353.252.757.252,1.211,0,.555-.101,1.06-.353,1.463-.252.404-.606.807-1.11,1.211.454.252.858.505,1.16.807.303.303.555.656.707,1.06.151.353.202.757.202,1.211,0,.505-.101,1.009-.303,1.514-.202.454-.505.908-.908,1.262-.404.404-.908.707-1.463.908-.555.202-1.161.303-1.867.303-.656,0-1.312-.101-1.817-.353-.555-.252-1.009-.555-1.362-.908-.353-.353-.606-.757-.807-1.161s-.252-.707-.252-.959c0-.353.101-.606.303-.807.202-.202.505-.303.807-.303.151,0,.303.05.454.151.151.051.252.202.303.303.303.807.606,1.413.959,1.766.353.404.807.606,1.463.606.353,0,.656-.101,1.009-.252.303-.202.606-.454.807-.808.202-.353.303-.706.303-1.161,0-.707-.151-1.211-.505-1.615-.404-.353-.908-.555-1.564-.555-.101,0-.303,0-.505.051h-.454c-.353,0-.606-.051-.757-.202-.151-.151-.252-.404-.252-.656,0-.303.101-.505.303-.656.202-.202.505-.252.908-.252h.353ZM42.011,45.995v-7.822c-1.413,1.11-2.422,1.665-2.927,1.665-.252,0-.454-.101-.656-.303-.151-.151-.252-.404-.252-.656,0-.303.101-.505.252-.656.202-.101.505-.303,1.009-.505.656-.353,1.211-.656,1.665-1.06.404-.353.757-.757,1.06-1.211.353-.404.555-.707.656-.807.101-.101.252-.151.555-.151s.555.101.707.353c.202.252.303.555.303.959v9.84c0,1.161-.404,1.716-1.211,1.716-.353,0-.606-.101-.807-.353-.252-.202-.353-.555-.353-1.009h0ZM43.474,23.086c.353-.353.757-.555,1.161-.706v-.051h-17.46v.051c.454.151.858.353,1.161.706.606.606.908,1.413.908,2.22s-.303,1.564-.908,2.22h0c-.606.605-1.413.908-2.17.908-.807,0-1.615-.303-2.22-.908-.606-.606-.908-1.413-.908-2.22s.303-1.615.908-2.22h0c.353-.353.757-.555,1.161-.706v-.051h-4.895v31.387h31.387v-31.387h-4.844v.051c.404.151.807.353,1.161.706.606.606.908,1.413.908,2.22s-.303,1.564-.908,2.22h0c-.656.605-1.413.908-2.22.908s-1.615-.303-2.22-.908c-.606-.606-.908-1.413-.908-2.22s.303-1.615.908-2.22h0ZM44.786,24.801c-.101.152-.151.303-.151.505,0,.252.101.505.303.707.202.202.505.303.757.303s.555-.051.706-.252l.051-.051c.202-.151.303-.454.303-.707,0-.202-.05-.353-.151-.505-.202.303-.505.505-.908.505s-.706-.202-.908-.505h0ZM25.258,24.801c-.101.152-.151.303-.151.505,0,.252.101.505.303.707.202.202.454.303.757.303.252,0,.505-.051.706-.252v-.051c.202-.151.303-.454.303-.707,0-.202-.05-.353-.151-.505-.151.303-.505.505-.858.505-.404,0-.757-.202-.908-.505h0ZM22.079,29.09h27.653c.606,0,1.06.454,1.06,1.06v21.598c0,.555-.454,1.009-1.06,1.009h-27.653c-.555,0-1.009-.454-1.009-1.009v-21.598c0-.606.454-1.06,1.009-1.06h0ZM48.722,31.159h-25.584v19.529h25.584v-19.529Z" fill="#fff"/></g></svg>