<?xml version="1.0" encoding="UTF-8"?><svg id="_レイヤー_2" xmlns="http://www.w3.org/2000/svg" viewBox="0 0 10.712 12.671"><g id="_レイヤー_2-2"><path d="M5.357.687c.278.166,4.454,2.652,4.738,2.822v5.651c-.284.162-4.46,2.655-4.738,2.827-.279-.172-4.459-2.665-4.73-2.827V3.509c.271-.17,4.451-2.656,4.73-2.822M5.2.041L.158,3.051c-.098.051-.158.159-.158.276v6.018c0,.105.06.219.158.272l5.041,3.009c.1.059.223.059.313,0l5.044-3.009c.097-.053.156-.167.156-.272V3.327c0-.117-.059-.225-.156-.276L5.512.041c-.09-.054-.212-.054-.313,0" fill="#c80000"/><path d="M2.229,6.908l.158.061c.029.108.075.196.158.287.082.085.177.152.305.208.114.055.242.104.382.133.139.032.266.045.388.045.4,0,.681-.061.87-.178.177-.114.266-.34.266-.667v-3.275c0-.092-.038-.168-.117-.222-.077-.052-.156-.09-.223-.09v-.18h1.872v.18c-.107,0-.204.033-.285.09-.078.053-.119.129-.119.222v3.363c0,.263-.055.501-.163.691-.107.201-.263.368-.461.492-.193.135-.431.225-.699.274-.27.059-.569.089-.893.089-.204,0-.392-.017-.559-.039-.185-.03-.335-.063-.463-.104-.139-.038-.26-.074-.357-.1-.108-.039-.186-.053-.255-.053-.072,0-.136.04-.172.115l-.156-.102.522-1.24Z" fill="#c80000"/><path d="M7.57,9.002h-.042c-.02-.009-.029-.009-.046-.009-.038,0-.106.039-.229.102-.121.066-.268.135-.451.226-.182.077-.398.154-.634.207-.233.067-.482.098-.74.098-.338,0-.656-.046-.965-.136-.313-.091-.589-.227-.822-.412-.24-.19-.427-.413-.567-.687-.139-.278-.205-.604-.205-.971,0-.36.067-.687.205-.966.14-.281.327-.509.567-.697.233-.192.509-.325.822-.429.309-.085.627-.14.965-.14.27,0,.523.025.751.067.209.044.407.093.571.148.172.042.302.088.389.136.098.05.162.065.181.065.031,0,.042-.015.068-.042.025-.023.034-.051.047-.072l.115.102-.617,1.004-.087-.061v-.043c-.001-.024-.001-.039-.014-.063-.017-.057-.067-.117-.164-.186-.094-.062-.207-.113-.356-.167-.135-.051-.286-.093-.446-.128-.16-.025-.304-.05-.441-.05-.223,0-.436.036-.646.102-.203.068-.384.16-.531.297-.155.124-.277.279-.367.461-.093.187-.135.399-.135.642,0,.232.042.444.135.63.09.185.212.339.367.471.147.127.328.224.531.292.21.065.424.092.646.092.172,0,.352-.017.54-.062.185-.036.359-.09.511-.157.155-.06.287-.134.395-.211.098-.083.15-.152.15-.224,0-.04-.008-.082-.027-.105l.108-.068.529.88-.066.067Z" fill="#c80000"/></g></svg>