<svg xmlns="http://www.w3.org/2000/svg" viewBox="0 0 57.56 65.95"><defs><style>.cls-1{fill:#da172b;}</style></defs><g id="レイヤー_2" data-name="レイヤー 2"><g id="レイヤー_2-2" data-name="レイヤー 2"><path class="cls-1" d="M27.94.22.83,15.89A1.63,1.63,0,0,0,0,17.34V48.66A1.72,1.72,0,0,0,.84,50.1L28,65.73a1.67,1.67,0,0,0,1.66,0L56.75,50.06a1.65,1.65,0,0,0,.81-1.44V17.31a1.68,1.68,0,0,0-.84-1.44L29.6.22A1.69,1.69,0,0,0,27.94.22Zm.83,3.35c1.51.86,24,13.82,25.47,14.7,0,1.73,0,27.66,0,29.39L28.8,62.37c-1.52-.86-24-13.8-25.47-14.68,0-1.74,0-27.67,0-29.41C4.81,17.39,27.26,4.44,28.77,3.57Z"/><path class="cls-1" d="M12,36l.86.31a2.89,2.89,0,0,0,.81,1.5,6.22,6.22,0,0,0,1.63,1.07,7.87,7.87,0,0,0,2.07.69,9.32,9.32,0,0,0,2.12.24,8.87,8.87,0,0,0,4.63-.93c1-.61,1.47-1.79,1.46-3.48v-17a1.34,1.34,0,0,0-.63-1.17,2.33,2.33,0,0,0-1.23-.42V15.8l10.09,0v1a2.58,2.58,0,0,0-1.54.41,1.31,1.31,0,0,0-.64,1.17V35.85a7.14,7.14,0,0,1-.87,3.6A7,7,0,0,1,28.26,42a10.72,10.72,0,0,1-3.76,1.43,24.68,24.68,0,0,1-4.82.43,18.91,18.91,0,0,1-3-.22,24.78,24.78,0,0,1-2.45-.48c-.74-.22-1.37-.39-1.92-.58a5.07,5.07,0,0,0-1.36-.26A1.1,1.1,0,0,0,10,43l-.8-.53Z"/><path class="cls-1" d="M40.69,46.85a.93.93,0,0,1-.24,0h-.23a4.15,4.15,0,0,0-1.24.52,24.84,24.84,0,0,1-2.46,1.15,20.56,20.56,0,0,1-3.38,1.13,15.91,15.91,0,0,1-4,.49,20.48,20.48,0,0,1-5.22-.7,13.24,13.24,0,0,1-4.4-2.13,10.94,10.94,0,0,1,0-17.32A13.21,13.21,0,0,1,24,27.77,19.52,19.52,0,0,1,29.17,27a23,23,0,0,1,4,.35c1.19.24,2.24.48,3.12.73a19.23,19.23,0,0,1,2.11.72,3.36,3.36,0,0,0,1,.35.39.39,0,0,0,.37-.21l.25-.34.63.51-3.36,5.23L36.81,34a2.5,2.5,0,0,0,0-.25c0-.09,0-.19-.08-.31a1.76,1.76,0,0,0-.85-1,9.14,9.14,0,0,0-1.93-.88,18.25,18.25,0,0,0-2.4-.65,11.41,11.41,0,0,0-2.35-.25,10.76,10.76,0,0,0-3.47.51,9.33,9.33,0,0,0-2.89,1.51,7.21,7.21,0,0,0-1.95,2.45,7.38,7.38,0,0,0,1.95,9,8.57,8.57,0,0,0,2.89,1.52,12.09,12.09,0,0,0,3.47.52,13.53,13.53,0,0,0,2.89-.34,17.66,17.66,0,0,0,2.76-.81A9.78,9.78,0,0,0,36.93,44c.54-.43.82-.83.82-1.19a.74.74,0,0,0-.17-.53l.61-.33L41,46.51Z"/></g></g></svg>