<svg width="140" height="140" fill="none" xmlns="http://www.w3.org/2000/svg"><path d="M70 140c38.66 0 70-31.34 70-70S108.66 0 70 0 0 31.34 0 70s31.34 70 70 70z" fill="#F1F1F1"/><path d="M108.1 49.21c-12 1.66-24.54 30.69-30.19 41.1-1.42 2.62 1.88 4.81 3.34 2.3 1-1.8 6.8-13.14 6.8-13.14 6.26.2 8.57-4.17 6.07-6.88 8.41.17 12.58-4.46 10.19-7.27 2.51.8 4.69.27 7.91-1.49 6.89-3.76 6.57-16.34-4.12-14.62z" fill="#DE1122"/><path d="M84.74 94.65a5.92 5.92 0 01-10.35.13 6.42 6.42 0 010-6.39c.87-1.61 1.92-3.68 3.14-6.09 5.35-10.61 10.7-20.64 16.38-27.61V37H43.14v66h50.73V82.44c-1.042.46-2.142.773-3.27.93-1.75 3.44-5.03 9.86-5.86 11.28zm-31-41.49h24.19v4H53.69l.05-4zm0 14.82h24.19v4H53.69l.05-4zm14.77 18.86H53.69v-4h14.82v4z" fill="#DE1122"/></svg>