<svg width="140" height="140" fill="none" xmlns="http://www.w3.org/2000/svg"><path d="M70 140c38.66 0 70-31.34 70-70S108.66 0 70 0 0 31.34 0 70s31.34 70 70 70z" fill="#F1F1F1"/><path d="M76.89 69l-5.76-.13L70.9 61a.9.9 0 10-1.8 0l-.26 9A1.16 1.16 0 0070 71.15l6.89-.15a1 1 0 100-2z" fill="#DE1122"/><path d="M89 60.38L84 48.2h-7.31v1.57H63.31V48.2h-7.22l-5 12.19a21.06 21.06 0 000 19l5 12.19h7.22V90h13.38v1.6h7.22l5-12.18a21.06 21.06 0 000-19l.09-.04zM70 85.7a15.81 15.81 0 1111.17-4.63A15.751 15.751 0 0170 85.7zM83.64 40.07A3.08 3.08 0 0080.57 37H59.43a3.08 3.08 0 00-3.07 3.07v5.81h27.28v-5.81zM56.36 99.93a3.079 3.079 0 003.07 3.07h21.14a3.082 3.082 0 003.07-3.07v-5.81H56.36v5.81z" fill="#DE1122"/><path d="M70 57.44a1 1 0 100-2 1 1 0 000 2zM70 82.56a1 1 0 100 2 1 1 0 000-2zM61.12 61.12a1 1 0 10-1.38-1.447 1 1 0 001.38 1.447zM78.88 78.88a1 1 0 101.38 1.447 1 1 0 00-1.38-1.447zM56.47 69a1 1 0 100 2.001 1 1 0 000-2.001zM83.53 69a1 1 0 100 2 1 1 0 000-2zM59.75 78.88a1 1 0 101.37 1.457 1 1 0 00-1.37-1.457zM78.88 59.74a1 1 0 101.379 1.447 1 1 0 00-1.379-1.447z" fill="#DE1122"/><path opacity=".1" d="M70 85.7a15.81 15.81 0 1111.17-4.63A15.751 15.751 0 0170 85.7z" fill="#DE1122"/><path d="M85.11 57.51h-4.12l3-9.88h-8.24l-1.5 14.32h3.37l-1.5 11.85 8.99-16.29z" fill="#F1F1F1"/></svg>