<svg width="140" height="140" fill="none" xmlns="http://www.w3.org/2000/svg"><path d="M70 140c38.66 0 70-31.34 70-70S108.66 0 70 0 0 31.34 0 70s31.34 70 70 70z" fill="#F1F1F1"/><path d="M77.72 66.8L88.39 52a7.53 7.53 0 001.42-4.38V43h3.08v-6H47.11v6h3.08v4.63A7.53 7.53 0 0051.61 52l10.67 14.8a3 3 0 01.58 1.76v2.88a3 3 0 01-.58 1.76L51.61 88a7.53 7.53 0 00-1.42 4.38v4.63h-3.08v6h45.78v-6h-3.08v-4.59A7.53 7.53 0 0088.39 88L77.72 73.2a3 3 0 01-.58-1.76v-2.88a3 3 0 01.58-1.76zm9.12 29.66H53.16v-4c-.014-.96.28-1.9.84-2.68l10.69-14.84a6 6 0 001.14-3.5v-2.88a6 6 0 00-1.14-3.5L54 50.22a4.49 4.49 0 01-.87-2.64v-4h33.71v4a4.56 4.56 0 01-.84 2.64L75.3 65.06a6 6 0 00-1.13 3.5v2.88a6.06 6.06 0 001.13 3.5L86 89.78a4.56 4.56 0 01.87 2.64v4l-.03.04z" fill="#DE1122"/><path d="M67.46 67h5.08a7.73 7.73 0 011.32-3l7.66-10.67h-23L66.14 64a7.73 7.73 0 011.32 3zM68.81 86.19l-8.49 8.49h19.36l-8.49-8.49a1.681 1.681 0 00-2.38 0zM70 69a1.33 1.33 0 100 2.66A1.33 1.33 0 0070 69zM70 74.32a1.33 1.33 0 100 2.66 1.33 1.33 0 000-2.66zM70 79.83a1.33 1.33 0 100 2.66 1.33 1.33 0 000-2.66z" fill="#DE1122"/></svg>