<svg width="140" height="140" fill="none" xmlns="http://www.w3.org/2000/svg"><path d="M70 140c38.66 0 70-31.34 70-70S108.66 0 70 0 0 31.34 0 70s31.34 70 70 70z" fill="#F1F1F1"/><path d="M52.71 54.64a4.38 4.38 0 004.38-4.38l1.6-16.76h-7l-3.36 16.76a4.38 4.38 0 004.38 4.38zM65.09 54.64a4.38 4.38 0 004.38-4.38l-.88-16.76h-7l-.87 16.76a4.38 4.38 0 004.37 4.38zM77.47 54.64a4.38 4.38 0 004.38-4.38L78.5 33.5h-7l1.6 16.76a4.38 4.38 0 004.37 4.38z" fill="#DE1122"/><path d="M67.43 83.1h-26V54.51a4.39 4.39 0 003.31-4.25l4.04-16.76h-7l-5.84 16.76a4.39 4.39 0 001.79 3.53v33h54.71v-33a4.36 4.36 0 001.79-3.53L88.4 33.5h-7l4.08 16.76a4.391 4.391 0 003.31 4.25V83.1h-6.6" fill="#DE1122"/><path d="M76.32 68.51a4.41 4.41 0 10-4.41-4.41 4.42 4.42 0 004.41 4.41zM98.32 80.2a3 3 0 10-3-3 3.06 3.06 0 003 3v0z" stroke="#F1F1F1" stroke-width="4"/><path d="M101 81.64h-4.77a3.6 3.6 0 00-2.44 1l-3 2.76a.909.909 0 01-.81.24.998.998 0 01-.69-.5l-5.73-11.29a6 6 0 00-5.33-3.26h-5.82A5 5 0 0068 75.05v14.82a1.93 1.93 0 001.93 1.94h1.35l.72 12.63a2.048 2.048 0 002 2.06h4.5a2.058 2.058 0 002.06-2.06l.73-12.63V81.52a.72.72 0 011.36-.32L87 89.6a2.389 2.389 0 003.75.67l2.88-2.65a.69.69 0 01.77-.13.71.71 0 01.43.65v8.19l.51 8.75a1.432 1.432 0 001.43 1.42h3.11a1.42 1.42 0 001.42-1.42l.51-8.75h.94a1.342 1.342 0 001.31-1.33V84.73a3.428 3.428 0 00-3.06-3.09v0z" stroke="#F1F1F1" stroke-width="4"/><path d="M76.32 68.51a4.41 4.41 0 10-4.41-4.41 4.42 4.42 0 004.41 4.41zM98.32 80.2a3 3 0 10-3-3 3.06 3.06 0 003 3z" fill="#DE1122"/><path d="M101 81.64h-4.77a3.6 3.6 0 00-2.44 1l-3 2.76a.909.909 0 01-.81.24.998.998 0 01-.69-.5l-5.73-11.29a6 6 0 00-5.33-3.26h-5.82A5 5 0 0068 75.05v14.82a1.93 1.93 0 001.93 1.94h1.35l.72 12.63a2.048 2.048 0 002 2.06h4.5a2.058 2.058 0 002.06-2.06l.73-12.63V81.52a.72.72 0 011.36-.32L87 89.6a2.389 2.389 0 003.75.67l2.88-2.65a.69.69 0 01.77-.13.71.71 0 01.43.65v8.19l.51 8.75a1.432 1.432 0 001.43 1.42h3.11a1.42 1.42 0 001.42-1.42l.51-8.75h.94a1.342 1.342 0 001.31-1.33V84.73a3.428 3.428 0 00-3.06-3.09z" fill="#DE1122"/></svg>