<?xml version="1.0" encoding="UTF-8"?><svg id="_レイヤー_2" xmlns="http://www.w3.org/2000/svg" viewBox="0 0 44.1 44.07"><defs><style>.cls-1{fill:#e00012;}</style></defs><g id="text"><path class="cls-1" d="m42.48,41.44c-.19.01-.38-.02-.56,0-.43.07-.5-.12-.5-.52.01-8.84,0-17.68,0-26.53,0-1.01-.5-1.51-1.5-1.51-1.52,0-3.04,0-4.56,0-1.25,0-1.68.43-1.68,1.67,0,8.76,0,17.51,0,26.27,0,.11,0,.23,0,.34.02.21-.07.27-.27.27-.62,0-1.24-.03-1.85,0-.38.02-.47-.08-.47-.47.02-3.7.01-7.39,0-11.09,0-1.03-.49-1.52-1.54-1.52-1.54,0-3.07,0-4.61,0-1.15,0-1.61.46-1.61,1.62,0,3.68,0,7.37,0,11.05,0,.31-.06.43-.4.41-.57-.03-1.15-.04-1.72,0-.42.03-.48-.13-.48-.5.01-5.42,0-10.83,0-16.25,0-.98-.5-1.48-1.48-1.49-1.56,0-3.13,0-4.69,0-1.1,0-1.57.47-1.57,1.57,0,4.1,0,8.2,0,12.3,0,1.32-.01,2.64,0,3.96,0,.35-.1.43-.43.42-.59-.03-1.18-.03-1.77,0-.32.02-.41-.08-.4-.4.02-1.99,0-3.98,0-5.98,0-1.06-.48-1.54-1.56-1.54-1.55,0-3.1,0-4.65,0-1.06,0-1.54.48-1.54,1.56,0,1.86,0,3.73,0,5.59,0,.76,0,.8-.76.76-.84-.04-1.54.1-1.91.95v.69c.28.9.4.99,1.36.99,13.79,0,27.59,0,41.38,0,.97,0,1.08-.08,1.36-.99v-.6c-.27-.76-.81-1.1-1.62-1.03Zm-34.94,0c-.64-.01-1.29-.02-1.94,0-.28,0-.37-.07-.36-.35.02-.79,0-1.57,0-2.36s0-1.52,0-2.28c0-.24.03-.36.32-.35.66.02,1.32.01,1.98,0,.22,0,.3.06.3.29,0,1.59,0,3.18,0,4.77,0,.23-.08.29-.3.29Zm10.34,0c-.65-.01-1.29-.02-1.94,0-.28,0-.37-.07-.36-.35.02-1.22,0-2.43,0-3.65,0-1.17.01-2.35,0-3.52,0-.33.1-.41.41-.4.63.02,1.26.02,1.89,0,.22,0,.3.06.29.29,0,2.45,0,4.9,0,7.34,0,.23-.08.29-.3.29Zm0-10.49c-.64-.01-1.29-.02-1.94,0-.28,0-.37-.07-.36-.35.02-.76,0-1.52,0-2.28s0-1.46,0-2.19c0-.24.03-.36.32-.35.66.02,1.32.01,1.98,0,.22,0,.3.06.3.29,0,1.53,0,3.06,0,4.59,0,.23-.08.29-.3.29Zm10.23,10.49c-.63-.02-1.26-.02-1.89,0-.22,0-.29-.06-.29-.29,0-3.31,0-6.62,0-9.92,0-.23.08-.29.3-.29.65.01,1.29.02,1.94,0,.28,0,.36.07.36.36-.01,1.65,0,3.29,0,4.94,0,1.6-.01,3.21,0,4.81,0,.33-.1.41-.41.4Zm8.15-25.69c0-.23.08-.29.3-.29.64.01,1.29.02,1.94,0,.27,0,.37.06.36.35-.02.74,0,1.49,0,2.23s-.01,1.49,0,2.23c0,.29-.09.36-.36.35-.64-.02-1.29-.01-1.94,0-.22,0-.3-.05-.3-.29,0-1.53,0-3.06,0-4.59Zm2.13,25.69c-.56-.03-1.12-.03-1.68,0-.35.02-.46-.07-.45-.44.02-2.08,0-4.15,0-6.23,0-.82,0-1.63,0-2.45,0-2.89,0-5.79,0-8.68,0-.36.09-.46.45-.44.59.03,1.18.02,1.76,0,.3-.01.39.07.39.37-.02,1.07,0,2.15,0,3.22,0,4.73,0,9.45,0,14.18,0,.38-.09.49-.47.47Z"/><path class="cls-1" d="m39.41.49c-.38-.21-.81-.25-1.17-.49h-1.46c-.05.13-.18.13-.28.16-2.27.75-3.33,2.87-2.54,5.12.07.19.05.31-.09.45-1.6,1.59-3.19,3.18-4.78,4.77-.14.14-.25.17-.45.1-1.39-.52-2.68-.31-3.84.6-.2.16-.35.17-.57.06-1.03-.53-2.07-1.05-3.12-1.55-.26-.13-.37-.26-.36-.58.03-2.25-1.86-4.1-4.02-3.96-2.7.18-4.36,2.7-3.45,5.26.08.21.05.33-.11.48-1.59,1.58-3.17,3.16-4.75,4.74-.16.16-.28.18-.49.1-.89-.36-1.78-.33-2.69-.03-1.48.49-2.56,2-2.58,3.61-.01,1.55,1.04,3.11,2.46,3.61,1.55.54,2.97.29,4.13-.87,1.15-1.15,1.44-2.57.88-4.12-.08-.21-.06-.33.1-.48,1.59-1.58,3.17-3.16,4.75-4.74.15-.15.27-.18.48-.1,1.37.5,2.65.3,3.8-.6.21-.17.37-.19.61-.06.99.51,1.99,1.02,3,1.5.34.16.51.33.46.74-.03.28.03.57.09.85.5,2.14,2.73,3.47,4.79,2.85,2.23-.67,3.39-2.91,2.6-5.05-.09-.26-.06-.4.13-.59,1.55-1.53,3.09-3.07,4.63-4.62.21-.22.38-.24.67-.14,1.9.69,4-.22,4.84-2.09.81-1.79.05-3.96-1.69-4.92ZM6.54,20.63c-.7,0-1.28-.6-1.28-1.3,0-.7.6-1.28,1.3-1.28.7,0,1.28.6,1.28,1.3,0,.7-.6,1.28-1.3,1.28Zm10.36-10.32c-.7,0-1.29-.57-1.3-1.28,0-.7.58-1.29,1.28-1.3.7,0,1.29.57,1.3,1.28,0,.7-.58,1.29-1.28,1.3Zm10.35,5.16c-.71,0-1.29-.58-1.29-1.29s.58-1.29,1.29-1.29,1.29.58,1.29,1.29-.58,1.29-1.29,1.29Zm10.32-10.32c-.7,0-1.29-.57-1.3-1.28,0-.7.57-1.29,1.28-1.3.7,0,1.29.57,1.3,1.28,0,.7-.57,1.29-1.28,1.3Z"/></g></svg>