<?xml version="1.0" encoding="UTF-8"?><svg id="_レイヤー_2" xmlns="http://www.w3.org/2000/svg" viewBox="0 0 41.03 38.8"><defs><style>.cls-1{fill:#e00012;}</style></defs><g id="text"><path class="cls-1" d="m4.36,20.22c1.83,0,3.39-1.12,4.04-2.72.65,1.59,2.21,2.72,4.04,2.72s3.39-1.12,4.04-2.72c.65,1.59,2.21,2.72,4.04,2.72s3.39-1.12,4.04-2.72c.65,1.59,2.21,2.72,4.04,2.72s3.39-1.12,4.04-2.72c.65,1.59,2.21,2.72,4.04,2.72,2.41,0,4.36-1.95,4.36-4.36H0c0,2.41,1.95,4.36,4.36,4.36Z"/><path class="cls-1" d="m35.12,2.48c-.73-1.52-2.27-2.48-3.96-2.48H9.86c-1.69,0-3.22.96-3.96,2.48L0,14.7h41.03l-5.91-12.22Z"/><path class="cls-1" d="m35.35,33.32c0,.72-.29,1.35-.75,1.82-.47.47-1.1.75-1.82.75h-11.29v-12.76h-1.94v12.76h-11.29c-.72,0-1.35-.29-1.82-.75-.47-.47-.75-1.11-.75-1.82v-11.8h-2.91v11.8c0,3.03,2.45,5.48,5.48,5.48h24.52c3.03,0,5.48-2.45,5.48-5.48v-11.8h-2.91v11.8Z"/><rect class="cls-1" x="15.22" y="27.01" width="1.94" height="4.52"/><rect class="cls-1" x="23.87" y="27.01" width="1.94" height="4.52"/></g></svg>