<?xml version="1.0" encoding="UTF-8"?><svg id="_レイヤー_2" xmlns="http://www.w3.org/2000/svg" viewBox="0 0 513.97 84.88"><defs><style>.cls-1{fill:#fff;}</style></defs><g id="text"><path class="cls-1" d="m95.76,48.11l1.03.35c0,.35,0,.73.03,1.12.03.43.16.77.4,1.06.35.52,1.2,1.06,2.55,1.55,1.39.49,2.97.76,4.75.76,2.07,0,3.62-.33,4.66-.97,1.03-.65,1.55-1.97,1.55-3.95v-18.85c0-.53-.23-.96-.64-1.3-.42-.33-.81-.51-1.15-.51v-1.28h10.77v1.28c-.49,0-.93.18-1.38.51-.44.34-.64.78-.64,1.3v19.71c0,1.73-.35,3.2-1.04,4.4-.65,1.21-1.59,2.17-2.78,2.9-1.18.72-2.57,1.21-4.16,1.47-1.61.26-3.39.4-5.27.4-1.05,0-2.08-.07-3.1-.26-1.02-.18-1.94-.38-2.8-.63-.88-.27-1.65-.52-2.31-.72-.67-.23-1.24-.32-1.69-.32-.37,0-.67.08-.84.24-.21.18-.43.37-.66.61l-.67-.58,3.39-8.28Z"/><path class="cls-1" d="m163.95,32.81c0-.92-.76-1.37-2.26-1.37h-17.62v7.2h11.14c.82,0,1.41-.06,1.8-.18.39-.12.58-.44.58-.97h1.3v7.66h-1.45c.15-.53-.05-.84-.58-.98-.52-.1-1.25-.16-2.24-.16h-10.56v8.47h18.5c.56,0,1.06-.13,1.43-.39.4-.28.58-.6.58-1.05h1.32v7.63h-1.32c0-.45-.18-.7-.58-.74-.38-.05-.88-.08-1.43-.08h-26.52v-1.3c.24,0,.5-.08.72-.25.26-.16.36-.45.36-.83v-27c0-.39-.1-.66-.36-.84-.22-.17-.48-.26-.72-.26v-1.28h25.64c1.5,0,2.26-.44,2.26-1.33h1.29v8.05h-1.29Z"/><path class="cls-1" d="m186.06,27.36c-.62,0-.94.35-.94,1.02,0,.24.1.63.3,1.14.21.48.42,1.13.72,1.9l6.37,17.54h.14l6.14-17.18c.24-.66.45-1.31.68-1.91.21-.61.31-1.09.31-1.49,0-.66-.36-1.02-1.15-1.02v-1.28h10.34v1.28c-.86,0-1.32.31-1.32.88,0,.34.12.83.37,1.49.26.63.47,1.26.73,1.82l6.34,17.39,6.71-17.54c.26-.67.46-1.26.63-1.77.17-.49.26-.92.26-1.27,0-.66-.39-1.02-1.17-1.02v-1.28h9.18v1.28c-.82,0-1.54.9-2.17,2.68l-8.32,22.02c-.26.82-.55,1.56-.85,2.21-.28.65-.43,1.09-.43,1.33,0,.64.31.94,1.02.94v1.3h-10.12v-1.3c.4-.04.63-.13.74-.25.08-.12.11-.38.11-.75,0-.2-.21-.92-.63-2.17-.43-1.26-1-2.84-1.72-4.74-.69-1.89-1.43-4.03-2.26-6.4-.83-2.34-1.62-4.74-2.38-7.13h-.15c-.09.43-.35,1.21-.83,2.35-.41,1.13-.92,2.44-1.5,3.92-.58,1.44-1.17,2.99-1.84,4.6-.63,1.62-1.25,3.12-1.81,4.49-.54,1.35-.99,2.54-1.36,3.46-.37.93-.54,1.47-.54,1.63,0,.38.06.65.22.79.13.13.42.21.87.21v1.3h-8.9v-1.3c.21,0,.39-.03.53-.08.13-.04.18-.21.18-.49s-.05-.67-.23-1.13c-.18-.45-.31-.79-.4-1.03l-9.54-25.05c-.28-.79-.79-1.24-1.52-1.39v-1.28h9.18v1.28Z"/><path class="cls-1" d="m271.14,32.81c0-.92-.76-1.37-2.24-1.37h-17.65v7.2h11.13c.84,0,1.43-.06,1.8-.18.4-.12.6-.44.6-.97h1.29v7.66h-1.43c.14-.53-.05-.84-.58-.98-.54-.1-1.3-.16-2.23-.16h-10.57v8.47h18.5c.58,0,1.06-.13,1.45-.39.39-.28.56-.6.56-1.05h1.3v7.63h-1.3c0-.45-.17-.7-.56-.74-.4-.05-.87-.08-1.45-.08h-26.49v-1.3c.22,0,.46-.08.69-.25.24-.16.38-.45.38-.83v-27c0-.39-.14-.66-.38-.84-.23-.17-.48-.26-.69-.26v-1.28h25.64c1.48,0,2.24-.44,2.24-1.33h1.29v8.05h-1.29Z"/><path class="cls-1" d="m298.9,26.08v1.28c-1.11,0-1.67.37-1.67,1.1v24.01h19.5c.58,0,1.07-.13,1.44-.39.39-.28.57-.64.57-1.11h1.32v7.61h-1.32c0-.4-.18-.62-.57-.66-.36-.05-.85-.08-1.44-.08h-28.3v-1.3c1.24,0,1.86-.36,1.86-1.08v-27c0-.73-.62-1.1-1.86-1.1v-1.28h10.47Z"/><path class="cls-1" d="m375.35,35.21v-.3c-.07-.08-.07-.22-.07-.36,0-.24-.26-.57-.73-.97-.47-.41-1.16-.82-2.04-1.2-.88-.37-1.91-.71-3.14-.97-1.22-.27-2.53-.4-3.96-.4-1.75,0-3.33.22-4.73.69-1.43.46-2.67,1.14-3.72,2.05-1.09.92-1.87,2.04-2.47,3.39-.57,1.33-.88,2.87-.88,4.6s.32,3.3.99,4.67c.63,1.38,1.48,2.53,2.57,3.53,1.05.98,2.25,1.74,3.61,2.24,1.33.49,2.67.76,4.11.76,1.28,0,2.62-.17,3.96-.51,1.35-.33,2.57-.73,3.68-1.19,1.1-.46,1.99-.96,2.7-1.5.72-.52,1.03-1,1.03-1.44v-.58c0-.27,0-.52-.04-.73l.79-.72,5.33,7.67-.7.36c-.58-.25-.98-.36-1.22-.36-.4,0-1.04.21-1.89.64-.87.43-1.95.93-3.3,1.47-1.33.55-2.84,1.02-4.6,1.41-1.76.38-3.74.57-5.9.57s-4.41-.31-6.57-.93c-2.16-.63-4.1-1.63-5.79-3-1.69-1.38-3.05-3.08-4.11-5.12-1.07-2.06-1.59-4.42-1.59-7.12s.52-5.05,1.59-7.07c1.06-2.01,2.45-3.72,4.17-5.08,1.75-1.38,3.72-2.41,5.99-3.08,2.23-.68,4.53-1.01,6.9-1.01,1.81,0,3.49.16,5,.53,1.53.33,2.86.71,4.01,1.15,1.18.44,2.12.82,2.89,1.16.79.34,1.33.51,1.65.51.26,0,.45-.08.63-.22.16-.15.32-.29.51-.37l.87.51-4.76,6.86-.79-.57Z"/><path class="cls-1" d="m391.04,56.54c.57-.09,1.04-.36,1.39-.82.37-.47.63-.89.83-1.27l10.74-23.46c.3-.68.55-1.22.71-1.63.19-.41.26-.82.26-1.2,0-.29-.06-.46-.18-.54-.13-.06-.24-.14-.4-.26v-1.28h10.89v1.28c-.12.12-.29.18-.43.23-.2.06-.28.24-.28.57,0,.3.09.63.31,1.04.22.43.44.89.7,1.42l11.7,24.56c.26.42.51.74.79.94.28.17.62.33.96.42v1.3h-10.26v-1.06c.25,0,.49-.1.75-.24.27-.15.4-.41.4-.79,0-.28-.05-.55-.16-.78-.09-.25-.21-.57-.37-.96l-1.9-4.08h-15.48l-2.03,3.88c-.2.39-.36.74-.46,1.05-.13.32-.19.58-.19.82,0,.4.1.62.36.72.25.11.55.15,1.01.15v1.3h-9.67v-1.3Zm24.13-11.99l-5.85-12.12-5.14,12.12h10.99Z"/><path class="cls-1" d="m471.26,32.46c0-.25-.2-.48-.53-.69-.33-.22-.9-.32-1.74-.32h-19.56v7.63h12.7c.82,0,1.32-.1,1.51-.26.21-.17.33-.45.37-.83h1.3v7.61h-1.3c-.04-.4-.16-.69-.37-.87-.19-.19-.69-.3-1.51-.3h-12.7v11.04c0,.38.18.67.5.83.34.17.71.25,1.17.25v1.3h-9.99v-1.3c.9,0,1.37-.36,1.37-1.08v-27c0-.73-.5-1.1-1.52-1.1v-1.28h28.03c.84,0,1.41-.12,1.74-.37.33-.26.53-.57.53-.96h1.28v7.7h-1.28Z"/><path class="cls-1" d="m512.02,32.81c0-.92-.75-1.37-2.24-1.37h-17.62v7.2h11.12c.78,0,1.42-.06,1.8-.18.41-.12.57-.44.57-.97h1.31v7.66h-1.45c.14-.53-.02-.84-.58-.98-.52-.1-1.27-.16-2.23-.16h-10.54v8.47h18.48c.58,0,1.08-.13,1.44-.39.39-.28.59-.6.59-1.05h1.3v7.63h-1.3c0-.45-.2-.7-.59-.74-.36-.05-.87-.08-1.44-.08h-26.52v-1.3c.25,0,.5-.08.75-.25.25-.16.34-.45.34-.83v-27c0-.39-.09-.66-.34-.84-.26-.17-.5-.26-.75-.26v-1.28h25.67c1.49,0,2.24-.44,2.24-1.33h1.3v8.05h-1.3Z"/><path class="cls-1" d="m35.99.29L1.08,20.45c-.68.37-1.08,1.09-1.08,1.85l.02,40.33c.03.75.4,1.43,1.08,1.83l34.9,20.13c.68.38,1.5.38,2.14,0l34.91-20.17c.65-.39,1.06-1.09,1.05-1.84V22.27c-.01-.77-.43-1.47-1.08-1.86L38.12.29c-.65-.39-1.5-.39-2.13,0Zm1.06,4.31c1.94,1.11,30.83,17.78,32.77,18.9,0,2.24.04,35.62.04,37.84-1.98,1.13-30.83,17.83-32.79,18.94-1.94-1.11-30.84-17.78-32.78-18.89,0-2.26,0-35.61-.02-37.85,1.94-1.15,30.82-17.83,32.77-18.94Z"/><path class="cls-1" d="m15.43,46.3l1.12.4c.12.73.47,1.38,1.04,1.92.57.53,1.26,1.01,2.08,1.38.83.4,1.68.69,2.67.89.94.21,1.85.3,2.74.3,2.72,0,4.7-.4,5.96-1.2,1.24-.79,1.88-2.29,1.86-4.47v-21.93c0-.64-.29-1.14-.8-1.51-.56-.36-1.08-.53-1.58-.53v-1.24h12.96s0,1.24,0,1.24c-.76-.02-1.44.15-1.98.54-.56.36-.8.85-.8,1.5v22.53c0,1.78-.38,3.33-1.11,4.64-.74,1.33-1.83,2.43-3.21,3.28-1.36.87-2.96,1.49-4.82,1.86-1.84.37-3.95.56-6.2.55-1.41,0-2.74-.09-3.9-.27-1.15-.17-2.23-.4-3.17-.63-.93-.26-1.72-.51-2.44-.74-.7-.22-1.3-.33-1.75-.34-.53.02-.93.27-1.23.83l-1.02-.68,3.6-8.33Z"/><path class="cls-1" d="m52.35,60.31c-.07,0-.18,0-.28-.02-.09-.02-.18-.02-.28-.02-.24-.02-.77.22-1.58.66-.85.47-1.92.96-3.18,1.48-1.28.57-2.73,1.05-4.36,1.46-1.62.41-3.31.6-5.09.62-2.32,0-4.56-.31-6.71-.91-2.14-.59-4.04-1.5-5.68-2.74-1.64-1.24-2.94-2.78-3.93-4.6-.94-1.86-1.43-4.03-1.43-6.51s.49-4.58,1.43-6.47c.96-1.86,2.29-3.43,3.93-4.68,1.62-1.26,3.51-2.2,5.66-2.82,2.13-.63,4.4-.95,6.73-.97,1.89,0,3.58.18,5.12.46,1.54.3,2.88.61,4.03.92,1.13.35,2.07.66,2.73.95.66.28,1.07.45,1.19.45.19,0,.37-.09.49-.29.12-.19.22-.32.31-.44l.81.67-4.3,6.72-.57-.41c0-.09,0-.21-.02-.32-.02-.12-.04-.24-.09-.39-.06-.4-.44-.82-1.1-1.25-.69-.43-1.49-.79-2.47-1.12-.98-.35-2.04-.61-3.11-.83-1.1-.24-2.11-.34-3.01-.34-1.58-.02-3.06.22-4.47.67-1.42.45-2.66,1.11-3.74,1.94-1.02.85-1.87,1.9-2.49,3.15-.63,1.23-.95,2.64-.95,4.24s.32,3.03.96,4.26c.61,1.23,1.46,2.29,2.5,3.12,1.07.85,2.3,1.51,3.72,1.95,1.44.44,2.9.67,4.47.67,1.19,0,2.44-.14,3.71-.42,1.31-.29,2.49-.64,3.57-1.06,1.07-.44,1.96-.9,2.69-1.44.71-.54,1.05-1.05,1.08-1.52,0-.27-.07-.49-.25-.68l.78-.44,3.67,5.87-.47.44Z"/></g></svg>