<?xml version="1.0" encoding="UTF-8" standalone="no"?><!DOCTYPE svg PUBLIC "-//W3C//DTD SVG 1.1//EN" "http://www.w3.org/Graphics/SVG/1.1/DTD/svg11.dtd"><svg width="100%" height="100%" viewBox="0 0 55 53" version="1.1" xmlns="http://www.w3.org/2000/svg" xmlns:xlink="http://www.w3.org/1999/xlink" xml:space="preserve" xmlns:serif="http://www.serif.com/" style="fill-rule:evenodd;clip-rule:evenodd;stroke-linejoin:round;stroke-miterlimit:2;"><g><g id="Capa-1" serif:id="Capa 1"><path d="M22.596,21.679c-0.585,0 -1.06,-0.474 -1.06,-1.059l0,-1.315c0,-0.586 0.475,-1.06 1.06,-1.06c0.585,0 1.059,0.474 1.059,1.06l0,1.315c0,0.585 -0.474,1.059 -1.059,1.059" style="fill:#179cda;fill-rule:nonzero;"/><path d="M14.652,21.679c-0.586,0 -1.06,-0.474 -1.06,-1.059l0,-1.315c0,-0.586 0.474,-1.06 1.06,-1.06c0.585,0 1.059,0.474 1.059,1.06l0,1.315c0,0.585 -0.474,1.059 -1.059,1.059" style="fill:#179cda;fill-rule:nonzero;"/><path d="M31.344,33.244l-6.526,0l-1.93,-1.376c-0.326,-0.231 -0.744,-0.255 -1.086,-0.086l0,-0.232c4.052,-1.35 6.816,-5.136 6.816,-9.478l0,-5.908c0,-0.585 -0.475,-1.059 -1.06,-1.059l-0.964,0c-3.029,0 -5.751,-2.024 -6.621,-4.922c-0.134,-0.448 -0.546,-0.754 -1.014,-0.754l-0.67,0c-0.468,0 -0.881,0.306 -1.015,0.754c-0.87,2.898 -3.592,4.922 -6.621,4.922l-0.964,0c-0.585,0 -1.059,0.474 -1.059,1.059l0,5.908c0,4.342 2.763,8.128 6.816,9.478l0,0.232c-0.343,-0.169 -0.761,-0.145 -1.086,0.086l-1.962,1.397c-0.069,-0.014 -0.141,-0.021 -0.214,-0.021l-6.28,0c-1.702,0 -3.086,-1.385 -3.086,-3.086c0,-1.439 0.977,-2.675 2.375,-3.004c0.478,-0.113 0.816,-0.54 0.816,-1.031l0,-10.302c0,-6.956 5.659,-12.615 12.615,-12.615c6.955,0 12.614,5.659 12.614,12.615l0,10.302c0,0.491 0.338,0.918 0.817,1.031c1.398,0.329 2.374,1.565 2.374,3.004c0,1.701 -1.384,3.086 -3.085,3.086m-9.94,4.344l-1.273,-1.261l2.252,-2.217l0.949,0.676l-1.928,2.802Zm-0.912,-7.864c-0.475,0.115 -0.809,0.541 -0.809,1.029l0,3.042l-1.059,1.043l-1.059,-1.043l0,-3.042c0,-0.488 -0.335,-0.914 -0.81,-1.029c-3.536,-0.86 -6.006,-4.007 -6.006,-7.652l0,-4.849c1.946,-0.02 3.791,-0.648 5.343,-1.82c1.048,-0.792 1.915,-1.814 2.532,-2.967c0.617,1.153 1.483,2.175 2.532,2.967c1.551,1.172 3.397,1.8 5.343,1.82l0,4.849c0,3.645 -2.47,6.792 -6.007,7.652m-4.649,7.864l-1.927,-2.802l0.949,-0.676l2.251,2.217l-1.273,1.261Zm20.705,-7.43c0,-2.136 -1.276,-4.006 -3.191,-4.803l0,-9.534c0,-8.124 -6.609,-14.733 -14.733,-14.733c-8.124,0 -14.734,6.609 -14.734,14.733l0,9.534c-1.914,0.797 -3.191,2.667 -3.191,4.803c0,2.868 2.332,5.202 5.2,5.204c-0.93,1.074 -1.494,2.474 -1.494,4.003l0,10.062c0,0.585 0.475,1.059 1.06,1.059l8.369,0c0.586,0 1.06,-0.474 1.06,-1.059c0,-0.585 -0.474,-1.059 -1.06,-1.059l-7.31,0l0,-9.003c0,-2.207 1.796,-4.002 4.003,-4.002l1.213,0l3.076,4.47c0.178,0.258 0.461,0.425 0.774,0.454c0.033,0.003 0.066,0.005 0.099,0.005c0.278,0 0.546,-0.109 0.745,-0.307l1.13,-1.119l0,3.482c0,0.585 0.475,1.059 1.06,1.059c0.585,0 1.059,-0.474 1.059,-1.059l0,-3.482l1.13,1.119c0.199,0.197 0.468,0.307 0.746,0.307c0.033,0 0.066,-0.002 0.099,-0.005c0.312,-0.029 0.596,-0.196 0.774,-0.454l3.076,-4.47l1.213,0c2.207,0 4.002,1.795 4.002,4.002l0,9.003l-7.31,0c-0.585,0 -1.059,0.474 -1.059,1.059c0,0.585 0.474,1.059 1.059,1.059l8.37,0c0.585,0 1.059,-0.474 1.059,-1.059l0,-10.062c0,-1.529 -0.563,-2.929 -1.493,-4.003c2.867,-0.002 5.199,-2.336 5.199,-5.204" style="fill:#179cda;fill-rule:nonzero;"/><path d="M51.957,48.368l-13.782,0c-0.478,0 -0.867,-0.395 -0.867,-0.879l0,-4.555c0.93,0.771 2.103,1.256 3.383,1.322l0,0.615c0,0.586 0.474,1.06 1.059,1.06c0.585,0 1.06,-0.474 1.06,-1.06l0,-0.607l4.512,0l0,0.607c0,0.586 0.474,1.06 1.059,1.06c0.585,0 1.06,-0.474 1.06,-1.06l0,-0.615c1.28,-0.066 2.452,-0.551 3.383,-1.322l0,4.555c0,0.484 -0.389,0.879 -0.867,0.879m-14.649,-11.859c0,-0.484 0.389,-0.878 0.867,-0.878l13.782,0c0.478,0 0.867,0.394 0.867,0.878l0,1.922c0,1.946 -1.492,3.546 -3.383,3.702l0,-0.76c0,-0.585 -0.475,-1.059 -1.06,-1.059c-0.585,0 -1.059,0.474 -1.059,1.059l0,0.772l-4.512,0l0,-0.772c0,-0.585 -0.475,-1.059 -1.06,-1.059c-0.585,0 -1.059,0.474 -1.059,1.059l0,0.76c-1.891,-0.156 -3.383,-1.756 -3.383,-3.702l0,-1.922Zm6.159,-4.197l3.826,0l0,1.2l-3.826,0l0,-1.2Zm8.49,1.2l-2.545,0l0,-2.26c0,-0.585 -0.474,-1.059 -1.059,-1.059l-5.946,0c-0.585,0 -1.059,0.474 -1.059,1.059l0,2.26l-3.173,0c-1.646,0 -2.986,1.344 -2.986,2.997l0,10.98c0,1.653 1.34,2.997 2.986,2.997l13.782,0c1.646,0 2.986,-1.344 2.986,-2.997l0,-10.98c0,-1.653 -1.34,-2.997 -2.986,-2.997" style="fill:#179cda;fill-rule:nonzero;"/><path d="M18.643,50.486c-0.456,0 -0.868,-0.301 -1.008,-0.735c-0.136,-0.425 0.015,-0.903 0.372,-1.171c0.349,-0.261 0.835,-0.28 1.203,-0.047c0.363,0.229 0.554,0.671 0.473,1.093c-0.095,0.493 -0.537,0.86 -1.04,0.86" style="fill:#179cda;fill-rule:nonzero;"/></g></g></svg>