<?xml version="1.0" encoding="UTF-8" standalone="no"?><!DOCTYPE svg PUBLIC "-//W3C//DTD SVG 1.1//EN" "http://www.w3.org/Graphics/SVG/1.1/DTD/svg11.dtd"><svg width="100%" height="100%" viewBox="0 0 55 53" version="1.1" xmlns="http://www.w3.org/2000/svg" xmlns:xlink="http://www.w3.org/1999/xlink" xml:space="preserve" xmlns:serif="http://www.serif.com/" style="fill-rule:evenodd;clip-rule:evenodd;stroke-linejoin:round;stroke-miterlimit:2;"><path d="M8.762,36.31c0.114,-0.504 0.565,-0.88 1.103,-0.88l7.047,0c0.625,0 1.131,0.506 1.131,1.13l0,9.921l7.089,2.947c3.112,1.27 6.59,1.308 9.728,0.106l13.608,-5.189c0.303,-0.115 0.546,-0.348 0.676,-0.648c0.138,-0.31 0.145,-0.662 0.018,-0.981c-0.117,-0.306 -0.354,-0.551 -0.658,-0.679c-0.288,-0.124 -0.615,-0.124 -0.903,0l-7.365,3.127c-0.672,0.284 -1.392,0.437 -2.121,0.45c-0.013,0.001 -0.044,0.005 -0.062,0.005l-10.571,0c-0.624,0 -1.13,-0.506 -1.13,-1.131c0,-0.624 0.506,-1.131 1.13,-1.131l10.516,0c0.103,0 0.202,-0.02 0.303,-0.031c0.476,-0.117 0.813,-0.542 0.815,-1.034c0.004,-0.591 -0.473,-1.074 -1.063,-1.077c0,0 -6.833,0 -6.833,0c-1.003,-0.001 -1.992,-0.234 -2.89,-0.682c-2.58,-1.286 -5.422,-1.957 -8.304,-1.961l-0.471,0c-0.625,0 -1.131,-0.506 -1.131,-1.131c0,-0.624 0.506,-1.131 1.131,-1.131c0,0 0.471,0 0.471,0c3.233,0.005 6.421,0.758 9.315,2.2c0.584,0.29 1.227,0.442 1.879,0.443c0,0 6.833,0 6.833,0c1.817,0 3.294,1.454 3.332,3.261l5.335,-2.265c0.851,-0.362 1.812,-0.362 2.661,-0.001c0.867,0.363 1.549,1.063 1.889,1.939c0.348,0.878 0.328,1.86 -0.055,2.721c-0.372,0.852 -1.071,1.518 -1.94,1.848c0,0 -13.607,5.189 -13.606,5.188c-3.676,1.407 -7.75,1.362 -11.394,-0.125l-6.233,-2.588c-0.02,0.607 -0.518,1.092 -1.13,1.092c0,0 -7.047,0 -7.047,0c-0.538,0 -0.989,-0.376 -1.103,-0.88l-4.182,0c-0.625,0 -1.131,-0.507 -1.131,-1.131c0,-0.625 0.506,-1.131 1.131,-1.131l4.154,0l0,-0.631c0,-0.625 0.507,-1.131 1.131,-1.131c0.625,0 1.131,0.506 1.131,1.131l0,1.512l4.785,0l0,-10.071l-4.785,0l0,5.036c0,0.624 -0.506,1.13 -1.131,1.13c-0.624,0 -1.131,-0.506 -1.131,-1.13l0,-4.155l-4.154,0c-0.625,0 -1.131,-0.506 -1.131,-1.131c0,-0.624 0.506,-1.131 1.131,-1.131l4.182,0Zm41.835,-29.089c0.023,0.087 0.036,0.175 0.038,0.265l0,21.146c0,0.492 -0.317,0.928 -0.785,1.078l-19.38,6.166c-0.223,0.071 -0.462,0.071 -0.685,0l-19.378,-6.165c-0.471,-0.148 -0.792,-0.584 -0.792,-1.078l0,-21.142c0.003,-0.493 0.325,-0.927 0.794,-1.073c0,0 19.379,-6.166 19.379,-6.166c0.222,-0.071 0.462,-0.071 0.685,0l19.379,6.166l0.234,0.115c0.079,0.049 0.152,0.106 0.217,0.172c0.001,0.001 0.002,0.001 0.003,0.002c0.027,0.029 0.056,0.053 0.078,0.081c0.088,0.106 0.156,0.227 0.2,0.358c0.008,0.024 0.012,0.049 0.013,0.075Zm-20.472,5.25l3.022,-0.961l-15.647,-4.98l-5.623,1.789l0,19.487l17.117,5.446l0,-2.858c0,-0.624 0.507,-1.13 1.131,-1.13c0.625,0 1.131,0.506 1.131,1.13l0,2.858l17.117,-5.447l0,-18.766l-4.056,1.289l0,6.222c0,0.494 -0.321,0.93 -0.791,1.078c0,0 -1.615,0.513 -1.614,0.513c-0.11,0.036 -0.225,0.054 -0.342,0.053c-0.491,-0.001 -0.925,-0.32 -1.074,-0.788c-0.189,-0.595 0.14,-1.231 0.735,-1.42l0.826,-0.263l0,-4.672l-4.05,1.289l0,4.672l0.581,-0.185c0.596,-0.189 1.231,0.14 1.421,0.735c0.189,0.595 -0.14,1.231 -0.735,1.42c0,0 -2.055,0.656 -2.056,0.656c-0.109,0.034 -0.224,0.052 -0.339,0.053c-0.625,0 -1.131,-0.506 -1.131,-1.131l0,-5.502l-4.492,1.427l0,12.386c0,0.624 -0.506,1.131 -1.131,1.131c-0.624,0 -1.131,-0.507 -1.131,-1.131l0,-12.386l-14.189,-4.514c-0.595,-0.189 -0.924,-0.825 -0.735,-1.42c0.189,-0.595 0.825,-0.924 1.42,-0.735l14.635,4.655Zm-12.332,10.627c-0.625,0 -1.131,0.506 -1.131,1.13c0,0 0,2.643 0,2.643c0,0.625 0.506,1.131 1.131,1.131c0.624,0 1.131,-0.506 1.131,-1.131c0,0 0,-2.643 0,-2.643c0,-0.624 -0.507,-1.13 -1.131,-1.13Zm-3.524,-0.881c-0.624,0 -1.13,0.506 -1.13,1.131c0,0 0,2.642 0,2.642c0,0.625 0.506,1.131 1.13,1.131c0.625,0 1.131,-0.506 1.131,-1.131c0,0 0,-2.642 0,-2.642c0,-0.625 -0.506,-1.131 -1.131,-1.131Zm6.962,-16.873l15.648,4.978l2.581,-0.821l-15.647,-4.979l-2.582,0.822Zm6.312,-2.009l15.647,4.979l2.583,-0.822l-15.648,-4.979l-2.582,0.822Z" style="fill:#da7517;fill-rule:nonzero;"/></svg>