<?xml version="1.0" encoding="UTF-8" standalone="no"?><!DOCTYPE svg PUBLIC "-//W3C//DTD SVG 1.1//EN" "http://www.w3.org/Graphics/SVG/1.1/DTD/svg11.dtd"><svg width="100%" height="100%" viewBox="0 0 55 53" version="1.1" xmlns="http://www.w3.org/2000/svg" xmlns:xlink="http://www.w3.org/1999/xlink" xml:space="preserve" xmlns:serif="http://www.serif.com/" style="fill-rule:evenodd;clip-rule:evenodd;stroke-linejoin:round;stroke-miterlimit:2;"><g><path d="M37.087,48.1l5.637,0l0,-44.24l-5.637,0l0,44.24Zm6.773,2.349l-7.948,0c-0.665,0 -1.174,-0.509 -1.174,-1.174l0,-46.59c0,-0.665 0.509,-1.174 1.174,-1.174l7.987,0c0.665,0 1.174,0.509 1.174,1.174l0,46.59c-0.039,0.665 -0.548,1.174 -1.213,1.174" style="fill:#1dae15;fill-rule:nonzero;"/><path d="M18.647,23.161c-0.666,0 -1.175,-0.509 -1.175,-1.175l0,-8.104l-4.62,0l0,8.065c0,0.666 -0.509,1.175 -1.174,1.175c-0.666,0 -1.175,-0.509 -1.175,-1.175l0,-9.239c0,-0.666 0.509,-1.175 1.175,-1.175l6.969,0c0.665,0 1.174,0.509 1.174,1.175l0,9.239c0,0.666 -0.509,1.214 -1.174,1.214" style="fill:#1dae15;fill-rule:nonzero;"/><path d="M19.43,23.161l-8.535,0c-0.666,0 -1.175,-0.509 -1.175,-1.175c0,-0.665 0.509,-1.174 1.175,-1.174l8.535,0c0.665,0 1.174,0.509 1.174,1.174c0,0.666 -0.509,1.175 -1.174,1.175" style="fill:#1dae15;fill-rule:nonzero;"/><path d="M31.684,23.161l-8.535,0c-0.666,0 -1.175,-0.509 -1.175,-1.175c0,-0.665 0.509,-1.174 1.175,-1.174l8.535,0c0.665,0 1.174,0.509 1.174,1.174c0,0.666 -0.509,1.175 -1.174,1.175" style="fill:#1dae15;fill-rule:nonzero;"/><path d="M30.901,23.161c-0.666,0 -1.175,-0.509 -1.175,-1.175l0,-8.104l-4.62,0l0,8.065c0,0.666 -0.508,1.175 -1.174,1.175c-0.666,0 -1.175,-0.509 -1.175,-1.175l0,-9.239c0,-0.666 0.509,-1.175 1.175,-1.175l6.969,0c0.665,0 1.174,0.509 1.174,1.175l0,9.239c0,0.666 -0.509,1.214 -1.174,1.214" style="fill:#1dae15;fill-rule:nonzero;"/><path d="M21.309,50.449c-0.666,0 -1.175,-0.449 -1.175,-1.036l0,-14.88c0,-0.587 0.509,-1.036 1.175,-1.036c0.665,0 1.174,0.449 1.174,1.036l0,14.88c0,0.587 -0.548,1.036 -1.174,1.036" style="fill:#1dae15;fill-rule:nonzero;"/><path d="M7.723,48.1l27.171,0l0,-44.24l-27.171,0l0,44.24Zm28.307,2.349l-29.481,0c-0.666,0 -1.175,-0.509 -1.175,-1.174l0,-46.59c0,-0.665 0.509,-1.174 1.175,-1.174l29.52,0c0.665,0 1.174,0.509 1.174,1.174l0,46.59c-0.039,0.665 -0.548,1.174 -1.213,1.174" style="fill:#1dae15;fill-rule:nonzero;"/><path d="M47.775,50.449l-43.458,0c-0.665,0 -1.174,-0.509 -1.174,-1.174c0,-0.666 0.509,-1.175 1.174,-1.175l43.458,0c0.665,0 1.174,0.509 1.174,1.175c0,0.665 -0.509,1.174 -1.174,1.174" style="fill:#1dae15;fill-rule:nonzero;"/><path d="M51.69,50.449c-0.078,0 -0.157,0 -0.235,-0.039c-0.078,0 -0.157,-0.039 -0.235,-0.078c-0.078,-0.039 -0.156,-0.079 -0.196,-0.118c-0.078,-0.039 -0.117,-0.078 -0.195,-0.156c-0.235,-0.235 -0.353,-0.509 -0.353,-0.822c0,-0.079 0,-0.157 0.039,-0.235c0,-0.079 0.04,-0.157 0.079,-0.235c0.039,-0.079 0.078,-0.118 0.117,-0.196c0.039,-0.078 0.078,-0.117 0.157,-0.196c0.078,-0.078 0.117,-0.117 0.196,-0.156c0.078,-0.039 0.117,-0.079 0.195,-0.118c0.079,-0.039 0.157,-0.039 0.235,-0.078c0.392,-0.078 0.783,0.039 1.057,0.313c0.039,0.039 0.118,0.118 0.157,0.196c0.039,0.078 0.078,0.117 0.117,0.196c0.039,0.078 0.039,0.156 0.079,0.235c0,0.078 0.039,0.156 0.039,0.234c0,0.314 -0.118,0.627 -0.353,0.823c-0.274,0.313 -0.587,0.43 -0.9,0.43" style="fill:#1dae15;fill-rule:nonzero;"/><path d="M5.688,6.404l38.876,0l0,-2.544l-38.876,0l0,2.544Zm40.051,2.349l-41.226,0c-0.666,0 -1.174,-0.508 -1.174,-1.174l0,-4.894c0,-0.665 0.508,-1.174 1.174,-1.174l41.226,0c0.666,0 1.175,0.509 1.175,1.174l0,4.894c0,0.626 -0.549,1.174 -1.175,1.174" style="fill:#1dae15;fill-rule:nonzero;"/><path d="M37.909,8.753c-0.666,0 -1.175,-0.508 -1.175,-1.174l0,-4.894c0,-0.665 0.509,-1.174 1.175,-1.174c0.665,0 1.174,0.509 1.174,1.174l0,4.894c0,0.626 -0.548,1.174 -1.174,1.174" style="fill:#1dae15;fill-rule:nonzero;"/><path d="M31.684,33.497l0,15.778c0,0.665 -0.509,1.174 -1.175,1.174l-18.44,0c-0.665,0 -1.174,-0.509 -1.174,-1.174l0,-15.778l2.349,0l0,14.603l16.091,0l0,-14.603l2.349,0Z" style="fill:#1dae15;fill-rule:nonzero;"/><path d="M19.469,34.671l-2.349,0c-0.666,0 -1.175,-0.509 -1.175,-1.174c0,-0.666 0.509,-1.175 1.175,-1.175l2.349,0c0.665,0 1.174,0.509 1.174,1.175c0,0.665 -0.548,1.174 -1.174,1.174" style="fill:#1dae15;fill-rule:nonzero;"/><path d="M25.341,34.671l-2.349,0c-0.665,0 -1.174,-0.509 -1.174,-1.174c0,-0.666 0.509,-1.175 1.174,-1.175l2.349,0c0.666,0 1.175,0.509 1.175,1.175c0,0.665 -0.548,1.174 -1.175,1.174" style="fill:#1dae15;fill-rule:nonzero;"/><path d="M31.214,34.671l-2.349,0c-0.666,0 -1.175,-0.509 -1.175,-1.174c0,-0.666 0.509,-1.175 1.175,-1.175l2.349,0c0.666,0 1.174,0.509 1.174,1.175c0,0.665 -0.548,1.174 -1.174,1.174" style="fill:#1dae15;fill-rule:nonzero;"/><path d="M13.596,34.671l-2.349,0c-0.666,0 -1.175,-0.509 -1.175,-1.174c0,-0.666 0.509,-1.175 1.175,-1.175l2.349,0c0.666,0 1.175,0.509 1.175,1.175c0,0.665 -0.549,1.174 -1.175,1.174" style="fill:#1dae15;fill-rule:nonzero;"/><path d="M36.03,34.671l-0.783,0c-0.666,0 -1.175,-0.509 -1.175,-1.174c0,-0.666 0.509,-1.175 1.175,-1.175l0.783,0c0.43,0 0.783,-0.352 0.783,-0.783l0,-3.132l-31.047,0l0,3.132c0,0.431 0.352,0.783 0.783,0.783l0.783,0c0.665,0 1.174,0.509 1.174,1.175c0,0.665 -0.509,1.174 -1.174,1.174l-0.783,0c-1.723,0 -3.132,-1.409 -3.132,-3.132l0,-4.306c0,-0.666 0.509,-1.175 1.174,-1.175l33.435,0c0.666,0 1.175,0.509 1.175,1.175l0,4.306c-0.039,1.762 -1.41,3.132 -3.171,3.132" style="fill:#1dae15;fill-rule:nonzero;"/></g></svg>