<svg xmlns="http://www.w3.org/2000/svg" viewBox="0 0 15.27 22.85"><defs><style>.cls-1{fill:#de1122}</style></defs><g id="レイヤー_2" data-name="レイヤー 2"><g id="data"><path class="cls-1" d="M11.13 10.8l-2.83-.06-.11-3.84a.44.44 0 10-.88 0l-.13 4.4a.57.57 0 00.57.57l3.38-.07a.49.49 0 00.49-.5.5.5 0 00-.49-.5z"/><path class="cls-1" d="M14.45 8l-1.81-4.39H10v.57a7.43 7.43 0 00-4.81 0v-.57H2.63L.82 8a7.56 7.56 0 000 6.85l1.81 4.39h2.6v-.56a7.61 7.61 0 004.81 0v.56h2.6l1.81-4.39a7.56 7.56 0 000-6.85zm-.89 3.27a5.8 5.8 0 11-1.7-4.11 5.82 5.82 0 011.7 4.11zM11.32 0H4a1.14 1.14 0 00-1.18 1.13v1.28h9.63V1.13A1.14 1.14 0 0011.32 0zM4 22.85h7.37a1.13 1.13 0 001.13-1.13v-1.27H2.82v1.27A1.13 1.13 0 004 22.85z"/></g></g></svg>