<svg xmlns="http://www.w3.org/2000/svg" viewBox="0 0 21.7 20.68"><defs><style>.cls-1{fill:#de1122}</style></defs><g id="レイヤー_2" data-name="レイヤー 2"><g id="data"><path class="cls-1" d="M21.52 15.9c-.67-2.15-1.52-4.9-2.1-6.82a5.71 5.71 0 01-1 2.06c-2 2.64-7.37 2.67-7.6 2.67s-5.56 0-7.6-2.67a5.91 5.91 0 01-1-2.06C1.68 11 .85 13.75.18 15.9a2.57 2.57 0 001.31 3.39c2 .9 6.54 1.39 9.36 1.39s7.35-.49 9.36-1.39a2.57 2.57 0 001.31-3.39z"/><path class="cls-1" d="M10.85 13.14c1.44 0 5.52-.4 7.06-2.41s1.09-5.05.48-4.93a31.24 31.24 0 01-7.54 1.47A31.24 31.24 0 013.31 5.8c-.59-.12-1.07 2.92.47 4.93s5.63 2.41 7.07 2.41zM8.6 9.66h3.45v1.15H8.6V9.66z"/><path class="cls-1" d="M6.85 5.13a5.59 5.59 0 01.44-1.59 4.41 4.41 0 011.42-1.78 3.66 3.66 0 011-.51 4 4 0 011.16-.18 3.66 3.66 0 011.5.32A3.94 3.94 0 0114 2.85a5.42 5.42 0 01.82 2.28l.1 1 1.08-.3-.09-.83a6.68 6.68 0 00-.52-1.9A5.52 5.52 0 0013.62.88a5.32 5.32 0 00-1.28-.65A4.89 4.89 0 0010.85 0a4.78 4.78 0 00-1.94.41 5.07 5.07 0 00-2.13 1.84A6.36 6.36 0 005.79 5l-.09.83 1 .28z"/></g></g></svg>