<svg xmlns="http://www.w3.org/2000/svg" viewBox="0 0 17.65 22.85"><path d="M11.93 4.74V1.87C11.93 1.09 11 0 8.81 0S5.68 1.09 5.68 1.87v2.87S0 7.41 0 9.74c0 1.51 3.18 6.49 3.18 6.49v5.18c0 .8 3.37 1.44 6.25 1.44s6.25-.64 6.25-1.44v-5.18s2-5 2-6.49c-.03-2.33-5.75-5-5.75-5zm-7.75 4A.81.81 0 115 8a.8.8 0 01-.82.79zm1.68 2.64a.8.8 0 11.8-.8.8.8 0 01-.8.85zm3 1.53a.81.81 0 11.8-.81.8.8 0 01-.83.9zm3-1.53a.8.8 0 11.81-.8.8.8 0 01-.88.85zm1.69-2.64a.81.81 0 010-1.61.81.81 0 010 1.61z" fill="#de1122" data-name="レイヤー 2"/></svg>