<svg width="190" height="227" viewBox="0 0 190 227" fill="none" xmlns="http://www.w3.org/2000/svg">
<path d="M23.765 39.87V36.645H27.155V39.87H23.765ZM18.5 39.87V36.645H21.875V39.87H18.5ZM23.765 34.89V32.295H21.875V34.89H16.7V42.45H18.5V41.625H21.875V46.305H23.765V41.625H27.155V42.375H29.03V34.89H23.765ZM38.6 33.735H35.84V32.4H34.115V33.735H31.37V35.28H38.6V33.735ZM36.365 42.045V44.025H33.56V42.045H36.365ZM31.91 46.32H33.56V45.57H36.365V46.26H38.105V40.5H31.91V46.32ZM36.23 35.325C36.11 36.015 35.84 36.96 35.615 37.59L36.89 37.905H32.9L34.31 37.575C34.25 36.96 34.01 36.06 33.695 35.385L32.24 35.685C32.495 36.375 32.72 37.305 32.765 37.905H31.055V39.525H38.765V37.905H37.025C37.28 37.335 37.58 36.51 37.91 35.685L36.23 35.325ZM43.73 33.075L43.46 33.15H39.23V46.305H40.97V34.83H42.785C42.425 35.97 41.945 37.5 41.51 38.565C42.71 39.735 43.04 40.815 43.04 41.625C43.04 42.135 42.95 42.48 42.68 42.645C42.53 42.72 42.335 42.75 42.125 42.765C41.9 42.78 41.615 42.765 41.285 42.735C41.57 43.245 41.72 44.01 41.72 44.49C42.14 44.505 42.575 44.505 42.92 44.46C43.295 44.4 43.655 44.28 43.94 44.085C44.51 43.68 44.75 42.945 44.75 41.85C44.75 40.86 44.525 39.69 43.25 38.34C43.85 37.065 44.51 35.34 45.035 33.885L43.73 33.075ZM51.23 39.3C51.23 40.35 52.1 41.22 53.15 41.22C54.2 41.22 55.07 40.35 55.07 39.3C55.07 38.25 54.2 37.38 53.15 37.38C52.1 37.38 51.23 38.25 51.23 39.3ZM4.61 55.835H1.07V57.62H4.61V61.25C3.095 61.79 1.565 62.315 0.545001 62.615L1.34 64.445C2.315 64.04 3.47 63.56 4.61 63.065V66.14H6.485V52.535H4.61V55.835ZM10.85 64.25C10.31 64.25 10.22 64.145 10.22 63.305V58.925C11.69 58.16 13.265 57.275 14.585 56.375L13.295 54.77C12.47 55.475 11.36 56.315 10.22 57.05V52.55H8.375V63.275C8.375 65.39 8.87 66.005 10.58 66.005H12.59C14.27 66.005 14.705 64.91 14.885 62.045C14.39 61.925 13.61 61.58 13.175 61.235C13.07 63.65 12.98 64.25 12.41 64.25H10.85ZM25.82 57.605V58.625C25.82 59.93 26.075 60.365 27.335 60.365H28.37C29.27 60.365 29.675 59.99 29.825 58.505C29.405 58.4 28.76 58.175 28.475 57.95C28.445 58.865 28.385 59 28.175 59H27.605C27.395 59 27.365 58.955 27.365 58.625V57.605H29.69V56.09H26.21V54.965H28.925V53.48H26.21V52.325H24.455V53.48H21.86V54.965H24.455V56.09H21.08V57.605H22.925C22.775 58.565 22.385 59.15 21.08 59.54C20.93 58.94 20.645 58.295 20.075 57.605C20.51 56.45 21.02 54.845 21.41 53.555L20.21 52.865L19.94 52.94H16.49V66.305H18.14V54.53H19.4C19.16 55.55 18.83 56.87 18.53 57.8C19.37 58.79 19.565 59.72 19.565 60.38C19.565 60.815 19.505 61.1 19.325 61.22C19.205 61.31 19.07 61.34 18.905 61.355C18.725 61.355 18.515 61.355 18.26 61.325C18.5 61.775 18.65 62.465 18.665 62.9C19.01 62.915 19.355 62.915 19.64 62.87C19.97 62.81 20.27 62.72 20.51 62.555C20.99 62.21 21.2 61.58 21.2 60.62C21.2 60.335 21.185 60.035 21.125 59.735C21.41 60.035 21.725 60.515 21.845 60.845C23.78 60.23 24.335 59.195 24.515 57.605H25.82ZM26.21 64.415V62.99H29.075V61.46H26.21V60.29H24.455V61.46H21.65V62.99H24.455V64.415H20.45V65.975H29.84V64.415H26.21ZM39.005 62.645V56.525H42.17C42.605 56.525 43.13 56.555 43.58 56.585V54.53C43.145 54.575 42.62 54.62 42.17 54.62H34.01C33.59 54.62 32.975 54.59 32.585 54.53V56.585C32.96 56.555 33.605 56.525 34.01 56.525H36.905V62.645H33.095C32.63 62.645 32.09 62.615 31.625 62.525V64.7C32.12 64.64 32.645 64.625 33.095 64.625H42.98C43.325 64.625 43.955 64.64 44.375 64.7V62.525C44 62.585 43.52 62.645 42.98 62.645H39.005ZM48.575 53.495C48.62 53.825 48.635 54.35 48.635 54.635V59.69C48.635 60.14 48.575 60.725 48.56 61.01H50.78C50.75 60.665 50.735 60.08 50.735 59.705V54.635C50.735 54.155 50.75 53.825 50.78 53.495H48.575ZM55.475 53.36C55.535 53.78 55.565 54.26 55.565 54.86V57.71C55.565 60.05 55.37 61.175 54.35 62.3C53.435 63.275 52.175 63.845 50.675 64.19L52.25 65.84C53.345 65.495 54.905 64.76 55.895 63.665C57.005 62.435 57.635 61.055 57.635 57.83V54.86C57.635 54.26 57.665 53.78 57.695 53.36H55.475ZM66.83 56.87C66.905 57.35 66.935 57.755 66.935 58.22C66.935 60.68 66.575 62.27 64.67 63.59C64.115 63.995 63.575 64.25 63.095 64.415L64.835 65.84C68.93 63.65 69.005 60.59 69.005 56.87H66.83ZM73.925 53.735C73.655 53.825 72.83 53.87 72.41 53.87H64.325C63.695 53.87 63.065 53.81 62.495 53.72V55.805C63.2 55.745 63.695 55.7 64.325 55.7H72.14C71.75 56.435 70.58 57.755 69.38 58.49L70.925 59.735C72.41 58.685 73.835 56.795 74.54 55.625C74.675 55.4 74.96 55.04 75.125 54.845L73.925 53.735Z" fill="#323232"/>
<path d="M38 5.53732e-06C36.8177 -0.00128842 35.6468 0.224208 34.5543 0.663573C33.4617 1.10294 32.469 1.74755 31.633 2.56049C30.797 3.37344 30.1342 4.33875 29.6823 5.40116C29.2305 6.46357 28.9987 7.60222 29 8.7519C29 13.6687 31.518 14.7307 34.2888 18.0151C36.2577 20.294 37.5419 23.057 38 26C38.4571 23.0586 39.7376 20.2962 41.7011 18.0151C44.482 14.7307 47 13.6785 47 8.7519C47 6.43075 46.0518 4.20467 44.364 2.56338C42.6761 0.922078 40.3869 5.53732e-06 38 5.53732e-06ZM38 11.8003C37.3831 11.8022 36.7795 11.626 36.2658 11.294C35.7521 10.9619 35.3513 10.489 35.1143 9.93516C34.8773 9.38133 34.8147 8.77154 34.9346 8.18311C35.0545 7.59467 35.3513 7.0541 35.7875 6.62993C36.2237 6.20576 36.7796 5.9171 37.3847 5.80055C37.9899 5.684 38.6169 5.74481 39.1864 5.97527C39.756 6.20573 40.2423 6.59545 40.5838 7.09503C40.9253 7.59461 41.1065 8.18153 41.1045 8.78139C41.0965 9.57694 40.7659 10.3373 40.1845 10.897C39.6032 11.4568 38.8181 11.7708 38 11.7708V11.8003Z" fill="black"/>
<path d="M37.5 80V151H188.5V226" stroke="#DE1122" stroke-width="2" stroke-linecap="round" stroke-linejoin="bevel" stroke-dasharray="0.1 4"/>
</svg>
