<svg width="122" height="202" viewBox="0 0 122 202" fill="none" xmlns="http://www.w3.org/2000/svg">
<path d="M8.89 192.87V189.645H12.28V192.87H8.89ZM3.625 192.87V189.645H7V192.87H3.625ZM8.89 187.89V185.295H7V187.89H1.825V195.45H3.625V194.625H7V199.305H8.89V194.625H12.28V195.375H14.155V187.89H8.89ZM23.875 192.81H25.27L24.355 193.275C24.7 193.665 25.12 194.175 25.375 194.58H23.875V192.81ZM25.93 194.58L26.71 194.145C26.47 193.785 25.99 193.23 25.585 192.81H26.41V191.31H23.875V189.9H26.74V188.34H19.375V189.9H22.225V191.31H19.75V192.81H22.225V194.58H19.21V196.035H26.98V194.58H25.93ZM18.625 196.905V187.515H27.505V196.905H18.625ZM16.81 185.88V199.305H18.625V198.555H27.505V199.305H29.41V185.88H16.81ZM36.355 192.3C36.355 193.35 37.225 194.22 38.275 194.22C39.325 194.22 40.195 193.35 40.195 192.3C40.195 191.25 39.325 190.38 38.275 190.38C37.225 190.38 36.355 191.25 36.355 192.3ZM48.94 196.17V193.5C49.345 193.815 49.81 194.4 50.035 194.82C52.09 193.425 52.51 191.175 52.66 188.325H53.95V191.955C53.95 192.975 54.085 193.305 54.355 193.56C54.64 193.815 55.105 193.95 55.51 193.95H56.47C56.77 193.95 57.16 193.89 57.385 193.785C57.595 193.695 57.76 193.56 57.88 193.38V196.17H48.94ZM50.905 188.325C50.815 190.59 50.56 192.39 48.94 193.47V188.325H50.905ZM57.88 191.49C57.505 191.34 57.085 191.115 56.875 190.89C56.86 191.46 56.845 191.91 56.8 192.105C56.77 192.3 56.71 192.39 56.635 192.435C56.575 192.465 56.455 192.48 56.35 192.48H55.96C55.855 192.48 55.78 192.45 55.72 192.405C55.675 192.36 55.66 192.225 55.66 192V188.325H57.88V191.49ZM47.14 186.615V198.87H48.94V197.895H57.88V198.75H59.755V186.615H47.14ZM69.325 192.81H70.72L69.805 193.275C70.15 193.665 70.57 194.175 70.825 194.58H69.325V192.81ZM71.38 194.58L72.16 194.145C71.92 193.785 71.44 193.23 71.035 192.81H71.86V191.31H69.325V189.9H72.19V188.34H64.825V189.9H67.675V191.31H65.2V192.81H67.675V194.58H64.66V196.035H72.43V194.58H71.38ZM64.075 196.905V187.515H72.955V196.905H64.075ZM62.26 185.88V199.305H64.075V198.555H72.955V199.305H74.86V185.88H62.26ZM84.73 195.645V189.525H87.895C88.33 189.525 88.855 189.555 89.305 189.585V187.53C88.87 187.575 88.345 187.62 87.895 187.62H79.735C79.315 187.62 78.7 187.59 78.31 187.53V189.585C78.685 189.555 79.33 189.525 79.735 189.525H82.63V195.645H78.82C78.355 195.645 77.815 195.615 77.35 195.525V197.7C77.845 197.64 78.37 197.625 78.82 197.625H88.705C89.05 197.625 89.68 197.64 90.1 197.7V195.525C89.725 195.585 89.245 195.645 88.705 195.645H84.73ZM94.3 186.495C94.345 186.825 94.36 187.35 94.36 187.635V192.69C94.36 193.14 94.3 193.725 94.285 194.01H96.505C96.475 193.665 96.46 193.08 96.46 192.705V187.635C96.46 187.155 96.475 186.825 96.505 186.495H94.3ZM101.2 186.36C101.26 186.78 101.29 187.26 101.29 187.86V190.71C101.29 193.05 101.095 194.175 100.075 195.3C99.16 196.275 97.9 196.845 96.4 197.19L97.975 198.84C99.07 198.495 100.63 197.76 101.62 196.665C102.73 195.435 103.36 194.055 103.36 190.83V187.86C103.36 187.26 103.39 186.78 103.42 186.36H101.2ZM112.555 189.87C112.63 190.35 112.66 190.755 112.66 191.22C112.66 193.68 112.3 195.27 110.395 196.59C109.84 196.995 109.3 197.25 108.82 197.415L110.56 198.84C114.655 196.65 114.73 193.59 114.73 189.87H112.555ZM119.65 186.735C119.38 186.825 118.555 186.87 118.135 186.87H110.05C109.42 186.87 108.79 186.81 108.22 186.72V188.805C108.925 188.745 109.42 188.7 110.05 188.7H117.865C117.475 189.435 116.305 190.755 115.105 191.49L116.65 192.735C118.135 191.685 119.56 189.795 120.265 188.625C120.4 188.4 120.685 188.04 120.85 187.845L119.65 186.735Z" fill="#323232"/>
<path d="M61 153C59.8177 152.999 58.6468 153.224 57.5543 153.664C56.4617 154.103 55.469 154.748 54.633 155.56C53.797 156.373 53.1342 157.339 52.6823 158.401C52.2305 159.464 51.9987 160.602 52 161.752C52 166.669 54.518 167.731 57.2888 171.015C59.2577 173.294 60.5419 176.057 61 179C61.4571 176.059 62.7376 173.296 64.7011 171.015C67.482 167.731 70 166.679 70 161.752C70 159.431 69.0518 157.205 67.364 155.563C65.6761 153.922 63.3869 153 61 153ZM61 164.8C60.3831 164.802 59.7795 164.626 59.2658 164.294C58.7521 163.962 58.3513 163.489 58.1143 162.935C57.8773 162.381 57.8147 161.772 57.9346 161.183C58.0545 160.595 58.3513 160.054 58.7875 159.63C59.2237 159.206 59.7796 158.917 60.3847 158.801C60.9899 158.684 61.6169 158.745 62.1864 158.975C62.756 159.206 63.2423 159.595 63.5838 160.095C63.9253 160.595 64.1065 161.182 64.1045 161.781C64.0965 162.577 63.7659 163.337 63.1845 163.897C62.6032 164.457 61.8181 164.771 61 164.771V164.8Z" fill="black"/>
<path d="M61 1L61 144" stroke="#D21518" stroke-width="2" stroke-miterlimit="16" stroke-linecap="round" stroke-linejoin="round" stroke-dasharray="0.1 4"/>
</svg>
