<svg width="59" height="59" fill="none" xmlns="http://www.w3.org/2000/svg"><g filter="url(#filter0_d)"><path d="M29.5 55C43.583 55 55 43.583 55 29.5S43.583 4 29.5 4 4 15.417 4 29.5 15.417 55 29.5 55z" fill="#fff"/></g><path d="M40.081 21.169H20.233c-1.24 0-2.233 1.01-2.233 2.272v11.614c0 1.262.992 2.272 2.233 2.272h19.848c1.241 0 2.233-1.01 2.233-2.272V23.441c0-1.262-.992-2.272-2.233-2.272zm-16.474 3.888c1.24 0 2.233 1.01 2.233 2.272 0 1.263-.992 2.273-2.233 2.273-1.24 0-2.233-1.01-2.233-2.273.05-1.212 1.042-2.272 2.233-2.272zm0 8.786c-1.538 0-3.076-.555-2.828-2.02.099-.605.595-1.464.943-1.817.05-.05.248-.05.347 0 .447.302.992.454 1.538.454.596 0 1.092-.152 1.538-.454.05-.05.298 0 .348 0 .397.404.843 1.212.943 1.817.297 1.465-1.29 2.02-2.829 2.02zm11.76-.555h-6.45v-1.515h6.45v1.515zm3.474-3.535h-9.924v-1.515h9.924v1.515zm0-3.03h-9.924V25.21h9.924v1.514z" fill="#DE1122"/><defs><filter id="filter0_d" x="0" y="0" width="59" height="59" filterUnits="userSpaceOnUse" color-interpolation-filters="sRGB"><feFlood flood-opacity="0" result="BackgroundImageFix"/><feColorMatrix in="SourceAlpha" values="0 0 0 0 0 0 0 0 0 0 0 0 0 0 0 0 0 0 127 0"/><feOffset/><feGaussianBlur stdDeviation="2"/><feColorMatrix values="0 0 0 0 0 0 0 0 0 0 0 0 0 0 0 0 0 0 0.16 0"/><feBlend in2="BackgroundImageFix" result="effect1_dropShadow"/><feBlend in="SourceGraphic" in2="effect1_dropShadow" result="shape"/></filter></defs></svg>