<svg width="59" height="59" fill="none" xmlns="http://www.w3.org/2000/svg"><g filter="url(#filter0_d)"><path d="M29.5 55C43.583 55 55 43.583 55 29.5S43.583 4 29.5 4 4 15.417 4 29.5 15.417 55 29.5 55z" fill="#fff"/></g><path d="M41.541 25.716l-3.888-3.99-2.575 3.99h6.463zM26.088 27.23L29.32 39.4l3.232-12.17h-6.464zM26.594 25.713h5.453l-2.777-3.838-2.676 3.838zM33.562 25.008l2.475-3.838h-5.252l2.777 3.837zM27.704 21.17h-5.1l2.424 3.787 2.677-3.787zM20.99 21.727l-3.888 3.989h6.463l-2.575-3.99zM17 27.23l10.604 11.968-3.181-11.968H17zM34.218 27.23l-3.18 11.968L41.64 27.23h-7.423z" fill="#DE1122"/><defs><filter id="filter0_d" x="0" y="0" width="59" height="59" filterUnits="userSpaceOnUse" color-interpolation-filters="sRGB"><feFlood flood-opacity="0" result="BackgroundImageFix"/><feColorMatrix in="SourceAlpha" values="0 0 0 0 0 0 0 0 0 0 0 0 0 0 0 0 0 0 127 0"/><feOffset/><feGaussianBlur stdDeviation="2"/><feColorMatrix values="0 0 0 0 0 0 0 0 0 0 0 0 0 0 0 0 0 0 0.16 0"/><feBlend in2="BackgroundImageFix" result="effect1_dropShadow"/><feBlend in="SourceGraphic" in2="effect1_dropShadow" result="shape"/></filter></defs></svg>