<svg width="29" height="27" fill="none" xmlns="http://www.w3.org/2000/svg"><path d="M11.53 10.84a.56.56 0 01-.56-.56v-.69a.56.56 0 111.12 0v.69c-.01.31-.26.56-.56.56zM7.34 10.84a.56.56 0 01-.56-.56v-.69a.56.56 0 111.12 0v.69c0 .31-.25.56-.56.56z" fill="#DE1122"/><path d="M16.13 16.92H12.7l-1.02-.72a.583.583 0 00-.57-.05v-.12c2.13-.71 3.59-2.7 3.59-4.99v-3.1a.56.56 0 00-.56-.56h-.51c-1.59 0-3.03-1.07-3.48-2.59a.555.555 0 00-.53-.4h-.36c-.25 0-.46.16-.53.4a3.68 3.68 0 01-3.49 2.59h-.51a.56.56 0 00-.56.56v3.11c0 2.29 1.45 4.28 3.59 4.99v.12a.537.537 0 00-.57.05l-1.03.74c-.04-.01-.07-.01-.11-.01H2.74c-.9 0-1.62-.73-1.62-1.62 0-.76.51-1.41 1.25-1.58.25-.06.43-.28.43-.54V7.75a6.65 6.65 0 016.64-6.64 6.65 6.65 0 016.64 6.64v5.42c0 .26.18.48.43.54.74.17 1.25.82 1.25 1.58-.01.91-.74 1.63-1.63 1.63zm-5.23 2.29l-.67-.66 1.19-1.17.5.36-1.02 1.47zm-.48-4.14c-.25.06-.43.28-.43.54v1.6l-.56.55-.56-.55v-1.6c0-.26-.18-.48-.43-.54a4.132 4.132 0 01-3.16-4.03V8.49c1.02-.01 2-.34 2.81-.96.55-.42 1.01-.95 1.33-1.56a4.752 4.752 0 004.14 2.52v2.55a4.093 4.093 0 01-3.14 4.03zm-2.45 4.14l-1.01-1.47.5-.36 1.18 1.17-.67.66zm10.9-3.91c0-1.12-.67-2.11-1.68-2.53V7.75C17.19 3.48 13.71 0 9.43 0 5.15 0 1.68 3.48 1.68 7.75v5.02A2.733 2.733 0 000 15.3c0 1.51 1.23 2.74 2.74 2.74-.49.57-.79 1.3-.79 2.11v5.3c0 .3.25.55.56.55h4.4a.56.56 0 100-1.12H3.07v-4.74c0-1.16.95-2.11 2.11-2.11h.64l1.62 2.35c.09.14.24.22.41.24h.05c.15 0 .29-.06.39-.16l.59-.59v1.83a.56.56 0 101.12 0v-1.83l.59.59c.1.1.25.16.39.16h.05c.16-.02.31-.1.41-.24l1.62-2.35h.64c1.16 0 2.11.94 2.11 2.11v4.74h-3.85a.56.56 0 100 1.12h4.41c.31 0 .56-.25.56-.56v-5.3c0-.8-.3-1.54-.79-2.11 1.5.01 2.73-1.22 2.73-2.73z" fill="#DE1122"/><path d="M26.98 24.89h-7.25c-.25 0-.46-.21-.46-.46v-2.4c.49.41 1.11.66 1.78.7v.32a.56.56 0 101.12 0v-.32h2.37v.32a.56.56 0 101.12 0v-.32c.67-.03 1.29-.29 1.78-.7v2.4c0 .25-.21.46-.46.46zm-7.71-6.25c0-.25.2-.46.46-.46h7.25c.25 0 .46.21.46.46v1.01c0 1.02-.79 1.87-1.78 1.95v-.4a.56.56 0 10-1.12 0v.41h-2.37v-.41a.56.56 0 10-1.12 0v.4c-1-.08-1.78-.92-1.78-1.95v-1.01zm3.24-2.21h2.01v.63h-2.01v-.63zm4.47.64h-1.34v-1.19a.56.56 0 00-.56-.56h-3.13a.56.56 0 00-.56.56v1.19h-1.67c-.87 0-1.57.71-1.57 1.58v5.78c0 .87.71 1.58 1.57 1.58h7.25c.87 0 1.57-.71 1.57-1.58v-5.78c.01-.88-.69-1.58-1.56-1.58zM9.44 26c-.24 0-.46-.16-.53-.39-.07-.22.01-.48.2-.62a.54.54 0 01.63-.02c.19.12.29.35.25.58-.05.26-.28.45-.55.45z" fill="#DE1122"/></svg>