<svg width="28" height="27" fill="none" xmlns="http://www.w3.org/2000/svg"><path d="M19.215 25.702h3.105V1.298h-3.105v24.404zM22.954 27H18.57a.634.634 0 01-.644-.644V.644c0-.364.28-.644.644-.644h4.403c.364 0 .644.28.644.644v25.702a.654.654 0 01-.664.654zM9.049 11.943a.634.634 0 01-.644-.644V6.823H5.85v4.444c0 .364-.28.644-.644.644a.634.634 0 01-.644-.643V6.178c0-.363.28-.644.644-.644H9.05c.363 0 .643.28.643.644v5.099c0 .363-.28.665-.643.665z" fill="#DE1122"/><path d="M9.474 11.942H4.77a.634.634 0 01-.644-.644c0-.363.28-.644.644-.644h4.704c.364 0 .644.28.644.644.01.364-.27.644-.644.644zM16.235 11.942H11.53a.634.634 0 01-.643-.644c0-.363.28-.644.643-.644h4.705c.363 0 .643.28.643.644.01.364-.27.644-.643.644z" fill="#DE1122"/><path d="M15.809 11.943a.634.634 0 01-.644-.644V6.823h-2.544v4.444c0 .364-.28.644-.644.644a.634.634 0 01-.644-.643V6.178c0-.363.28-.644.644-.644h3.842c.364 0 .644.28.644.644v5.099c-.01.363-.29.665-.654.665zM10.513 27c-.364 0-.644-.25-.644-.572v-8.214c0-.322.28-.571.644-.571.363 0 .643.249.643.57v8.215c.01.322-.3.571-.643.571z" fill="#DE1122"/><path d="M3.015 25.702H18.01V1.298H3.016v24.404zM18.634 27H2.37a.634.634 0 01-.644-.644V.644c0-.364.28-.644.644-.644h16.283c.364 0 .644.28.644.644v25.702a.654.654 0 01-.664.654z" fill="#DE1122"/><path d="M25.114 27H1.136a.634.634 0 01-.644-.643c0-.364.28-.644.644-.644h23.978c.363 0 .643.28.643.644.01.363-.27.644-.643.644zM27.274 27c-.042 0-.083 0-.125-.02a.294.294 0 01-.124-.042.457.457 0 01-.104-.062c-.042-.02-.063-.042-.104-.083a.637.637 0 01-.197-.457c0-.041 0-.083.02-.124 0-.042.021-.084.042-.125.02-.042.041-.063.062-.104a.364.364 0 01.083-.104.362.362 0 01.104-.083c.042-.02.062-.041.104-.062.041-.021.083-.021.125-.042a.626.626 0 01.581.177c.02.02.062.062.083.104.021.041.042.062.063.104.02.041.02.082.041.124 0 .042.02.083.02.125a.583.583 0 01-.197.457.607.607 0 01-.477.218zM1.894 2.7h21.444V1.298H1.894V2.7zm22.098 1.298H1.25a.634.634 0 01-.644-.644v-2.7A.624.624 0 011.25 0h22.742c.364 0 .644.28.644.644v2.7a.663.663 0 01-.644.654z" fill="#DE1122"/><path d="M19.672 3.997a.634.634 0 01-.644-.643v-2.7c0-.364.28-.644.644-.644s.644.28.644.644v2.7a.661.661 0 01-.644.643zM16.235 17.643v8.702c0 .363-.28.644-.644.644H5.414a.634.634 0 01-.644-.644v-8.702h1.298V25.7h8.88v-8.058h1.287z" fill="#DE1122"/><path d="M9.495 18.297H8.208a.634.634 0 01-.644-.643c0-.364.28-.644.644-.644h1.298c.363 0 .643.28.643.644a.65.65 0 01-.654.643zM12.735 18.297h-1.298a.634.634 0 01-.644-.643c0-.364.28-.644.644-.644h1.298c.364 0 .644.28.644.644a.634.634 0 01-.644.643zM15.975 18.297h-1.298a.634.634 0 01-.644-.643c0-.364.28-.644.644-.644h1.298c.364 0 .644.28.644.644a.634.634 0 01-.644.643zM6.255 18.297H4.967a.634.634 0 01-.643-.643c0-.364.28-.644.643-.644h1.298c.364 0 .644.28.644.644a.65.65 0 01-.654.643z" fill="#DE1122"/><path d="M18.634 18.299h-.437a.634.634 0 01-.643-.644c0-.364.28-.644.643-.644h.437a.439.439 0 00.436-.436V14.85H1.935v1.724c0 .239.197.436.436.436h.436c.364 0 .644.28.644.644 0 .363-.28.643-.644.643h-.436a1.726 1.726 0 01-1.724-1.723v-2.378c0-.364.28-.644.644-.644h18.443c.364 0 .644.28.644.644v2.378a1.724 1.724 0 01-1.744 1.724z" fill="#DE1122"/></svg>