<svg width="24" height="27" fill="none" xmlns="http://www.w3.org/2000/svg"><path d="M2.63 18.89c.06-.25.28-.44.55-.44h3.49c.31 0 .56.25.56.56v4.92l3.51 1.46c1.54.63 3.27.65 4.82.05l6.74-2.57c.15-.06.27-.17.33-.32a.64.64 0 00.01-.49.645.645 0 00-.33-.34.585.585 0 00-.45 0l-3.65 1.55c-.33.14-.69.22-1.05.22H11.89a.56.56 0 110-1.12h5.21c.05 0 .1-.01.15-.02a.527.527 0 00-.13-1.04h-3.39c-.5 0-.99-.12-1.43-.34A9.197 9.197 0 008.19 20h-.21a.56.56 0 110-1.12h.23c1.6 0 3.18.38 4.62 1.09.29.14.61.22.93.22h3.39c.9 0 1.63.72 1.65 1.62l2.64-1.12c.42-.18.9-.18 1.32 0a1.736 1.736 0 01.91 2.31c-.18.42-.53.75-.96.92l-6.74 2.57c-1.82.7-3.84.67-5.65-.06l-3.09-1.28c-.01.3-.26.54-.56.54H3.18c-.27 0-.49-.19-.55-.44H.56a.56.56 0 110-1.12h2.06v-.31a.56.56 0 111.12 0v.75h2.37v-4.99H3.74v2.5a.56.56 0 11-1.12 0v-2.06H.56c-.31 0-.56-.26-.56-.57 0-.31.25-.56.56-.56h2.07zM23.36 4.48c.01.04.02.09.02.13v10.48c0 .24-.16.46-.39.53l-9.6 3.06c-.11.04-.23.04-.34 0l-9.6-3.05a.558.558 0 01-.39-.53V4.61c0-.24.16-.46.39-.53l9.6-3.06c.11-.04.23-.04.34 0l9.6 3.06.12.06c.04.02.08.05.11.09l.04.04c.04.05.08.11.1.18v.03zm-10.14 2.6l1.5-.48-7.76-2.46-2.78.88v9.66l8.48 2.7v-1.42a.56.56 0 111.12 0v1.42l8.48-2.7v-9.3l-2.01.64V9.1c0 .24-.16.46-.39.53l-.8.25c-.05.02-.11.03-.17.03a.558.558 0 01-.17-1.09l.41-.13V6.38l-2.01.64v2.32l.29-.09c.3-.09.61.07.7.36.09.29-.07.61-.36.7l-1.02.33c-.05.02-.11.03-.17.03a.56.56 0 01-.56-.56V7.37l-2.23.71v6.14a.56.56 0 11-1.12 0V8.08L5.63 5.84a.557.557 0 01.34-1.06l7.25 2.3zm-6.11 5.27a.56.56 0 00-.56.56v1.31a.56.56 0 101.12 0v-1.31a.56.56 0 00-.56-.56zm-1.75-.44a.56.56 0 00-.56.56v1.31a.56.56 0 101.12 0v-1.31a.56.56 0 00-.56-.56zm3.45-8.36l7.75 2.47 1.28-.41-7.75-2.47-1.28.41zm3.13-1l7.75 2.47 1.28-.41-7.75-2.47-1.28.41z" fill="#DE1122"/></svg>