<svg width="270" height="53" viewBox="0 0 270 53" fill="none" xmlns="http://www.w3.org/2000/svg">
<path d="M183.41 35.835H179.87V37.62H183.41V41.25C181.895 41.79 180.365 42.315 179.345 42.615L180.14 44.445C181.115 44.04 182.27 43.56 183.41 43.065V46.14H185.285V32.535H183.41V35.835ZM189.65 44.25C189.11 44.25 189.02 44.145 189.02 43.305V38.925C190.49 38.16 192.065 37.275 193.385 36.375L192.095 34.77C191.27 35.475 190.16 36.315 189.02 37.05V32.55H187.175V43.275C187.175 45.39 187.67 46.005 189.38 46.005H191.39C193.07 46.005 193.505 44.91 193.685 42.045C193.19 41.925 192.41 41.58 191.975 41.235C191.87 43.65 191.78 44.25 191.21 44.25H189.65ZM198.83 33.87C198.275 33.375 197.165 32.76 196.325 32.4L195.305 33.705C196.19 34.11 197.255 34.8 197.75 35.295L198.83 33.87ZM198.11 37.785C197.57 37.29 196.475 36.72 195.62 36.375L194.645 37.695C195.5 38.085 196.565 38.73 197.06 39.225L198.11 37.785ZM196.52 46.155C197.21 44.685 197.945 42.93 198.53 41.325L197.105 40.335C196.445 42.09 195.545 44.01 194.915 45.18L196.52 46.155ZM204.185 42.69C204.245 42.21 204.305 41.67 204.365 41.115H205.91C205.865 41.73 205.82 42.255 205.775 42.69H204.185ZM202.835 41.115C202.775 41.67 202.715 42.21 202.655 42.69H201.245C201.305 42.18 201.38 41.655 201.455 41.115H202.835ZM201.815 38.085H203.105C203.075 38.55 203.03 39.03 203 39.51H201.65L201.815 38.085ZM204.515 39.51C204.56 39.03 204.605 38.55 204.635 38.085H206.06C206.045 38.595 206.015 39.075 206 39.51H204.515ZM208.775 41.115V39.51H207.635C207.68 38.835 207.71 38.1 207.74 37.29C207.755 37.08 207.755 36.57 207.755 36.57H200.63C200.84 36.255 201.035 35.925 201.215 35.58H208.46V33.99H201.935C202.1 33.555 202.25 33.105 202.385 32.655L200.63 32.295C200.165 33.99 199.31 35.685 198.245 36.735C198.665 36.945 199.43 37.455 199.745 37.755C199.925 37.545 200.105 37.335 200.285 37.095C200.21 37.86 200.12 38.685 200.015 39.51H198.515V41.115H199.805C199.61 42.495 199.385 43.785 199.19 44.79L200.9 44.925L201.02 44.19H205.535C205.475 44.4 205.4 44.55 205.34 44.64C205.19 44.835 205.04 44.88 204.785 44.88C204.485 44.88 203.9 44.865 203.255 44.82C203.495 45.21 203.675 45.84 203.69 46.275C204.425 46.305 205.145 46.305 205.58 46.23C206.09 46.17 206.45 46.02 206.78 45.555C206.96 45.315 207.11 44.895 207.23 44.19H208.61V42.69H207.425C207.47 42.225 207.515 41.715 207.545 41.115H208.775ZM220.685 38.235H216.83V37.455H220.685V38.235ZM220.685 40.185H216.83V39.405H220.685V40.185ZM220.685 42.165H216.83V41.37H220.685V42.165ZM215.15 36.165V43.455H222.455V36.165H219.17C219.29 35.91 219.425 35.64 219.545 35.355H223.55V33.915H221.24C221.495 33.555 221.765 33.12 222.035 32.67L220.265 32.295C220.085 32.76 219.755 33.435 219.47 33.915H217.595L217.775 33.84C217.625 33.405 217.205 32.76 216.8 32.31L215.39 32.835C215.645 33.15 215.9 33.555 216.08 33.915H213.995V35.355H217.625C217.58 35.625 217.535 35.895 217.475 36.165H215.15ZM213.845 34.905C213.335 34.2 212.24 33.27 211.34 32.64L210.02 33.72C210.905 34.38 211.97 35.37 212.435 36.09L213.845 34.905ZM213.47 38.115H210.005V39.75H211.73V42.915C211.07 43.425 210.32 43.92 209.675 44.295L210.545 46.155C211.37 45.525 212.03 44.94 212.69 44.355C213.665 45.525 214.895 45.945 216.74 46.02C218.525 46.095 221.54 46.065 223.34 45.975C223.43 45.465 223.7 44.595 223.895 44.175C221.9 44.325 218.525 44.37 216.77 44.295C215.21 44.235 214.085 43.83 213.47 42.825V38.115ZM232.955 42.645V36.525H236.12C236.555 36.525 237.08 36.555 237.53 36.585V34.53C237.095 34.575 236.57 34.62 236.12 34.62H227.96C227.54 34.62 226.925 34.59 226.535 34.53V36.585C226.91 36.555 227.555 36.525 227.96 36.525H230.855V42.645H227.045C226.58 42.645 226.04 42.615 225.575 42.525V44.7C226.07 44.64 226.595 44.625 227.045 44.625H236.93C237.275 44.625 237.905 44.64 238.325 44.7V42.525C237.95 42.585 237.47 42.645 236.93 42.645H232.955ZM242.525 33.495C242.57 33.825 242.585 34.35 242.585 34.635V39.69C242.585 40.14 242.525 40.725 242.51 41.01H244.73C244.7 40.665 244.685 40.08 244.685 39.705V34.635C244.685 34.155 244.7 33.825 244.73 33.495H242.525ZM249.425 33.36C249.485 33.78 249.515 34.26 249.515 34.86V37.71C249.515 40.05 249.32 41.175 248.3 42.3C247.385 43.275 246.125 43.845 244.625 44.19L246.2 45.84C247.295 45.495 248.855 44.76 249.845 43.665C250.955 42.435 251.585 41.055 251.585 37.83V34.86C251.585 34.26 251.615 33.78 251.645 33.36H249.425ZM260.78 36.87C260.855 37.35 260.885 37.755 260.885 38.22C260.885 40.68 260.525 42.27 258.62 43.59C258.065 43.995 257.525 44.25 257.045 44.415L258.785 45.84C262.88 43.65 262.955 40.59 262.955 36.87H260.78ZM267.875 33.735C267.605 33.825 266.78 33.87 266.36 33.87H258.275C257.645 33.87 257.015 33.81 256.445 33.72V35.805C257.15 35.745 257.645 35.7 258.275 35.7H266.09C265.7 36.435 264.53 37.755 263.33 38.49L264.875 39.735C266.36 38.685 267.785 36.795 268.49 35.625C268.625 35.4 268.91 35.04 269.075 34.845L267.875 33.735Z" fill="#323232"/>
<path d="M224 5.53732e-06C222.818 -0.00128842 221.647 0.224208 220.554 0.663573C219.462 1.10294 218.469 1.74755 217.633 2.56049C216.797 3.37344 216.134 4.33875 215.682 5.40116C215.231 6.46357 214.999 7.60222 215 8.7519C215 13.6687 217.518 14.7307 220.289 18.0151C222.258 20.294 223.542 23.057 224 26C224.457 23.0586 225.738 20.2962 227.701 18.0151C230.482 14.7307 233 13.6785 233 8.7519C233 6.43075 232.052 4.20467 230.364 2.56338C228.676 0.922078 226.387 5.53732e-06 224 5.53732e-06ZM224 11.8003C223.383 11.8022 222.78 11.626 222.266 11.294C221.752 10.9619 221.351 10.489 221.114 9.93516C220.877 9.38133 220.815 8.77154 220.935 8.18311C221.054 7.59467 221.351 7.0541 221.788 6.62993C222.224 6.20576 222.78 5.9171 223.385 5.80055C223.99 5.684 224.617 5.74481 225.186 5.97527C225.756 6.20573 226.242 6.59545 226.584 7.09503C226.925 7.59461 227.106 8.18153 227.104 8.78139C227.096 9.57694 226.766 10.3373 226.185 10.897C225.603 11.4568 224.818 11.7708 224 11.7708V11.8003Z" fill="black"/>
<path d="M1 11L205 11" stroke="#D21518" stroke-width="2" stroke-miterlimit="16" stroke-linecap="round" stroke-linejoin="round" stroke-dasharray="0.1 4"/>
</svg>
