<?xml version="1.0" encoding="UTF-8"?><svg id="_レイヤー_2" xmlns="http://www.w3.org/2000/svg" viewBox="0 0 570 570"><g id="contents"><circle cx="285" cy="285" r="49.239" fill="#bc1b21" stroke-width="0"/><path d="m570,259.096h-63.032c-5.723-49.885-27.921-96.067-63.959-132.105-36.038-36.038-82.22-58.236-132.105-63.959V0h-51.808v63.033c-49.885,5.723-96.067,27.921-132.104,63.959-36.038,36.037-58.236,82.219-63.959,132.104H0v51.808h63.033c5.723,49.885,27.921,96.067,63.958,132.105,36.038,36.038,82.22,58.236,132.105,63.959v63.032h51.808v-63.032c49.885-5.723,96.067-27.921,132.105-63.959,36.038-36.038,58.236-82.22,63.959-132.105h63.032v-51.808Zm-259.096,195.601v-47.749h-51.808v47.749c-73.951-11.242-132.551-69.842-143.793-143.794h47.749v-51.808h-47.749c11.242-73.951,69.842-132.551,143.793-143.793v47.749h51.808v-47.749c73.951,11.242,132.552,69.842,143.794,143.793h-47.749v51.808h47.749c-11.242,73.951-69.842,132.552-143.794,143.794Z" fill="#bc1b21" stroke-width="0"/></g></svg>