<?xml version="1.0" encoding="UTF-8"?><svg id="_レイヤー_2" xmlns="http://www.w3.org/2000/svg" viewBox="0 0 46.825 46.826"><g id="_レイヤー_1-2"><path id="search" d="m35.211,29.716h0c2.047-3.102,3.145-6.736,3.145-10.537,0-2.562-.498-5.046-1.45-7.343-.952-2.298-2.356-4.407-4.167-6.218C29.117,1.996,24.3,0,19.179,0S9.24,1.996,5.617,5.618C1.995,9.241,0,14.056,0,19.179s1.995,9.939,5.617,13.562c3.739,3.739,8.65,5.608,13.562,5.608,3.674,0,7.349-1.047,10.532-3.14l10.478,10.479c.759.759,1.754,1.138,2.749,1.138s1.99-.379,2.749-1.138c1.518-1.518,1.518-3.978,0-5.497l-10.476-10.474Zm-3.218-2.185c-.573.877-1.242,1.702-2.001,2.461-.765.765-1.591,1.431-2.463,1.999-5.926,3.867-13.966,3.2-19.163-1.999-2.888-2.888-4.479-6.728-4.479-10.813s1.591-7.925,4.479-10.813c2.887-2.887,6.728-4.479,10.813-4.479,2.042,0,4.023.398,5.854,1.157,1.832.759,3.514,1.879,4.958,3.322,2.888,2.888,4.479,6.728,4.479,10.813,0,3.012-.865,5.89-2.478,8.352Z" fill="#fff" stroke-width="0"/></g></svg>