<?xml version="1.0" encoding="UTF-8"?><svg id="_レイヤー_2" xmlns="http://www.w3.org/2000/svg" viewBox="0 0 372.189 371.404"><g id="_レイヤー_1-2"><path d="m46.554,46.464c0,1.808,0,3.157,0,4.507-.003,23.704.063,47.408-.042,71.111-.047,10.601-7.271,19.663-17.326,22.265-9.988,2.584-20.806-1.613-25.729-10.686-1.89-3.483-3.235-7.751-3.266-11.673C-.064,89.055-.022,56.118.077,23.183.116,10.258,10.264.125,23.214.086,56.344-.015,89.475-.025,122.605.092c12.907.046,23.021,10.488,22.991,23.242-.029,12.698-10.219,23.028-23.158,23.093-23.628.119-47.258.036-70.887.037-1.487,0-2.975,0-4.997,0Z" fill="#c80000" stroke-width="0"/><path d="m46.554,324.968c1.899,0,3.261,0,4.623,0,23.379,0,46.759-.025,70.138.01,13.828.021,24.248,9.987,24.281,23.113.033,13.159-10.364,23.264-24.12,23.281-32.381.04-64.762.038-97.143.001-14.348-.016-24.268-9.932-24.284-24.261-.034-32.188-.036-64.375,0-96.563.016-13.756,10.096-24.227,23.206-24.258,13.103-.031,23.255,10.445,23.283,24.181.049,23.33.014,46.66.014,69.99,0,1.35,0,2.699,0,4.506Z" fill="#c80000" stroke-width="0"/><path d="m325.65,46.462c-25.339,0-50.086.039-74.834-.018-10.667-.025-19.67-6.632-22.643-16.371C223.659,15.286,234.491.269,250.075.103c18.25-.194,36.503-.053,54.755-.056,14.252-.002,28.503-.023,42.754.006,14.659.03,24.553,9.798,24.569,24.348.037,32.185.041,64.37-.003,96.555-.018,13.737-10.179,24.212-23.284,24.182-13.105-.03-23.181-10.507-23.206-24.263-.041-23.328-.011-46.656-.012-69.984,0-1.343,0-2.685,0-4.429Z" fill="#c80000" stroke-width="0"/><path d="m325.65,324.968v-4.627c0-23.328-.036-46.657.015-69.985.03-13.669,10.319-24.182,23.394-24.065,12.997.116,23.067,10.486,23.089,23.994.052,32.435.06,64.87-.004,97.305-.027,13.815-10.088,23.756-24.004,23.778-32.254.049-64.508.043-96.762.003-13.842-.017-24.143-9.988-24.14-23.205.003-13.235,10.281-23.161,24.152-23.186,23.253-.043,46.506-.012,69.759-.012,1.351,0,2.703,0,4.502,0Z" fill="#c80000" stroke-width="0"/></g></svg>