<?xml version="1.0" encoding="UTF-8"?><svg id="_レイヤー_2" xmlns="http://www.w3.org/2000/svg" viewBox="0 0 34.992 48.149"><g id="_レイヤー_1-2"><path id="location" d="m17.496,0C7.849,0,0,7.849,0,17.496c0,5.867,2.734,12.607,8.127,20.032,3.934,5.416,7.819,9.141,7.983,9.297l1.387,1.323,1.387-1.323c.163-.156,4.049-3.881,7.982-9.297,5.392-7.425,8.127-14.165,8.127-20.032C34.992,7.849,27.143,0,17.496,0Zm0,25.699c-4.525,0-8.205-3.679-8.205-8.203s3.68-8.205,8.205-8.205,8.203,3.68,8.203,8.205-3.679,8.203-8.203,8.203Z" fill="#C80000" stroke-width="0"/></g></svg>