<svg width="35" height="31" viewBox="0 0 35 31" fill="none" xmlns="http://www.w3.org/2000/svg">
<path d="M7.71421 11.2239C10.6675 10.7355 12.6788 8.02498 12.2067 5.16979C11.7345 2.31459 8.95763 0.395912 6.00436 0.884294C3.05108 1.37268 1.03975 4.08318 1.51191 6.93837C1.98407 9.79357 4.76093 11.7123 7.71421 11.2239Z" fill="#C80000"/>
<path d="M6.85402 10.2664C8.84285 9.9375 10.1863 8.04536 9.85471 6.04019C9.52312 4.03501 7.64204 2.67612 5.65321 3.00501C3.66438 3.3339 2.32093 5.22604 2.65253 7.23121C2.98412 9.23638 4.86519 10.5953 6.85402 10.2664Z" fill="#D4876D"/>
<path d="M34.2326 8.58071C34.5015 5.79356 32.3798 3.30844 29.4937 3.03003C26.6076 2.75162 24.05 4.78536 23.7811 7.5725C23.5123 10.3596 25.634 12.8448 28.5201 13.1232C31.4062 13.4016 33.9638 11.3679 34.2326 8.58071Z" fill="#C80000"/>
<path d="M33.2084 9.12149C33.3961 7.17543 31.9485 5.44351 29.9749 5.25313C28.0014 5.06276 26.2493 6.48601 26.0616 8.43207C25.8739 10.3781 27.3216 12.11 29.2951 12.3004C31.2686 12.4908 33.0207 11.0675 33.2084 9.12149Z" fill="#D4876D"/>
<path d="M18.2277 2.04676C24.9077 2.76676 31.0677 7.97676 32.6677 14.2368C34.4377 21.1668 31.2977 32.3468 16.1477 30.6768C1.31766 29.0468 -0.562341 20.4468 0.117659 16.0168C0.927659 10.7368 5.14766 0.63676 18.2377 2.04676H18.2277Z" fill="#C80000"/>
<path d="M18.8009 17.2613C19.0508 16.1967 18.1985 15.0861 16.8974 14.7807C15.5962 14.4753 14.3388 15.0907 14.0889 16.1553C13.8391 17.2199 14.6913 18.3305 15.9924 18.6359C17.2936 18.9413 18.551 18.3259 18.8009 17.2613Z" fill="white"/>
<path d="M24.5982 17.4916C25.5232 17.2753 26.0692 16.2281 25.8177 15.1525C25.5662 14.077 24.6125 13.3804 23.6875 13.5967C22.7625 13.8129 22.2166 14.8602 22.468 15.9357C22.7195 17.0113 23.6732 17.7079 24.5982 17.4916Z" fill="white"/>
<path d="M10.3975 13.7924C11.1482 12.9597 11.175 11.7601 10.4572 11.1129C9.73938 10.4657 8.54888 10.616 7.79811 11.4486C7.04734 12.2813 7.02061 13.4809 7.73841 14.1281C8.4562 14.7754 9.64671 14.625 10.3975 13.7924Z" fill="white"/>
<path d="M15.9877 18.6268C15.9877 18.6268 15.0877 19.9168 14.8677 21.7368C14.6477 23.5568 15.0477 25.2268 15.0477 25.2268" stroke="white" stroke-width="0.79" stroke-linecap="round" stroke-linejoin="round"/>
<path d="M11.3477 22.6268C11.3477 22.6268 11.4277 24.3868 14.0377 25.0468C17.7877 26.0068 19.3977 24.7668 19.3977 24.7668" stroke="white" stroke-width="0.79" stroke-linecap="round" stroke-linejoin="round"/>
</svg>
