<svg width="16" height="16" viewBox="0 0 16 16" fill="none" xmlns="http://www.w3.org/2000/svg">
<path d="M7.98 15.96C3.58 15.96 0 12.38 0 7.98C0 3.58 3.58 0 7.98 0C12.38 0 15.96 3.58 15.96 7.98C15.96 12.38 12.38 15.96 7.98 15.96ZM7.98 1.59C4.46 1.59 1.59 4.46 1.59 7.98C1.59 11.5 4.46 14.37 7.98 14.37C11.5 14.37 14.37 11.5 14.37 7.98C14.37 4.46 11.5 1.59 7.98 1.59Z" fill="white"/>
<path d="M7.98001 7.8C6.66001 7.8 5.58002 6.73 5.58002 5.4C5.58002 4.07 6.65001 3 7.98001 3C9.31001 3 10.38 4.07 10.38 5.4C10.38 6.73 9.31001 7.8 7.98001 7.8ZM7.98001 4.61C7.54001 4.61 7.18001 4.97 7.18001 5.41C7.18001 5.85 7.54001 6.21 7.98001 6.21C8.42001 6.21 8.78001 5.85 8.78001 5.41C8.78001 4.97 8.42001 4.61 7.98001 4.61Z" fill="white"/>
<path d="M11.95 12.18C11.54 12.18 11.2 11.87 11.16 11.46C11 9.85 9.61001 8.59 7.99001 8.59C6.37001 8.59 4.98001 9.85 4.82001 11.46C4.78001 11.9 4.38 12.22 3.95 12.18C3.51 12.14 3.19 11.75 3.23 11.31C3.47 8.89 5.56001 7 7.99001 7C10.42 7 12.51 8.89 12.75 11.31C12.79 11.75 12.47 12.14 12.03 12.18C12 12.18 11.98 12.18 11.95 12.18Z" fill="white"/>
</svg>
