<svg width="76" height="177" viewBox="0 0 76 177" fill="none" xmlns="http://www.w3.org/2000/svg">
<path d="M5.51 34.095V34.83H3.155V34.095H5.51ZM3.155 36.72V35.94H5.51V36.72H3.155ZM7.19 37.935V32.865H1.415V46.305H3.155V37.935H7.19ZM9.875 36.75V35.94H12.305V36.75H9.875ZM12.305 34.095V34.83H9.875V34.095H12.305ZM14.06 32.865H8.18V37.98H12.305V44.4C12.305 44.58 12.245 44.655 12.065 44.655C11.93 44.67 11.585 44.67 11.225 44.655C11.315 44.535 11.42 44.43 11.51 44.34C10.235 44.1 9.245 43.515 8.645 42.705H11.435V41.4H8.375V40.62H11.285V39.375H9.98C10.175 39.09 10.4 38.76 10.625 38.43L8.99 38.01C8.87 38.385 8.66 38.925 8.48 39.375H6.92C6.785 38.955 6.5 38.415 6.2 38.025L4.835 38.4C5.03 38.7 5.195 39.045 5.33 39.375H4.16V40.62H6.785V41.4H3.95V42.705H6.515C6.155 43.365 5.36 44.01 3.68 44.46C4.04 44.745 4.505 45.285 4.715 45.615C6.275 45.105 7.19 44.46 7.715 43.74C8.375 44.64 9.305 45.285 10.55 45.63C10.655 45.42 10.835 45.15 11.015 44.91C11.195 45.36 11.345 45.93 11.375 46.305C12.305 46.305 12.965 46.26 13.445 45.975C13.925 45.69 14.06 45.24 14.06 44.415V32.865ZM23.48 36.465H21.965V34.83H23.48V36.465ZM27.215 39.795C26.975 39.69 26.75 39.585 26.6 39.465C26.57 40.14 26.51 40.245 26.255 40.245H25.49C25.205 40.245 25.16 40.2 25.16 39.81V38.1H27.215V39.795ZM18.455 43.755V41.625C18.815 41.91 19.265 42.315 19.445 42.57C21.515 41.49 21.965 39.75 21.965 38.265V38.1H23.465V39.825C23.465 41.31 23.75 41.805 25.205 41.805H26.465C26.765 41.805 27.005 41.775 27.215 41.685V43.755H18.455ZM20.3 38.1V38.235C20.3 39.24 20.06 40.38 18.455 41.265V38.1H20.3ZM29.54 34.83V33.12H16.13V34.83H20.21V36.465H16.73V46.245H18.455V45.39H27.215V46.215H29.03V36.465H25.25V34.83H29.54ZM39.005 42.645V36.525H42.17C42.605 36.525 43.13 36.555 43.58 36.585V34.53C43.145 34.575 42.62 34.62 42.17 34.62H34.01C33.59 34.62 32.975 34.59 32.585 34.53V36.585C32.96 36.555 33.605 36.525 34.01 36.525H36.905V42.645H33.095C32.63 42.645 32.09 42.615 31.625 42.525V44.7C32.12 44.64 32.645 44.625 33.095 44.625H42.98C43.325 44.625 43.955 44.64 44.375 44.7V42.525C44 42.585 43.52 42.645 42.98 42.645H39.005ZM48.575 33.495C48.62 33.825 48.635 34.35 48.635 34.635V39.69C48.635 40.14 48.575 40.725 48.56 41.01H50.78C50.75 40.665 50.735 40.08 50.735 39.705V34.635C50.735 34.155 50.75 33.825 50.78 33.495H48.575ZM55.475 33.36C55.535 33.78 55.565 34.26 55.565 34.86V37.71C55.565 40.05 55.37 41.175 54.35 42.3C53.435 43.275 52.175 43.845 50.675 44.19L52.25 45.84C53.345 45.495 54.905 44.76 55.895 43.665C57.005 42.435 57.635 41.055 57.635 37.83V34.86C57.635 34.26 57.665 33.78 57.695 33.36H55.475ZM66.83 36.87C66.905 37.35 66.935 37.755 66.935 38.22C66.935 40.68 66.575 42.27 64.67 43.59C64.115 43.995 63.575 44.25 63.095 44.415L64.835 45.84C68.93 43.65 69.005 40.59 69.005 36.87H66.83ZM73.925 33.735C73.655 33.825 72.83 33.87 72.41 33.87H64.325C63.695 33.87 63.065 33.81 62.495 33.72V35.805C63.2 35.745 63.695 35.7 64.325 35.7H72.14C71.75 36.435 70.58 37.755 69.38 38.49L70.925 39.735C72.41 38.685 73.835 36.795 74.54 35.625C74.675 35.4 74.96 35.04 75.125 34.845L73.925 33.735Z" fill="#323232"/>
<path d="M38 5.53732e-06C36.8177 -0.00128842 35.6468 0.224208 34.5543 0.663573C33.4617 1.10294 32.469 1.74755 31.633 2.56049C30.797 3.37344 30.1342 4.33875 29.6823 5.40116C29.2305 6.46357 28.9987 7.60222 29 8.7519C29 13.6687 31.518 14.7307 34.2888 18.0151C36.2577 20.294 37.5419 23.057 38 26C38.4571 23.0586 39.7376 20.2962 41.7011 18.0151C44.482 14.7307 47 13.6785 47 8.7519C47 6.43075 46.0518 4.20467 44.364 2.56338C42.6761 0.922078 40.3869 5.53732e-06 38 5.53732e-06ZM38 11.8003C37.3831 11.8022 36.7795 11.626 36.2658 11.294C35.7521 10.9619 35.3513 10.489 35.1143 9.93516C34.8773 9.38133 34.8147 8.77154 34.9346 8.18311C35.0545 7.59467 35.3513 7.0541 35.7875 6.62993C36.2237 6.20576 36.7796 5.9171 37.3847 5.80055C37.9899 5.684 38.6169 5.74481 39.1864 5.97527C39.756 6.20573 40.2423 6.59545 40.5838 7.09503C40.9253 7.59461 41.1065 8.18153 41.1045 8.78139C41.0965 9.57694 40.7659 10.3373 40.1845 10.897C39.6032 11.4568 38.8181 11.7708 38 11.7708V11.8003Z" fill="black"/>
<path d="M38 57L38 176" stroke="#D21518" stroke-width="2" stroke-miterlimit="16" stroke-linecap="round" stroke-linejoin="round" stroke-dasharray="0.1 4"/>
</svg>
