<svg width="76" height="98" viewBox="0 0 76 98" fill="none" xmlns="http://www.w3.org/2000/svg">
<path d="M11.795 44.355C11.42 44.355 11.39 44.25 11.39 43.62V35.955H6.935C6.98 34.845 6.995 33.675 6.995 32.49H5.045C5.045 33.705 5.045 34.86 5.015 35.955H1.325V37.755H4.91C4.61 40.83 3.665 43.29 0.575001 44.865C1.025 45.195 1.61 45.84 1.865 46.305C5.36 44.43 6.455 41.4 6.815 37.755H9.53V43.62C9.53 45.555 9.995 46.08 11.465 46.08H12.98C14.36 46.08 14.81 45.285 14.975 42.855C14.465 42.72 13.715 42.405 13.295 42.075C13.235 43.965 13.175 44.355 12.815 44.355H11.795ZM16.835 35.94C16.64 37.395 16.28 39.015 15.68 40.095L17.225 40.725C17.825 39.615 18.14 37.83 18.365 36.33L16.835 35.94ZM20.54 36.705V32.55H18.77V37.29C18.77 39.885 18.5 42.84 16.04 44.895C16.445 45.21 17.06 45.855 17.33 46.29C20.165 43.935 20.525 40.53 20.54 37.44C20.945 38.58 21.275 39.87 21.38 40.725L22.895 40.02C22.745 39.03 22.235 37.455 21.695 36.225L20.54 36.705ZM27.23 32.49V39.405C26.93 38.445 26.345 37.14 25.775 36.12L24.68 36.66V32.88H22.94V45.315H24.68V37.26C25.22 38.4 25.715 39.72 25.895 40.59L27.23 39.855V46.14H29.015V32.49H27.23ZM39.005 42.645V36.525H42.17C42.605 36.525 43.13 36.555 43.58 36.585V34.53C43.145 34.575 42.62 34.62 42.17 34.62H34.01C33.59 34.62 32.975 34.59 32.585 34.53V36.585C32.96 36.555 33.605 36.525 34.01 36.525H36.905V42.645H33.095C32.63 42.645 32.09 42.615 31.625 42.525V44.7C32.12 44.64 32.645 44.625 33.095 44.625H42.98C43.325 44.625 43.955 44.64 44.375 44.7V42.525C44 42.585 43.52 42.645 42.98 42.645H39.005ZM48.575 33.495C48.62 33.825 48.635 34.35 48.635 34.635V39.69C48.635 40.14 48.575 40.725 48.56 41.01H50.78C50.75 40.665 50.735 40.08 50.735 39.705V34.635C50.735 34.155 50.75 33.825 50.78 33.495H48.575ZM55.475 33.36C55.535 33.78 55.565 34.26 55.565 34.86V37.71C55.565 40.05 55.37 41.175 54.35 42.3C53.435 43.275 52.175 43.845 50.675 44.19L52.25 45.84C53.345 45.495 54.905 44.76 55.895 43.665C57.005 42.435 57.635 41.055 57.635 37.83V34.86C57.635 34.26 57.665 33.78 57.695 33.36H55.475ZM66.83 36.87C66.905 37.35 66.935 37.755 66.935 38.22C66.935 40.68 66.575 42.27 64.67 43.59C64.115 43.995 63.575 44.25 63.095 44.415L64.835 45.84C68.93 43.65 69.005 40.59 69.005 36.87H66.83ZM73.925 33.735C73.655 33.825 72.83 33.87 72.41 33.87H64.325C63.695 33.87 63.065 33.81 62.495 33.72V35.805C63.2 35.745 63.695 35.7 64.325 35.7H72.14C71.75 36.435 70.58 37.755 69.38 38.49L70.925 39.735C72.41 38.685 73.835 36.795 74.54 35.625C74.675 35.4 74.96 35.04 75.125 34.845L73.925 33.735Z" fill="#323232"/>
<path d="M38 5.53732e-06C36.8177 -0.00128842 35.6468 0.224208 34.5543 0.663573C33.4617 1.10294 32.469 1.74755 31.633 2.56049C30.797 3.37344 30.1342 4.33875 29.6823 5.40116C29.2305 6.46357 28.9987 7.60222 29 8.7519C29 13.6687 31.518 14.7307 34.2888 18.0151C36.2577 20.294 37.5419 23.057 38 26C38.4571 23.0586 39.7376 20.2962 41.7011 18.0151C44.482 14.7307 47 13.6785 47 8.7519C47 6.43075 46.0518 4.20467 44.364 2.56338C42.6761 0.922078 40.3869 5.53732e-06 38 5.53732e-06ZM38 11.8003C37.3831 11.8022 36.7795 11.626 36.2658 11.294C35.7521 10.9619 35.3513 10.489 35.1143 9.93516C34.8773 9.38133 34.8147 8.77154 34.9346 8.18311C35.0545 7.59467 35.3513 7.0541 35.7875 6.62993C36.2237 6.20576 36.7796 5.9171 37.3847 5.80055C37.9899 5.684 38.6169 5.74481 39.1864 5.97527C39.756 6.20573 40.2423 6.59545 40.5838 7.09503C40.9253 7.59461 41.1065 8.18153 41.1045 8.78139C41.0965 9.57694 40.7659 10.3373 40.1845 10.897C39.6032 11.4568 38.8181 11.7708 38 11.7708V11.8003Z" fill="black"/>
<path d="M38 58L38 97" stroke="#D21518" stroke-width="2" stroke-miterlimit="16" stroke-linecap="round" stroke-linejoin="round" stroke-dasharray="0.1 4"/>
</svg>
