<svg width="12" height="14" fill="none" xmlns="http://www.w3.org/2000/svg"><path d="M5.558 0C2.49 0 0 2.457 0 5.486 0 7.37.984 8.97 2.374 10c1.331.914 1.62 1.143 2.026 2 .347.686.926 1.886.926 1.886 0 .057.058.114.174.114.058 0 .116-.057.174-.114 0 0 .579-1.2.926-1.886.521-.914.81-1.143 2.084-2.057 1.448-1.029 2.374-2.629 2.374-4.514C11.058 2.457 8.627 0 5.558 0zm0 9.143c-2.026 0-3.705-1.657-3.705-3.657s1.679-3.657 3.705-3.657 3.705 1.657 3.705 3.657-1.679 3.657-3.705 3.657z" fill="#323232"/></svg>