<svg width="21" height="18" fill="none" xmlns="http://www.w3.org/2000/svg"><path d="M5.976 7.15a1.49 1.49 0 001.49-1.49L8.006 0h-2.37l-1.14 5.66a1.49 1.49 0 001.48 1.49zM10.166 7.15a1.49 1.49 0 001.48-1.49L11.316 0h-2.34l-.29 5.66a1.49 1.49 0 001.48 1.49zM14.316 7.15a1.49 1.49 0 001.48-1.49L14.696 0h-2.38l.54 5.66a1.49 1.49 0 001.46 1.49z" fill="#DA172B"/><path d="M18.046 0h-2.37l1.38 5.66a1.47 1.47 0 001.12 1.44v9.66h-2.24v-5.61h-5v5.61h-8.78V7.1a1.47 1.47 0 001.16-1.44L4.656 0h-2.34l-2 5.66a1.51 1.51 0 00.6 1.2V18h18.49V6.86a1.49 1.49 0 00.61-1.2L18.046 0z" fill="#DA172B"/><path d="M8.006 9.59h-3.86v3.86h3.86V9.59z" fill="#DA172B"/></svg>