<svg width="21" height="20" fill="none" xmlns="http://www.w3.org/2000/svg"><path d="M20.107 15.136c-.62-2-1.39-4.49-1.93-6.3a5.21 5.21 0 01-.91 1.9c-1.88 2.45-6.82 2.47-7 2.47-.18 0-5.15 0-7-2.47a5.21 5.21 0 01-.96-1.9c-.54 1.81-1.31 4.32-1.93 6.3a2.36 2.36 0 001.21 3.14c1.86.84 6.05 1.29 8.66 1.29 2.61 0 6.79-.45 8.65-1.29a2.36 2.36 0 001.21-3.14z" fill="#DE1122"/><path d="M10.207 12.586c1.33 0 5.1-.37 6.53-2.23 1.43-1.86 1-4.66.44-4.56a28.28 28.28 0 01-7 1.37 28.28 28.28 0 01-7-1.37c-.54-.1-1 2.7.44 4.56 1.44 1.86 5.29 2.23 6.59 2.23zm-1-3.26h3v1h-3v-1z" fill="#DE1122"/><path d="M6.547 5.176a5.16 5.16 0 01.4-1.47 4.22 4.22 0 011.31-1.65 3.45 3.45 0 01.95-.46 3.33 3.33 0 012.38.13 3.69 3.69 0 011.62 1.34 4.94 4.94 0 01.75 2.11l.1.92 1-.27-.08-.76a6 6 0 00-.49-1.76 5.07 5.07 0 00-1.68-2.05 4.42 4.42 0 00-2.6-.82 4.27 4.27 0 00-1.8.38 4.66 4.66 0 00-2 1.71 5.8 5.8 0 00-.92 2.54l-.08.76 1 .27.14-.92z" fill="#DE1122"/></svg>