<svg width="16" height="20" viewBox="0 0 16 20" fill="none" xmlns="http://www.w3.org/2000/svg">
<path d="M0.800049 2.19999C0.800049 1.7226 0.989691 1.26477 1.32726 0.927202C1.66482 0.589636 2.12266 0.399994 2.60005 0.399994H9.80005C10.2774 0.399994 10.7353 0.589636 11.0728 0.927202C11.4104 1.26477 11.6001 1.7226 11.6001 2.19999V7.59999H13.4001C13.8774 7.59999 14.3353 7.78963 14.6728 8.1272C15.0104 8.46477 15.2001 8.9226 15.2001 9.39999V19C15.2001 19.1591 15.1368 19.3117 15.0243 19.4243C14.9118 19.5368 14.7592 19.6 14.6001 19.6H11.6001V15.4C11.6001 15.2409 11.5368 15.0882 11.4243 14.9757C11.3118 14.8632 11.1592 14.8 11.0001 14.8H5.00005C4.84092 14.8 4.68831 14.8632 4.57579 14.9757C4.46326 15.0882 4.40005 15.2409 4.40005 15.4V19.6H1.40005C1.24092 19.6 1.08831 19.5368 0.975785 19.4243C0.863263 19.3117 0.800049 19.1591 0.800049 19V2.19999ZM4.10005 5.79999C4.33874 5.79999 4.56766 5.70517 4.73645 5.53639C4.90523 5.36761 5.00005 5.13869 5.00005 4.89999C5.00005 4.6613 4.90523 4.43238 4.73645 4.2636C4.56766 4.09481 4.33874 3.99999 4.10005 3.99999C3.86135 3.99999 3.63244 4.09481 3.46365 4.2636C3.29487 4.43238 3.20005 4.6613 3.20005 4.89999C3.20005 5.13869 3.29487 5.36761 3.46365 5.53639C3.63244 5.70517 3.86135 5.79999 4.10005 5.79999ZM5.00005 8.49999C5.00005 8.2613 4.90523 8.03238 4.73645 7.8636C4.56766 7.69481 4.33874 7.59999 4.10005 7.59999C3.86135 7.59999 3.63244 7.69481 3.46365 7.8636C3.29487 8.03238 3.20005 8.2613 3.20005 8.49999C3.20005 8.73869 3.29487 8.96761 3.46365 9.13639C3.63244 9.30517 3.86135 9.39999 4.10005 9.39999C4.33874 9.39999 4.56766 9.30517 4.73645 9.13639C4.90523 8.96761 5.00005 8.73869 5.00005 8.49999ZM4.10005 13C4.21824 13 4.33527 12.9767 4.44446 12.9315C4.55366 12.8863 4.65287 12.82 4.73645 12.7364C4.82002 12.6528 4.88631 12.5536 4.93154 12.4444C4.97677 12.3352 5.00005 12.2182 5.00005 12.1C5.00005 11.9818 4.97677 11.8648 4.93154 11.7556C4.88631 11.6464 4.82002 11.5472 4.73645 11.4636C4.65287 11.38 4.55366 11.3137 4.44446 11.2685C4.33527 11.2233 4.21824 11.2 4.10005 11.2C3.86135 11.2 3.63244 11.2948 3.46365 11.4636C3.29487 11.6324 3.20005 11.8613 3.20005 12.1C3.20005 12.3387 3.29487 12.5676 3.46365 12.7364C3.63244 12.9052 3.86135 13 4.10005 13V13ZM8.60005 4.89999C8.60005 4.6613 8.50523 4.43238 8.33645 4.2636C8.16766 4.09481 7.93874 3.99999 7.70005 3.99999C7.46135 3.99999 7.23244 4.09481 7.06365 4.2636C6.89487 4.43238 6.80005 4.6613 6.80005 4.89999C6.80005 5.13869 6.89487 5.36761 7.06365 5.53639C7.23244 5.70517 7.46135 5.79999 7.70005 5.79999C7.93874 5.79999 8.16766 5.70517 8.33645 5.53639C8.50523 5.36761 8.60005 5.13869 8.60005 4.89999ZM7.70005 9.39999C7.93874 9.39999 8.16766 9.30517 8.33645 9.13639C8.50523 8.96761 8.60005 8.73869 8.60005 8.49999C8.60005 8.2613 8.50523 8.03238 8.33645 7.8636C8.16766 7.69481 7.93874 7.59999 7.70005 7.59999C7.46135 7.59999 7.23244 7.69481 7.06365 7.8636C6.89487 8.03238 6.80005 8.2613 6.80005 8.49999C6.80005 8.73869 6.89487 8.96761 7.06365 9.13639C7.23244 9.30517 7.46135 9.39999 7.70005 9.39999ZM8.60005 12.1C8.60005 11.8613 8.50523 11.6324 8.33645 11.4636C8.16766 11.2948 7.93874 11.2 7.70005 11.2C7.46135 11.2 7.23244 11.2948 7.06365 11.4636C6.89487 11.6324 6.80005 11.8613 6.80005 12.1C6.80005 12.3387 6.89487 12.5676 7.06365 12.7364C7.23244 12.9052 7.46135 13 7.70005 13C7.93874 13 8.16766 12.9052 8.33645 12.7364C8.50523 12.5676 8.60005 12.3387 8.60005 12.1ZM11.3001 13C11.4182 13 11.5353 12.9767 11.6445 12.9315C11.7537 12.8863 11.8529 12.82 11.9364 12.7364C12.02 12.6528 12.0863 12.5536 12.1315 12.4444C12.1768 12.3352 12.2001 12.2182 12.2001 12.1C12.2001 11.9818 12.1768 11.8648 12.1315 11.7556C12.0863 11.6464 12.02 11.5472 11.9364 11.4636C11.8529 11.38 11.7537 11.3137 11.6445 11.2685C11.5353 11.2233 11.4182 11.2 11.3001 11.2C11.0614 11.2 10.8324 11.2948 10.6637 11.4636C10.4949 11.6324 10.4001 11.8613 10.4001 12.1C10.4001 12.3387 10.4949 12.5676 10.6637 12.7364C10.8324 12.9052 11.0614 13 11.3001 13V13Z" fill="#DE1122"/>
<path d="M10.4001 16V19.6H8.6001V16H10.4001Z" fill="#DE1122"/>
<path d="M7.40009 16H5.6001V19.6H7.40009V16Z" fill="#DE1122"/>
</svg>
