<svg width="76" height="114" viewBox="0 0 76 114" fill="none" xmlns="http://www.w3.org/2000/svg">
<path d="M2.72 111.11C3.59 109.67 4.52 107.96 5.285 106.4L3.95 105.23C3.065 106.955 1.97 108.815 1.19 109.94L2.72 111.11ZM4.505 102.83C3.86 102.32 2.57 101.72 1.61 101.375L0.680001 102.725C1.655 103.13 2.915 103.79 3.5 104.315L4.505 102.83ZM1.565 98.675C2.525 99.08 3.77 99.8 4.34 100.325L5.39 98.87C4.76 98.345 3.5 97.7 2.525 97.34L1.565 98.675ZM10.76 104.75V101.885H12.68V104.75H10.76ZM7.13 104.75V101.885H8.975V104.75H7.13ZM10.76 100.175V97.355H8.975V100.175H5.465V107.33H7.13V106.46H8.975V111.26H10.76V106.46H12.68V107.21H14.42V100.175H10.76ZM16.355 106.07C16.235 107.33 16.025 108.665 15.59 109.55C15.95 109.685 16.595 109.97 16.895 110.18C17.315 109.22 17.645 107.735 17.78 106.31L16.355 106.07ZM19.655 106.385C19.985 107.24 20.27 108.35 20.345 109.085L21.665 108.65C21.575 107.93 21.26 106.835 20.9 106.01L19.655 106.385ZM26.84 109.94C26.39 109.94 26.33 109.835 26.33 109.175V108.905H28.7C28.64 109.73 28.55 109.94 28.19 109.94H26.84ZM23.315 107.66V106.865H24.71V107.66H23.315ZM24.71 104.885V105.65H23.315V104.885H24.71ZM27.86 106.865V107.66H26.33V106.865H27.86ZM27.86 104.885V105.65H26.33V104.885H27.86ZM23.435 101.81V101.03H24.71V101.81H23.435ZM23.435 99.14H24.71V99.905H23.435V99.14ZM27.62 99.905H26.33V99.14H27.62V99.905ZM27.62 101.81H26.33V101.03H27.62V101.81ZM29.48 108.905V103.625H26.33V103.025H29.18V97.94H21.935V103.025H24.71V103.625H21.755V105.005C21.515 104.165 21.02 103.025 20.495 102.125L19.235 102.65C19.4 102.95 19.565 103.28 19.715 103.61L18.41 103.685C19.355 102.485 20.375 101 21.2 99.74L19.745 99.065C19.4 99.8 18.92 100.655 18.395 101.495C18.26 101.315 18.095 101.105 17.915 100.91C18.47 100.07 19.085 98.885 19.61 97.85L18.065 97.31C17.825 98.075 17.405 99.08 16.985 99.905C16.865 99.8 16.745 99.695 16.64 99.59L15.77 100.79C16.37 101.405 17.06 102.215 17.48 102.89C17.255 103.205 17.03 103.505 16.805 103.775L15.725 103.835L15.845 105.38L17.99 105.23V111.305H19.52V105.11L20.27 105.05C20.36 105.365 20.45 105.665 20.495 105.92L21.755 105.335V109.775H23.315V108.905H24.71V109.16C24.71 110.825 25.085 111.305 26.57 111.305H28.325C29.525 111.305 29.945 110.795 30.095 109.34C29.735 109.25 29.285 109.085 28.94 108.905H29.48ZM39.005 107.645V101.525H42.17C42.605 101.525 43.13 101.555 43.58 101.585V99.53C43.145 99.575 42.62 99.62 42.17 99.62H34.01C33.59 99.62 32.975 99.59 32.585 99.53V101.585C32.96 101.555 33.605 101.525 34.01 101.525H36.905V107.645H33.095C32.63 107.645 32.09 107.615 31.625 107.525V109.7C32.12 109.64 32.645 109.625 33.095 109.625H42.98C43.325 109.625 43.955 109.64 44.375 109.7V107.525C44 107.585 43.52 107.645 42.98 107.645H39.005ZM48.575 98.495C48.62 98.825 48.635 99.35 48.635 99.635V104.69C48.635 105.14 48.575 105.725 48.56 106.01H50.78C50.75 105.665 50.735 105.08 50.735 104.705V99.635C50.735 99.155 50.75 98.825 50.78 98.495H48.575ZM55.475 98.36C55.535 98.78 55.565 99.26 55.565 99.86V102.71C55.565 105.05 55.37 106.175 54.35 107.3C53.435 108.275 52.175 108.845 50.675 109.19L52.25 110.84C53.345 110.495 54.905 109.76 55.895 108.665C57.005 107.435 57.635 106.055 57.635 102.83V99.86C57.635 99.26 57.665 98.78 57.695 98.36H55.475ZM66.83 101.87C66.905 102.35 66.935 102.755 66.935 103.22C66.935 105.68 66.575 107.27 64.67 108.59C64.115 108.995 63.575 109.25 63.095 109.415L64.835 110.84C68.93 108.65 69.005 105.59 69.005 101.87H66.83ZM73.925 98.735C73.655 98.825 72.83 98.87 72.41 98.87H64.325C63.695 98.87 63.065 98.81 62.495 98.72V100.805C63.2 100.745 63.695 100.7 64.325 100.7H72.14C71.75 101.435 70.58 102.755 69.38 103.49L70.925 104.735C72.41 103.685 73.835 101.795 74.54 100.625C74.675 100.4 74.96 100.04 75.125 99.845L73.925 98.735Z" fill="#323232"/>
<path d="M38 65C36.8177 64.9987 35.6468 65.2242 34.5543 65.6636C33.4617 66.1029 32.469 66.7475 31.633 67.5605C30.797 68.3734 30.1342 69.3387 29.6823 70.4012C29.2305 71.4636 28.9987 72.6022 29 73.7519C29 78.6687 31.518 79.7307 34.2888 83.0151C36.2577 85.294 37.5419 88.057 38 91C38.4571 88.0586 39.7376 85.2962 41.7011 83.0151C44.482 79.7307 47 78.6785 47 73.7519C47 71.4308 46.0518 69.2047 44.364 67.5634C42.6761 65.9221 40.3869 65 38 65ZM38 76.8003C37.3831 76.8022 36.7795 76.626 36.2658 76.294C35.7521 75.9619 35.3513 75.489 35.1143 74.9352C34.8773 74.3813 34.8147 73.7715 34.9346 73.1831C35.0545 72.5947 35.3513 72.0541 35.7875 71.6299C36.2237 71.2058 36.7796 70.9171 37.3847 70.8006C37.9899 70.684 38.6169 70.7448 39.1864 70.9753C39.756 71.2057 40.2423 71.5955 40.5838 72.095C40.9253 72.5946 41.1065 73.1815 41.1045 73.7814C41.0965 74.5769 40.7659 75.3373 40.1845 75.897C39.6032 76.4568 38.8181 76.7708 38 76.7708V76.8003Z" fill="black"/>
<path d="M38 1L38 53" stroke="#D21518" stroke-width="2" stroke-miterlimit="16" stroke-linecap="round" stroke-linejoin="round" stroke-dasharray="0.1 4"/>
</svg>
