<svg width="14" height="14" fill="none" xmlns="http://www.w3.org/2000/svg"><path d="M4.933 6.14l1.779 1.376c.172.115.401.058.516-.057l2.18-2.582a.349.349 0 000-.46c-.114-.114-.286-.114-.401.058L6.94 6.655l-1.549-1.09c-.115-.114-.344-.057-.459.115-.172.172-.115.344 0 .46zM2.756 6.83v-.287H1.608v.574h1.148V6.83zM4.704 3.388l.344-.172h.058l-.574-.976c-.172.058-.287.172-.402.23l.574.918zM2.236 4.537l.975.574.23-.46-.976-.573c-.057.172-.172.287-.23.46zM10.786 8.953c-.057.115-.115.23-.23.344v.058l.976.574c.057-.173.172-.345.23-.46l-.976-.516zM3.211 8.953l-.975.517c.057.114.172.286.23.401l.975-.574V9.24c-.115-.057-.172-.172-.23-.287zM4.704 10.557l-.574.918c.115.057.287.172.402.23l.574-.976h-.058c-.115 0-.23-.058-.344-.172zM8.892 3.216l.402.23.574-.976c-.115-.058-.287-.172-.402-.23l-.574.976zM6.886 11.129v1.09h.573v-1.09h-.573zM7.46 2.524V1.377h-.574v1.09l.573.057zM8.892 10.786l.574.976c.115-.058.287-.173.402-.23l-.574-.975-.402.23zM11.761 4.538c-.057-.172-.172-.287-.23-.401l-.975.573.23.402.975-.574zM12.623 6.543h-1.147v.574h1.147V6.83v-.287z" fill="#323232"/><path d="M7 0C3.156 0 0 3.156 0 7s3.156 7 7 7 7-3.156 7-7-3.156-7-7-7zm0 13.082a6.12 6.12 0 01-4.303-1.779A6.12 6.12 0 01.918 7a6.12 6.12 0 011.779-4.303A6.12 6.12 0 017 .918a6.12 6.12 0 014.303 1.779A6.12 6.12 0 0113.082 7a6.12 6.12 0 01-1.779 4.303A6.12 6.12 0 017 13.082z" fill="#323232"/></svg>