<svg width="15" height="15" viewBox="0 0 15 15" fill="none" xmlns="http://www.w3.org/2000/svg">
<path d="M13.57 14.37H0.8C0.36 14.37 0 14.01 0 13.57C0 13.13 0.36 12.77 0.8 12.77H13.57C14.01 12.77 14.37 13.13 14.37 13.57C14.37 14.01 14.01 14.37 13.57 14.37Z" fill="white"/>
<path d="M12.56 7.18H1.80998C0.999983 7.18 0.309983 6.71 0.0799832 6.01C-0.130017 5.37 0.109983 4.69 0.679983 4.27L6.04998 0.36C6.70998 -0.12 7.65998 -0.12 8.31998 0.36L13.7 4.27C14.27 4.69 14.51 5.37 14.3 6.01C14.07 6.71 13.38 7.18 12.57 7.18H12.56ZM1.62998 5.55C1.62998 5.55 1.71998 5.59 1.79998 5.59H12.55C12.63 5.59 12.69 5.57 12.72 5.55L7.35998 1.65C7.25998 1.58 7.06998 1.58 6.96998 1.65L1.62998 5.55Z" fill="white"/>
<path d="M7.18995 14.37C6.74995 14.37 6.38995 14.01 6.38995 13.57V6.38C6.38995 5.94 6.74995 5.58 7.18995 5.58C7.62995 5.58 7.98995 5.94 7.98995 6.38V13.57C7.98995 14.01 7.62995 14.37 7.18995 14.37Z" fill="white"/>
<path d="M2.39998 14.37C1.95998 14.37 1.59998 14.01 1.59998 13.57V6.38C1.59998 5.94 1.95998 5.58 2.39998 5.58C2.83998 5.58 3.19998 5.94 3.19998 6.38V13.57C3.19998 14.01 2.83998 14.37 2.39998 14.37Z" fill="white"/>
<path d="M11.98 14.37C11.54 14.37 11.18 14.01 11.18 13.57V6.38C11.18 5.94 11.54 5.58 11.98 5.58C12.42 5.58 12.78 5.94 12.78 6.38V13.57C12.78 14.01 12.42 14.37 11.98 14.37Z" fill="white"/>
</svg>
