<?xml version="1.0" encoding="UTF-8"?><svg id="_レイヤー_1" xmlns="http://www.w3.org/2000/svg" viewBox="0 0 150 150"><defs><style>.cls-1{fill:#fff;stroke-width:0px;}</style></defs><path class="cls-1" d="M123.05,9.39h-17c-2.26,0-4.09,1.84-4.09,4.09v34.84c0,.86.7,1.56,1.56,1.56h22.06c.86,0,1.56-.7,1.56-1.56V13.49c0-2.26-1.84-4.09-4.09-4.09ZM124.02,46.77h-18.94V13.49c0-.53.43-.97.97-.97h17c.53,0,.97.43.97.97v33.28Z"/><path class="cls-1" d="M98.41,54.5c.75-2.71,1.35-5.17,1.68-7.01h1.87v-3.12h-3.22c-.8,0-1.47.6-1.55,1.4-.27,2.56-1.66,7.67-3.24,12.96,1.33-1.57,2.82-2.98,4.47-4.22Z"/><path class="cls-1" d="M135.16,58.72c-1.59-5.28-2.97-10.39-3.24-12.96-.08-.79-.75-1.4-1.55-1.4h-3.22v3.12h1.87c.32,1.84.93,4.3,1.68,7.01,1.65,1.23,3.14,2.65,4.47,4.22Z"/><path class="cls-1" d="M100.09,104.77c-.32-1.84-.93-4.3-1.68-7.01-1.65-1.23-3.14-2.65-4.47-4.22,1.59,5.28,2.97,10.39,3.24,12.96.08.79.75,1.4,1.55,1.4h3.22v-3.12h-1.87Z"/><path class="cls-1" d="M130.69,97.76c-.75,2.71-1.35,5.17-1.68,7.01h-1.87v3.12h3.22c.8,0,1.47-.6,1.55-1.4.27-2.56,1.66-7.67,3.24-12.96-1.33,1.57-2.82,2.98-4.47,4.22Z"/><path class="cls-1" d="M125.58,102.37h-22.06c-.86,0-1.56.7-1.56,1.56v34.84c0,2.26,1.84,4.09,4.09,4.09h17c2.26,0,4.09-1.84,4.09-4.09v-34.84c0-.86-.7-1.56-1.56-1.56ZM124.02,138.78c0,.53-.43.97-.97.97h-17c-.53,0-.97-.43-.97-.97v-33.28h18.94v33.28Z"/><path class="cls-1" d="M141.74,71.9h-.53c.16,1.02.27,2.07.31,3.12h.22c.53,0,.97.43.97.97v.27c0,.53-.43.97-.97.97h-.22c-.04,1.06-.15,2.1-.31,3.12h.53c2.26,0,4.09-1.84,4.09-4.09v-.27c0-2.26-1.84-4.09-4.09-4.09Z"/><path class="cls-1" d="M141.52,75.03c-.04-1.06-.15-2.1-.31-3.12-.79-4.97-2.93-9.5-6.05-13.19-1.33-1.57-2.82-2.98-4.47-4.22-4.5-3.37-10.09-5.37-16.14-5.37s-11.63,2-16.14,5.37c-1.65,1.23-3.14,2.65-4.47,4.22-3.98,4.7-6.39,10.78-6.39,17.41s2.41,12.71,6.39,17.41c1.33,1.57,2.82,2.98,4.47,4.22,4.5,3.37,10.09,5.37,16.14,5.37s11.63-2,16.14-5.37c1.65-1.23,3.14-2.65,4.47-4.22,3.12-3.68,5.26-8.21,6.05-13.19.16-1.02.27-2.07.31-3.12.01-.37.02-.73.02-1.1s-.01-.74-.02-1.1ZM132.35,92.01c-4.37,4.9-10.73,7.99-17.8,7.99s-13.43-3.09-17.8-7.99c-3.77-4.22-6.07-9.79-6.07-15.88s2.3-11.66,6.07-15.88c4.37-4.9,10.73-7.99,17.8-7.99s13.43,3.09,17.8,7.99c2.88,3.22,4.89,7.23,5.68,11.65.25,1.37.39,2.78.39,4.23s-.14,2.85-.39,4.23c-.8,4.42-2.81,8.43-5.68,11.65Z"/><path class="cls-1" d="M114.55,96.07c-11,0-19.94-8.95-19.94-19.94s8.95-19.94,19.94-19.94,19.94,8.95,19.94,19.94-8.95,19.94-19.94,19.94ZM114.55,59.31c-9.27,0-16.82,7.54-16.82,16.82s7.54,16.82,16.82,16.82,16.82-7.54,16.82-16.82-7.54-16.82-16.82-16.82Z"/><path class="cls-1" d="M114.55,62.66c-.86,0-1.56-.7-1.56-1.56v-3.35c0-.86.7-1.56,1.56-1.56s1.56.7,1.56,1.56v3.35c0,.86-.7,1.56-1.56,1.56Z"/><line class="cls-1" x1="101.56" y1="63.13" x2="103.92" y2="65.5"/><path class="cls-1" d="M103.92,67.06c-.4,0-.8-.15-1.1-.46l-2.37-2.37c-.61-.61-.61-1.6,0-2.21s1.6-.61,2.21,0l2.37,2.37c.61.61.61,1.6,0,2.21-.31.31-.7.46-1.1.46Z"/><line class="cls-1" x1="96.17" y1="76.13" x2="99.52" y2="76.13"/><path class="cls-1" d="M99.52,77.69h-3.35c-.86,0-1.56-.7-1.56-1.56s.7-1.56,1.56-1.56h3.35c.86,0,1.56.7,1.56,1.56s-.7,1.56-1.56,1.56Z"/><line class="cls-1" x1="101.55" y1="89.13" x2="103.92" y2="86.76"/><path class="cls-1" d="M101.55,90.69c-.4,0-.8-.15-1.1-.46-.61-.61-.61-1.6,0-2.21l2.37-2.37c.61-.61,1.6-.61,2.21,0,.61.61.61,1.6,0,2.21l-2.37,2.37c-.31.31-.7.46-1.1.46Z"/><line class="cls-1" x1="114.55" y1="94.51" x2="114.55" y2="91.16"/><path class="cls-1" d="M114.55,96.07c-.86,0-1.56-.7-1.56-1.56v-3.35c0-.86.7-1.56,1.56-1.56s1.56.7,1.56,1.56v3.35c0,.86-.7,1.56-1.56,1.56Z"/><line class="cls-1" x1="127.55" y1="89.13" x2="125.18" y2="86.76"/><path class="cls-1" d="M127.55,90.69c-.4,0-.8-.15-1.1-.46l-2.37-2.37c-.61-.61-.61-1.6,0-2.21s1.6-.61,2.21,0l2.37,2.37c.61.61.61,1.6,0,2.21-.31.31-.7.46-1.1.46Z"/><line class="cls-1" x1="132.93" y1="76.13" x2="129.58" y2="76.13"/><path class="cls-1" d="M132.93,77.69h-3.35c-.86,0-1.56-.7-1.56-1.56s.7-1.56,1.56-1.56h3.35c.86,0,1.56.7,1.56,1.56s-.7,1.56-1.56,1.56Z"/><line class="cls-1" x1="125.18" y1="65.5" x2="127.55" y2="63.13"/><path class="cls-1" d="M125.18,67.07c-.4,0-.8-.15-1.1-.46-.61-.61-.61-1.6,0-2.21l2.37-2.37c.61-.61,1.6-.61,2.21,0s.61,1.6,0,2.21l-2.37,2.37c-.31.31-.71.46-1.1.46Z"/><path class="cls-1" d="M114.55,76.13l8.9-7.06-8.9,7.06Z"/><path class="cls-1" d="M114.55,77.69c-.46,0-.92-.2-1.22-.59-.23-.29-.34-.63-.34-.97,0-.46.2-.92.59-1.22l8.9-7.06c.68-.54,1.66-.42,2.19.25.23.29.34.63.34.97,0,.46-.2.92-.59,1.22l-8.9,7.06c-.29.23-.63.34-.97.34Z"/><line class="cls-1" x1="107.25" y1="70.09" x2="114.55" y2="76.13"/><path class="cls-1" d="M114.55,77.69c-.35,0-.7-.12-1-.36l-7.3-6.04c-.66-.55-.76-1.53-.21-2.2.55-.66,1.53-.76,2.2-.21l7.3,6.04c.66.55.76,1.53.21,2.2-.31.37-.75.57-1.2.57Z"/><path class="cls-1" d="M81.32,69.69h-6.79c.19,1.03.34,2.07.43,3.12h4.79v6.64h-4.79c-.1,1.06-.24,2.1-.43,3.12h6.79c.86,0,1.56-.7,1.56-1.56v-9.76c0-.86-.7-1.56-1.56-1.56Z"/><path class="cls-1" d="M67.94,54.78l1.88-1.88,4.69,4.69-3,3c.49,1,.94,2.03,1.33,3.08l4.98-4.98c.29-.29.46-.69.46-1.1s-.16-.81-.46-1.1l-6.9-6.9c-.61-.61-1.6-.61-2.21,0l-2.78,2.78c.44.49.88.99,1.29,1.5.24.3.48.61.71.92Z"/><path class="cls-1" d="M74.52,94.67l-4.69,4.69-1.88-1.88c-.23.31-.47.62-.71.92-.42.51-.85,1.01-1.29,1.5l2.78,2.78c.31.31.7.46,1.1.46s.8-.15,1.1-.46l6.9-6.9c.29-.29.46-.69.46-1.1s-.16-.81-.46-1.1l-4.98-4.98c-.4,1.05-.84,2.08-1.33,3.08l3,3Z"/><path class="cls-1" d="M74.96,72.81c-.1-1.06-.24-2.1-.43-3.12-.38-2.07-.95-4.08-1.68-6.01-.4-1.05-.84-2.08-1.33-3.08-1.01-2.06-2.21-4-3.58-5.81-.23-.31-.47-.62-.71-.92-.42-.51-.85-1.01-1.29-1.5-1-1.1-2.06-2.15-3.19-3.12-1.04-.9-2.14-1.75-3.28-2.52-1.08-.73-2.2-1.39-3.35-2-4.93-2.6-10.53-4.07-16.48-4.07s-11.55,1.48-16.48,4.07c-1.15.61-2.28,1.27-3.35,2-1.14.77-2.24,1.62-3.28,2.52-1.63,1.4-3.13,2.95-4.48,4.62-4.93,6.09-7.89,13.84-7.89,22.27s2.96,16.17,7.89,22.27c1.35,1.67,2.85,3.22,4.48,4.62,1.04.9,2.14,1.75,3.28,2.52,1.07.73,2.2,1.39,3.35,2,4.93,2.6,10.53,4.07,16.48,4.07s11.55-1.48,16.48-4.07c1.15-.61,2.28-1.27,3.35-2,1.14-.77,2.24-1.62,3.28-2.52,1.13-.97,2.19-2.01,3.19-3.12.44-.49.88-.99,1.29-1.5.24-.3.48-.61.71-.92,1.37-1.81,2.57-3.76,3.58-5.81.49-1,.94-2.03,1.33-3.08.73-1.93,1.29-3.94,1.68-6.01.19-1.03.34-2.07.43-3.12.1-1.09.16-2.2.16-3.32s-.06-2.23-.16-3.32ZM71.34,82.57c-.25,1.21-.56,2.41-.94,3.57-.36,1.09-.77,2.15-1.24,3.18-.95,2.1-2.11,4.09-3.46,5.93-.42.58-.86,1.14-1.32,1.69-.22.26-.44.5-.66.75-1.17,1.31-2.45,2.53-3.82,3.63-1.08.87-2.21,1.67-3.39,2.4-4.92,3.02-10.7,4.76-16.88,4.76s-11.96-1.74-16.88-4.76c-1.18-.73-2.32-1.53-3.39-2.4-1.63-1.31-3.13-2.78-4.48-4.38-4.74-5.63-7.6-12.89-7.6-20.81s2.86-15.18,7.6-20.81c1.35-1.6,2.85-3.07,4.48-4.38,1.08-.87,2.21-1.67,3.39-2.4,4.92-3.02,10.7-4.76,16.88-4.76s11.96,1.74,16.88,4.76c1.18.73,2.32,1.53,3.39,2.4,1.37,1.1,2.64,2.32,3.82,3.63.22.25.45.49.66.75.46.55.89,1.11,1.32,1.69,1.35,1.84,2.52,3.82,3.46,5.93.46,1.03.88,2.09,1.24,3.18.38,1.16.69,2.35.94,3.57.21,1.02.37,2.07.48,3.12.11,1.09.18,2.2.18,3.32s-.06,2.23-.18,3.32c-.11,1.06-.27,2.1-.48,3.12Z"/><path class="cls-1" d="M18.55,34.25c-.71,0-1.32.47-1.51,1.15l-4.98,18.46c1.35-1.67,2.85-3.22,4.48-4.62l3.21-11.87h1.06l.33-3.12h-2.58Z"/><path class="cls-1" d="M62.25,35.4c-.18-.68-.8-1.15-1.51-1.15h-2.58l.33,3.12h1.06l3.21,11.87c1.63,1.4,3.13,2.95,4.48,4.62l-4.99-18.46Z"/><path class="cls-1" d="M58.49,37.37l-.33-3.12-2.5-23.87c-.08-.79-.75-1.4-1.55-1.4h-28.92c-.8,0-1.47.6-1.55,1.4l-2.5,23.87-.33,3.12-.98,9.35c1.07-.73,2.2-1.39,3.35-2l.77-7.36.33-3.12,2.32-22.14h26.11l2.32,22.14.33,3.12.77,7.36c1.15.61,2.28,1.27,3.35,2l-.98-9.35Z"/><path class="cls-1" d="M19.74,114.89l-3.21-11.87c-1.63-1.4-3.13-2.95-4.48-4.62l4.98,18.46c.18.68.8,1.15,1.51,1.15h2.58l-.33-3.12h-1.06Z"/><path class="cls-1" d="M62.75,103.02l-3.21,11.87h-1.06l-.33,3.12h2.58c.71,0,1.32-.47,1.51-1.15l4.99-18.46c-1.35,1.67-2.85,3.21-4.48,4.62Z"/><path class="cls-1" d="M56.12,107.53l-.77,7.36-.33,3.12-2.32,22.14h-26.11l-2.32-22.14-.33-3.12-.77-7.36c-1.15-.61-2.28-1.27-3.35-2l.98,9.35.33,3.12,2.5,23.87c.08.79.75,1.4,1.55,1.4h28.92c.8,0,1.47-.6,1.55-1.4l2.5-23.87.33-3.12.98-9.35c-1.07.73-2.2,1.39-3.35,2Z"/><path class="cls-1" d="M39.64,102.4c-14.49,0-26.27-11.78-26.27-26.27s11.79-26.27,26.27-26.27,26.27,11.79,26.27,26.27-11.79,26.27-26.27,26.27ZM39.64,52.98c-12.76,0-23.15,10.38-23.15,23.15s10.38,23.15,23.15,23.15,23.15-10.38,23.15-23.15-10.38-23.15-23.15-23.15Z"/><path class="cls-1" d="M39.65,57.49c-.86,0-1.56-.7-1.56-1.56v-4.5c0-.86.7-1.56,1.56-1.56s1.56.7,1.56,1.56v4.5c0,.86-.7,1.56-1.56,1.56Z"/><line class="cls-1" x1="22.17" y1="58.66" x2="25.36" y2="61.84"/><path class="cls-1" d="M25.36,63.4c-.4,0-.8-.15-1.1-.46l-3.18-3.18c-.61-.61-.61-1.6,0-2.21s1.6-.61,2.21,0l3.18,3.18c.61.61.61,1.6,0,2.21-.31.31-.7.46-1.1.46Z"/><line class="cls-1" x1="14.94" y1="76.13" x2="19.44" y2="76.13"/><path class="cls-1" d="M19.44,77.69h-4.5c-.86,0-1.56-.7-1.56-1.56s.7-1.56,1.56-1.56h4.5c.86,0,1.56.7,1.56,1.56s-.7,1.56-1.56,1.56Z"/><line class="cls-1" x1="22.17" y1="93.6" x2="25.36" y2="90.42"/><path class="cls-1" d="M22.17,95.16c-.4,0-.8-.15-1.1-.46-.61-.61-.61-1.6,0-2.21l3.19-3.18c.61-.61,1.6-.61,2.21,0s.61,1.6,0,2.21l-3.19,3.18c-.31.31-.7.46-1.1.46Z"/><line class="cls-1" x1="39.64" y1="100.84" x2="39.64" y2="96.34"/><path class="cls-1" d="M39.64,102.4c-.86,0-1.56-.7-1.56-1.56v-4.5c0-.86.7-1.56,1.56-1.56s1.56.7,1.56,1.56v4.5c0,.86-.7,1.56-1.56,1.56Z"/><line class="cls-1" x1="57.12" y1="93.6" x2="53.93" y2="90.42"/><path class="cls-1" d="M57.12,95.17c-.4,0-.8-.15-1.1-.46l-3.19-3.18c-.61-.61-.61-1.6,0-2.21s1.6-.61,2.21,0l3.19,3.18c.61.61.61,1.6,0,2.21-.31.31-.7.46-1.1.46Z"/><line class="cls-1" x1="64.35" y1="76.13" x2="59.85" y2="76.13"/><path class="cls-1" d="M64.35,77.69h-4.5c-.86,0-1.56-.7-1.56-1.56s.7-1.56,1.56-1.56h4.5c.86,0,1.56.7,1.56,1.56s-.7,1.56-1.56,1.56Z"/><line class="cls-1" x1="53.93" y1="61.84" x2="57.12" y2="58.66"/><path class="cls-1" d="M53.93,63.41c-.4,0-.8-.15-1.1-.46-.61-.61-.61-1.6,0-2.21l3.19-3.19c.61-.61,1.6-.61,2.21,0s.61,1.6,0,2.21l-3.19,3.19c-.31.31-.7.46-1.1.46Z"/><path class="cls-1" d="M39.64,76.13l11.96-9.49-11.96,9.49Z"/><path class="cls-1" d="M39.65,77.69c-.46,0-.92-.2-1.22-.59-.23-.29-.34-.63-.34-.97,0-.46.2-.92.59-1.22l11.96-9.49c.68-.54,1.66-.42,2.19.25.23.29.34.63.34.97,0,.46-.2.92-.59,1.22l-11.96,9.49c-.29.23-.63.34-.97.34Z"/><line class="cls-1" x1="29.83" y1="68.01" x2="39.64" y2="76.13"/><path class="cls-1" d="M39.64,77.69c-.35,0-.7-.12-1-.36l-9.82-8.13c-.66-.55-.76-1.53-.21-2.2.55-.66,1.53-.76,2.2-.21l9.82,8.13c.66.55.76,1.53.21,2.2-.31.37-.75.57-1.2.57Z"/><path class="cls-1" d="M54.1,33.12h-6.46c-.69,0-1.3-.45-1.5-1.11l-.69-2.29h-12.14l-.69,2.29c-.2.66-.81,1.11-1.5,1.11h-6.63c-.86,0-1.56-.7-1.56-1.56s.7-1.56,1.56-1.56h5.47l.69-2.29c.2-.66.81-1.11,1.5-1.11h14.46c.69,0,1.3.45,1.5,1.11l.69,2.29h5.3c.86,0,1.56.7,1.56,1.56s-.7,1.56-1.56,1.56Z"/><path class="cls-1" d="M46.61,125.67h-14.46c-.69,0-1.3-.45-1.5-1.11l-.69-2.29h-5.47c-.86,0-1.56-.7-1.56-1.56s.7-1.56,1.56-1.56h6.63c.69,0,1.3.45,1.5,1.11l.69,2.29h12.14l.69-2.29c.2-.66.81-1.11,1.5-1.11h6.46c.86,0,1.56.7,1.56,1.56s-.7,1.56-1.56,1.56h-5.3l-.69,2.29c-.2.66-.81,1.11-1.5,1.11Z"/></svg>