<?xml version="1.0" encoding="UTF-8"?><svg id="_レイヤー_1" xmlns="http://www.w3.org/2000/svg" viewBox="0 0 150 150"><defs><style>.cls-1{fill:#fff;stroke-width:0px;}</style></defs><path class="cls-1" d="M49.28,146.89H9.29c-.56,0-1.08-.3-1.36-.79-.15-.26-3.49-6.23.05-12.08V50.22c-.02-.57-.07-4.77,3.17-7.52,1.8-1.53,7.51-5.97,9.41-7.44l.16-28.32c0-.87.71-1.56,1.57-1.56h13.98c.87,0,1.57.7,1.57,1.56l.16,28.32c1.89,1.47,7.61,5.91,9.41,7.44,3.24,2.76,3.2,6.95,3.17,7.52v83.8c3.54,5.85.2,11.82.05,12.08-.28.49-.8.79-1.36.79ZM10.29,143.74h38c.63-1.54,1.63-5.06-.58-8.4-.17-.26-.26-.56-.26-.87V50.19s0-.06,0-.09c0-.02.12-3.13-2.07-5-2.07-1.76-9.82-7.75-9.9-7.82-.38-.3-.61-.75-.61-1.24l-.16-27.53h-10.85l-.16,27.53c0,.48-.23.94-.61,1.24-.08.06-7.83,6.06-9.9,7.82-2.19,1.87-2.07,4.98-2.07,5.01v84.37c0,.31-.09.61-.26.87-2.21,3.33-1.21,6.86-.58,8.4Z"/><path class="cls-1" d="M49.02,136.05H9.55c-.87,0-1.57-.7-1.57-1.57s.7-1.57,1.57-1.57h39.46c.87,0,1.57.7,1.57,1.57s-.7,1.57-1.57,1.57Z"/><path class="cls-1" d="M35.77,32.17h-12.97c-.87,0-1.57-.7-1.57-1.57s.7-1.57,1.57-1.57h12.97c.87,0,1.57.7,1.57,1.57s-.7,1.57-1.57,1.57Z"/><path class="cls-1" d="M41.28,41.8h-23.98c-.87,0-1.57-.7-1.57-1.57s.7-1.57,1.57-1.57h23.98c.87,0,1.57.7,1.57,1.57s-.7,1.57-1.57,1.57Z"/><path class="cls-1" d="M48.25,113.15H10.32c-.87,0-1.57-.7-1.57-1.57s.7-1.57,1.57-1.57h37.93c.87,0,1.57.7,1.57,1.57s-.7,1.57-1.57,1.57Z"/><path class="cls-1" d="M18.27,66.17c-.69,0-1.32-.45-1.51-1.14-.07-.24-1.61-5.35-6.41-6.15-.86-.14-1.44-.95-1.29-1.81.14-.86.96-1.43,1.81-1.29,6.8,1.13,8.84,8.1,8.92,8.4.24.84-.25,1.7-1.09,1.94-.14.04-.29.06-.43.06Z"/><path class="cls-1" d="M41.67,63.83c-.16-.29-4.08-7.09-12.18-7.09-.07,0-.14.01-.2.02-.07,0-.13-.02-.2-.02-8.1,0-12.02,6.8-12.18,7.09-.13.24-.2.5-.2.77v45.99c0,.87.7,1.57,1.57,1.57s1.57-.7,1.57-1.57v-45.54c.79-1.19,3.83-5.17,9.24-5.17.07,0,.14-.01.2-.02.07,0,.13.02.2.02,5.41,0,8.45,3.98,9.24,5.17v45.54c0,.87.7,1.57,1.57,1.57s1.57-.7,1.57-1.57v-45.99c0-.27-.07-.54-.2-.77Z"/><path class="cls-1" d="M40.3,66.17c-.14,0-.29-.02-.43-.06-.83-.24-1.32-1.1-1.08-1.94.08-.3,2.12-7.27,8.92-8.4.85-.14,1.67.44,1.81,1.29.14.86-.44,1.67-1.29,1.81-4.81.8-6.35,5.93-6.41,6.15-.2.69-.83,1.14-1.51,1.14Z"/><path class="cls-1" d="M39.61,102.53h-20.64c-.87,0-1.57-.7-1.57-1.57s.7-1.57,1.57-1.57h20.64c.87,0,1.57.7,1.57,1.57s-.7,1.57-1.57,1.57Z"/><path class="cls-1" d="M32.43,83.99h-6.29c-.87,0-1.57-.7-1.57-1.57s.7-1.57,1.57-1.57h6.29c.87,0,1.57.7,1.57,1.57s-.7,1.57-1.57,1.57Z"/><path class="cls-1" d="M32.43,90.81h-6.29c-.87,0-1.57-.7-1.57-1.57s.7-1.57,1.57-1.57h6.29c.87,0,1.57.7,1.57,1.57s-.7,1.57-1.57,1.57Z"/><path class="cls-1" d="M101.8,146.89h-13.03c-.21,0-3.74-.19-8.23-3.58l-.09-.07c-10.51-7.91-17.06-18.99-19.49-32.92-3.29-18.91,2.69-26.58,9.65-32.04,3.99-3.14,8.3-5.31,10.88-6.61.64-.32,1.18-.59,1.59-.82.22-.12.51-.26.84-.43,2.8-1.41,8.63-4.34,9.34-10.57.48-4.2.37-26.61.37-26.84,0-.42.16-.82.46-1.12.29-.3.7-.46,1.11-.46h13.19c.42,0,.82.17,1.11.46.3.3.46.7.46,1.12,0,.23-.11,22.64.37,26.84.71,6.23,6.54,9.16,9.34,10.57.33.17.62.31.84.43.41.23.95.5,1.59.82,2.57,1.3,6.88,3.47,10.88,6.61h0c11.77,9.25,11.59,20.87,9.65,32.04-2.42,13.93-8.98,25.01-19.49,32.92l-.09.07c-4.49,3.39-8.02,3.57-8.17,3.57h-13.1ZM96.79,34.58c.01,5.27.03,21.87-.4,25.63-.9,7.92-8.02,11.5-11.05,13.02-.29.15-.55.27-.74.38-.44.24-1.01.53-1.68.87-2.63,1.33-6.6,3.33-10.35,6.27-7.15,5.62-11.33,12.71-8.49,29.03,2.28,13.12,8.43,23.53,18.28,30.95l.09.07c3.64,2.75,6.39,2.94,6.42,2.94h25.98s2.7-.2,6.34-2.94l.09-.07c9.85-7.42,16-17.83,18.28-30.95,2.84-16.32-1.34-23.41-8.49-29.03h0c-3.75-2.94-7.72-4.95-10.35-6.27-.67-.34-1.24-.63-1.68-.87-.2-.11-.45-.23-.74-.38-3.04-1.53-10.15-5.1-11.05-13.02-.43-3.76-.41-20.36-.4-25.63h-10.03Z"/><path class="cls-1" d="M108.4,34.58h-13.18c-.51,0-.99-.25-1.28-.66-2.44-3.44-1.89-10.26-1.82-11.02.07-.81.75-1.43,1.57-1.43h16.25c.81,0,1.49.62,1.57,1.43.07.77.62,7.58-1.82,11.02-.29.42-.77.66-1.28.66ZM96.12,31.44h5.67s.01,0,.02,0h5.68c.86-1.83,1-4.83.95-6.82h-13.27c-.05,2,.09,4.99.95,6.82Z"/><path class="cls-1" d="M108.78,61.61h-13.96c-.87,0-1.57-.7-1.57-1.57s.7-1.57,1.57-1.57h13.96c.87,0,1.57.7,1.57,1.57s-.7,1.57-1.57,1.57Z"/><path class="cls-1" d="M101.8,125.04c-14.5,0-26.3-8.87-26.3-19.78s11.8-19.78,26.3-19.78,26.3,8.87,26.3,19.78-11.8,19.78-26.3,19.78ZM101.8,88.63c-12.77,0-23.15,7.46-23.15,16.63s10.38,16.63,23.15,16.63,23.15-7.46,23.15-16.63-10.38-16.63-23.15-16.63Z"/><path class="cls-1" d="M110.81,103.96h-18.02c-.87,0-1.57-.7-1.57-1.57s.7-1.57,1.57-1.57h18.02c.87,0,1.57.7,1.57,1.57s-.7,1.57-1.57,1.57Z"/><path class="cls-1" d="M108.13,112.39h-12.65c-.87,0-1.57-.7-1.57-1.57s.7-1.57,1.57-1.57h12.65c.87,0,1.57.7,1.57,1.57s-.7,1.57-1.57,1.57Z"/></svg>