<?xml version="1.0" encoding="UTF-8"?><svg id="_レイヤー_1" xmlns="http://www.w3.org/2000/svg" viewBox="0 0 150 150"><defs><style>.cls-1{fill:#fff;stroke-width:0px;}</style></defs><path class="cls-1" d="M51.58,54.6h-19.78c-.87,0-1.57-.7-1.57-1.57v-11.31c0-.87.7-1.57,1.57-1.57h19.78c.87,0,1.57.7,1.57,1.57v11.31c0,.87-.7,1.57-1.57,1.57ZM33.37,51.46h16.64v-8.17h-16.64v8.17Z"/><path class="cls-1" d="M49.43,43.28h-15.47c-.64,0-1.22-.39-1.46-.98l-7.16-17.77c-.19-.47-.14-1,.13-1.42l9.99-15.9c.29-.46.79-.74,1.33-.74h9.81c.54,0,1.04.28,1.33.74l9.99,15.9c.27.43.32.96.13,1.42l-7.16,17.77c-.24.6-.82.98-1.46.98ZM35.02,40.13h13.35l6.46-16.04-9.1-14.49h-8.07l-9.1,14.49,6.46,16.04Z"/><path class="cls-1" d="M38.94,43.28c-.68,0-1.31-.44-1.51-1.13l-4.89-16.54c-.07-.22-.08-.46-.05-.69l2.73-17.14c.14-.86.95-1.44,1.8-1.31.86.14,1.44.94,1.31,1.8l-2.68,16.79,4.79,16.2c.25.83-.23,1.71-1.06,1.95-.15.04-.3.06-.45.06Z"/><path class="cls-1" d="M44.41,43.28c-.15,0-.3-.02-.45-.06-.83-.25-1.31-1.12-1.06-1.95l4.79-16.2-2.68-16.79c-.14-.86.45-1.66,1.31-1.8.85-.14,1.66.45,1.8,1.31l2.73,17.14c.04.23.02.47-.05.69l-4.89,16.54c-.2.68-.83,1.13-1.51,1.13Z"/><path class="cls-1" d="M49.31,26.74h-15.26c-.09,0-.18,0-.26-.02l-7.25-1.24c-.86-.15-1.43-.96-1.29-1.82.15-.86.95-1.43,1.82-1.29l7.12,1.21h14.99l7.15-1.21c.87-.15,1.67.43,1.81,1.29.14.86-.43,1.67-1.29,1.81l-7.28,1.24c-.09.01-.17.02-.26.02Z"/><path class="cls-1" d="M55.29,145.81h-27.2c-.68,0-1.28-.44-1.49-1.08L6.88,84.41c-.15-.45-.08-.94.17-1.34l19.72-30.9c.29-.45.79-.73,1.33-.73h27.2c.54,0,1.04.27,1.33.73l19.72,30.9c.25.4.32.89.17,1.34l-19.72,60.31c-.21.65-.81,1.08-1.49,1.08ZM29.23,142.66h24.92l19.13-58.52-18.86-29.54h-25.47l-18.85,29.54,19.13,58.52Z"/><path class="cls-1" d="M34.55,145.06c-.77,0-1.45-.57-1.56-1.36l-7.82-56.96c-.03-.21-.02-.41.04-.61l8.5-32.39c.22-.84,1.08-1.34,1.92-1.12.84.22,1.34,1.08,1.12,1.92l-8.42,32.08,7.78,56.65c.12.86-.48,1.65-1.34,1.77-.07.01-.14.01-.22.01Z"/><path class="cls-1" d="M48.83,145.06c-.07,0-.14,0-.22-.01-.86-.12-1.46-.91-1.34-1.77l7.78-56.65-8.42-32.08c-.22-.84.28-1.7,1.12-1.92.84-.22,1.7.28,1.92,1.12l8.5,32.39c.05.2.06.41.04.61l-7.82,56.96c-.11.79-.78,1.36-1.56,1.36Z"/><path class="cls-1" d="M56.65,88.1h-29.92c-.07,0-.15,0-.22-.02l-18.36-2.61c-.86-.12-1.46-.92-1.34-1.78.12-.86.91-1.46,1.78-1.34l18.25,2.59h29.7l18.25-2.59c.87-.12,1.66.48,1.78,1.34.12.86-.48,1.66-1.34,1.78l-18.36,2.61c-.07.01-.15.02-.22.02Z"/><path class="cls-1" d="M141.63,145.81h-23.08c-.87,0-1.57-.7-1.57-1.57v-52.92c0-.87.7-1.57,1.57-1.57h23.08c.87,0,1.57.7,1.57,1.57v52.92c0,.87-.7,1.57-1.57,1.57ZM120.12,142.66h19.93v-49.77h-19.93v49.77Z"/><path class="cls-1" d="M110.56,145.81h-23.08c-.87,0-1.57-.7-1.57-1.57v-32.26c0-.87.7-1.57,1.57-1.57h23.08c.87,0,1.57.7,1.57,1.57v32.26c0,.87-.7,1.57-1.57,1.57ZM89.05,142.66h19.93v-29.12h-19.93v29.12Z"/><path class="cls-1" d="M108.95,113.58h-19.85c-.87,0-1.57-.7-1.57-1.57v-5.25c0-.87.7-1.57,1.57-1.57h19.85c.87,0,1.57.7,1.57,1.57v5.25c0,.87-.7,1.57-1.57,1.57ZM90.66,110.43h16.71v-2.1h-16.71v2.1Z"/><path class="cls-1" d="M107.95,108.34h-17.87c-.87,0-1.57-.7-1.57-1.57v-21.97c0-.87.7-1.57,1.57-1.57h17.87c.87,0,1.57.7,1.57,1.57v21.97c0,.87-.7,1.57-1.57,1.57ZM91.66,105.2h14.72v-18.83h-14.72v18.83Z"/><path class="cls-1" d="M105.53,86.43h-13.03c-.87,0-1.57-.7-1.57-1.57v-18.99c0-.07,0-.13.01-.2.04-.32,1.07-7.86,6.96-13.76.29-.29.7-.46,1.11-.46h0c.42,0,.82.17,1.11.46,5.9,5.9,6.92,13.44,6.96,13.76,0,.07.01.13.01.2v18.99c0,.87-.7,1.57-1.57,1.57ZM94.08,83.28h9.88v-17.3c-.12-.73-1.07-6.05-4.94-10.63-3.86,4.58-4.82,9.89-4.94,10.64v17.3Z"/><path class="cls-1" d="M96.31,66.6c-1.9,0-3.36-.7-3.44-.74-.78-.38-1.1-1.33-.72-2.1.38-.78,1.32-1.1,2.1-.72.05.02,1.95.89,3.67.09,1.34-.63,2.33-2.15,2.94-4.52.22-.84,1.08-1.35,1.92-1.13.84.22,1.35,1.07,1.13,1.92-.86,3.35-2.44,5.57-4.69,6.61-1,.46-1.99.62-2.89.62Z"/></svg>