<svg xmlns="http://www.w3.org/2000/svg" viewBox="0 0 54.02 51.49"><defs><style>.cls-1{fill:#fff}</style></defs><g id="レイヤー_2" data-name="レイヤー 2"><g id="data"><path class="cls-1" d="M53.57 39.57c-1.67-5.35-3.74-12.08-5.21-17a14.23 14.23 0 01-2.44 5.11c-5.06 6.63-18.35 6.7-18.92 6.7s-13.84-.07-18.9-6.66a14.23 14.23 0 01-2.44-5.11c-1.47 4.88-3.54 11.61-5.2 17-1.21 3.86 0 7 3.24 8.44C8.72 50.27 20 51.49 27 51.49S45.3 50.27 50.32 48c3.24-1.45 4.45-4.57 3.25-8.43z"/><path class="cls-1" d="M27 32.71c3.59 0 13.74-1 17.59-6s2.65-12.56 1.19-12.26c-1.26.25-11.08 3.67-18.78 3.67S9.48 14.69 8.23 14.44c-1.46-.3-2.66 7.26 1.19 12.26s14 6.01 17.58 6.01zm-4.31-8.61h9v3h-9v-3z"/><path class="cls-1" d="M17.06 12.77a13.65 13.65 0 011.09-4 11 11 0 013.53-4.44 8.92 8.92 0 012.46-1.25 9.37 9.37 0 016.61.33 9.93 9.93 0 014.17 3.64 13 13 0 012 5.68l.27 2.45c.92-.23 1.79-.47 2.61-.71l-.23-2a16.48 16.48 0 00-1.3-4.74A13.79 13.79 0 0033.9 2.2 11.91 11.91 0 0022.18 1a12.57 12.57 0 00-5.31 4.59 15.81 15.81 0 00-2.46 6.84l-.23 2c.82.24 1.69.48 2.61.71z"/></g></g></svg>