<?xml version="1.0" encoding="UTF-8"?><svg id="_レイヤー_1" xmlns="http://www.w3.org/2000/svg" viewBox="0 0 150 150"><defs><style>.cls-1{fill:#fff;stroke-width:0px;}</style></defs><polygon class="cls-1" points="11.65 63.98 11.36 64.79 11.51 64.79 11.65 63.98"/><path class="cls-1" d="M144.43,66.82L27.75,24.35c-.39-.14-.83-.12-1.2.05-.38.18-.67.5-.81.89l-6.86,18.84,3.15.55,6.13-16.84,95.5,34.76,2.27.4,3.14.55,10.02,1.77c.41.07.78.31,1.02.65.24.34.33.76.26,1.18l-.25,1.45,1.76.64-3.63,9.98-3.09,17.51v.17l10.21-28.06c.3-.82-.12-1.72-.94-2.02Z"/><polygon class="cls-1" points="10.99 85.52 10.99 85.87 11.04 85.54 10.99 85.52"/><path class="cls-1" d="M140.11,65.98c-.24-.34-.6-.57-1.02-.65l-10.02-1.77-3.14-.55-2.27-.4L22.02,44.69l-3.15-.55-2.06-.36c-.85-.15-1.67.42-1.82,1.28l-3.34,18.94-.14.8h3.19l3.11-17.65,3.11.55,96.98,17.1h15.67c.87,0,1.57.7,1.57,1.57v1.47l1.84.33-1.84,10.46v18.12l3.09-17.51,1.87-10.62.25-1.45c.07-.41-.02-.83-.26-1.18Z"/><polygon class="cls-1" points="14.71 64.79 14.7 64.79 14.7 64.8 14.71 64.79"/><polygon class="cls-1" points="132.01 96.45 132.04 96.24 132.01 96.34 132.01 96.45"/><polygon class="cls-1" points="135.1 97.06 135.15 96.9 135.15 96.73 135.1 97.06"/><path class="cls-1" d="M133.58,64.79H14.7s0,0,0,0h-5.29c-.87,0-1.57.7-1.57,1.57v8.09l-2.65,7.29c-.3.82.12,1.72.94,2.02l1.71.62.2.07-.2,1.14-3.28,18.61c-.07.41.02.83.26,1.18.24.34.6.57,1.02.65l2.01.35v20.05c0,.87.7,1.57,1.57,1.57h124.17c.87,0,1.57-.7,1.57-1.57v-29.53l-.06.16.06-.33v-30.37c0-.87-.7-1.57-1.57-1.57ZM132.01,114.57v10.29H10.99v-56.92h121.02v28.41l.04-.1-.04.21v18.12Z"/><path class="cls-1" d="M34.25,91.08h2.49c.7,0,1.21.25,1.21,1.19,0,.85-.47,1.19-1.21,1.19h-3.95l-.29.45v1.01h4.24c.76,0,1.21.31,1.21,1.21s-.47,1.17-1.21,1.17h-4.24v3.07c0,1.26-.63,1.71-1.86,1.71s-1.82-.58-1.82-1.71v-3.07h-4.22c-.88,0-1.23-.4-1.23-1.19,0-1.17.92-1.19,1.23-1.19h4.22v-1.01l-.27-.45h-3.95c-.88,0-1.23-.43-1.23-1.21,0-1.17.92-1.17,1.23-1.17h2.49l-2.85-4.65c-.49-.79-.65-1.03-.65-1.53,0-.81.96-1.59,2.02-1.59.79,0,1.05.47,1.5,1.21l3.54,6.01,3.57-6.01c.45-.76.7-1.21,1.5-1.21.99,0,2.02.72,2.02,1.64,0,.45-.2.74-.65,1.48l-2.85,4.65Z"/><path class="cls-1" d="M42.66,88.46c-.25.18-.67.47-1.12.47-.85,0-1.57-1.08-1.57-1.82,0-.61.49-.94.96-1.28l2.74-1.86c.38-.25.96-.65,1.82-.65,2.04,0,2.04,1.62,2.04,2.24v14.74c0,.76-.2,1.77-1.89,1.77-1.55,0-1.93-.74-1.93-1.77v-12.57l-1.05.72Z"/><path class="cls-1" d="M52.21,99.77c0-1.23,1.05-2.18,2.27-2.18,1.05,0,2.27.72,2.27,2.6,0,2.63-2.29,4.08-3.16,4.08-.61,0-.9-.49-.9-.9,0-.47.31-.61.65-.74.74-.31.88-.56,1.05-.83-1.35.11-2.18-.96-2.18-2.04Z"/><path class="cls-1" d="M58.5,92.7c0-3.23.61-5.25,1.5-6.66,1.17-1.84,3.12-2.72,5.09-2.72s3.88.85,5.09,2.74c1.35,2.11,1.48,5.05,1.48,6.64,0,2.81-.45,5.03-1.46,6.62-1.5,2.36-3.77,2.76-5.12,2.76-6.6,0-6.6-7.81-6.6-9.38ZM67.88,92.7c0-3.73-.83-5.88-2.78-5.88-2.13,0-2.78,2.54-2.78,5.88,0,3.64.76,5.88,2.78,5.88s2.78-2.54,2.78-5.88Z"/><path class="cls-1" d="M73.89,92.7c0-3.23.61-5.25,1.5-6.66,1.17-1.84,3.12-2.72,5.09-2.72s3.88.85,5.09,2.74c1.35,2.11,1.48,5.05,1.48,6.64,0,2.81-.45,5.03-1.46,6.62-1.5,2.36-3.77,2.76-5.12,2.76-6.6,0-6.6-7.81-6.6-9.38ZM83.27,92.7c0-3.73-.83-5.88-2.78-5.88-2.13,0-2.78,2.54-2.78,5.88,0,3.64.76,5.88,2.78,5.88s2.78-2.54,2.78-5.88Z"/><path class="cls-1" d="M89.29,92.7c0-3.23.61-5.25,1.5-6.66,1.17-1.84,3.12-2.72,5.09-2.72s3.88.85,5.09,2.74c1.35,2.11,1.48,5.05,1.48,6.64,0,2.81-.45,5.03-1.46,6.62-1.5,2.36-3.77,2.76-5.12,2.76-6.6,0-6.6-7.81-6.6-9.38ZM98.67,92.7c0-3.73-.83-5.88-2.78-5.88-2.13,0-2.78,2.54-2.78,5.88,0,3.64.76,5.88,2.78,5.88s2.78-2.54,2.78-5.88Z"/><path class="cls-1" d="M101.81,111.78H26.19c-.87,0-1.57-.7-1.57-1.57s.7-1.57,1.57-1.57h75.62c.87,0,1.57.7,1.57,1.57s-.7,1.57-1.57,1.57Z"/><path class="cls-1" d="M116.47,127.12c-.87,0-1.57-.7-1.57-1.57v-58.39c0-.87.7-1.57,1.57-1.57s1.57.7,1.57,1.57v58.39c0,.87-.7,1.57-1.57,1.57Z"/></svg>