<?xml version="1.0" encoding="UTF-8"?><svg id="_レイヤー_1" xmlns="http://www.w3.org/2000/svg" viewBox="0 0 150 150"><defs><style>.cls-1{fill:#fff;stroke-width:0px;}</style></defs><path class="cls-1" d="M8.31,120.44V10.48h78.74v34.59h1.55V10.48c0-.85-.69-1.55-1.55-1.55H8.31c-.85,0-1.55.69-1.55,1.55v109.97c0,.85.69,1.55,1.55,1.55h53.72v-1.55H8.31Z"/><polygon class="cls-1" points="8.31 10.48 8.31 120.44 62.03 120.44 62.03 118.89 9.85 118.89 9.85 12.02 85.5 12.02 85.5 45.07 87.05 45.07 87.05 10.48 8.31 10.48"/><path class="cls-1" d="M36.14,20.47h-14.93c-.85,0-1.55.69-1.55,1.55v17.65c0,.85.69,1.55,1.55,1.55h14.93c.85,0,1.55-.69,1.55-1.55v-17.65c0-.85-.69-1.55-1.55-1.55ZM34.59,38.12h-11.84v-14.55h11.84v14.55Z"/><rect class="cls-1" x="44.45" y="21.35" width="6.07" height="7.17"/><rect class="cls-1" x="53.45" y="21.35" width="6.07" height="7.17"/><rect class="cls-1" x="62.44" y="21.35" width="6.07" height="7.17"/><rect class="cls-1" x="71.44" y="21.35" width="6.07" height="7.17"/><path class="cls-1" d="M141.69,143.33h-8.23c-.85,0-1.55-.69-1.55-1.55,0-1.22-.99-2.22-2.22-2.22s-2.22.99-2.22,2.22c0,.85-.69,1.55-1.55,1.55h-9.1c-.85,0-1.55-.69-1.55-1.55,0-1.22-.99-2.22-2.22-2.22s-2.22.99-2.22,2.22c0,.85-.69,1.55-1.55,1.55h-9.1c-.85,0-1.55-.69-1.55-1.55,0-1.22-.99-2.22-2.22-2.22s-2.22.99-2.22,2.22c0,.85-.69,1.55-1.55,1.55h-9.1c-.85,0-1.55-.69-1.55-1.55,0-1.22-.99-2.22-2.22-2.22s-2.22.99-2.22,2.22c0,.85-.69,1.55-1.55,1.55h-8.24c-.85,0-1.55-.69-1.55-1.55v-8.45c0-.85.69-1.55,1.55-1.55,1.22,0,2.22-.99,2.22-2.22s-.99-2.22-2.22-2.22c-.85,0-1.55-.69-1.55-1.55v-9.1c0-.85.69-1.55,1.55-1.55,1.22,0,2.22-.99,2.22-2.22s-.99-2.22-2.22-2.22c-.85,0-1.55-.69-1.55-1.55v-9.1c0-.85.69-1.55,1.55-1.55,1.22,0,2.22-.99,2.22-2.22s-.99-2.22-2.22-2.22c-.85,0-1.55-.69-1.55-1.55v-9.1c0-.85.69-1.55,1.55-1.55,1.22,0,2.22-.99,2.22-2.22s-.99-2.22-2.22-2.22c-.85,0-1.55-.69-1.55-1.55v-9.1c0-.85.69-1.55,1.55-1.55,1.22,0,2.22-.99,2.22-2.22s-.99-2.22-2.22-2.22c-.85,0-1.55-.69-1.55-1.55v-8.45c0-.85.69-1.55,1.55-1.55h8.24c.85,0,1.55.69,1.55,1.55,0,1.22.99,2.22,2.22,2.22s2.22-.99,2.22-2.22c0-.85.69-1.55,1.55-1.55h9.1c.85,0,1.55.69,1.55,1.55,0,1.22.99,2.22,2.22,2.22s2.22-.99,2.22-2.22c0-.85.69-1.55,1.55-1.55h9.1c.85,0,1.55.69,1.55,1.55,0,1.22.99,2.22,2.22,2.22s2.22-.99,2.22-2.22c0-.85.69-1.55,1.55-1.55h9.1c.85,0,1.55.69,1.55,1.55,0,1.22.99,2.22,2.22,2.22s2.22-.99,2.22-2.22c0-.85.69-1.55,1.55-1.55h8.23c.85,0,1.55.69,1.55,1.55v8.45c0,.85-.69,1.55-1.55,1.55-1.22,0-2.22.99-2.22,2.22s.99,2.22,2.22,2.22c.85,0,1.55.69,1.55,1.55v9.1c0,.85-.69,1.55-1.55,1.55-1.22,0-2.22.99-2.22,2.22s.99,2.22,2.22,2.22c.85,0,1.55.69,1.55,1.55v9.1c0,.85-.69,1.55-1.55,1.55-1.22,0-2.22.99-2.22,2.22s.99,2.22,2.22,2.22c.85,0,1.55.69,1.55,1.55v9.1c0,.85-.69,1.55-1.55,1.55-1.22,0-2.22.99-2.22,2.22s.99,2.22,2.22,2.22c.85,0,1.55.69,1.55,1.55v9.1c0,.85-.69,1.55-1.55,1.55-1.22,0-2.22.99-2.22,2.22s.99,2.22,2.22,2.22c.85,0,1.55.69,1.55,1.55v8.45c0,.85-.69,1.55-1.55,1.55ZM134.78,140.24h5.37v-5.58c-2.18-.66-3.77-2.69-3.77-5.08s1.59-4.42,3.77-5.08v-6.47c-2.18-.66-3.77-2.69-3.77-5.08s1.59-4.42,3.77-5.08v-6.47c-2.18-.66-3.77-2.69-3.77-5.08s1.59-4.42,3.77-5.08v-6.47c-2.18-.66-3.77-2.69-3.77-5.08s1.59-4.42,3.77-5.08v-6.47c-2.18-.66-3.77-2.69-3.77-5.08s1.59-4.42,3.77-5.08v-5.58h-5.37c-.66,2.18-2.69,3.76-5.08,3.76s-4.42-1.59-5.08-3.76h-6.47c-.66,2.18-2.69,3.76-5.08,3.76s-4.42-1.59-5.08-3.76h-6.47c-.66,2.18-2.69,3.76-5.08,3.76s-4.42-1.59-5.08-3.76h-6.47c-.66,2.18-2.69,3.76-5.08,3.76s-4.42-1.59-5.08-3.76h-5.37v5.58c2.18.66,3.77,2.69,3.77,5.08s-1.59,4.42-3.77,5.08v6.47c2.18.66,3.77,2.69,3.77,5.08s-1.59,4.42-3.77,5.08v6.47c2.18.66,3.77,2.69,3.77,5.08s-1.59,4.42-3.77,5.08v6.47c2.18.66,3.77,2.69,3.77,5.08s-1.59,4.42-3.77,5.08v6.47c2.18.66,3.77,2.69,3.77,5.08s-1.59,4.42-3.77,5.08v5.58h5.37c.66-2.18,2.69-3.76,5.08-3.76s4.42,1.59,5.08,3.76h6.47c.66-2.18,2.69-3.76,5.08-3.76s4.42,1.59,5.08,3.76h6.47c.66-2.18,2.69-3.76,5.08-3.76s4.42,1.59,5.08,3.76h6.47c.66-2.18,2.69-3.76,5.08-3.76s4.42,1.59,5.08,3.76Z"/><path class="cls-1" d="M128.9,130.54h-48.32c-.85,0-1.55-.69-1.55-1.55V63.63c0-.85.69-1.55,1.55-1.55h48.32c.85,0,1.55.69,1.55,1.55v65.37c0,.85-.69,1.55-1.55,1.55ZM82.14,127.45h45.22v-62.27h-45.22v62.27Z"/><path class="cls-1" d="M128.02,94.34c-.15,0-.3-.02-.44-.06-9.62-2.87-20.81-11.22-23.15-13.02h-8.88c-5.18,4.38-13.19,9.12-13.54,9.32-.74.43-1.68.19-2.12-.55-.43-.74-.19-1.69.55-2.12.08-.05,8.59-5.08,13.52-9.37.28-.25.64-.38,1.02-.38h9.98c.35,0,.69.12.96.33.12.1,12.54,9.83,22.55,12.82.82.24,1.28,1.11,1.04,1.92-.2.67-.82,1.11-1.48,1.11Z"/><path class="cls-1" d="M107.4,82.36c-.11,0-.23-.01-.34-.04-.83-.19-1.35-1.01-1.17-1.84.79-3.51,4.56-10.08,13.09-9.86,8.93.25,11.08,5.88,11.17,6.12.29.8-.12,1.69-.92,1.98-.81.29-1.69-.12-1.98-.93-.06-.14-1.62-3.9-8.35-4.08-8.08-.24-9.91,7.13-9.98,7.45-.17.71-.8,1.2-1.51,1.2Z"/><path class="cls-1" d="M119.33,98.34c-2.51,0-3.81-1.22-4.85-2.2-.87-.82-1.45-1.36-2.73-1.36s-1.86.54-2.73,1.36c-1.04.98-2.34,2.2-4.85,2.2s-3.8-1.22-4.85-2.2c-.87-.82-1.45-1.36-2.73-1.36s-1.86.54-2.73,1.36c-1.04.98-2.34,2.2-4.85,2.2s-3.8-1.22-4.85-2.2c-.87-.82-1.45-1.36-2.73-1.36-.85,0-1.55-.69-1.55-1.55s.69-1.55,1.55-1.55c2.51,0,3.8,1.22,4.85,2.2.87.82,1.45,1.36,2.73,1.36s1.86-.54,2.73-1.36c1.04-.98,2.34-2.2,4.85-2.2s3.81,1.22,4.85,2.2c.87.82,1.45,1.36,2.73,1.36s1.86-.54,2.73-1.36c1.04-.98,2.34-2.2,4.85-2.2s3.81,1.22,4.85,2.2c.87.82,1.45,1.36,2.73,1.36s1.86-.54,2.73-1.36c1.04-.98,2.34-2.2,4.85-2.2.85,0,1.55.69,1.55,1.55s-.69,1.55-1.55,1.55c-1.28,0-1.86.54-2.73,1.36-1.04.98-2.34,2.2-4.85,2.2Z"/><path class="cls-1" d="M94.3,110.99h-13.24c-.85,0-1.55-.69-1.55-1.55s.69-1.55,1.55-1.55h13.24c.85,0,1.55.69,1.55,1.55s-.69,1.55-1.55,1.55Z"/><path class="cls-1" d="M101.77,118.23h-20.36c-.85,0-1.55-.69-1.55-1.55s.69-1.55,1.55-1.55h20.36c.85,0,1.55.69,1.55,1.55s-.69,1.55-1.55,1.55Z"/><path class="cls-1" d="M88.53,117.89c-.85,0-1.55-.69-1.55-1.55v-6.45c0-.85.69-1.55,1.55-1.55s1.55.69,1.55,1.55v6.45c0,.85-.69,1.55-1.55,1.55Z"/><line class="cls-1" x1="128.24" y1="109.38" x2="110.59" y2="109.38"/><path class="cls-1" d="M128.24,110.93h-17.65c-.85,0-1.55-.69-1.55-1.55s.69-1.55,1.55-1.55h17.65c.85,0,1.55.69,1.55,1.55s-.69,1.55-1.55,1.55Z"/></svg>