<?xml version="1.0" encoding="UTF-8"?><svg id="_レイヤー_1" xmlns="http://www.w3.org/2000/svg" viewBox="0 0 150 150"><defs><style>.cls-1{fill:#fff;stroke-width:0px;}</style></defs><path class="cls-1" d="M84.86,73.82c-1.66-.78-3.51-1.22-5.46-1.22-7.15,0-12.96,5.82-12.96,12.96,0,4.08,1.9,7.72,4.85,10.1.84.68,1.77,1.25,2.77,1.7.28-1.01.64-2.01,1.07-2.97-.97-.47-1.85-1.09-2.61-1.84-1.81-1.78-2.93-4.25-2.93-6.99,0-5.41,4.4-9.82,9.82-9.82,1.35,0,2.64.27,3.82.77.98.41,1.87.99,2.66,1.68.36-.52.7-1.04,1.02-1.56.24-.39.45-.77.64-1.15-.82-.66-1.72-1.22-2.68-1.67Z"/><path class="cls-1" d="M85.72,67.87c-1.98-.71-4.1-1.12-6.32-1.12-10.37,0-18.81,8.44-18.81,18.81,0,6.99,3.84,13.09,9.51,16.33.96.55,1.97,1.01,3.02,1.38.05-1.07.16-2.15.33-3.22-1.01-.42-1.97-.94-2.87-1.55-4.13-2.82-6.85-7.57-6.85-12.94,0-8.64,7.03-15.67,15.67-15.67,2.25,0,4.38.48,6.31,1.34,1.01.45,1.96,1,2.85,1.65.32-1.19.45-2.34.44-3.47-1.04-.62-2.13-1.14-3.28-1.55Z"/><path class="cls-1" d="M126.65,72.6c-1.95,0-3.8.45-5.46,1.22-.96.45-1.87,1.01-2.68,1.67.19.38.4.77.64,1.16.32.52.67,1.04,1.02,1.56.79-.69,1.68-1.27,2.66-1.68,1.17-.5,2.46-.77,3.82-.77,5.41,0,9.82,4.4,9.82,9.82,0,2.73-1.12,5.2-2.93,6.99-.76.75-1.64,1.37-2.61,1.84.43.97.78,1.96,1.07,2.97,1-.45,1.93-1.02,2.77-1.7,2.95-2.38,4.85-6.02,4.85-10.1,0-7.15-5.82-12.96-12.96-12.96Z"/><path class="cls-1" d="M126.65,66.75c-2.22,0-4.34.41-6.32,1.12-1.15.41-2.25.93-3.28,1.55-.01,1.12.12,2.28.44,3.47.89-.64,1.84-1.2,2.85-1.65,1.93-.86,4.07-1.34,6.31-1.34,8.64,0,15.67,7.03,15.67,15.67,0,5.37-2.72,10.11-6.85,12.94-.89.61-1.86,1.13-2.87,1.55.18,1.07.28,2.15.33,3.22,1.05-.37,2.06-.83,3.02-1.38,5.67-3.24,9.51-9.34,9.51-16.33,0-10.37-8.44-18.81-18.81-18.81Z"/><path class="cls-1" d="M135.95,101.89c-.1-1.13-.26-2.27-.48-3.39-.19-.96-.42-1.91-.71-2.84-.33-1.06-.75-2.1-1.23-3.11-.41-.87-.85-1.72-1.37-2.53-3.35-5.22-5.7-8.45-7.41-10.81-.73-1-1.35-1.87-1.92-2.69-.36-.52-.69-1.03-1.01-1.53-.24-.39-.45-.78-.64-1.17-.42-.88-.7-1.74-.85-2.59-.2-1.12-.18-2.23,0-3.37.18-1.2.54-2.43,1.02-3.75.95-2.66,4.68-9.65,4.7-9.69.17-.3,1.6-2.95.35-5.1-.8-1.37-2.36-2.06-4.65-2.06h-37.44c-2.29,0-3.85.69-4.65,2.06-1.25,2.14.18,4.8.33,5.06.04.07,3.76,7.06,4.72,9.72.47,1.32.83,2.55,1.02,3.75.18,1.14.19,2.25,0,3.37-.15.85-.43,1.71-.85,2.59-.19.38-.39.77-.64,1.17-.31.5-.65,1.01-1.01,1.53-.57.83-1.19,1.69-1.92,2.69-1.71,2.36-4.06,5.59-7.41,10.81-.52.81-.97,1.67-1.37,2.53-.48,1.01-.89,2.05-1.23,3.11-.29.93-.52,1.89-.71,2.84-.22,1.13-.39,2.26-.48,3.39-.55,6.46.85,12.81,2.77,16.65,1.79,3.58,5.44,10.52,12.63,23.26.2.36.33.57.36.63,1.27,2.31,3.54,2.98,4.72,3.01h24.94c1.14-.03,3.42-.7,4.68-3.01.03-.05.15-.27.35-.63,7.2-12.73,10.84-19.67,12.63-23.26,1.92-3.84,3.31-10.19,2.77-16.65ZM130.37,117.14c-1.77,3.55-5.39,10.44-12.56,23.12-.21.38-.34.61-.37.67-.69,1.26-1.9,1.37-1.97,1.38h-24.83c-.14,0-1.34-.12-2.03-1.38-.03-.06-.16-.29-.38-.67-7.16-12.67-10.78-19.57-12.56-23.12-1.62-3.24-2.82-8.46-2.56-13.86.05-1.07.16-2.15.33-3.22.15-.9.36-1.8.61-2.69.28-1.01.64-2.01,1.07-2.97.41-.92.86-1.81,1.41-2.67,3.31-5.14,5.62-8.33,7.31-10.66.77-1.06,1.43-1.97,2.03-2.86.36-.52.7-1.04,1.02-1.56.24-.39.45-.77.64-1.15.45-.89.79-1.76,1.02-2.61.32-1.19.45-2.34.44-3.47-.03-2.24-.61-4.35-1.34-6.36-1.03-2.87-4.74-9.84-4.92-10.17-.3-.55-.61-1.57-.37-1.97.14-.23.72-.5,1.93-.5h37.44c1.21,0,1.79.27,1.93.5.24.4-.07,1.42-.39,2-.16.3-3.87,7.26-4.9,10.14-.72,2.01-1.31,4.13-1.34,6.36-.01,1.12.12,2.28.44,3.47.23.85.57,1.72,1.02,2.61.19.38.4.77.64,1.16.32.52.67,1.04,1.02,1.56.6.88,1.26,1.8,2.03,2.86,1.69,2.33,4,5.52,7.31,10.66.55.85,1.01,1.75,1.41,2.67.43.97.78,1.96,1.07,2.97.25.89.46,1.78.61,2.69.18,1.07.28,2.15.33,3.22.26,5.41-.94,10.62-2.56,13.86Z"/><path class="cls-1" d="M120.59,60.88h-35.12c-.87,0-1.57-.7-1.57-1.57s.7-1.57,1.57-1.57h35.12c.87,0,1.57.7,1.57,1.57s-.7,1.57-1.57,1.57Z"/><path class="cls-1" d="M121.01,137.39h-35.96c-.87,0-1.57-.7-1.57-1.57s.7-1.57,1.57-1.57h35.96c.87,0,1.57.7,1.57,1.57s-.7,1.57-1.57,1.57Z"/><path class="cls-1" d="M130.84,92.44h-55.63c-.87,0-1.57-.7-1.57-1.57s.7-1.57,1.57-1.57h55.63c.87,0,1.57.7,1.57,1.57s-.7,1.57-1.57,1.57Z"/><path class="cls-1" d="M130.84,120.04h-55.63c-.87,0-1.57-.7-1.57-1.57s.7-1.57,1.57-1.57h55.63c.87,0,1.57.7,1.57,1.57s-.7,1.57-1.57,1.57Z"/><path class="cls-1" d="M93.57,119.73c-.52,0-1.02-.25-1.32-.72l-17.46-27.07c-.47-.73-.26-1.7.47-2.17.73-.47,1.7-.26,2.17.47l17.46,27.07c.47.73.26,1.7-.47,2.17-.26.17-.56.25-.85.25Z"/><path class="cls-1" d="M76.11,119.73c-.29,0-.59-.08-.85-.25-.73-.47-.94-1.44-.47-2.17l17.46-27.07c.47-.73,1.44-.94,2.17-.47.73.47.94,1.44.47,2.17l-17.46,27.07c-.3.47-.81.72-1.32.72Z"/><path class="cls-1" d="M111.76,119.73c-.52,0-1.02-.25-1.32-.72l-17.46-27.07c-.47-.73-.26-1.7.47-2.17.73-.47,1.7-.26,2.17.47l17.46,27.07c.47.73.26,1.7-.47,2.17-.26.17-.56.25-.85.25Z"/><path class="cls-1" d="M94.3,119.73c-.29,0-.59-.08-.85-.25-.73-.47-.94-1.44-.47-2.17l17.46-27.07c.47-.73,1.44-.94,2.17-.47.73.47.94,1.44.47,2.17l-17.46,27.07c-.3.47-.81.72-1.32.72Z"/><path class="cls-1" d="M129.95,119.73c-.52,0-1.02-.25-1.32-.72l-17.46-27.07c-.47-.73-.26-1.7.47-2.17.73-.47,1.7-.26,2.17.47l17.46,27.07c.47.73.26,1.7-.47,2.17-.26.17-.56.25-.85.25Z"/><path class="cls-1" d="M112.49,119.73c-.29,0-.59-.08-.85-.25-.73-.47-.94-1.44-.47-2.17l17.46-27.07c.47-.73,1.44-.94,2.17-.47.73.47.94,1.44.47,2.17l-17.46,27.07c-.3.47-.81.72-1.32.72Z"/><path class="cls-1" d="M55.55,6.88c.12.03.23.07.34.12-.11-.05-.22-.09-.34-.12Z"/><path class="cls-1" d="M39.84,7.03c.11-.06.23-.11.35-.14-.12.03-.24.08-.35.14Z"/><path class="cls-1" d="M30.66,61.12l-.13-6.13-.07-3.15-.09-4.09-.07-3.15-.09-4.09-.07-3.15-.13-6.23c-.02-.87-.72-1.57-1.61-1.54-.87.02-1.56.74-1.54,1.61l.6,28.39.03,1.57v.03c.02.86.72,1.54,1.57,1.54.01,0,.02,0,.03,0,.03,0,.05-.01.07-.02.83-.06,1.49-.75,1.47-1.59v-.03Z"/><path class="cls-1" d="M78.68,61.18c-.26-.52-.53-1.05-.79-1.57h-11.18c-.83,0-1.51.64-1.57,1.47v.04s-.45,6.68-.45,6.68c.53-.44,1.09-.86,1.66-1.25.53-.37,1.08-.7,1.64-1.02l.19-2.77h7.88c1.07-.16,2.15-.27,3.26-.27-.2-.42-.42-.86-.64-1.3Z"/><path class="cls-1" d="M39.71,7.08s-.03.03-.04.04c.05-.04.12-.06.17-.1-.04.02-.09.03-.13.05Z"/><path class="cls-1" d="M40.19,6.89c.07-.02.15-.03.22-.04-.08,0-.15.02-.22.04Z"/><path class="cls-1" d="M56.02,7.04s-.08-.02-.12-.04c.07.03.13.07.19.11-.03-.02-.04-.05-.07-.06Z"/><path class="cls-1" d="M55.33,6.84c.08,0,.15.02.22.04-.07-.02-.15-.03-.22-.04Z"/><path class="cls-1" d="M65.96,37.38H29.83c-.87,0-1.57.7-1.57,1.57s.7,1.57,1.57,1.57h36.13c.87,0,1.57-.7,1.57-1.57s-.7-1.57-1.57-1.57Z"/><path class="cls-1" d="M65.96,44.61H29.83c-.87,0-1.57.7-1.57,1.57s.7,1.57,1.57,1.57h36.13c.87,0,1.57-.7,1.57-1.57s-.7-1.57-1.57-1.57Z"/><path class="cls-1" d="M65.96,51.85H29.83c-.87,0-1.57.7-1.57,1.57s.7,1.57,1.57,1.57h36.13c.87,0,1.57-.7,1.57-1.57s-.7-1.57-1.57-1.57Z"/><path class="cls-1" d="M56.09,7.1c-.06-.04-.13-.07-.19-.11-.11-.05-.23-.09-.34-.12-.07-.02-.15-.03-.22-.04-.58-.04-1.15.22-1.47.75l-.47.8-.93,1.57-4.21,7.13-1.78,3.01-2.87,4.87-1.77,2.99-5.38,9.12c-.05.09-.07.19-.1.29-.24.69,0,1.48.66,1.86.25.15.53.22.8.22.54,0,1.06-.28,1.36-.77l.77-1.31,15.72-26.63.81-1.37.11-.19c.42-.72.2-1.63-.48-2.09Z"/><path class="cls-1" d="M62.01,12.7c-.46-.27-.99-.25-1.44-.05-.28.13-.54.32-.72.61l-.33.57-13.71,23.26c-.05.09-.07.19-.1.29-.24.69,0,1.46.64,1.85,0,0,0,0,.01.01.25.15.53.22.8.22.54,0,1.06-.28,1.36-.77l.5-.85.27-.46,12.72-21.58.55-.94c.09-.15.13-.32.17-.48.13-.64-.13-1.32-.72-1.67Z"/><path class="cls-1" d="M49.33,18.72l-1.08-1.62-4.74-7.13-1.05-1.57-.58-.87c-.34-.5-.91-.73-1.47-.67-.07,0-.15.02-.22.04-.12.03-.24.08-.35.14-.06.03-.12.06-.17.1-.68.49-.87,1.43-.4,2.14l.07.11.87,1.31,6.26,9.42.24.35c.3.46.8.7,1.31.7.3,0,.6-.09.87-.26.72-.48.92-1.46.44-2.18Z"/><path class="cls-1" d="M44.24,25.98l-.64-1-7.18-11.27-.26-.41c-.22-.34-.55-.56-.91-.66-.41-.11-.87-.07-1.26.18-.49.31-.72.84-.7,1.38,0,.27.06.55.22.79l.44.69,7.64,12c.07.11.16.21.25.3.3.28.68.43,1.08.43.29,0,.58-.08.84-.25.73-.47.95-1.44.48-2.17Z"/><path class="cls-1" d="M90.52,29.85l-26.73-16.65-7.59-6.03s-.07-.04-.11-.06c-.06-.04-.13-.07-.19-.11-.11-.05-.23-.09-.34-.12-.07-.02-.15-.03-.22-.04-.04,0-.07-.02-.11-.02h-14.64c-.06,0-.11.02-.16.03-.07,0-.15.02-.22.04-.12.03-.24.08-.35.14-.06.03-.12.06-.17.1-.02.01-.05.02-.07.04l-7.59,6.03L5.28,29.85c-.46.29-.74.79-.74,1.34v26.17c0,1.39.53,2.61,1.52,3.52,2.36,2.16,6.69,1.94,7.46,1.88h14.1l2.13,31.72c.06.83.74,1.47,1.57,1.47h27.49c-.26-.51-.5-1.04-.72-1.57-.21-.52-.41-1.04-.59-1.57h-24.71l-2.13-31.68v-.04c-.06-.83-.74-1.47-1.57-1.47h-15.64s-.09,0-.13,0c-.95.08-3.93.05-5.14-1.06-.34-.31-.5-.69-.5-1.2v-25.3l26.07-16.24c.05-.03.1-.07.15-.1l.05-.04,2.48-1.97,3.79-3.02.91-.72h13.54l.99.78,3.87,3.08,2.37,1.89s.08.06.12.08c.01,0,.02.01.03.02l26.07,16.24v10.95h3.15v-11.82c0-.54-.28-1.05-.74-1.34Z"/><path class="cls-1" d="M67.38,29.61c-.9-.04-1.59.67-1.61,1.54l-.13,6.23-.07,3.15-.09,4.09-.07,3.15-.09,4.09-.07,3.15-.13,6.13v.03c-.02.84.63,1.53,1.47,1.59.03,0,.05.02.07.02.01,0,.02,0,.03,0,.85,0,1.55-.68,1.57-1.54v-.03s.03-1.57.03-1.57l.6-28.39c.02-.87-.67-1.59-1.54-1.61Z"/></svg>