<?xml version="1.0" encoding="UTF-8"?><svg id="_レイヤー_1" xmlns="http://www.w3.org/2000/svg" viewBox="0 0 150 150"><defs><style>.cls-1{fill:#fff;stroke-width:0px;}</style></defs><rect class="cls-1" x="71.85" y="76.41" width="6.3" height=".07"/><rect class="cls-1" x="71.85" y="76.41" width="6.3" height=".07"/><path class="cls-1" d="M79.72,73.26h-9.44c-.87,0-1.57.7-1.57,1.57v11.45c0,.87.7,1.57,1.57,1.57h9.44c.87,0,1.57-.7,1.57-1.57v-11.45c0-.87-.7-1.57-1.57-1.57ZM78.15,79.62v5.09h-6.3v-8.3h6.3v3.21Z"/><rect class="cls-1" x="96.05" y="64.76" width="1.88" height=".87"/><polygon class="cls-1" points="88.67 76.48 85.53 76.48 81.29 76.48 81.29 79.62 87.1 79.62 92.9 79.62 92.9 76.48 88.67 76.48"/><path class="cls-1" d="M121.51,65.63h-20.43v2.58h18.86v8.27h-18.86v3.15h20.43c.87,0,1.57-.7,1.57-1.57v-10.85c0-.87-.7-1.57-1.57-1.57Z"/><path class="cls-1" d="M87.1,66.64h-24.2c-.87,0-1.57.7-1.57,1.57h0v8.27h3.15v-6.7h21.06v6.7h3.15v-8.27h0c0-.87-.7-1.57-1.57-1.57Z"/><path class="cls-1" d="M135.61,133.45c-1.32-8.25-7.2-50.64-9.18-64.95l-3.17.02c1.92,13.89,7.91,57.07,9.25,65.43.46,2.89.1,5.12-1.09,6.6-1.47,1.84-3.83,2.02-3.78,2.02H22.46s-2.39-.17-3.87-2.02c-1.19-1.49-1.55-3.71-1.09-6.6,1.34-8.36,7.33-51.54,9.25-65.43l-3.17-.02c-1.98,14.31-7.86,56.7-9.19,64.95-.61,3.83-.02,6.9,1.78,9.11,2.38,2.94,5.98,3.15,6.21,3.16h105.34c.15,0,3.74-.22,6.13-3.16,1.79-2.21,2.39-5.28,1.78-9.11Z"/><path class="cls-1" d="M130.6,66.43l-4.42-13.84c-.21-.65-.81-1.09-1.5-1.09h-21.94c-.06,1.04-.12,2.08-.2,3.15h21l3.42,10.7h-.96s-24.92.14-24.92.14v2.72h18.86v.32l3.15-.02h.18s3.17-.02,3.17-.02h2.69c.5-.02.97-.26,1.26-.66.29-.41.38-.93.23-1.4Z"/><path class="cls-1" d="M57.67,51.5c.06,1.02.13,2.06.23,3.15h34.19c.1-1.08.17-2.13.23-3.15h-34.65Z"/><path class="cls-1" d="M75.01,65.63l-17.94-.1-7.2-.04-25.87-.14h-.96s3.42-10.71,3.42-10.71h21c-.09-1.07-.15-2.11-.2-3.15h-21.94c-.68,0-1.29.44-1.5,1.09l-4.42,13.84c-.15.48-.07,1,.23,1.4.29.4.76.65,1.26.65h2.69s3.17.03,3.17.03h.18s3.15.02,3.15.02v-.32h62.83v-2.67l-17.89.1Z"/><path class="cls-1" d="M106.31,107.23l-5.24-5.16v-37.78c-.67,1.21-1.81,2.1-3.15,2.48v35.95c0,.42.17.83.47,1.12l5.24,5.16v11.43h-13.3v-11.43l5.24-5.16c.3-.3.47-.7.47-1.12v-35.77c-.09,0-.17,0-.26-.02-1.1-.15-2.1-.66-2.89-1.43v36.56l-5.24,5.16c-.3.3-.47.7-.47,1.12v13.66c0,.87.7,1.57,1.57,1.57h16.45c.87,0,1.57-.7,1.57-1.57v-13.66c0-.42-.17-.83-.47-1.12Z"/><path class="cls-1" d="M75.01,65.63H28.49c-.87,0-1.57.7-1.57,1.57v10.85c0,.87.7,1.57,1.57,1.57h40.21v-3.15H30.07v-8.27h62.83v-2.58h-17.89Z"/><path class="cls-1" d="M93.19,55.79l1.89.54c.06-.56.12-1.13.17-1.67.09-1.08.16-2.12.22-3.15,1.03-18.34-3.37-27.49-7.62-32.02-4.96-5.29-10.79-5.67-12.39-5.67-.12,0-.21,0-.3,0,.03,0,.05,0,.06,0-.06,0-.13,0-.21,0-.06,0-.12,0-.2,0h0c-1.21-.04-7.47.05-12.77,5.8-4.19,4.55-8.52,13.69-7.5,31.89.06,1.02.13,2.07.22,3.15.18,2.16.44,4.44.78,6.85.08.54-.06,1.09-.4,1.53-.33.44-.81.72-1.37.8-1.13.17-2.16-.65-2.32-1.76-.36-2.56-.63-5.03-.83-7.42-.09-1.07-.16-2.11-.21-3.15-.89-15.99,2.03-27.69,8.74-34.84,6.51-6.94,14.31-7.02,15.8-6.96.04,0,.08,0,.12,0,1.5-.06,9.28.02,15.8,6.96,6.71,7.15,9.63,18.85,8.74,34.84-.06,1.03-.12,2.08-.21,3.15-.08.92-.17,1.87-.27,2.82l3.08.87c.14-1.25.26-2.48.35-3.69.09-1.07.15-2.11.2-3.15.89-16.8-2.31-29.23-9.59-36.99-7.37-7.85-16.29-8.01-18.15-7.96-1.87-.06-10.78.11-18.15,7.96-7.28,7.76-10.49,20.19-9.59,36.99.05,1.04.12,2.08.2,3.15.2,2.53.49,5.14.87,7.85.16,1.18.74,2.21,1.54,2.99.94.92,2.22,1.49,3.61,1.49.24,0,.49-.02.72-.05,1.1-.15,2.08-.65,2.87-1.4.2-.19.4-.39.57-.62.84-1.11,1.19-2.48,1-3.86-.31-2.25-.56-4.39-.74-6.41-.1-1.08-.17-2.13-.23-3.15-1.02-17.2,2.88-25.65,6.67-29.76,4.46-4.84,9.75-4.82,10.31-4.79.13,0,.25,0,.37,0,.1,0,.21,0,.31,0,.6-.02,5.84,0,10.22,4.68,3.84,4.1,7.8,12.55,6.77,29.87-.06,1.02-.13,2.06-.23,3.15-.04.42-.09.87-.13,1.3.01,0,.02-.02.03-.02.36-.2.79-.26,1.2-.14Z"/><path class="cls-1" d="M102.85,58.53l-.67-.19-3.08-.87-4.03-1.14-1.89-.54c-.4-.12-.83-.06-1.2.14-.01,0-.02.01-.03.02-.35.21-.61.53-.72.92l-1.48,5.22c-.11.4-.06.83.14,1.2.2.36.54.63.94.75l1.17.33c.11.19.21.38.34.56.16.22.35.4.54.59.79.77,1.78,1.28,2.89,1.43.09.01.17.01.26.02v-1.44h0s1.88.52,1.88.52v.73c.37-.11.72-.26,1.05-.43l1.54.44c.14.04.29.06.43.06.69,0,1.32-.45,1.51-1.14l1.48-5.22c.24-.84-.25-1.71-1.08-1.94ZM98.26,62.86l-3.79-1.07-1.25-.35.62-2.19.88.25,4.01,1.14,1.75.5-.62,2.19-1.6-.45Z"/></svg>