<?xml version="1.0" encoding="UTF-8"?><svg id="_レイヤー_1" xmlns="http://www.w3.org/2000/svg" viewBox="0 0 150 150"><defs><style>.cls-1{fill:#fff;stroke-width:0px;}</style></defs><path class="cls-1" d="M76.86,129.06c.53,1.77,1.42,3.28,2.63,4.49,2.15,2.15,5.16,3.23,8.8,3.23,2.5,0,5.3-.51,8.32-1.54,7.04-2.41,14.58-7.39,21.21-14.02,14.21-14.21,19.62-31.04,12.34-38.33-1.21-1.21-2.72-2.1-4.49-2.63,0,0,0,0,0,0-4.56-1.37-10.66-.24-17.08,2.83l2.36,2.36c4.89-2.19,9.45-3.12,12.95-2.4.02.11.05.22.07.33.04.22.07.45.1.69.03.27.06.54.07.83.01.24.02.49.02.74,0,.29,0,.58-.02.88-.01.26-.03.52-.06.78-.03.31-.07.62-.12.93-.04.27-.08.54-.14.82-.06.32-.13.64-.21.97-.07.28-.13.57-.21.86-.09.33-.19.67-.29,1.01-.09.29-.18.59-.28.89-.12.34-.25.69-.38,1.04-.11.3-.23.6-.35.91-.14.35-.3.71-.46,1.07-.14.31-.27.62-.42.93-.17.36-.35.73-.54,1.09-.16.31-.31.62-.48.93-.2.37-.41.74-.62,1.12-.18.31-.35.62-.53.93-.22.38-.46.76-.7,1.14-.19.31-.38.62-.58.93-.25.38-.52.77-.78,1.15-.21.3-.41.61-.63.91-.28.39-.58.78-.88,1.17-.22.29-.43.58-.66.87-.32.41-.66.81-.99,1.22-.22.27-.43.54-.66.81-.38.45-.77.88-1.17,1.32-.2.22-.39.45-.59.67-.61.66-1.23,1.31-1.87,1.95-.64.64-1.29,1.26-1.95,1.87-.2.18-.4.36-.6.54-.46.42-.92.83-1.39,1.23-.25.21-.5.41-.75.61-.43.35-.85.71-1.28,1.04-.27.21-.54.41-.81.61-.41.31-.83.63-1.24.93-.28.2-.57.39-.85.59-.4.28-.81.56-1.21.83-.29.19-.58.37-.87.55-.4.25-.79.5-1.19.74-.29.18-.59.34-.88.5-.39.22-.78.44-1.17.65-.29.16-.59.3-.88.45-.38.19-.77.39-1.15.57-.29.14-.58.26-.87.39-.38.17-.75.33-1.12.48-.29.12-.57.22-.86.33-.37.14-.73.27-1.09.4-.28.1-.56.18-.84.27-.35.11-.71.21-1.06.31-.27.07-.55.14-.82.2-.34.08-.68.15-1.01.21-.27.05-.53.09-.79.13-.32.05-.64.09-.96.12-.26.03-.51.05-.76.06-.3.02-.6.02-.9.02-.25,0-.49,0-.73-.02-.28-.01-.56-.04-.83-.07-.23-.03-.46-.06-.69-.1-.11-.02-.22-.05-.33-.07-.86-4.16.6-9.83,3.78-15.78l-2.31-2.31c-4.14,7.42-5.84,14.65-4.27,19.86,0,0,0,0,0,0ZM81.27,130.66c.29.02.59.03.89.03.11,0,.22-.01.34-.01.25,0,.5-.02.76-.03.3-.02.6-.04.91-.07.27-.03.54-.06.81-.1.3-.04.6-.09.91-.14.29-.05.58-.11.88-.17.29-.06.59-.13.89-.2.32-.08.63-.16.95-.25.28-.08.57-.16.86-.25.34-.1.68-.21,1.02-.33.27-.09.55-.19.83-.29.36-.13.72-.27,1.09-.41.26-.11.53-.22.79-.33.38-.16.76-.33,1.14-.5.26-.12.51-.24.77-.37.39-.19.79-.38,1.18-.58.25-.13.5-.27.76-.4.4-.22.8-.43,1.2-.66.25-.14.5-.3.76-.45.4-.24.8-.48,1.21-.73.26-.16.52-.33.78-.5.4-.26.79-.51,1.18-.78.27-.19.55-.39.82-.58.38-.27.76-.53,1.13-.81.3-.22.59-.45.88-.68.35-.27.71-.54,1.06-.82.33-.26.65-.54.98-.81.31-.26.63-.52.94-.79.39-.34.77-.69,1.16-1.04.25-.22.49-.44.74-.66.63-.58,1.25-1.18,1.87-1.8.67-.67,1.32-1.36,1.96-2.04.21-.23.41-.46.62-.69.42-.46.83-.93,1.23-1.4.23-.27.46-.55.68-.83.36-.43.71-.87,1.05-1.3.23-.29.45-.59.67-.88.32-.42.64-.85.94-1.28.21-.3.43-.6.63-.9.3-.43.58-.86.86-1.29.19-.29.39-.59.57-.88.28-.45.55-.9.82-1.35.16-.27.33-.54.48-.82.3-.53.58-1.05.85-1.57.1-.19.21-.39.31-.58.36-.71.7-1.42,1.01-2.12.08-.19.15-.37.23-.56.22-.52.44-1.03.63-1.54.1-.26.19-.52.28-.78.15-.43.3-.86.44-1.28.09-.28.16-.55.24-.83.11-.4.22-.8.32-1.19.07-.28.13-.55.19-.82.08-.39.15-.77.22-1.15.04-.26.09-.53.12-.78.05-.39.09-.77.12-1.14.02-.24.04-.48.05-.72.02-.41.02-.8,0-1.2,0-.19,0-.39,0-.57,0-.04,0-.08,0-.12.24.18.46.37.66.58,5.84,5.84.19,21.36-12.34,33.89-6.3,6.3-13.41,11.02-20.01,13.27-6.22,2.13-11.15,1.79-13.88-.93-.21-.21-.4-.43-.58-.66.04,0,.09,0,.13,0ZM136.35,75.45c-5.35-5.35-13.71-6.95-23.56-4.51-3.9.97-7.86,2.54-11.75,4.61l2.33,2.33c6.25-3.22,12.45-4.93,17.9-4.93,5.16,0,9.65,1.52,12.85,4.73,4.54,4.54,5.84,11.84,3.68,20.58-2.23,9.01-7.86,18.38-15.85,26.37-10.85,10.85-23.81,16.9-34.09,16.9-5.16,0-9.65-1.52-12.85-4.73-6.91-6.91-6-19.79,1.15-32.55l-2.3-2.3c-2.57,4.45-4.48,9.02-5.59,13.51-2.44,9.84-.83,18.21,4.51,23.56,3.76,3.76,9.01,5.56,14.99,5.56,11.2,0,24.98-6.3,36.41-17.72,8.39-8.39,14.32-18.28,16.68-27.84,2.44-9.84.83-18.21-4.51-23.56Z"/><path class="cls-1" d="M100.12,114.07h-15.69c-.42,0-.82-.17-1.11-.46l-11.09-11.09c-.29-.29-.46-.69-.46-1.11v-15.69c0-.42.17-.82.46-1.11l11.09-11.09c.29-.29.7-.46,1.11-.46h15.69c.42,0,.82.17,1.11.46l11.09,11.09c.29.29.46.69.46,1.11v15.69c0,.42-.17.82-.46,1.11l-11.09,11.09c-.29.29-.7.46-1.11.46ZM85.08,110.93h14.39l10.17-10.17v-14.39l-10.17-10.17h-14.39l-10.17,10.17v14.39l10.17,10.17Z"/><path class="cls-1" d="M95.81,103.66h-7.07c-.42,0-.82-.17-1.11-.46l-5-5c-.29-.29-.46-.7-.46-1.11v-7.06c0-.42.17-.82.46-1.11l5-5c.29-.29.7-.46,1.11-.46h7.07c.42,0,.82.17,1.11.46l5,5c.29.29.46.69.46,1.11v7.06c0,.42-.17.82-.46,1.11l-5,5c-.29.29-.7.46-1.11.46ZM89.4,100.52h5.76l4.07-4.07v-5.76l-4.07-4.07h-5.76l-4.07,4.07v5.76l4.07,4.07Z"/><path class="cls-1" d="M88.75,86.61c-.62,0-1.2-.37-1.45-.97l-4.31-10.41c-.33-.8.05-1.72.85-2.05.8-.33,1.72.05,2.06.85l4.31,10.41c.33.8-.05,1.72-.85,2.05-.2.08-.4.12-.6.12Z"/><path class="cls-1" d="M83.75,91.6c-.2,0-.4-.04-.6-.12l-10.41-4.31c-.8-.33-1.18-1.25-.85-2.06.33-.8,1.25-1.18,2.06-.85l10.41,4.31c.8.33,1.18,1.25.85,2.06-.25.61-.84.97-1.45.97Z"/><path class="cls-1" d="M73.34,102.98c-.62,0-1.2-.37-1.45-.97-.33-.8.05-1.72.85-2.06l10.41-4.31c.81-.33,1.72.05,2.06.85.33.8-.05,1.72-.85,2.06l-10.41,4.31c-.2.08-.4.12-.6.12Z"/><path class="cls-1" d="M84.43,114.07c-.2,0-.4-.04-.6-.12-.8-.33-1.18-1.25-.85-2.06l4.31-10.41c.33-.8,1.25-1.18,2.06-.85.8.33,1.18,1.25.85,2.06l-4.31,10.41c-.25.61-.84.97-1.45.97Z"/><path class="cls-1" d="M100.12,114.07c-.62,0-1.2-.37-1.45-.97l-4.31-10.41c-.33-.8.05-1.72.85-2.06.8-.33,1.72.05,2.06.85l4.31,10.41c.33.8-.05,1.72-.85,2.06-.2.08-.4.12-.6.12Z"/><path class="cls-1" d="M111.22,102.98c-.2,0-.4-.04-.6-.12l-10.41-4.31c-.8-.33-1.18-1.25-.85-2.06.33-.8,1.25-1.18,2.06-.85l10.41,4.31c.8.33,1.18,1.25.85,2.06-.25.61-.84.97-1.45.97Z"/><path class="cls-1" d="M100.81,91.6c-.62,0-1.2-.37-1.45-.97-.33-.8.05-1.72.85-2.06l10.41-4.31c.8-.33,1.72.05,2.06.85.33.8-.05,1.72-.85,2.06l-10.41,4.31c-.2.08-.4.12-.6.12Z"/><path class="cls-1" d="M95.81,86.61c-.2,0-.4-.04-.6-.12-.8-.33-1.18-1.25-.85-2.05l4.31-10.41c.33-.8,1.25-1.18,2.06-.85.8.33,1.18,1.25.85,2.05l-4.31,10.41c-.25.61-.84.97-1.45.97Z"/><path class="cls-1" d="M88.35,97.02c-.87,0-1.57-.7-1.57-1.57v-3.3c0-.41.16-.79.44-1.09l2.16-2.26c.6-.63,1.59-.65,2.22-.05.63.6.65,1.6.05,2.22l-1.73,1.81v2.67c0,.87-.7,1.57-1.57,1.57Z"/><path class="cls-1" d="M106.77,49.72h-16.01c-.87,0-1.57-.7-1.57-1.57s.7-1.57,1.57-1.57h16.01c.87,0,1.57.7,1.57,1.57s-.7,1.57-1.57,1.57Z"/><path class="cls-1" d="M98.77,57.72c-.87,0-1.57-.7-1.57-1.57v-16.01c0-.87.7-1.57,1.57-1.57s1.57.7,1.57,1.57v16.01c0,.87-.7,1.57-1.57,1.57Z"/><path class="cls-1" d="M55.17,106.68h-12.53c-.87,0-1.57-.7-1.57-1.57s.7-1.57,1.57-1.57h12.53c.87,0,1.57.7,1.57,1.57s-.7,1.57-1.57,1.57Z"/><path class="cls-1" d="M48.91,112.94c-.87,0-1.57-.7-1.57-1.57v-12.53c0-.87.7-1.57,1.57-1.57s1.57.7,1.57,1.57v12.53c0,.87-.7,1.57-1.57,1.57Z"/><path class="cls-1" d="M60.66,81.57H21.09c-.42,0-.83-.17-1.12-.47l-10.92-11.14c-.29-.29-.45-.69-.45-1.1V20.41c0-.41.16-.81.45-1.1l10.92-11.14c.3-.3.7-.47,1.12-.47h39.57c.42,0,.83.17,1.12.47l10.92,11.14c.29.29.45.69.45,1.1v48.44c0,.41-.16.81-.45,1.1l-10.92,11.14c-.3.3-.7.47-1.12.47ZM21.76,78.42h38.25l10-10.21V21.05l-10-10.21H21.76l-10,10.21v47.15l10,10.21Z"/><path class="cls-1" d="M53.6,70.7h-25.45c-.42,0-.82-.17-1.11-.46l-7.02-6.99c-.3-.29-.46-.7-.46-1.11V27.13c0-.42.17-.82.46-1.11l7.02-6.99c.29-.29.69-.46,1.11-.46h25.45c.42,0,.82.17,1.11.46l7.02,6.99c.3.3.46.7.46,1.11v35.01c0,.42-.17.82-.46,1.11l-7.02,6.99c-.29.29-.69.46-1.11.46ZM28.8,67.55h24.15l6.1-6.07V27.78l-6.1-6.07h-24.15l-6.1,6.07v33.7l6.1,6.07Z"/><path class="cls-1" d="M28.16,21.71c-.52,0-1.02-.25-1.32-.72l-7.06-10.86c-.47-.73-.27-1.7.46-2.18.73-.47,1.7-.27,2.18.46l7.06,10.86c.47.73.27,1.7-.46,2.18-.26.17-.56.25-.85.25Z"/><path class="cls-1" d="M21.13,28.7c-.28,0-.56-.08-.82-.23l-10.96-6.71c-.74-.45-.97-1.42-.52-2.16.45-.74,1.42-.97,2.16-.52l10.96,6.71c.74.45.97,1.42.52,2.16-.3.48-.81.75-1.34.75Z"/><path class="cls-1" d="M10.18,70.42c-.53,0-1.05-.27-1.34-.75-.45-.74-.22-1.71.52-2.16l10.96-6.71c.74-.46,1.71-.22,2.16.52.45.74.22,1.71-.52,2.16l-10.96,6.71c-.26.16-.54.23-.82.23Z"/><path class="cls-1" d="M21.09,81.57c-.29,0-.59-.08-.85-.25-.73-.47-.94-1.45-.46-2.18l7.06-10.86c.47-.73,1.45-.94,2.18-.46.73.47.94,1.45.46,2.18l-7.06,10.86c-.3.46-.81.72-1.32.72Z"/><path class="cls-1" d="M60.66,81.57c-.52,0-1.02-.25-1.32-.72l-7.06-10.86c-.47-.73-.27-1.7.46-2.18.73-.47,1.7-.27,2.18.46l7.06,10.86c.47.73.27,1.7-.46,2.18-.26.17-.56.25-.85.25Z"/><path class="cls-1" d="M71.58,70.42c-.28,0-.56-.08-.82-.23l-10.96-6.71c-.74-.45-.97-1.42-.52-2.16.45-.74,1.42-.97,2.16-.52l10.96,6.71c.74.45.97,1.42.52,2.16-.3.48-.81.75-1.34.75Z"/><path class="cls-1" d="M60.62,28.7c-.53,0-1.05-.27-1.34-.75-.45-.74-.22-1.71.52-2.16l10.96-6.71c.74-.45,1.71-.22,2.16.52.45.74.22,1.71-.52,2.16l-10.96,6.71c-.26.16-.54.23-.82.23Z"/><path class="cls-1" d="M53.6,21.71c-.29,0-.59-.08-.85-.25-.73-.47-.94-1.45-.46-2.18l7.06-10.86c.47-.73,1.45-.94,2.18-.46.73.47.94,1.45.46,2.18l-7.06,10.86c-.3.46-.81.72-1.32.72Z"/></svg>