<?xml version="1.0" encoding="UTF-8"?><svg id="_レイヤー_1" xmlns="http://www.w3.org/2000/svg" viewBox="0 0 150 150"><defs><style>.cls-1{fill:#fff;stroke-width:0px;}</style></defs><path class="cls-1" d="M57.56,101.76c-.49,0-.95-.23-1.24-.61L6.86,37.04c-.5-.65-.42-1.57.18-2.12L29.03,14.77c.29-.27.67-.41,1.06-.41h54.96c.39,0,.77.15,1.06.41l21.98,20.15c.6.55.68,1.47.18,2.12l-49.46,64.12c-.3.39-.76.61-1.24.61ZM10.23,36.26l47.33,61.36,47.33-61.36-20.47-18.76H30.7l-20.47,18.76Z"/><path class="cls-1" d="M57.56,47.72h-20.61c-.18,0-.35-.03-.52-.09l-28.85-10.08c-.82-.29-1.25-1.18-.97-2,.29-.82,1.18-1.25,2-.97l28.6,9.99h20.34c.87,0,1.57.7,1.57,1.57s-.7,1.57-1.57,1.57Z"/><path class="cls-1" d="M36.96,47.72c-.1,0-.19,0-.29-.03-.61-.12-1.1-.59-1.24-1.2l-6.87-30.23c-.19-.85.34-1.69,1.18-1.88.85-.19,1.69.34,1.88,1.18l6.07,26.71,18.58-27.25c.49-.72,1.47-.9,2.18-.41.72.49.9,1.47.41,2.18l-20.61,30.23c-.3.43-.79.69-1.3.69Z"/><path class="cls-1" d="M57.56,101.76c-.63,0-1.23-.39-1.47-1.01l-20.61-54.04c-.31-.81.1-1.72.91-2.03.81-.31,1.72.1,2.03.91l20.61,54.04c.31.81-.1,1.72-.91,2.03-.19.07-.37.1-.56.1Z"/><path class="cls-1" d="M78.17,47.72h-20.61c-.87,0-1.57-.7-1.57-1.57s.7-1.57,1.57-1.57h20.34l28.6-9.99c.82-.29,1.72.15,2,.97.29.82-.15,1.72-.97,2l-28.85,10.08c-.17.06-.34.09-.52.09Z"/><path class="cls-1" d="M78.17,47.72c-.51,0-1-.25-1.3-.69l-20.61-30.23c-.49-.72-.3-1.69.41-2.18.72-.49,1.7-.3,2.18.41l18.58,27.25,6.07-26.71c.19-.85,1.04-1.38,1.88-1.18.85.19,1.38,1.03,1.18,1.88l-6.87,30.23c-.14.61-.63,1.08-1.24,1.2-.1.02-.2.03-.29.03Z"/><path class="cls-1" d="M57.56,101.76c-.19,0-.38-.03-.56-.1-.81-.31-1.22-1.22-.91-2.03l20.61-54.04c.31-.81,1.22-1.22,2.03-.91.81.31,1.22,1.22.91,2.03l-20.61,54.04c-.24.63-.84,1.01-1.47,1.01Z"/><path class="cls-1" d="M124.9,17.8h-15.99c-.87,0-1.57-.7-1.57-1.57s.7-1.57,1.57-1.57h15.99c.87,0,1.57.7,1.57,1.57s-.7,1.57-1.57,1.57Z"/><path class="cls-1" d="M116.91,25.79c-.87,0-1.57-.7-1.57-1.57v-15.99c0-.87.7-1.57,1.57-1.57s1.57.7,1.57,1.57v15.99c0,.87-.7,1.57-1.57,1.57Z"/><path class="cls-1" d="M34.32,104.2h-12.51c-.87,0-1.57-.7-1.57-1.57s.7-1.57,1.57-1.57h12.51c.87,0,1.57.7,1.57,1.57s-.7,1.57-1.57,1.57Z"/><path class="cls-1" d="M28.07,110.46c-.87,0-1.57-.7-1.57-1.57v-12.51c0-.87.7-1.57,1.57-1.57s1.57.7,1.57,1.57v12.51c0,.87-.7,1.57-1.57,1.57Z"/><path class="cls-1" d="M124.24,145.6h-35.31c-.56,0-1.08-.3-1.36-.79l-17.66-30.58c-.28-.49-.28-1.09,0-1.57l17.66-30.58c.28-.49.8-.79,1.36-.79h35.31c.56,0,1.08.3,1.36.79l17.66,30.58c.28.49.28,1.09,0,1.57l-17.66,30.58c-.28.49-.8.79-1.36.79ZM89.83,142.46h33.5l16.75-29.01-16.75-29.01h-33.5l-16.75,29.01,16.75,29.01Z"/><path class="cls-1" d="M88.93,145.6c-.27,0-.54-.07-.79-.21-.49-.28-.79-.8-.79-1.36v-61.16c0-.56.3-1.08.79-1.36s1.09-.28,1.57,0l52.97,30.58c.49.28.79.8.79,1.36s-.3,1.08-.79,1.36l-52.97,30.58c-.24.14-.51.21-.79.21ZM90.5,85.59v55.72l48.25-27.86-48.25-27.86Z"/><path class="cls-1" d="M124.24,145.6c-.27,0-.54-.07-.79-.21l-52.97-30.58c-.49-.28-.79-.8-.79-1.36s.3-1.08.79-1.36l52.97-30.58c.49-.28,1.09-.28,1.57,0s.79.8.79,1.36v61.16c0,.56-.3,1.08-.79,1.36-.24.14-.51.21-.79.21ZM74.41,113.45l48.25,27.86v-55.72l-48.25,27.86Z"/></svg>