<?xml version="1.0" encoding="UTF-8"?><svg id="_レイヤー_1" xmlns="http://www.w3.org/2000/svg" viewBox="0 0 150 150"><defs><style>.cls-1{fill:#fff;stroke-width:0px;}</style></defs><path class="cls-1" d="M48.99,27.01h-16.01c-.87,0-1.57-.7-1.57-1.57s.7-1.57,1.57-1.57h16.01c.87,0,1.57.7,1.57,1.57s-.7,1.57-1.57,1.57Z"/><path class="cls-1" d="M40.98,35.01c-.87,0-1.57-.7-1.57-1.57v-16c0-.87.7-1.57,1.57-1.57s1.57.7,1.57,1.57v16c0,.87-.7,1.57-1.57,1.57Z"/><path class="cls-1" d="M138.75,73.53h-12.53c-.87,0-1.57-.7-1.57-1.57s.7-1.57,1.57-1.57h12.53c.87,0,1.57.7,1.57,1.57s-.7,1.57-1.57,1.57Z"/><path class="cls-1" d="M132.49,79.79c-.87,0-1.57-.7-1.57-1.57v-12.53c0-.87.7-1.57,1.57-1.57s1.57.7,1.57,1.57v12.53c0,.87-.7,1.57-1.57,1.57Z"/><path class="cls-1" d="M74.92,15.72c-2.83,0-5.14-2.31-5.14-5.14s2.31-5.14,5.14-5.14,5.14,2.31,5.14,5.14-2.31,5.14-5.14,5.14ZM74.92,8.58c-1.1,0-1.99.89-1.99,1.99s.89,2,1.99,2,2-.89,2-2-.9-1.99-2-1.99Z"/><path class="cls-1" d="M76.66,15.61c0-.36-.02-.72,0-1.08.04-.87-.63-1.6-1.5-1.64-.9-.04-1.6.64-1.64,1.5-.02.53-.03,1.06-.02,1.59-1.97.86-3.36,2.82-3.36,5.11,0,2.9,2.22,5.28,5.05,5.54.17.02.34.03.52.03.92,0,1.78-.23,2.54-.62,1.8-.93,3.03-2.79,3.03-4.95,0-2.75-2-5.03-4.62-5.48ZM75.71,23.51c-.51,0-.98-.16-1.37-.43-.64-.44-1.06-1.17-1.06-2,0-.54.18-1.03.48-1.43.44-.6,1.15-.99,1.94-.99.41,0,.8.11,1.14.3.76.41,1.28,1.2,1.28,2.13,0,.64-.25,1.22-.66,1.65-.44.47-1.07.77-1.76.77Z"/><path class="cls-1" d="M79.28,26.61c-.29,0-.57.03-.85.07-.06-.21-.12-.42-.17-.63-.76.39-1.63.62-2.54.62-.17,0-.35-.01-.52-.03.12.43.24.85.37,1.27-1.37,1.09-2.26,2.78-2.26,4.67,0,3.29,2.68,5.97,5.97,5.97.33,0,.65-.03.96-.08,1.05-.17,2-.61,2.8-1.25,1.35-1.1,2.22-2.77,2.22-4.64,0-3.29-2.68-5.97-5.97-5.97ZM79.28,35.4c-.27,0-.54-.05-.79-.13-1.17-.34-2.04-1.42-2.04-2.7,0-.45.11-.86.3-1.24.46-.94,1.41-1.59,2.53-1.59.05,0,.1.01.16.02,1.48.08,2.67,1.3,2.67,2.81,0,.69-.26,1.31-.67,1.8-.52.62-1.29,1.02-2.16,1.02Z"/><path class="cls-1" d="M86.88,37.04c-1.23,0-2.38.36-3.35.96-.17-.26-.33-.52-.5-.79-.79.64-1.75,1.08-2.8,1.25.36.61.74,1.2,1.13,1.78-.54.93-.85,2.01-.85,3.16,0,3.51,2.86,6.37,6.37,6.37.99,0,1.93-.24,2.77-.64,1.01-.49,1.88-1.24,2.5-2.16.69-1.02,1.09-2.24,1.09-3.56,0-3.51-2.86-6.37-6.37-6.37ZM86.88,46.62c-.06,0-.12-.02-.19-.02-1.69-.1-3.03-1.49-3.03-3.2,0-.02,0-.04,0-.07.02-1.21.72-2.24,1.72-2.77.45-.24.95-.38,1.49-.38,1.78,0,3.22,1.44,3.22,3.22,0,.59-.17,1.14-.45,1.62-.56.95-1.58,1.6-2.77,1.6Z"/><path class="cls-1" d="M99,44.79c-2.34,0-4.41,1.17-5.66,2.95-.4-.25-.79-.51-1.18-.78-.63.93-1.49,1.67-2.5,2.16.81.61,1.64,1.18,2.48,1.7-.04.29-.06.59-.06.89,0,3.82,3.1,6.92,6.92,6.92,2.61,0,4.89-1.45,6.06-3.59.51-.92.81-1.98.84-3.1,0-.08.01-.15.01-.23,0-3.82-3.1-6.92-6.92-6.92ZM102.77,51.71c0,1.13-.51,2.13-1.29,2.82-.67.59-1.53.96-2.48.96-1.81,0-3.32-1.28-3.69-2.98-.06-.26-.09-.52-.09-.8,0-.93.35-1.77.91-2.42.69-.82,1.72-1.35,2.87-1.35,2.02,0,3.66,1.6,3.76,3.59,0,.06.02.12.02.18Z"/><path class="cls-1" d="M145.25,10.58c0-2.83-2.31-5.14-5.14-5.14s-5.14,2.31-5.14,5.14c0,2.22,1.42,4.1,3.4,4.82,0,.07,0,.14,0,.21.17-.03.35-.03.53-.05.39.1.8.16,1.22.16.16,0,.32-.03.48-.05.32.08.64.18.94.31,0-.16,0-.32,0-.48,2.14-.62,3.73-2.58,3.73-4.92ZM140.11,12.57c-1.1,0-2-.89-2-2s.9-1.99,2-1.99,1.99.89,1.99,1.99-.89,2-1.99,2Z"/><path class="cls-1" d="M141.53,15.98c-.68-.29-1.43-.46-2.21-.46-.33,0-.64.03-.95.09-2.62.45-4.62,2.74-4.62,5.48,0,2.15,1.23,4.02,3.03,4.95-.06.21-.11.43-.17.63,1.07.15,2.05.59,2.86,1.23.13-.42.26-.85.37-1.27,2.83-.26,5.05-2.65,5.05-5.54,0-2.29-1.38-4.25-3.36-5.11ZM140.68,23.09c-.39.27-.86.43-1.37.43-.7,0-1.32-.3-1.76-.77-.41-.43-.66-1.01-.66-1.65,0-.92.52-1.71,1.28-2.12.34-.19.73-.3,1.14-.3.8,0,1.5.39,1.94.99.3.4.48.9.48,1.43,0,.83-.42,1.56-1.06,2Z"/><path class="cls-1" d="M139.46,27.91c-.81-.64-1.79-1.08-2.86-1.23-.28-.04-.56-.07-.85-.07-3.29,0-5.97,2.68-5.97,5.97,0,1.87.87,3.54,2.22,4.64-.17.27-.33.53-.5.79.89.56,1.64,1.33,2.17,2.24.39-.58.76-1.18,1.13-1.78.31.05.63.08.96.08,3.29,0,5.97-2.68,5.97-5.97,0-1.89-.89-3.57-2.26-4.67ZM136.53,35.27c-.25.07-.51.13-.79.13-.87,0-1.64-.4-2.16-1.02-.41-.49-.67-1.11-.67-1.8,0-1.5,1.18-2.72,2.67-2.81.05,0,.1-.02.16-.02,1.11,0,2.06.65,2.53,1.59.18.38.3.79.3,1.24,0,1.28-.86,2.36-2.04,2.7Z"/><path class="cls-1" d="M133.66,40.24c-.53-.91-1.27-1.68-2.17-2.24-.97-.61-2.12-.96-3.35-.96-3.51,0-6.36,2.86-6.36,6.37,0,1.32.4,2.54,1.09,3.56-.39.27-.78.53-1.18.78.63.9,1.05,1.95,1.2,3.08.85-.52,1.67-1.09,2.48-1.7.84.41,1.78.64,2.77.64,3.51,0,6.37-2.86,6.37-6.37,0-1.15-.31-2.23-.85-3.16ZM128.33,46.6c-.06,0-.12.02-.19.02-1.18,0-2.21-.65-2.77-1.6-.28-.48-.45-1.03-.45-1.62,0-1.78,1.44-3.22,3.22-3.22.54,0,1.05.15,1.49.39,1,.53,1.69,1.56,1.72,2.77,0,.02,0,.04,0,.07,0,1.71-1.34,3.1-3.03,3.2Z"/><path class="cls-1" d="M122.89,50.83c-.15-1.14-.57-2.19-1.2-3.08-1.25-1.78-3.32-2.95-5.66-2.95-3.82,0-6.92,3.1-6.92,6.92,0,.08,0,.15.01.23-.54.04-1.08.06-1.61.06s-1.07-.02-1.61-.06c-.04,1.12-.33,2.17-.84,3.1.81.07,1.63.11,2.45.11s1.64-.04,2.45-.11c1.18,2.14,3.45,3.59,6.06,3.59,3.82,0,6.92-3.1,6.92-6.92,0-.3-.03-.6-.06-.89ZM116.03,55.49c-.96,0-1.82-.37-2.48-.96-.79-.69-1.29-1.69-1.29-2.82,0-.06.02-.12.02-.18.1-2,1.74-3.59,3.76-3.59,1.15,0,2.18.53,2.87,1.35.56.66.91,1.5.91,2.42,0,.27-.03.54-.09.8-.37,1.7-1.88,2.98-3.69,2.98Z"/><path class="cls-1" d="M110.79,141.32c-.08,0-.16,0-.24-.02-.86-.13-1.44-.94-1.31-1.8.13-.86,3.31-21.14,3.6-22.72.39-2.13,1.59-3.02,1.82-3.18.1-.06.2-.12.31-.16l20.25-7.75c.81-.31,1.72.09,2.03.91.31.81-.09,1.72-.91,2.03l-19.98,7.65c-.1.13-.32.46-.43,1.07-.28,1.54-3.55,22.44-3.58,22.65-.12.78-.79,1.33-1.55,1.33Z"/><path class="cls-1" d="M34.51,75.75c-14.43,0-29.76-4.06-29.76-11.59v-7.7c0-7.53,15.33-11.59,29.76-11.59s29.76,4.06,29.76,11.59v7.7c0,7.53-15.33,11.59-29.76,11.59ZM34.51,48.01c-15.23,0-26.61,4.46-26.61,8.44v7.7c0,3.99,11.38,8.44,26.61,8.44s26.61-4.46,26.61-8.44v-7.7c0-3.99-11.38-8.44-26.61-8.44Z"/><path class="cls-1" d="M6.33,56.45c0-5.53,12.62-10.01,28.18-10.01s28.18,4.48,28.18,10.01v3.93c1.01-1.18,1.57-2.49,1.57-3.93,0-7.53-15.33-11.59-29.76-11.59s-29.76,4.06-29.76,11.59c0,1.44.56,2.75,1.57,3.93v-3.93Z"/><path class="cls-1" d="M34.51,68.04c11.67,0,23.92-2.66,28.18-7.65v-3.93c0-5.53-12.62-10.01-28.18-10.01s-28.18,4.48-28.18,10.01v3.93c4.26,5,16.52,7.65,28.18,7.65ZM34.51,48.01c15.23,0,26.61,4.46,26.61,8.44s-11.38,8.44-26.61,8.44-26.61-4.46-26.61-8.44,11.38-8.44,26.61-8.44Z"/><path class="cls-1" d="M15.42,57.96c-.6,0-1.18-.35-1.44-.94-.35-.79,0-1.72.8-2.07,5.04-2.23,12.23-3.5,19.72-3.5s14.68,1.28,19.72,3.5c.79.35,1.15,1.28.8,2.07-.35.79-1.28,1.15-2.08.8-4.65-2.06-11.37-3.24-18.45-3.24s-13.8,1.18-18.45,3.24c-.21.09-.42.13-.64.13Z"/><path class="cls-1" d="M15.42,54.82c-.6,0-1.18.35-1.44.94-.35.79,0,1.72.8,2.07,5.04,2.23,12.23,3.5,19.72,3.5s14.68-1.28,19.72-3.5c.79-.35,1.15-1.28.8-2.07-.35-.79-1.28-1.15-2.08-.8-4.65,2.06-11.37,3.24-18.45,3.24s-13.8-1.18-18.45-3.24c-.21-.09-.42-.13-.64-.13Z"/><path class="cls-1" d="M143.76,123.71c-1.16-4.53-3.44-13.47-3.71-14.85-.6-3.01-2.61-4.34-3.75-4.67l-23.39-5.69c-1.01.73-2.13,1.54-3.36,2.42l25.92,6.31c.21.08,1.15.55,1.49,2.24.36,1.8,3.61,14.48,3.76,15.04.1.38.2,1.32-.94,1.92-1.93,1.02-18.45,8.42-27.05,12.24-.32.06-1.46.25-2.87-.03-1.24-.35-16.85-6.65-34.07-13.65-1.01.72-2.02,1.44-3.04,2.16,17,6.92,35.35,14.34,36.43,14.56.83.17,1.59.22,2.24.22,1.25,0,2.09-.21,2.22-.25.08-.02.15-.05.23-.08,1.01-.45,24.86-11.06,27.38-12.4,2.83-1.5,2.87-4.3,2.51-5.51Z"/><path class="cls-1" d="M113.76,116.98c.16.05.32.07.48.07.67,0,1.29-.43,1.5-1.1.26-.83-.2-1.71-1.02-1.97l-16.22-5.14c-1.04.74-2.11,1.51-3.2,2.28l18.47,5.86Z"/><path class="cls-1" d="M119.37,90.07c-.62-1.22-6.12-12-7.45-13.85-1.32-1.84-2.42-2.33-3.08-2.43-5.21-1.3-18.65-4.68-19.85-5.05-2.46-.76-4.36.32-4.54.42L18.26,106.65c-.12.07-.24.16-.34.26-1.76,1.76-1.58,3.5-1.44,4.12.14,1.14,1.5,12.33,1.71,14.25.22,1.97,1.38,2.76,1.63,2.91,2.53,1.49,24.78,14.55,26.23,15.27.41.2.86.29,1.33.29,1.89,0,4.06-1.43,5.03-2.14,6.65-4.71,13.58-9.63,20.36-14.45,1.02-.72,2.03-1.44,3.04-2.16,6.9-4.9,13.55-9.64,19.49-13.88,1.09-.78,2.16-1.54,3.2-2.28,4.19-2.99,7.94-5.68,11.06-7.92,1.22-.88,2.34-1.69,3.36-2.42,3.71-2.69,5.96-4.35,6.13-4.55,1.31-1.57.47-3.58.34-3.87ZM108.89,97.53c-1.05.75-2.17,1.56-3.37,2.42-3.17,2.27-6.85,4.9-10.79,7.71-1.05.75-2.12,1.51-3.2,2.28-6.19,4.41-12.86,9.16-19.19,13.66-1.02.73-2.04,1.45-3.04,2.16-7.35,5.22-14.05,9.97-18.75,13.31-1.1.81-2.6,1.55-3.14,1.55,0,0-.01,0-.02,0-1.45-.77-16.14-9.36-25.87-15.08-.05-.06-.16-.24-.2-.6-.23-2.03-1.66-13.87-1.72-14.37-.01-.1-.04-.21-.07-.31,0,0,0-.42.49-.98l66-37.37s.92-.5,2.05-.15c1.53.47,19.35,4.93,20.11,5.12.03,0,.05.01.08.02.11.07.51.34,1.11,1.17.9,1.25,4.8,8.72,7.16,13.36.04.08.1.36.09.47-.71.56-3.55,2.62-7.73,5.62Z"/><path class="cls-1" d="M111.18,75.73c-.46-.73-1.44-.95-2.17-.48l-25.38,16.13-3.68,2.34-9.7,6.17-3.46,2.2-18.28,11.62-2.68,1.71-5.17,3.28-19.87-10.49c-.77-.41-1.72-.11-2.13.66-.41.77-.11,1.72.66,2.13l20.68,10.91c.23.12.48.18.73.18.29,0,.59-.08.84-.25l7.1-4.51,3.25-2.07,18.77-11.93,3.46-2.2,10.03-6.37,3.68-2.34,22.83-14.51c.73-.47.95-1.44.48-2.17Z"/><path class="cls-1" d="M47.61,142.33c-.66,0-1.28-.42-1.49-1.08-1.96-5.94-5.23-15.7-5.66-16.59-.63-1.26-1.2-3.51-1.27-3.76-.21-.84.3-1.7,1.14-1.91.84-.21,1.7.3,1.91,1.14.15.59.62,2.31,1.03,3.12.6,1.19,4.96,14.38,5.83,17.01.27.83-.18,1.71-1,1.99-.16.05-.33.08-.49.08Z"/><line class="cls-1" x1="73.24" y1="85.4" x2="80.06" y2="87.63"/><path class="cls-1" d="M80.06,89.2c-.16,0-.33-.03-.49-.08l-6.82-2.23c-.83-.27-1.28-1.16-1.01-1.98.27-.83,1.16-1.28,1.98-1.01l6.82,2.23c.83.27,1.28,1.16,1.01,1.98-.22.66-.83,1.09-1.5,1.09Z"/><line class="cls-1" x1="81.42" y1="81.1" x2="86.09" y2="82.46"/><path class="cls-1" d="M86.09,84.03c-.15,0-.29-.02-.44-.06l-4.67-1.36c-.83-.24-1.31-1.12-1.07-1.95.24-.83,1.12-1.31,1.95-1.07l4.67,1.36c.83.24,1.31,1.12,1.07,1.95-.2.69-.83,1.13-1.51,1.13Z"/><line class="cls-1" x1="54.07" y1="96.82" x2="59.96" y2="99.55"/><path class="cls-1" d="M59.96,101.12c-.22,0-.45-.05-.66-.15l-5.89-2.73c-.79-.37-1.13-1.3-.77-2.09.37-.79,1.3-1.13,2.09-.77l5.89,2.73c.79.37,1.13,1.3.77,2.09-.27.57-.83.91-1.43.91Z"/><line class="cls-1" x1="46.75" y1="100.48" x2="53.35" y2="103.85"/><path class="cls-1" d="M53.35,105.43c-.24,0-.49-.06-.71-.17l-6.61-3.37c-.77-.4-1.08-1.34-.69-2.12.4-.77,1.35-1.08,2.12-.69l6.61,3.37c.77.4,1.08,1.34.69,2.12-.28.54-.83.86-1.4.86Z"/></svg>