<svg width="20" height="18" fill="none" xmlns="http://www.w3.org/2000/svg"><path d="M5.66 7.228c.196 0 .39-.035.57-.104.181-.068.345-.167.484-.293.138-.126.248-.275.323-.44.075-.164.113-.34.113-.518L7.69.728H5.32L4.18 5.873c0 .358.156.7.433.955.277.253.654.397 1.047.4zM9.85 7.228c.393-.003.77-.147 1.047-.4.277-.254.433-.597.433-.955L11 .728H8.66l-.29 5.145c0 .358.156.7.433.955.277.253.654.397 1.047.4zM14 7.228c.393-.003.77-.147 1.047-.4.277-.254.433-.597.433-.955L14.38.728H12l.54 5.145c0 .355.153.695.426.948.273.254.644.4 1.034.407z" fill="#DE1122"/><path d="M17.73.728h-2.37l1.38 5.145a1.26 1.26 0 00.31.832c.203.237.488.405.81.477v8.782h-2.24v-5.1h-5v5.1H1.84V7.182c.329-.064.624-.23.835-.468.21-.238.326-.535.325-.841L4.34.728H2L0 5.873c0 .212.055.42.16.61.103.189.254.353.44.48v10.128h18.49V6.964c.189-.126.342-.29.448-.48.106-.189.162-.398.162-.611L17.73.728z" fill="#DE1122"/><path d="M7.69 9.445H3.83v3.51h3.86v-3.51z" fill="#DE1122"/></svg>