<svg width="10" height="18" fill="none" xmlns="http://www.w3.org/2000/svg"><path d="M4.71 7.346a3.849 3.849 0 001.992-.555A3.35 3.35 0 008.02 5.325c.27-.597.34-1.253.2-1.885a3.185 3.185 0 00-.985-1.669 3.715 3.715 0 00-1.838-.89 3.924 3.924 0 00-2.073.187 3.538 3.538 0 00-1.61 1.202 3.057 3.057 0 00-.604 1.812c0 .43.093.854.274 1.251.181.397.447.757.781 1.06.334.303.731.543 1.168.707.437.163.905.247 1.377.246zM4.71 8.091a4.964 4.964 0 00-2.896.696C.96 9.307.322 10.07 0 10.955v4.69c-.001.203.042.403.126.59.084.187.209.357.366.5.157.143.344.256.55.332.205.077.426.116.648.115h6c.221 0 .44-.04.645-.117.205-.078.39-.19.547-.334.156-.142.28-.312.363-.498.084-.186.126-.386.125-.587v-4.691c-.319-.88-.95-1.637-1.792-2.155A4.949 4.949 0 004.71 8.09z" fill="#DE1122"/></svg>