<svg width="18" height="26" viewBox="0 0 18 26" fill="none" xmlns="http://www.w3.org/2000/svg">
<path d="M8.99997 5.53732e-06C7.8177 -0.00128842 6.64681 0.224208 5.55428 0.663573C4.46174 1.10294 3.46901 1.74755 2.63302 2.56049C1.79703 3.37344 1.13415 4.33875 0.682331 5.40116C0.23051 6.46357 -0.00132494 7.60222 5.69562e-06 8.7519C5.69562e-06 13.6687 2.51796 14.7307 5.28875 18.0151C7.25772 20.294 8.5419 23.057 8.99997 26C9.45714 23.0586 10.7376 20.2962 12.7011 18.0151C15.482 14.7307 18 13.6785 18 8.7519C18 6.43075 17.0518 4.20467 15.364 2.56338C13.6761 0.922078 11.3869 5.53732e-06 8.99997 5.53732e-06ZM8.99997 11.8003C8.3831 11.8022 7.77954 11.626 7.2658 11.294C6.75206 10.9619 6.35126 10.489 6.11427 9.93516C5.87728 9.38133 5.81474 8.77154 5.9346 8.18311C6.05446 7.59467 6.35133 7.0541 6.78752 6.62993C7.22372 6.20576 7.77962 5.9171 8.38474 5.80055C8.98985 5.684 9.6169 5.74481 10.1864 5.97527C10.756 6.20573 11.2423 6.59545 11.5838 7.09503C11.9253 7.59461 12.1065 8.18153 12.1045 8.78139C12.0965 9.57694 11.7659 10.3373 11.1845 10.897C10.6032 11.4568 9.81811 11.7708 8.99997 11.7708V11.8003Z" fill="black"/>
</svg>
