<svg width="36" height="29" fill="none" xmlns="http://www.w3.org/2000/svg"><path d="M11.021 11.52c.347 0 .69-.063 1.01-.183.321-.12.612-.298.857-.52.246-.224.44-.488.573-.78.133-.29.2-.603.2-.918L14.62 0h-4.2l-2.02 9.119c0 .634.275 1.242.767 1.692.491.45 1.158.704 1.855.708zM18.448 11.52a2.778 2.778 0 001.856-.71c.492-.45.767-1.057.767-1.691L20.486 0H16.34l-.514 9.119c0 .634.276 1.242.768 1.692.491.45 1.158.704 1.855.708zM25.8 11.52a2.777 2.777 0 001.857-.71c.49-.45.767-1.057.767-1.691L26.474 0h-4.218l.957 9.119c0 .628.271 1.232.755 1.68a2.773 2.773 0 001.833.72z" fill="#DE1122"/><path d="M32.412 0h-4.2l2.445 9.119a2.233 2.233 0 00.549 1.474c.36.42.866.719 1.436.846v15.563h-3.97v-9.038h-8.86v9.038H4.251V11.44a2.656 2.656 0 001.479-.83c.374-.422.577-.948.576-1.49L8.682 0H4.535L.99 9.119c.002.375.098.744.283 1.08.184.335.451.627.78.853V29h32.769V11.052c.334-.222.606-.513.794-.85.188-.335.286-.706.287-1.083L32.412 0z" fill="#DE1122"/><path d="M14.618 15.45h-6.84v6.218h6.84V15.45z" fill="#DE1122"/></svg>