<svg width="40" height="23" fill="none" xmlns="http://www.w3.org/2000/svg"><path d="M38.277 12.166a19.991 19.991 0 00-7.216-8.761A19.847 19.847 0 0019.921 0c-2.746 0-5.37.558-7.753 1.566a19.988 19.988 0 00-8.764 7.216A19.847 19.847 0 00.026 20.947h6.24v-2.052H2.94A16.927 16.927 0 017.187 8.639l2.353 2.353L10.99 9.54l-2.35-2.351a16.905 16.905 0 0110.254-4.247v3.325h2.052V2.94a16.934 16.934 0 0110.258 4.248L28.852 9.54l1.45 1.452 2.353-2.351a16.91 16.91 0 014.247 10.254h-3.326v2.052h6.238a19.869 19.869 0 00-1.537-8.78z" fill="#DE1122"/><path d="M25.63 7.102c-.11-.049-.246.005-.321.128l-5.866 9.655A3.077 3.077 0 0019.922 23c1.7 0 3.078-1.378 3.078-3.078 0-.575-.16-1.111-.436-1.572l3.188-10.925c.04-.138-.011-.275-.121-.323zm-5.708 14.36a1.539 1.539 0 11-.001-3.078 1.539 1.539 0 010 3.077z" fill="#DE1122"/></svg>