<svg width="33" height="33" fill="none" xmlns="http://www.w3.org/2000/svg"><path d="M14.046 20.406h5.389a1.96 1.96 0 100-3.92h-7.838c-4.9 0-6.452 2.042-8.167 3.756L.318 22.96a.928.928 0 00-.318.698v9.033c0 .121.07.23.18.28.11.05.239.033.33-.046l6.015-5.155a.93.93 0 01.768-.208l9.372 1.703c.654.12 1.327-.03 1.87-.414 0 0 11.963-8.317 12.844-9.053.843-.773.833-1.894.06-2.735-.773-.844-2.215-.664-3.176.048-.882.735-6.902 4.69-6.902 4.69h-7.315l-.023.012a.699.699 0 01.046-1.395l-.023-.012zM22.885 0c-1.784 0-3.34.954-4.2 2.375 2.753 1.01 4.727 3.65 4.727 6.75 0 .229-.014.454-.035.678A4.914 4.914 0 0022.885 0zM16.217 3.51a5.615 5.615 0 100 11.23 5.615 5.615 0 000-11.23zm2.232 5.154H16.91l-.165.258v.615h1.703v.874h-1.703v1.32h-1.058v-1.32h-1.704v-.874h1.704v-.614l-.165-.259h-1.539v-.745h1.058l-.899-1.4h.897l1.176 1.832 1.178-1.832h.896l-.898 1.4h1.057v.745z" fill="#DE1122"/></svg>