<svg id="レイヤー_1" data-name="レイヤー 1" xmlns="http://www.w3.org/2000/svg" xmlns:xlink="http://www.w3.org/1999/xlink" viewBox="0 0 70.95 70.95"><defs><style>.cls-1{fill:none;}.cls-2{fill:#fff;}.cls-3{clip-path:url(#clip-path);}.cls-4{fill:#a8bbcc;}.cls-5{fill:#0c4066;}</style><clipPath id="clip-path"><rect class="cls-1" width="70.95" height="70.95"/></clipPath></defs><g id="レイヤー_2" data-name="レイヤー 2"><g id="レイヤー_2-2" data-name="レイヤー 2-2"><rect class="cls-2" width="70.95" height="70.95"/><g class="cls-3"><g id="男性"><g id="塗り"><path id="肌" class="cls-2" d="M27.75,12s-2.48,4.83-4.4,6.83a33.14,33.14,0,0,1-2.69,2.61l-.2,5.8V28s-1.63-.84-2.14-.69a3.1,3.1,0,0,0-1.69,1.24,2.82,2.82,0,0,0-.45,2.2A5.35,5.35,0,0,0,17,33.38c.56.62.56.88,1.23,1.34a5.77,5.77,0,0,0,1.78.82c.41.11,1,.31,1,.31a19.81,19.81,0,0,0,1.84,3.93c.66.69,2,2,2,2l2,1.83a11.65,11.65,0,0,1-.65,2.92c-.49,1.09-.7,2.17-1.76,2.8s-1.63,1-1.63,1,.63,2.62,1.33,3.19.67,3.06,2,3.66a27.14,27.14,0,0,0,5.52,1.56,21.15,21.15,0,0,0,6.92,0c1.86-.52,5.41-1.08,6.68-2.06s2.63-5.46,2.63-5.46l.3-1a3.4,3.4,0,0,1-1.95-1.37c-.62-1.07-.83-.57-1.2-2.12A17.8,17.8,0,0,0,43.8,43.5s1.11-.88,1.87-1.53a21.38,21.38,0,0,0,3.17-4.22c.24-.71.83-2,.83-2A22.82,22.82,0,0,0,51.92,35a6.73,6.73,0,0,0,2.41-2.12,11.12,11.12,0,0,0,.43-2.81,4.34,4.34,0,0,0-1.15-2.16,3.2,3.2,0,0,0-2.12-.39,3.35,3.35,0,0,0-1.38.79l.08-6.07a10.63,10.63,0,0,1-4-1,58.08,58.08,0,0,1-6.13-5.39c0-.08-1.92-1.2-1.92-1.2l-.79.14a3.71,3.71,0,0,0,.35,2.1A8.39,8.39,0,0,0,39.08,19s-1.11.27-3-1.8-2.94-3.84-4.24-4.33A30.18,30.18,0,0,0,27.75,12Z"/><path id="インナー" class="cls-2" d="M25.57,57l9.58,22.29.75.07,9.51-22.57-1.76.66a25,25,0,0,1-6.17,1.35,29.66,29.66,0,0,1-5.73-.16,30.92,30.92,0,0,1-5.18-1.3Z"/><path id="カーディガン" class="cls-4" d="M67.35,93.44l-.73-12.63-1.3-15.35s-.3-6.34-3.38-8.7-10.51-5.19-10.51-5.19l-3-1a10.48,10.48,0,0,1-1,1.49,11.91,11.91,0,0,1-1.9,4.29,4.31,4.31,0,0,1-.56.57c-.32.92-.67,1.83-1,2.76-.53,1.62-1,3.24-1.65,4.83s-1.32,3.21-2,4.8c-1.45,3.19-3,6.33-4.42,9.54a.12.12,0,0,1-.15.07,2.73,2.73,0,0,1-1.25-1,10.93,10.93,0,0,1-1-1.84c-.5-1.14-.9-2.32-1.37-3.47C31.35,70.8,30.67,69,30,67.11c-1.24-3.42-2.45-6.86-4-10.17l-.1-.09a6.81,6.81,0,0,1-1.47-2.57c-.34-.87-.63-1.77-1-2.63-.58-.71-1.06-1.35-1.06-1.35S15.8,53.1,13.63,54s-3.53,1.16-5.09,3.33S6,60.09,5.89,64a88.43,88.43,0,0,1-.95,8.89L4,83.06,3.42,95.91l-.36,9.29H67.91Z"/></g><g id="アウトライン"><path class="cls-5" d="M14,91.77l-.08-3.58h0l-.08-3.3c-.09-4.14-.19-8.41-.29-12.62v-.45a3.35,3.35,0,0,0-.05-.95A27.92,27.92,0,0,0,12.2,67a1.83,1.83,0,0,0-.28-.44.64.64,0,0,0-.48-.22.55.55,0,0,0-.67.66,2.15,2.15,0,0,0,.15.51v.1c.07.2.14.39.22.58a12.43,12.43,0,0,1,1,4.15c.15,7.88.33,15.88.51,23.62.07,3,.14,5.88.21,8.91,0,.52.1,1,.71,1h0a.64.64,0,0,0,.49-.18,1.22,1.22,0,0,0,.21-.83C14.21,100.48,14.11,96.14,14,91.77Z"/><path class="cls-5" d="M59.78,66.41a.62.62,0,0,0-.27,0,.64.64,0,0,0-.48.22,1.79,1.79,0,0,0-.27.44,25,25,0,0,0-1.31,3.85,3.77,3.77,0,0,0-.06,1,3.38,3.38,0,0,1,0,.45c-.1,4.21-.2,8.48-.29,12.62L57,88.19h0l-.09,3.58c-.1,4.37-.2,8-.3,12.42a1.14,1.14,0,0,0,.2.82.71.71,0,0,0,.5.19h0c.61,0,.71-.48.72-1,.07-3,.13-5.15.2-8.18.18-7.74.36-15.74.51-23.62a12.93,12.93,0,0,1,1-4.15l.21-.58v-.1a2.13,2.13,0,0,0,.14-.51A.62.62,0,0,0,59.78,66.41Z"/><path class="cls-5" d="M68.59,104.19c-.08-2.2-.14-3.57-.3-5.77C68,94.6,68,90.77,67.84,87c-.24-4.74-.49-9.48-1-14.18h0c-.25-2.38-.53-4.75-.82-7.11a22.91,22.91,0,0,0-.46-3.41c-1-3.45-2.76-6.3-6.13-7.9C56.63,53,53.78,52,51,50.9a14.22,14.22,0,0,1-3.72-2l-.12-.09c-.11-.11-.21-.23-.31-.35a11.1,11.1,0,0,1-2-5,4.92,4.92,0,0,1-1.3.74c.07.34.15.67.23,1A11.17,11.17,0,0,0,46,49.68a2.41,2.41,0,0,0,.63.56c.23.17.48.33.74.49l-.06.15-.09.25c-.71,1.65-1.42,3.29-2.12,4.94a19.92,19.92,0,0,1-9.62,2.37A20,20,0,0,1,26,56.16l-2.2-5.11a1.43,1.43,0,0,1-.08-.22h0a4.77,4.77,0,0,0,1-.79,2.57,2.57,0,0,0,.33-.33,12.06,12.06,0,0,0,2.51-5.58,6.81,6.81,0,0,1-.74-.31,4.3,4.3,0,0,1-.6-.32,10.35,10.35,0,0,1-2.08,5.09,1.07,1.07,0,0,0-.19.18,3.12,3.12,0,0,1-1,.72c-2.91,1.65-6.12,2.61-9.19,3.88-2.91,1.21-5.54,2.73-7,5.72a12.48,12.48,0,0,0-1.37,3.79c-.23,1.95-.43,3.9-.68,5.84Q3.6,77.81,3.11,87c-.2,3.82-.17,7.65-.45,11.47-.16,2.2-.22,4.33-.3,6.54,0,.5.14,1,.76,1s.68-.5.69-1v-1.88c.13-2.61.31-5.21.41-7.82.18-4.7.27-9.41.64-14.1.47-5.72,1.14-11.35,1.81-17A11.2,11.2,0,0,1,9.4,57.74a12.48,12.48,0,0,1,5.13-3.15c.92-.35,1.86-.67,2.77-1.06,1.29-.57,2.7-1.06,4-1.61l.87-.35.36-.15c0,.09.09.19.13.29v.11C26.57,60.75,30.53,70,34.42,79.07a1.15,1.15,0,0,0,1.07.86h0a1.13,1.13,0,0,0,1.07-.8c3.87-9,7.77-18.09,11.55-26.86l.4-.93c.59.28,1.1.49,1.31.58,2.09.9,4.25,1.61,6.36,2.46A17.54,17.54,0,0,1,59,55.7a11.52,11.52,0,0,1,3.61,3.51,12.32,12.32,0,0,1,1.62,5c.63,5.64,1.34,11.27,1.78,16.93.37,4.69.46,9.4.65,14.1.1,2.61.27,4.37.4,7v2c0,.47.11,1,.69,1S68.61,104.7,68.59,104.19ZM35.87,77.55l-.34.81c-.06-.11-.1-.19-.14-.28q-4.29-10-8.57-20a18.53,18.53,0,0,0,4.44,1.29,24,24,0,0,0,3.79.3h.82a24,24,0,0,0,3.79-.3A19,19,0,0,0,44.25,58q-3.8,8.84-7.57,17.66C36.41,76.3,36.15,76.91,35.87,77.55Z"/><path class="cls-5" d="M39.26,37a.51.51,0,0,0-.37-.15,1,1,0,0,0-.46.15l-.28.16h0a9.71,9.71,0,0,1-1.63.77,3.12,3.12,0,0,1-2.09,0,9.71,9.71,0,0,1-1.63-.77h0L32.49,37a1,1,0,0,0-.47-.15.56.56,0,0,0-.37.15.35.35,0,0,0-.14.28.62.62,0,0,0,.25.44,5.61,5.61,0,0,0,2.71,1.4,4.82,4.82,0,0,0,.85.11h.28a4.83,4.83,0,0,0,.84-.11,5.61,5.61,0,0,0,2.71-1.4.62.62,0,0,0,.25-.44A.35.35,0,0,0,39.26,37Z"/><path class="cls-5" d="M35.52,40H35.3a.8.8,0,0,0-.6.15.48.48,0,0,0-.11.34c0,.43.44.43.62.43h.41c.18,0,.6,0,.65-.41a.39.39,0,0,0-.09-.33A.87.87,0,0,0,35.52,40Z"/><path class="cls-5" d="M34.71,34.28a2.26,2.26,0,0,0,.52,0h.18a1.47,1.47,0,0,0,.51-.08c.25-.1.37-.23.33-.37a.53.53,0,0,0-.21-.21h0l-.28-.15-.2-.08a.92.92,0,0,1-.23-.09A1,1,0,0,1,35,33a.56.56,0,0,1-.1-.28,1,1,0,0,1,.14-.44c.07-.14.13-.29.2-.46a1.19,1.19,0,0,0,.13-.94.45.45,0,0,0-.4-.27c-.18,0-.26.13-.33.24l-.28.46-.22.38L34,32l-.14.28h0a2,2,0,0,0-.24.59,1.08,1.08,0,0,0,.27.89A1.53,1.53,0,0,0,34.71,34.28Z"/><path class="cls-5" d="M42.36,27.4a1.35,1.35,0,0,0-1.13.53h0l-.17.48h0a1.3,1.3,0,0,0,1.29,1.22h0a1.79,1.79,0,0,0,1-.34h0a1.25,1.25,0,0,0,.12-1.3A1.34,1.34,0,0,0,42.36,27.4Z"/><path class="cls-5" d="M29.76,27.93a1.47,1.47,0,0,0-2.07-.19,1.42,1.42,0,0,0-.24.25,1.25,1.25,0,0,0,.12,1.3h0a1.79,1.79,0,0,0,1,.34h0a1.32,1.32,0,0,0,1.29-1.22h0l-.17-.48Z"/><path class="cls-5" d="M29.46,24.07a6.73,6.73,0,0,0-1-.07,4.48,4.48,0,0,0-1.88.37.93.93,0,0,0-.56.47.59.59,0,0,0,.56.81,1,1,0,0,0,.46-.11,4,4,0,0,1,1.61-.25h.75c.43,0,.65-.15.72-.49a.57.57,0,0,0-.08-.46A.9.9,0,0,0,29.46,24.07Z"/><path class="cls-5" d="M44.32,24.38a4.72,4.72,0,0,0-2-.38h-.26a5.42,5.42,0,0,0-.57,0c-.64.09-.9.33-.84.76s.28.51.74.51h.9a3.37,3.37,0,0,1,1.47.27,1.34,1.34,0,0,0,.44.1.59.59,0,0,0,.56-.4C45,24.89,44.81,24.61,44.32,24.38Z"/><path class="cls-5" d="M53.91,27.45a6.31,6.31,0,0,0,.8-1.6,8.75,8.75,0,0,0,.4-4c-.22-2-.93-4-1.34-6l-.05-.22A17.61,17.61,0,0,0,44.21,3.7C41,2.1,35.56,1.15,32.34,3.42l-.11.08h0l-.48.28a.23.23,0,0,1-.2,0c-4.28-1.41-9,2-11.43,5.42A21.11,21.11,0,0,0,17,16.1c-1,3.64-2.18,7.43-.28,11a2,2,0,0,0,.24.39,3.64,3.64,0,0,0-.88,1.34,14.55,14.55,0,0,0-.42,1.57V31a2.37,2.37,0,0,0,.09.36,5.86,5.86,0,0,0,4.5,4.82,1.16,1.16,0,0,1,.87.81,17.35,17.35,0,0,0,5.82,7.28c2.43,1.88,5.32,2.7,8.17,3.61a1.57,1.57,0,0,0,.91,0c.91-.31,1.84-.59,2.75-.91A17.71,17.71,0,0,0,50,36.75a.74.74,0,0,1,.56-.48c2.6-.75,4.2-2.17,4.67-4.8A4,4,0,0,0,53.91,27.45Zm-1.19,6.22a4,4,0,0,1-2.32,1.24c-1,.1-1.1,0-1.46,1a16.16,16.16,0,0,1-5.81,7.42,21.69,21.69,0,0,1-7.45,3.22,1,1,0,0,1-.49,0,23.42,23.42,0,0,1-5.27-1.92,16.34,16.34,0,0,1-8-8.91c-.32-.89-.36-.88-1.29-.76h-.24A4.47,4.47,0,0,1,17,30.46a3.31,3.31,0,0,1,.64-1.82,1.6,1.6,0,0,1,1.8-.48c.63.22.72.72.68,1.31,0,.27,0,.55,0,.82,0,.45.08.9.62.91s.64-.44.64-.89V28.24h0a13.19,13.19,0,0,1,.05-1.4c.06-1.67.11-3.35.13-5a20.56,20.56,0,0,0,6-6.6l.08-.13a8.2,8.2,0,0,0,.46-.82h0c.24-.37.47-.75.69-1.13A.25.25,0,0,1,28.9,13a3.12,3.12,0,0,1,1.29.06c1.94.49,3.09,2.41,4.28,3.89a7.82,7.82,0,0,0,2.2,2,8.94,8.94,0,0,0,3.33.8,3.11,3.11,0,0,0,.61,0,3.33,3.33,0,0,1-.25-.28c-.24-.27-.45-.58-.66-.87a9.46,9.46,0,0,1-1.41-2.42,1.12,1.12,0,0,1-.12-.35.74.74,0,0,1,0-.21.11.11,0,0,1,0-.08.24.24,0,0,1,0-.12l.11.06a.15.15,0,0,1,.15.1,5.18,5.18,0,0,1,.74.74,27.11,27.11,0,0,0,4.58,4.18,13.22,13.22,0,0,0,5.45,2.59.24.24,0,0,1,.19.24v6.74a1,1,0,0,0,.2.8.39.39,0,0,0,.19.12.57.57,0,0,0,.42.19.61.61,0,0,0,.63-.64c0-.38,0-.84,0-1.26,0-.83.37-1.22,1.19-1.24a1.6,1.6,0,0,1,1.53,1A4,4,0,0,1,52.72,33.67Z"/></g></g></g></g></g></svg>