<svg width="12" height="13" fill="none" xmlns="http://www.w3.org/2000/svg"><path d="M11.531 10.164c-.491-.468-2.067-1.423-2.465-1.552-.398-.13-.923.22-1.1.695-.179.475-.429.407-.429.407s-.945-.444-2.577-2.38C3.328 5.398 3.052 4.391 3.052 4.391s-.025-.258.473-.353c.498-.095.932-.553.872-.966-.06-.414-.734-2.13-1.112-2.693C2.907-.184 2.063.015 1.871.13 1.68.246-.33 1.29.047 3.57c.38 2.28 1.454 4.171 2.69 5.637 1.234 1.466 2.916 2.846 5.1 3.606 2.182.76 3.553-1.044 3.699-1.214.146-.17.486-.967-.005-1.436z" fill="#DE1122"/></svg>