<svg width="95" height="53" viewBox="0 0 95 53" fill="none" xmlns="http://www.w3.org/2000/svg">
<path d="M4.1 39.54H6.74V40.455H4.1V39.54ZM4.1 37.395H6.74V38.28H4.1V37.395ZM11.345 37.395V38.28H8.585V37.395H11.345ZM11.345 40.455H8.585V39.54H11.345V40.455ZM13.16 41.79V36.06H8.585V35.205H14.36V33.54H8.585V32.31H6.74V33.54H1.1V35.205H6.74V36.06H2.375V41.79H5.405C4.16 42.975 2.39 44.04 0.680001 44.625C1.07 44.985 1.625 45.69 1.91 46.125C3.635 45.39 5.405 44.175 6.74 42.735V46.305H8.585V42.66C9.95 44.13 11.75 45.42 13.505 46.155C13.79 45.69 14.36 44.97 14.78 44.61C13.04 44.025 11.21 42.96 9.935 41.79H13.16ZM19.76 35.835H16.22V37.62H19.76V41.25C18.245 41.79 16.715 42.315 15.695 42.615L16.49 44.445C17.465 44.04 18.62 43.56 19.76 43.065V46.14H21.635V32.535H19.76V35.835ZM26 44.25C25.46 44.25 25.37 44.145 25.37 43.305V38.925C26.84 38.16 28.415 37.275 29.735 36.375L28.445 34.77C27.62 35.475 26.51 36.315 25.37 37.05V32.55H23.525V43.275C23.525 45.39 24.02 46.005 25.73 46.005H27.74C29.42 46.005 29.855 44.91 30.035 42.045C29.54 41.925 28.76 41.58 28.325 41.235C28.22 43.65 28.13 44.25 27.56 44.25H26ZM39.005 42.645V36.525H42.17C42.605 36.525 43.13 36.555 43.58 36.585V34.53C43.145 34.575 42.62 34.62 42.17 34.62H34.01C33.59 34.62 32.975 34.59 32.585 34.53V36.585C32.96 36.555 33.605 36.525 34.01 36.525H36.905V42.645H33.095C32.63 42.645 32.09 42.615 31.625 42.525V44.7C32.12 44.64 32.645 44.625 33.095 44.625H42.98C43.325 44.625 43.955 44.64 44.375 44.7V42.525C44 42.585 43.52 42.645 42.98 42.645H39.005ZM48.575 33.495C48.62 33.825 48.635 34.35 48.635 34.635V39.69C48.635 40.14 48.575 40.725 48.56 41.01H50.78C50.75 40.665 50.735 40.08 50.735 39.705V34.635C50.735 34.155 50.75 33.825 50.78 33.495H48.575ZM55.475 33.36C55.535 33.78 55.565 34.26 55.565 34.86V37.71C55.565 40.05 55.37 41.175 54.35 42.3C53.435 43.275 52.175 43.845 50.675 44.19L52.25 45.84C53.345 45.495 54.905 44.76 55.895 43.665C57.005 42.435 57.635 41.055 57.635 37.83V34.86C57.635 34.26 57.665 33.78 57.695 33.36H55.475ZM66.83 36.87C66.905 37.35 66.935 37.755 66.935 38.22C66.935 40.68 66.575 42.27 64.67 43.59C64.115 43.995 63.575 44.25 63.095 44.415L64.835 45.84C68.93 43.65 69.005 40.59 69.005 36.87H66.83ZM73.925 33.735C73.655 33.825 72.83 33.87 72.41 33.87H64.325C63.695 33.87 63.065 33.81 62.495 33.72V35.805C63.2 35.745 63.695 35.7 64.325 35.7H72.14C71.75 36.435 70.58 37.755 69.38 38.49L70.925 39.735C72.41 38.685 73.835 36.795 74.54 35.625C74.675 35.4 74.96 35.04 75.125 34.845L73.925 33.735Z" fill="#323232"/>
<path d="M38 5.53732e-06C36.8177 -0.00128842 35.6468 0.224208 34.5543 0.663573C33.4617 1.10294 32.469 1.74755 31.633 2.56049C30.797 3.37344 30.1342 4.33875 29.6823 5.40116C29.2305 6.46357 28.9987 7.60222 29 8.7519C29 13.6687 31.518 14.7307 34.2888 18.0151C36.2577 20.294 37.5419 23.057 38 26C38.4571 23.0586 39.7376 20.2962 41.7011 18.0151C44.482 14.7307 47 13.6785 47 8.7519C47 6.43075 46.0518 4.20467 44.364 2.56338C42.6761 0.922078 40.3869 5.53732e-06 38 5.53732e-06ZM38 11.8003C37.3831 11.8022 36.7795 11.626 36.2658 11.294C35.7521 10.9619 35.3513 10.489 35.1143 9.93516C34.8773 9.38133 34.8147 8.77154 34.9346 8.18311C35.0545 7.59467 35.3513 7.0541 35.7875 6.62993C36.2237 6.20576 36.7796 5.9171 37.3847 5.80055C37.9899 5.684 38.6169 5.74481 39.1864 5.97527C39.756 6.20573 40.2423 6.59545 40.5838 7.09503C40.9253 7.59461 41.1065 8.18153 41.1045 8.78139C41.0965 9.57694 40.7659 10.3373 40.1845 10.897C39.6032 11.4568 38.8181 11.7708 38 11.7708V11.8003Z" fill="black"/>
<path d="M55 10L94 10" stroke="#D21518" stroke-width="2" stroke-miterlimit="16" stroke-linecap="round" stroke-linejoin="round" stroke-dasharray="0.1 4"/>
</svg>
