<svg width="29" height="26" fill="none" xmlns="http://www.w3.org/2000/svg"><g clip-path="url(#clip0)" fill="#fff"><path d="M26.42 18.05a10 10 0 002.58-6.6 9.619 9.619 0 00-1.15-4.54 12.58 12.58 0 00-5.2-5A16.78 16.78 0 0014.79 0a16.06 16.06 0 00-10 3.28 11.74 11.74 0 00-3.06 3.63 9.63 9.63 0 00-1.16 4.54 9.8 9.8 0 001.84 5.65 12.689 12.689 0 003.92 3.56L3.95 26l1.72-.19a60.992 60.992 0 0014.36-3.71 14.229 14.229 0 006.39-4.05zm-7.08 2.19A61.797 61.797 0 017.19 23.6l1.71-3.82-.84-.43a11.09 11.09 0 01-4-3.39 7.87 7.87 0 01-1.49-4.51 7.68 7.68 0 01.93-3.6 10.48 10.48 0 014.38-4.2A14.72 14.72 0 0114.79 2a14.07 14.07 0 018.78 2.83 9.898 9.898 0 012.58 3 7.67 7.67 0 01.92 3.6 8 8 0 01-2.1 5.29 12.168 12.168 0 01-5.55 3.49l-.08.03z"/><path d="M9.18 10.19a1.55 1.55 0 101.54 1.54 1.54 1.54 0 00-1.54-1.54zM15.13 10.19a1.55 1.55 0 101.55 1.54 1.539 1.539 0 00-1.55-1.54zM21.09 10.19a1.55 1.55 0 10-.02 3.1 1.55 1.55 0 00.02-3.1z"/></g><defs><clipPath id="clip0"><path fill="#fff" transform="translate(.57)" d="M0 0h28.43v26H0z"/></clipPath></defs></svg>