<svg width="27" height="28" fill="none" xmlns="http://www.w3.org/2000/svg"><path d="M17.93 25.7h3V2.2h-3v23.5zm3.63 1.25h-4.22a.61.61 0 01-.62-.62V1.57a.609.609 0 01.62-.62h4.24a.61.61 0 01.63.62v24.76a.64.64 0 01-.65.62M8.17 12.45a.611.611 0 01-.63-.62V7.52H5.09v4.29a.63.63 0 01-1.25 0V6.95a.61.61 0 01.62-.63h3.71a.61.61 0 01.62.63v4.91a.63.63 0 01-.62.64" fill="#fff"/><path d="M8.58 12.45H4.05a.629.629 0 01-.495-1.097.63.63 0 01.496-.153h4.53a.63.63 0 110 1.25zM15.09 12.45h-4.53a.629.629 0 01-.495-1.097.63.63 0 01.496-.153h4.53a.63.63 0 110 1.25z" fill="#fff"/><path d="M14.68 12.45a.612.612 0 01-.63-.62V7.52H11.6v4.29a.63.63 0 01-1.25 0V6.95a.61.61 0 01.58-.68h3.71a.61.61 0 01.62.63v4.91a.631.631 0 01-.62.64M9.58 26.95a.582.582 0 01-.65-.55v-7.91a.58.58 0 01.65-.54.591.591 0 01.63.55v7.91a.6.6 0 01-.63.55" fill="#fff"/><path d="M2.36 25.7H16.8V2.2H2.36v23.5zm15 1.25H1.74a.609.609 0 01-.62-.62V1.57a.61.61 0 01.62-.62h15.68a.61.61 0 01.63.62v24.76a.64.64 0 01-.65.62" fill="#fff"/><path d="M23.64 26.95H.55a.63.63 0 010-1.25h23.09a.63.63 0 110 1.25M25.72 26.949c-.039.01-.08.01-.12 0a.327.327 0 01-.13 0l-.1-.06-.11-.09a.599.599 0 01-.18-.43.27.27 0 010-.13.28.28 0 010-.12c.019-.038.039-.075.06-.11a.27.27 0 01.09-.1l.1-.09.1-.06h.13a.61.61 0 01.64.27l.07.11v.24a.55.55 0 01-.19.44.61.61 0 01-.48.23M1.28 3.55h20.65V2.2H1.28v1.35zM22.56 4.8H.66a.62.62 0 01-.63-.63v-2.6A.61.61 0 01.66.95h21.9a.61.61 0 01.62.62v2.6a.64.64 0 01-.62.63" fill="#fff"/><path d="M18.4 4.8a.61.61 0 01-.62-.63v-2.6a.62.62 0 011.24 0v2.6a.64.64 0 01-.62.63zM15.09 17.95v8.39a.611.611 0 01-.62.62h-9.8a.609.609 0 01-.62-.62v-8.39H5.3v7.76h8.55v-7.76h1.24z" fill="#fff"/><path d="M8.6 18.57H7.36a.632.632 0 01-.653-.885.63.63 0 01.654-.365H8.6a.61.61 0 01.63.63.63.63 0 01-.63.63M11.72 18.57h-1.24a.632.632 0 01-.709-.625.63.63 0 01.71-.625h1.24a.608.608 0 01.63.62.63.63 0 01-.63.63zM14.84 18.57H13.6a.632.632 0 01-.708-.625.63.63 0 01.709-.625h1.24a.608.608 0 01.63.62.63.63 0 01-.63.63zM5.48 18.57H4.24a.632.632 0 01-.653-.885.63.63 0 01.654-.365h1.24a.608.608 0 01.63.62.63.63 0 01-.63.63z" fill="#fff"/><path d="M17.4 18.57h-.41a.632.632 0 01-.652-.885.63.63 0 01.653-.366h.41a.42.42 0 00.42-.42v-1.66H1.32v1.71a.42.42 0 00.42.42h.42a.63.63 0 010 1.25h-.42a1.66 1.66 0 01-1.66-1.67v-2.33a.61.61 0 01.62-.67h17.76a.618.618 0 01.63.63v2.37a1.682 1.682 0 01-1.69 1.67" fill="#fff"/></svg>