<svg width="25" height="26" fill="none" xmlns="http://www.w3.org/2000/svg"><g clip-path="url(#clip0)"><path d="M3.544 17.89a.56.56 0 01.55-.43h3.49a.56.56 0 01.56.56v4.91l3.51 1.46a6.6 6.6 0 004.83.06l6.74-2.57a.592.592 0 00.33-.33.57.57 0 000-.48.63.63 0 00-.32-.34.58.58 0 00-.45 0l-3.65 1.55a2.71 2.71 0 01-1.05.22h-5.26a.56.56 0 110-1.12h5.36a.52.52 0 00.4-.51.53.53 0 00-.52-.54h-3.39a3.19 3.19 0 01-1.43-.33 9.21 9.21 0 00-4.12-1h-.21a.57.57 0 010-1.13h.23c1.6.023 3.172.41 4.6 1.13a2 2 0 00.93.22h3.39a1.65 1.65 0 011.65 1.62l2.64-1.12a1.68 1.68 0 011.32 0 1.71 1.71 0 01.94 1 1.76 1.76 0 010 1.35 1.68 1.68 0 01-1 .91l-6.7 2.51a7.66 7.66 0 01-5.65-.06l-3.12-1.28a.56.56 0 01-.56.54h-3.49a.57.57 0 01-.55-.44h-2.07a.56.56 0 010-1.12h2.06v-.31a.56.56 0 011.12 0v.75h2.37v-5h-2.37v2.49a.56.56 0 01-1.12 0V19h-2.06a.57.57 0 010-1.13l2.07.02zm20.73-14.41a.589.589 0 010 .13v10.48a.55.55 0 01-.39.53l-9.6 3.06a.65.65 0 01-.34 0l-9.6-3.06a.55.55 0 01-.39-.53V3.61a.56.56 0 01.39-.53L13.964 0a.5.5 0 01.34 0l9.61 3.08.12.06.11.08c.043.051.077.109.1.17l.03.09zm-10.14 2.6l1.5-.47-7.72-2.47-2.82.86v9.66l8.48 2.7V15a.56.56 0 011.12 0v1.42l8.48-2.7V4.38l-2 .64V8.1a.57.57 0 01-.39.54l-.8.25a.47.47 0 01-.17 0 .56.56 0 01-.53-.39.561.561 0 01.36-.71l.41-.13V5.38l-2 .64v2.31l.29-.09a.561.561 0 11.34 1.07l-1 .32a.45.45 0 01-.16 0 .56.56 0 01-.61-.53V6.37l-2.23.71v6.14a.56.56 0 01-1.12 0V7.08l-7-2.24a.56.56 0 01.128-1.096.57.57 0 01.222.026l7.25 2.31h-.03zm-6.11 5.27a.56.56 0 00-.56.56v1.31a.56.56 0 001.12 0v-1.31a.56.56 0 00-.56-.56zm-1.75-.44a.56.56 0 00-.56.56v1.31a.56.56 0 001.12 0v-1.31a.56.56 0 00-.56-.56zm3.45-8.36L17.484 5l1.27-.41-7.75-2.45-1.28.41zm3.13-1L20.604 4l1.31-.39-7.78-2.46-1.28.4z" fill="#fff"/></g><defs><clipPath id="clip0"><path fill="#fff" transform="translate(.914)" d="M0 0h23.82v26H0z"/></clipPath></defs></svg>