<svg width="29" height="26" fill="none" xmlns="http://www.w3.org/2000/svg"><g clip-path="url(#clip0)" fill="#fff"><path d="M11.907 10.84a.56.56 0 01-.56-.56v-.69a.561.561 0 111.11 0v.69a.56.56 0 01-.55.56zM7.717 10.84a.56.56 0 01-.55-.56v-.69a.56.56 0 111.11 0v.69a.56.56 0 01-.56.56z"/><path d="M16.507 16.92h-3.44l-1-.72a.56.56 0 00-.57 0V16a5.24 5.24 0 003.58-5V7.94a.56.56 0 00-.55-.56h-.51a3.68 3.68 0 01-3.49-2.59.55.55 0 00-.53-.4h-.36a.56.56 0 00-.54.4 3.66 3.66 0 01-3.48 2.59h-.51a.56.56 0 00-.56.56V11a5.25 5.25 0 003.59 5v.13a.56.56 0 00-.57 0l-1 .74h-3.45a1.62 1.62 0 01-.37-3.2.55.55 0 00.42-.54V7.75a6.64 6.64 0 1113.28 0v5.43a.56.56 0 00.43.54 1.62 1.62 0 01-.37 3.2zm-5.23 2.29l-.67-.66 1.18-1.17.5.36-1.01 1.47zm-.48-4.14a.56.56 0 00-.43.54v1.6l-.56.55-.55-.55v-1.6a.56.56 0 00-.43-.54 4.13 4.13 0 01-3.16-4V8.49A4.75 4.75 0 009.807 6a4.8 4.8 0 001.34 1.56 4.68 4.68 0 002.81 1V11a4.13 4.13 0 01-3.16 4v.07zm-2.42 4.14l-1-1.47.5-.36 1.18 1.17-.68.66zm10.9-3.91a2.73 2.73 0 00-1.68-2.53v-5a7.76 7.76 0 00-15.51 0v5A2.74 2.74 0 003.117 18a3.2 3.2 0 00-.74 2.15v5.29a.56.56 0 00.56.56h4.4a.56.56 0 00.517-.772.55.55 0 00-.517-.338h-3.89v-4.74a2.1 2.1 0 012.1-2.15h.64l1.62 2.35a.52.52 0 00.41.24.51.51 0 00.39-.16l.6-.59v1.84a.56.56 0 001.11 0v-1.8l.6.59a.509.509 0 00.39.16.52.52 0 00.41-.24l1.72-2.39h.64a2.1 2.1 0 012.1 2.11v4.74h-3.8a.552.552 0 00-.56.55.56.56 0 00.56.6h4.4a.56.56 0 00.56-.56v-5.29a3.2 3.2 0 00-.83-2.15 2.74 2.74 0 002.74-2.74"/><path d="M27.377 24.89h-7.27a.461.461 0 01-.46-.47V22a3 3 0 001.78.69V23a.56.56 0 101.11 0v-.31h2.38V23a.56.56 0 101.11 0v-.32a3 3 0 001.79-.68v2.39a.47.47 0 01-.46.47l.02.03zm-7.73-6.28a.46.46 0 01.46-.46h7.27a.47.47 0 01.46.46v1a2 2 0 01-1.79 1.94v-.4a.56.56 0 00-1.11 0v.41h-2.4v-.36a.56.56 0 00-1.11 0v.4a1.94 1.94 0 01-1.78-1.94v-1.05zm3.24-2.21h2v.64h-2v-.64zm4.47.64h-1.34v-1.16a.56.56 0 00-.56-.56h-3.08a.552.552 0 00-.55.56v1.19h-1.72a1.57 1.57 0 00-1.58 1.57v5.78a1.58 1.58 0 001.58 1.58h7.27a1.57 1.57 0 001.57-1.58v-5.78a1.57 1.57 0 00-1.57-1.57M9.817 26a.57.57 0 01-.53-.39.56.56 0 01.83-.61.58.58 0 01.25.58.56.56 0 01-.55.45"/></g><defs><clipPath id="clip0"><path fill="#fff" transform="translate(.377)" d="M0 0h28.55v26H0z"/></clipPath></defs></svg>