<?xml version="1.0" encoding="UTF-8" standalone="no"?><!DOCTYPE svg PUBLIC "-//W3C//DTD SVG 1.1//EN" "http://www.w3.org/Graphics/SVG/1.1/DTD/svg11.dtd"><svg width="100%" height="100%" viewBox="0 0 70 80" version="1.1" xmlns="http://www.w3.org/2000/svg" xmlns:xlink="http://www.w3.org/1999/xlink" xml:space="preserve" xmlns:serif="http://www.serif.com/" style="fill-rule:evenodd;clip-rule:evenodd;stroke-linejoin:round;stroke-miterlimit:2;"><g><path d="M6.822,5.926l0,-5.926l-5.926,5.926l5.926,0Z" style="fill:#78a2a7;"/><path d="M6.822,0l63.131,0l0,79.91l-30.637,-5.836l-32.494,5.926l0,-80Z" style="fill:#29c0a2;"/><g transform="matrix(1,0,0,1,-202.729,-1064.63)"><g transform="matrix(20,0,0,20,221.056,1100.19)"><path d="M0.763,-0.054l-0.355,0l0,-0.136l0.355,0l0,0.136Zm-0.131,-0.549l-0.121,0l0,0.308l-0.219,0l0,0.382l0.116,0l0,-0.037l0.355,0l0,0.036l0.122,0l0,-0.381l-0.253,0l0,-0.109l0.312,0l0,-0.105l-0.312,0l0,-0.094Zm-0.039,-0.128l0,-0.115l-0.124,0l0,0.115l-0.356,0l0,0.252c0,0.144 -0.007,0.354 -0.089,0.497c0.028,0.013 0.081,0.047 0.103,0.067c0.09,-0.156 0.105,-0.403 0.105,-0.564l0,-0.139l0.725,0l0,-0.113l-0.364,0Z" style="fill:#fff;fill-rule:nonzero;"/></g><g transform="matrix(20,0,0,20,241.056,1100.19)"><path d="M0.323,-0.153l0,0.09l-0.138,0l0,-0.09l0.138,0Zm-0.241,0.238l0.103,0l0,-0.051l0.138,0l0,0.031l0.107,0l0,-0.314l-0.348,0l0,0.334Zm0.758,-0.533l0,0.064l-0.083,0l0,-0.064l0.083,0Zm-0.083,0.225l0,-0.065l0.083,0l0,0.065l-0.083,0Zm-0.183,0l0,-0.065l0.077,0l0,0.065l-0.077,0Zm0.077,-0.225l0,0.064l-0.077,0l0,-0.064l0.077,0Zm0.306,-0.166l0,-0.102l-0.059,0l0.052,-0.043c-0.023,-0.027 -0.072,-0.064 -0.11,-0.087l-0.07,0.052c0.032,0.022 0.069,0.052 0.094,0.078l-0.107,0l0,-0.131l-0.106,0l0,0.131l-0.198,0l0,0.04c-0.037,-0.053 -0.106,-0.122 -0.164,-0.17l-0.101,0c-0.033,0.074 -0.09,0.165 -0.172,0.234c0.023,0.015 0.055,0.051 0.073,0.075l0,0.079l0.112,0l0,0.068l-0.145,0l0,0.096l0.39,0l0,-0.096l-0.137,0l0,-0.068l0.115,0l0,-0.091l-0.115,0l0,-0.085l-0.108,0l0,0.085l-0.092,0c0.065,-0.063 0.112,-0.131 0.148,-0.19c0.05,0.049 0.102,0.118 0.129,0.163l0.067,-0.084l0,0.046l0.198,0l0,0.066l-0.18,0l0,0.631l0.103,0l0,-0.211l0.077,0l0,0.206l0.106,0l0,-0.206l0.083,0l0,0.099c0,0.009 -0.003,0.012 -0.012,0.012c-0.008,0.001 -0.033,0.001 -0.057,0c0.014,0.027 0.027,0.072 0.03,0.101c0.048,0 0.082,-0.003 0.109,-0.02c0.028,-0.018 0.034,-0.045 0.034,-0.091l0,-0.521l-0.187,0l0,-0.066l0.2,0Z" style="fill:#fff;fill-rule:nonzero;"/></g><g transform="matrix(20,0,0,20,221.056,1124.19)"><path d="M0.783,-0.648l-0.126,0l0,-0.069l0.126,0l0,0.069Zm-0.225,0l-0.121,0l0,-0.069l0.121,0l0,0.069Zm-0.22,0l-0.12,0l0,-0.069l0.12,0l0,0.069Zm0.56,-0.158l-0.79,0l0,0.246l0.79,0l0,-0.246Zm-0.616,0.601l0.438,0l0,0.05l-0.438,0l0,-0.05Zm0,-0.12l0.438,0l0,0.05l-0.438,0l0,-0.05Zm0,-0.119l0.438,0l0,0.049l-0.438,0l0,-0.049Zm0.563,0.364l0,-0.439l-0.683,0l0,0.439l0.154,0c-0.071,0.034 -0.18,0.066 -0.278,0.084c0.025,0.02 0.068,0.063 0.088,0.087c0.104,-0.029 0.235,-0.077 0.319,-0.132l-0.087,-0.039l0.279,0l-0.081,0.052c0.109,0.037 0.219,0.083 0.281,0.116l0.129,-0.059c-0.07,-0.031 -0.185,-0.075 -0.291,-0.109l0.17,0Z" style="fill:#fff;fill-rule:nonzero;"/></g><g transform="matrix(20,0,0,20,241.056,1124.19)"><path d="M0.484,-0.681l0.035,0l0,0.078l0.295,0c-0.017,0.112 -0.047,0.212 -0.086,0.298c-0.042,-0.088 -0.072,-0.189 -0.092,-0.296l-0.114,0.023c0.031,0.151 0.074,0.285 0.135,0.396c-0.049,0.068 -0.107,0.122 -0.173,0.159l0,-0.658Zm-0.257,0.408l0.142,0l0,0.09c-0.048,0.006 -0.096,0.013 -0.142,0.019l0,-0.109Zm0,-0.206l0.142,0l0,0.1l-0.142,0l0,-0.1Zm0.142,-0.202l0,0.095l-0.142,0l0,-0.095l0.142,0Zm0.498,-0.042l-0.02,0.003l-0.299,0l0,-0.071l-0.502,0l0,0.11l0.068,0l0,0.531c-0.034,0.004 -0.065,0.007 -0.092,0.01l0.023,0.119c0.092,-0.014 0.209,-0.032 0.324,-0.052l0,0.16l0.115,0l0,-0.094c0.024,0.024 0.051,0.061 0.066,0.087c0.068,-0.041 0.127,-0.091 0.178,-0.153c0.048,0.061 0.104,0.112 0.172,0.153c0.018,-0.031 0.055,-0.076 0.082,-0.098c-0.072,-0.039 -0.132,-0.095 -0.181,-0.162c0.075,-0.134 0.123,-0.306 0.144,-0.524l-0.078,-0.019Z" style="fill:#fff;fill-rule:nonzero;"/></g></g></g></svg>