<?xml version="1.0" encoding="UTF-8" standalone="no"?><!DOCTYPE svg PUBLIC "-//W3C//DTD SVG 1.1//EN" "http://www.w3.org/Graphics/SVG/1.1/DTD/svg11.dtd"><svg width="100%" height="100%" viewBox="0 0 70 80" version="1.1" xmlns="http://www.w3.org/2000/svg" xmlns:xlink="http://www.w3.org/1999/xlink" xml:space="preserve" xmlns:serif="http://www.serif.com/" style="fill-rule:evenodd;clip-rule:evenodd;stroke-linejoin:round;stroke-miterlimit:2;"><g><path d="M6.603,5.926l0,-5.926l-5.926,5.926l5.926,0Z" style="fill:#78a2a7;"/><path d="M6.603,0l63.131,0l0,79.91l-30.637,-5.836l-32.494,5.926l0,-80Z" style="fill:#45a8e1;"/><g transform="matrix(1,0,0,1,-202.947,-1064.63)"><g transform="matrix(20,0,0,20,221.056,1100.19)"><path d="M0.778,-0.337l0,0.249l-0.223,0l0,-0.302l0.307,0l0,-0.363l-0.125,0l0,0.247l-0.182,0l0,-0.331l-0.122,0l0,0.331l-0.172,0l0,-0.247l-0.118,0l0,0.363l0.29,0l0,0.302l-0.209,0l0,-0.249l-0.121,0l0,0.424l0.121,0l0,-0.058l0.554,0l0,0.057l0.124,0l0,-0.423l-0.124,0Z" style="fill:#fff;fill-rule:nonzero;"/></g><g transform="matrix(20,0,0,20,241.056,1100.19)"><path d="M0.868,-0.287c-0.022,0.028 -0.056,0.063 -0.09,0.093c-0.016,-0.029 -0.03,-0.062 -0.042,-0.096l0.231,0l0,-0.104l-0.387,0l0,-0.053l0.298,0l0,-0.083l-0.298,0l0,-0.05l0.298,0l0,-0.083l-0.298,0l0,-0.05l0.336,0l0,-0.1l-0.45,0l0,0.419l-0.071,0l0,0.031l-0.227,0c0.004,-0.032 0.008,-0.064 0.012,-0.097l0.2,0l0,-0.337l-0.324,0l0,0.109l0.216,0l0,0.118l-0.188,0c-0.009,0.107 -0.028,0.243 -0.045,0.33l0.111,0.012l0.004,-0.029l0.12,0c-0.01,0.145 -0.022,0.206 -0.037,0.225c-0.01,0.01 -0.02,0.012 -0.035,0.012c-0.019,0 -0.056,-0.001 -0.097,-0.004c0.019,0.03 0.032,0.077 0.034,0.111c0.047,0.001 0.094,0.001 0.12,-0.003c0.032,-0.004 0.056,-0.014 0.078,-0.039c0.029,-0.035 0.044,-0.132 0.058,-0.363l0,0.028l0.074,0l0,0.241l-0.079,0.009l0.018,0.111c0.09,-0.013 0.205,-0.029 0.314,-0.047l-0.005,-0.103c-0.045,0.006 -0.09,0.012 -0.134,0.017l0,-0.228l0.05,0c0.046,0.177 0.125,0.311 0.273,0.378c0.016,-0.032 0.051,-0.08 0.077,-0.104c-0.063,-0.023 -0.115,-0.06 -0.156,-0.108c0.043,-0.03 0.094,-0.07 0.139,-0.11l-0.098,-0.053Z" style="fill:#fff;fill-rule:nonzero;"/></g><g transform="matrix(20,0,0,20,221.056,1124.19)"><path d="M0.783,-0.648l-0.126,0l0,-0.069l0.126,0l0,0.069Zm-0.225,0l-0.121,0l0,-0.069l0.121,0l0,0.069Zm-0.22,0l-0.12,0l0,-0.069l0.12,0l0,0.069Zm0.56,-0.158l-0.79,0l0,0.246l0.79,0l0,-0.246Zm-0.616,0.601l0.438,0l0,0.05l-0.438,0l0,-0.05Zm0,-0.12l0.438,0l0,0.05l-0.438,0l0,-0.05Zm0,-0.119l0.438,0l0,0.049l-0.438,0l0,-0.049Zm0.563,0.364l0,-0.439l-0.683,0l0,0.439l0.154,0c-0.071,0.034 -0.18,0.066 -0.278,0.084c0.025,0.02 0.068,0.063 0.088,0.087c0.104,-0.029 0.235,-0.077 0.319,-0.132l-0.087,-0.039l0.279,0l-0.081,0.052c0.109,0.037 0.219,0.083 0.281,0.116l0.129,-0.059c-0.07,-0.031 -0.185,-0.075 -0.291,-0.109l0.17,0Z" style="fill:#fff;fill-rule:nonzero;"/></g><g transform="matrix(20,0,0,20,241.056,1124.19)"><path d="M0.484,-0.681l0.035,0l0,0.078l0.295,0c-0.017,0.112 -0.047,0.212 -0.086,0.298c-0.042,-0.088 -0.072,-0.189 -0.092,-0.296l-0.114,0.023c0.031,0.151 0.074,0.285 0.135,0.396c-0.049,0.068 -0.107,0.122 -0.173,0.159l0,-0.658Zm-0.257,0.408l0.142,0l0,0.09c-0.048,0.006 -0.096,0.013 -0.142,0.019l0,-0.109Zm0,-0.206l0.142,0l0,0.1l-0.142,0l0,-0.1Zm0.142,-0.202l0,0.095l-0.142,0l0,-0.095l0.142,0Zm0.498,-0.042l-0.02,0.003l-0.299,0l0,-0.071l-0.502,0l0,0.11l0.068,0l0,0.531c-0.034,0.004 -0.065,0.007 -0.092,0.01l0.023,0.119c0.092,-0.014 0.209,-0.032 0.324,-0.052l0,0.16l0.115,0l0,-0.094c0.024,0.024 0.051,0.061 0.066,0.087c0.068,-0.041 0.127,-0.091 0.178,-0.153c0.048,0.061 0.104,0.112 0.172,0.153c0.018,-0.031 0.055,-0.076 0.082,-0.098c-0.072,-0.039 -0.132,-0.095 -0.181,-0.162c0.075,-0.134 0.123,-0.306 0.144,-0.524l-0.078,-0.019Z" style="fill:#fff;fill-rule:nonzero;"/></g></g></g></svg>