<?xml version="1.0" encoding="UTF-8" standalone="no"?><!DOCTYPE svg PUBLIC "-//W3C//DTD SVG 1.1//EN" "http://www.w3.org/Graphics/SVG/1.1/DTD/svg11.dtd"><svg width="100%" height="100%" viewBox="0 0 70 80" version="1.1" xmlns="http://www.w3.org/2000/svg" xmlns:xlink="http://www.w3.org/1999/xlink" xml:space="preserve" xmlns:serif="http://www.serif.com/" style="fill-rule:evenodd;clip-rule:evenodd;stroke-linejoin:round;stroke-miterlimit:2;"><g><path d="M6.375,5.926l0,-5.926l-5.925,5.926l5.925,0Z" style="fill:#c4b6a6;"/><path d="M6.375,0l63.131,0l0,79.91l-30.637,-5.836l-32.494,5.926l0,-80Z" style="fill:#ff8a00;"/><g transform="matrix(1,0,0,1,-203.175,-1064.63)"><g transform="matrix(20,0,0,20,221.056,1100.19)"><path d="M0.194,-0.647l0.607,0l0,0.123l0.127,0l0,-0.235l-0.368,0l0,-0.087l-0.126,0l0,0.087l-0.361,0l0,0.235l0.121,0l0,-0.123Zm0.402,0.61c-0.059,0 -0.068,-0.006 -0.068,-0.051l0,-0.135l0.417,-0.044l-0.014,-0.11l-0.403,0.04l0,-0.112c0.091,-0.019 0.177,-0.043 0.25,-0.072l-0.093,-0.098c-0.128,0.055 -0.338,0.094 -0.533,0.117c0.014,0.027 0.031,0.074 0.035,0.104c0.068,-0.007 0.139,-0.016 0.21,-0.027l0,0.101l-0.345,0.034l0.014,0.115l0.331,-0.035l0,0.124c0,0.128 0.04,0.166 0.186,0.166l0.193,0c0.126,0 0.163,-0.045 0.179,-0.206c-0.036,-0.008 -0.091,-0.028 -0.118,-0.049c-0.008,0.117 -0.017,0.138 -0.071,0.138l-0.17,0Z" style="fill:#fff;fill-rule:nonzero;"/></g><g transform="matrix(20,0,0,20,241.056,1100.19)"><path d="M0.297,-0.626l-0.041,0l0,-0.08l0.041,0l0,0.08Zm0.089,0.276c-0.002,-0.001 -0.004,-0.003 -0.005,-0.004c-0.002,0.003 -0.004,0.003 -0.013,0.003l-0.018,0c-0.008,0 -0.009,-0.001 -0.009,-0.014l0,-0.162l0.045,0l0,0.177Zm-0.232,0.276l0,-0.068l0.232,0l0,0.068l-0.232,0Zm0.044,-0.453l0,0.078c0,0.045 -0.005,0.1 -0.044,0.143l0,-0.221l0.044,0Zm0.145,0.234l0.043,0l0,0.069l-0.232,0l0,-0.079c0.012,0.008 0.033,0.027 0.042,0.037c0.046,-0.052 0.056,-0.126 0.056,-0.182l0,-0.079l0.035,0l0,0.162c0,0.059 0.013,0.072 0.056,0.072Zm-0.299,-0.413l0.135,0l0,0.08l-0.116,0l0,0.707l0.091,0l0,-0.063l0.232,0l0,0.05l0.095,0l0,-0.694l-0.106,0l0,-0.08l0.124,0l0,-0.105l-0.454,0l-0.001,0.105Zm0.659,0.668c-0.039,0 -0.045,-0.005 -0.045,-0.047l0,-0.301l0.161,0l0,0.062l0.115,0l0,-0.478l-0.398,0l0,0.115l0.283,0l0,0.188l-0.279,0l0,0.415c0,0.123 0.035,0.157 0.146,0.157l0.139,0c0.103,0 0.135,-0.051 0.147,-0.22c-0.031,-0.007 -0.081,-0.028 -0.106,-0.047c-0.006,0.132 -0.012,0.156 -0.051,0.156l-0.112,0Z" style="fill:#fff;fill-rule:nonzero;"/></g><g transform="matrix(20,0,0,20,221.056,1124.19)"><path d="M0.783,-0.648l-0.126,0l0,-0.069l0.126,0l0,0.069Zm-0.225,0l-0.121,0l0,-0.069l0.121,0l0,0.069Zm-0.22,0l-0.12,0l0,-0.069l0.12,0l0,0.069Zm0.56,-0.158l-0.79,0l0,0.246l0.79,0l0,-0.246Zm-0.616,0.601l0.438,0l0,0.05l-0.438,0l0,-0.05Zm0,-0.12l0.438,0l0,0.05l-0.438,0l0,-0.05Zm0,-0.119l0.438,0l0,0.049l-0.438,0l0,-0.049Zm0.563,0.364l0,-0.439l-0.683,0l0,0.439l0.154,0c-0.071,0.034 -0.18,0.066 -0.278,0.084c0.025,0.02 0.068,0.063 0.088,0.087c0.104,-0.029 0.235,-0.077 0.319,-0.132l-0.087,-0.039l0.279,0l-0.081,0.052c0.109,0.037 0.219,0.083 0.281,0.116l0.129,-0.059c-0.07,-0.031 -0.185,-0.075 -0.291,-0.109l0.17,0Z" style="fill:#fff;fill-rule:nonzero;"/></g><g transform="matrix(20,0,0,20,241.056,1124.19)"><path d="M0.484,-0.681l0.035,0l0,0.078l0.295,0c-0.017,0.112 -0.047,0.212 -0.086,0.298c-0.042,-0.088 -0.072,-0.189 -0.092,-0.296l-0.114,0.023c0.031,0.151 0.074,0.285 0.135,0.396c-0.049,0.068 -0.107,0.122 -0.173,0.159l0,-0.658Zm-0.257,0.408l0.142,0l0,0.09c-0.048,0.006 -0.096,0.013 -0.142,0.019l0,-0.109Zm0,-0.206l0.142,0l0,0.1l-0.142,0l0,-0.1Zm0.142,-0.202l0,0.095l-0.142,0l0,-0.095l0.142,0Zm0.498,-0.042l-0.02,0.003l-0.299,0l0,-0.071l-0.502,0l0,0.11l0.068,0l0,0.531c-0.034,0.004 -0.065,0.007 -0.092,0.01l0.023,0.119c0.092,-0.014 0.209,-0.032 0.324,-0.052l0,0.16l0.115,0l0,-0.094c0.024,0.024 0.051,0.061 0.066,0.087c0.068,-0.041 0.127,-0.091 0.178,-0.153c0.048,0.061 0.104,0.112 0.172,0.153c0.018,-0.031 0.055,-0.076 0.082,-0.098c-0.072,-0.039 -0.132,-0.095 -0.181,-0.162c0.075,-0.134 0.123,-0.306 0.144,-0.524l-0.078,-0.019Z" style="fill:#fff;fill-rule:nonzero;"/></g></g></g></svg>