<?xml version="1.0" encoding="UTF-8" standalone="no"?><!DOCTYPE svg PUBLIC "-//W3C//DTD SVG 1.1//EN" "http://www.w3.org/Graphics/SVG/1.1/DTD/svg11.dtd"><svg width="100%" height="100%" viewBox="0 0 99 14" version="1.1" xmlns="http://www.w3.org/2000/svg" xmlns:xlink="http://www.w3.org/1999/xlink" xml:space="preserve" xmlns:serif="http://www.serif.com/" style="fill-rule:evenodd;clip-rule:evenodd;stroke-linejoin:round;stroke-miterlimit:2;"><path d="M2.147,8.417c0,1.657 0,3.079 -0.09,3.836c-0.072,0.522 -0.162,0.918 -0.522,0.99c-0.162,0.036 -0.378,0.072 -0.648,0.072c-0.216,0 -0.288,0.054 -0.288,0.143c0,0.125 0.126,0.179 0.36,0.179c0.72,0 1.853,-0.052 2.195,-0.052c0.27,0 1.601,0.052 2.646,0.052c0.234,0 0.36,-0.054 0.36,-0.179c0,-0.089 -0.072,-0.143 -0.216,-0.143c-0.216,0 -0.613,-0.036 -0.883,-0.072c-0.54,-0.072 -0.648,-0.468 -0.702,-0.99c-0.09,-0.757 -0.09,-2.179 -0.09,-3.854l0,-0.252c0,-0.108 0.054,-0.144 0.144,-0.144l1.567,0.036c0.126,0 0.234,0.018 0.324,0.126c0.234,0.27 1.063,1.494 1.783,2.485c1.007,1.386 1.69,2.233 2.464,2.647c0.468,0.25 0.918,0.34 1.926,0.34l1.71,0c0.216,0 0.342,-0.036 0.342,-0.179c0,-0.089 -0.072,-0.143 -0.216,-0.143c-0.144,0 -0.306,-0.018 -0.504,-0.054c-0.27,-0.054 -1.008,-0.18 -2.016,-1.225c-1.062,-1.116 -2.303,-2.719 -3.904,-4.733c1.816,-1.476 2.374,-2.701 2.374,-4.033c0,-1.207 -0.719,-2.125 -1.223,-2.467c-0.971,-0.665 -2.178,-0.772 -3.312,-0.772c-0.559,0 -1.927,0.052 -2.538,0.052c-0.378,0 -1.511,-0.052 -2.465,-0.052c-0.27,0 -0.396,0.036 -0.396,0.161c0,0.125 0.108,0.161 0.306,0.161c0.252,0 0.558,0.018 0.702,0.054c0.594,0.126 0.738,0.414 0.774,1.026c0.036,0.576 0.036,1.08 0.036,3.817l0,3.167Zm2.122,-7.218c0,-0.144 0.036,-0.216 0.162,-0.252c0.18,-0.054 0.504,-0.072 0.955,-0.072c1.062,0 2.755,0.738 2.755,3.295c0,1.476 -0.522,2.305 -1.062,2.701c-0.325,0.234 -0.559,0.306 -1.279,0.306c-0.45,0 -0.991,-0.054 -1.369,-0.18c-0.126,-0.054 -0.162,-0.126 -0.162,-0.324l0,-5.474Z" style="fill:#da172b;fill-rule:nonzero;"/><path d="M21.586,9.785c0.072,0 0.126,0.018 0.162,0.108l1.224,3.08c0.072,0.18 -0.036,0.324 -0.144,0.342c-0.162,0.018 -0.198,0.072 -0.198,0.161c0,0.107 0.18,0.107 0.468,0.125c1.331,0.036 2.483,0.036 3.041,0.036c0.594,0 0.684,-0.036 0.684,-0.161c0,-0.107 -0.072,-0.161 -0.216,-0.161c-0.18,0 -0.36,-0.018 -0.594,-0.054c-0.288,-0.072 -0.738,-0.269 -1.35,-1.649c-1.008,-2.312 -3.653,-8.575 -4.031,-9.421c-0.162,-0.342 -0.234,-0.486 -0.468,-0.486c-0.162,0 -0.288,0.18 -0.468,0.612l-4.139,9.629c-0.324,0.775 -0.594,1.243 -1.314,1.351c-0.144,0 -0.324,0.018 -0.468,0.018c-0.126,0 -0.18,0.072 -0.18,0.161c0,0.125 0.09,0.161 0.288,0.161c0.828,0 1.674,-0.052 1.836,-0.052c0.504,0 1.242,0.052 1.763,0.052c0.162,0 0.252,-0.036 0.252,-0.161c0,-0.089 -0.036,-0.161 -0.234,-0.161l-0.233,0c-0.486,0 -0.63,-0.162 -0.63,-0.432c0,-0.18 0.072,-0.559 0.234,-0.937l0.845,-2.053c0.036,-0.09 0.054,-0.108 0.144,-0.108l3.726,0Zm-3.402,-0.844c-0.054,0 -0.09,-0.036 -0.054,-0.108l1.53,-3.87c0.018,-0.054 0.036,-0.146 0.09,-0.146c0.036,0 0.054,0.092 0.072,0.146l1.494,3.888c0.018,0.054 0,0.09 -0.072,0.09l-3.06,0Z" style="fill:#da172b;fill-rule:nonzero;"/><path d="M31.161,5.303l0.054,0c0.306,0.27 1.979,2.125 3.706,3.781c1.655,1.601 3.633,3.491 4.623,4.409c0.163,0.162 0.38,0.324 0.65,0.324c0.127,0 0.253,-0.144 0.253,-0.486l0.18,-9.648c0.018,-0.864 0.144,-1.134 0.576,-1.26c0.198,-0.054 0.324,-0.054 0.486,-0.054c0.18,0 0.27,-0.072 0.27,-0.161c0,-0.125 -0.144,-0.143 -0.36,-0.143c-0.774,0 -1.368,0.034 -1.549,0.034c-0.343,0 -1.19,-0.034 -2.017,-0.034c-0.234,0 -0.396,0.018 -0.396,0.143c0,0.089 0.054,0.161 0.252,0.161c0.216,0 0.593,0 0.827,0.09c0.378,0.144 0.522,0.414 0.54,1.35l0.162,6.804l-0.072,0c-0.234,-0.216 -2.339,-2.376 -3.418,-3.438c-2.303,-2.248 -4.677,-4.678 -4.875,-4.876c-0.269,-0.27 -0.485,-0.504 -0.682,-0.504c-0.162,0 -0.27,0.216 -0.27,0.522l-0.144,9.072c-0.018,1.332 -0.072,1.746 -0.486,1.854c-0.216,0.054 -0.504,0.072 -0.72,0.072c-0.144,0 -0.252,0.072 -0.252,0.161c0,0.143 0.144,0.161 0.36,0.161c0.81,0 1.565,-0.052 1.709,-0.052c0.288,0 1.025,0.052 2.05,0.052c0.216,0 0.36,-0.036 0.36,-0.161c0,-0.089 -0.09,-0.161 -0.27,-0.161c-0.252,0 -0.558,-0.018 -0.828,-0.108c-0.305,-0.108 -0.503,-0.468 -0.539,-1.656l-0.18,-6.248Z" style="fill:#da172b;fill-rule:nonzero;"/><path d="M49.359,6.493c0,-2.323 0,-2.756 0.018,-3.242c0.036,-0.54 0.162,-0.756 0.594,-0.828c0.198,-0.036 0.288,-0.054 0.45,-0.054c0.126,0 0.216,-0.054 0.216,-0.161c0,-0.107 -0.108,-0.143 -0.342,-0.143c-0.522,0 -1.655,0.034 -2.033,0.034c-0.378,0 -1.385,-0.034 -2.213,-0.034c-0.234,0 -0.36,0.036 -0.36,0.143c0,0.107 0.108,0.161 0.27,0.161c0.234,0 0.504,0.018 0.63,0.054c0.504,0.144 0.648,0.306 0.684,0.828c0.018,0.486 0.018,0.919 0.018,3.242l0,2.698c0,1.405 0,2.611 -0.072,3.26c-0.054,0.45 -0.144,0.738 -0.468,0.81c-0.144,0.036 -0.324,0.054 -0.558,0.054c-0.198,0 -0.252,0.089 -0.252,0.161c0,0.107 0.108,0.161 0.306,0.161c0.63,0 1.637,-0.052 1.997,-0.052c0.396,0 1.529,0.052 2.411,0.052c0.18,0 0.306,-0.054 0.306,-0.161c0,-0.072 -0.09,-0.161 -0.216,-0.161c-0.198,0 -0.558,-0.018 -0.774,-0.054c-0.396,-0.072 -0.54,-0.36 -0.576,-0.792c-0.036,-0.667 -0.036,-1.873 -0.036,-3.278l0,-1.386l0.072,0l0.162,0.216c0.342,0.468 3.384,3.997 4.068,4.592c0.684,0.594 1.206,0.917 2.052,0.988c0.342,0.036 0.63,0.036 1.098,0.036l1.386,0c0.288,0 0.378,-0.054 0.378,-0.161c0,-0.089 -0.09,-0.161 -0.216,-0.161c-0.18,0 -0.504,0 -0.972,-0.198c-0.846,-0.342 -1.458,-1.008 -2.16,-1.639c-0.612,-0.576 -3.726,-3.817 -4.284,-4.535c0.486,-0.558 2.844,-2.791 3.348,-3.26c0.666,-0.63 1.17,-0.954 1.674,-1.134c0.288,-0.108 0.684,-0.18 0.918,-0.18c0.144,0 0.234,-0.054 0.234,-0.161c0,-0.107 -0.108,-0.143 -0.27,-0.143c-0.486,0 -1.368,0.034 -1.854,0.034c-0.432,0 -1.296,-0.034 -1.638,-0.034c-0.162,0 -0.252,0.036 -0.252,0.143c0,0.089 0.072,0.125 0.216,0.161c0.144,0.036 0.216,0.144 0.216,0.306c0,0.27 -0.342,0.63 -0.792,1.134c-0.468,0.523 -2.772,2.792 -3.312,3.368l-0.072,0l0,-0.684Z" style="fill:#da172b;fill-rule:nonzero;"/><path d="M61.421,9.192c0,1.476 0,2.701 -0.072,3.331c-0.054,0.45 -0.144,0.666 -0.468,0.738c-0.144,0.036 -0.324,0.054 -0.558,0.054c-0.198,0 -0.252,0.089 -0.252,0.161c0,0.107 0.108,0.161 0.306,0.161c0.63,0 1.709,-0.052 2.069,-0.052c0.432,0 1.511,0.052 2.555,0.052c0.18,0 0.306,-0.054 0.306,-0.161c0,-0.072 -0.072,-0.161 -0.252,-0.161c-0.234,0 -0.594,-0.018 -0.81,-0.054c-0.468,-0.072 -0.576,-0.306 -0.63,-0.72c-0.072,-0.648 -0.072,-1.873 -0.072,-3.349l0,-2.7c0,-2.323 0,-2.755 0.036,-3.241c0.036,-0.54 0.162,-0.756 0.594,-0.828c0.18,-0.036 0.306,-0.054 0.468,-0.054c0.162,0 0.252,-0.036 0.252,-0.179c0,-0.089 -0.126,-0.125 -0.324,-0.125c-0.612,0 -1.637,0.034 -2.033,0.034c-0.45,0 -1.529,-0.034 -2.123,-0.034c-0.252,0 -0.378,0.036 -0.378,0.125c0,0.143 0.09,0.179 0.252,0.179c0.198,0 0.396,0.018 0.576,0.072c0.342,0.108 0.504,0.288 0.54,0.81c0.018,0.486 0.018,0.918 0.018,3.241l0,2.7Z" style="fill:#da172b;fill-rule:nonzero;"/><path d="M71.355,5.303l0.054,0c0.306,0.27 1.979,2.125 3.706,3.781c1.655,1.601 3.633,3.491 4.623,4.409c0.163,0.162 0.38,0.324 0.65,0.324c0.127,0 0.253,-0.144 0.253,-0.486l0.18,-9.648c0.018,-0.864 0.144,-1.134 0.576,-1.26c0.198,-0.054 0.324,-0.054 0.486,-0.054c0.18,0 0.27,-0.072 0.27,-0.161c0,-0.125 -0.144,-0.143 -0.36,-0.143c-0.774,0 -1.368,0.034 -1.549,0.034c-0.343,0 -1.19,-0.034 -2.017,-0.034c-0.234,0 -0.396,0.018 -0.396,0.143c0,0.089 0.054,0.161 0.252,0.161c0.216,0 0.593,0 0.827,0.09c0.378,0.144 0.522,0.414 0.54,1.35l0.162,6.804l-0.072,0c-0.234,-0.216 -2.339,-2.376 -3.418,-3.438c-2.303,-2.248 -4.677,-4.678 -4.875,-4.876c-0.269,-0.27 -0.485,-0.504 -0.682,-0.504c-0.162,0 -0.27,0.216 -0.27,0.522l-0.144,9.072c-0.018,1.332 -0.072,1.746 -0.486,1.854c-0.216,0.054 -0.504,0.072 -0.72,0.072c-0.144,0 -0.252,0.072 -0.252,0.161c0,0.143 0.144,0.161 0.36,0.161c0.81,0 1.565,-0.052 1.709,-0.052c0.288,0 1.025,0.052 2.05,0.052c0.216,0 0.36,-0.036 0.36,-0.161c0,-0.089 -0.09,-0.161 -0.27,-0.161c-0.252,0 -0.558,-0.018 -0.828,-0.108c-0.305,-0.108 -0.503,-0.468 -0.539,-1.656l-0.18,-6.248Z" style="fill:#da172b;fill-rule:nonzero;"/><path d="M96.969,10.92c0,-0.756 0,-1.369 0.018,-1.837c0.018,-0.54 0.18,-0.756 0.612,-0.828c0.18,-0.036 0.306,-0.054 0.432,-0.054c0.108,0 0.198,-0.072 0.198,-0.161c0,-0.125 -0.108,-0.143 -0.324,-0.143c-0.522,0 -1.35,0.034 -1.853,0.034c-0.468,0 -1.601,-0.034 -2.429,-0.034c-0.216,0 -0.342,0.018 -0.342,0.143c0,0.089 0.108,0.161 0.252,0.161c0.216,0 0.486,0.018 0.612,0.054c0.504,0.144 0.666,0.306 0.684,0.828c0.018,0.468 0.018,1.045 0.018,1.801l0,1.405c0,0.27 -0.072,0.432 -0.306,0.54c-0.378,0.162 -0.702,0.162 -1.116,0.162c-3.385,0 -5.51,-2.395 -5.51,-5.688c0,-1.873 0.576,-3.008 1.458,-3.728c1.099,-0.882 2.197,-0.9 3.061,-0.9c1.783,0 2.971,0.684 3.438,1.17c0.414,0.432 0.504,0.919 0.539,1.261c0.018,0.126 0.054,0.198 0.162,0.198c0.126,0 0.216,-0.108 0.216,-0.342c0,-1.927 0.108,-2.341 0.108,-2.521c0,-0.107 -0.036,-0.161 -0.216,-0.179c-0.377,-0.018 -0.935,-0.108 -1.258,-0.162c-0.324,-0.071 -1.71,-0.251 -2.809,-0.251c-1.332,0 -2.755,0.108 -4.267,0.988c-1.457,0.846 -2.77,2.557 -2.77,5.006c0,4.23 3.436,5.992 7.325,5.992c1.243,0 2.808,-0.162 3.869,-0.682c0.198,-0.108 0.198,-0.126 0.198,-0.54l0,-1.693Z" style="fill:#da172b;fill-rule:nonzero;"/></svg>